G04 #@! TF.GenerationSoftware,KiCad,Pcbnew,5.0.2-bee76a0~70~ubuntu16.04.1*
G04 #@! TF.CreationDate,2020-05-09T17:59:02-07:00*
G04 #@! TF.ProjectId,sunrise-board,73756e72-6973-4652-9d62-6f6172642e6b,v1*
G04 #@! TF.SameCoordinates,Original*
G04 #@! TF.FileFunction,Copper,L1,Top*
G04 #@! TF.FilePolarity,Positive*
%FSLAX46Y46*%
G04 Gerber Fmt 4.6, Leading zero omitted, Abs format (unit mm)*
G04 Created by KiCad (PCBNEW 5.0.2-bee76a0~70~ubuntu16.04.1) date Sat 09 May 2020 05:59:02 PM PDT*
%MOMM*%
%LPD*%
G01*
G04 APERTURE LIST*
G04 #@! TA.AperFunction,BGAPad,CuDef*
%ADD10C,10.160000*%
G04 #@! TD*
G04 #@! TA.AperFunction,ComponentPad*
%ADD11C,2.286000*%
G04 #@! TD*
G04 #@! TA.AperFunction,ComponentPad*
%ADD12C,1.700000*%
G04 #@! TD*
G04 #@! TA.AperFunction,ComponentPad*
%ADD13C,1.000000*%
G04 #@! TD*
G04 #@! TA.AperFunction,SMDPad,CuDef*
%ADD14R,2.200000X6.500000*%
G04 #@! TD*
G04 #@! TA.AperFunction,ComponentPad*
%ADD15R,1.200000X1.200000*%
G04 #@! TD*
G04 #@! TA.AperFunction,ComponentPad*
%ADD16R,1.600000X1.600000*%
G04 #@! TD*
G04 #@! TA.AperFunction,ComponentPad*
%ADD17O,1.600000X1.600000*%
G04 #@! TD*
G04 #@! TA.AperFunction,ComponentPad*
%ADD18C,1.500000*%
G04 #@! TD*
G04 #@! TA.AperFunction,ComponentPad*
%ADD19R,1.500000X1.500000*%
G04 #@! TD*
G04 #@! TA.AperFunction,ComponentPad*
%ADD20C,1.600000*%
G04 #@! TD*
G04 #@! TA.AperFunction,ComponentPad*
%ADD21R,1.905000X2.000000*%
G04 #@! TD*
G04 #@! TA.AperFunction,ComponentPad*
%ADD22O,1.905000X2.000000*%
G04 #@! TD*
G04 #@! TA.AperFunction,ComponentPad*
%ADD23R,1.700000X1.700000*%
G04 #@! TD*
G04 #@! TA.AperFunction,ComponentPad*
%ADD24O,1.700000X1.700000*%
G04 #@! TD*
G04 #@! TA.AperFunction,ComponentPad*
%ADD25R,3.500000X3.500000*%
G04 #@! TD*
G04 #@! TA.AperFunction,Conductor*
%ADD26C,0.101600*%
G04 #@! TD*
G04 #@! TA.AperFunction,ComponentPad*
%ADD27C,3.000000*%
G04 #@! TD*
G04 #@! TA.AperFunction,ComponentPad*
%ADD28C,3.500000*%
G04 #@! TD*
G04 #@! TA.AperFunction,ComponentPad*
%ADD29R,1.800000X1.800000*%
G04 #@! TD*
G04 #@! TA.AperFunction,ComponentPad*
%ADD30C,1.800000*%
G04 #@! TD*
G04 #@! TA.AperFunction,ComponentPad*
%ADD31C,1.200000*%
G04 #@! TD*
G04 #@! TA.AperFunction,ComponentPad*
%ADD32C,2.000000*%
G04 #@! TD*
G04 #@! TA.AperFunction,Conductor*
%ADD33C,0.254000*%
G04 #@! TD*
G04 #@! TA.AperFunction,Conductor*
%ADD34C,1.066800*%
G04 #@! TD*
G04 APERTURE END LIST*
D10*
G04 #@! TO.P,BT1,2*
G04 #@! TO.N,GND*
X131826000Y-135890000D03*
D11*
G04 #@! TO.P,BT1,1*
G04 #@! TO.N,Net-(BT1-Pad1)*
X130302000Y-142494000D03*
X133350000Y-142494000D03*
X130302000Y-129286000D03*
X133350000Y-129286000D03*
G04 #@! TD*
D12*
G04 #@! TO.P,Y2,1*
G04 #@! TO.N,Net-(U3-Pad10)*
X131318000Y-113030000D03*
G04 #@! TO.P,Y2,2*
G04 #@! TO.N,GND*
X131318000Y-110530000D03*
G04 #@! TO.P,Y2,3*
G04 #@! TO.N,Net-(U3-Pad9)*
X131318000Y-108030000D03*
G04 #@! TD*
D13*
G04 #@! TO.P,Y1,1*
G04 #@! TO.N,Net-(U2-Pad1)*
X148844000Y-133096000D03*
G04 #@! TO.P,Y1,2*
G04 #@! TO.N,Net-(U2-Pad2)*
X146944000Y-133096000D03*
D14*
G04 #@! TO.P,Y1,3*
G04 #@! TO.N,N/C*
X147894000Y-127346000D03*
D15*
X149394000Y-127346000D03*
X146394000Y-127346000D03*
G04 #@! TD*
D16*
G04 #@! TO.P,U3,1*
G04 #@! TO.N,RESET*
X134620000Y-88646000D03*
D17*
G04 #@! TO.P,U3,15*
G04 #@! TO.N,LED_CTL_B*
X142240000Y-121666000D03*
G04 #@! TO.P,U3,2*
G04 #@! TO.N,RXI*
X134620000Y-91186000D03*
G04 #@! TO.P,U3,16*
G04 #@! TO.N,D10*
X142240000Y-119126000D03*
G04 #@! TO.P,U3,3*
G04 #@! TO.N,TXO*
X134620000Y-93726000D03*
G04 #@! TO.P,U3,17*
G04 #@! TO.N,MOSI*
X142240000Y-116586000D03*
G04 #@! TO.P,U3,4*
G04 #@! TO.N,D2*
X134620000Y-96266000D03*
G04 #@! TO.P,U3,18*
G04 #@! TO.N,MISO*
X142240000Y-114046000D03*
G04 #@! TO.P,U3,5*
G04 #@! TO.N,LED_CTL_R*
X134620000Y-98806000D03*
G04 #@! TO.P,U3,19*
G04 #@! TO.N,SCK*
X142240000Y-111506000D03*
G04 #@! TO.P,U3,6*
G04 #@! TO.N,D4*
X134620000Y-101346000D03*
G04 #@! TO.P,U3,20*
G04 #@! TO.N,VCC*
X142240000Y-108966000D03*
G04 #@! TO.P,U3,7*
X134620000Y-103886000D03*
G04 #@! TO.P,U3,21*
G04 #@! TO.N,Net-(C4-Pad1)*
X142240000Y-106426000D03*
G04 #@! TO.P,U3,8*
G04 #@! TO.N,GND*
X134620000Y-106426000D03*
G04 #@! TO.P,U3,22*
X142240000Y-103886000D03*
G04 #@! TO.P,U3,9*
G04 #@! TO.N,Net-(U3-Pad9)*
X134620000Y-108966000D03*
G04 #@! TO.P,U3,23*
G04 #@! TO.N,A0*
X142240000Y-101346000D03*
G04 #@! TO.P,U3,10*
G04 #@! TO.N,Net-(U3-Pad10)*
X134620000Y-111506000D03*
G04 #@! TO.P,U3,24*
G04 #@! TO.N,A1*
X142240000Y-98806000D03*
G04 #@! TO.P,U3,11*
G04 #@! TO.N,D5*
X134620000Y-114046000D03*
G04 #@! TO.P,U3,25*
G04 #@! TO.N,A2*
X142240000Y-96266000D03*
G04 #@! TO.P,U3,12*
G04 #@! TO.N,LED_CTL_G*
X134620000Y-116586000D03*
G04 #@! TO.P,U3,26*
G04 #@! TO.N,A3*
X142240000Y-93726000D03*
G04 #@! TO.P,U3,13*
G04 #@! TO.N,D7*
X134620000Y-119126000D03*
G04 #@! TO.P,U3,27*
G04 #@! TO.N,SDA*
X142240000Y-91186000D03*
G04 #@! TO.P,U3,14*
G04 #@! TO.N,D8*
X134620000Y-121666000D03*
G04 #@! TO.P,U3,28*
G04 #@! TO.N,SCL*
X142240000Y-88646000D03*
G04 #@! TD*
D16*
G04 #@! TO.P,U2,1*
G04 #@! TO.N,Net-(U2-Pad1)*
X149098000Y-135382000D03*
D17*
G04 #@! TO.P,U2,5*
G04 #@! TO.N,SDA*
X141478000Y-143002000D03*
G04 #@! TO.P,U2,2*
G04 #@! TO.N,Net-(U2-Pad2)*
X146558000Y-135382000D03*
G04 #@! TO.P,U2,6*
G04 #@! TO.N,SCL*
X144018000Y-143002000D03*
G04 #@! TO.P,U2,3*
G04 #@! TO.N,Net-(BT1-Pad1)*
X144018000Y-135382000D03*
G04 #@! TO.P,U2,7*
G04 #@! TO.N,Net-(U2-Pad7)*
X146558000Y-143002000D03*
G04 #@! TO.P,U2,4*
G04 #@! TO.N,GND*
X141478000Y-135382000D03*
G04 #@! TO.P,U2,8*
G04 #@! TO.N,VCC*
X149098000Y-143002000D03*
G04 #@! TD*
D18*
G04 #@! TO.P,U1,2*
G04 #@! TO.N,GND*
X131826000Y-67056000D03*
G04 #@! TO.P,U1,3*
G04 #@! TO.N,VCC*
X129286000Y-67056000D03*
D19*
G04 #@! TO.P,U1,1*
G04 #@! TO.N,RAW*
X134366000Y-67056000D03*
G04 #@! TD*
D20*
G04 #@! TO.P,R8,1*
G04 #@! TO.N,VCC*
X145288000Y-80010000D03*
D17*
G04 #@! TO.P,R8,2*
G04 #@! TO.N,RESET*
X145288000Y-87630000D03*
G04 #@! TD*
G04 #@! TO.P,R7,2*
G04 #@! TO.N,Net-(D2-Pad1)*
X143002000Y-124714000D03*
D20*
G04 #@! TO.P,R7,1*
G04 #@! TO.N,GND*
X143002000Y-132334000D03*
G04 #@! TD*
G04 #@! TO.P,R6,1*
G04 #@! TO.N,VCC*
X131572000Y-125222000D03*
D17*
G04 #@! TO.P,R6,2*
G04 #@! TO.N,SCL*
X131572000Y-117602000D03*
G04 #@! TD*
G04 #@! TO.P,R5,2*
G04 #@! TO.N,SDA*
X139446000Y-124714000D03*
D20*
G04 #@! TO.P,R5,1*
G04 #@! TO.N,VCC*
X139446000Y-132334000D03*
G04 #@! TD*
D17*
G04 #@! TO.P,R4,2*
G04 #@! TO.N,GND*
X135128000Y-71628000D03*
D20*
G04 #@! TO.P,R4,1*
G04 #@! TO.N,Net-(D1-Pad1)*
X127508000Y-71628000D03*
G04 #@! TD*
D17*
G04 #@! TO.P,R3,2*
G04 #@! TO.N,GND*
X131826000Y-85344000D03*
D20*
G04 #@! TO.P,R3,1*
G04 #@! TO.N,LED_CTL_B*
X131826000Y-77724000D03*
G04 #@! TD*
D17*
G04 #@! TO.P,R2,2*
G04 #@! TO.N,GND*
X128524000Y-85344000D03*
D20*
G04 #@! TO.P,R2,1*
G04 #@! TO.N,LED_CTL_G*
X128524000Y-77724000D03*
G04 #@! TD*
G04 #@! TO.P,R1,1*
G04 #@! TO.N,LED_CTL_R*
X135128000Y-74930000D03*
D17*
G04 #@! TO.P,R1,2*
G04 #@! TO.N,GND*
X127508000Y-74930000D03*
G04 #@! TD*
D21*
G04 #@! TO.P,Q3,1*
G04 #@! TO.N,LED_CTL_B*
X139192000Y-76962000D03*
D22*
G04 #@! TO.P,Q3,2*
G04 #@! TO.N,LED_B*
X141732000Y-76962000D03*
G04 #@! TO.P,Q3,3*
G04 #@! TO.N,GND*
X144272000Y-76962000D03*
G04 #@! TD*
G04 #@! TO.P,Q2,3*
G04 #@! TO.N,GND*
X144272000Y-71628000D03*
G04 #@! TO.P,Q2,2*
G04 #@! TO.N,LED_G*
X141732000Y-71628000D03*
D21*
G04 #@! TO.P,Q2,1*
G04 #@! TO.N,LED_CTL_G*
X139192000Y-71628000D03*
G04 #@! TD*
G04 #@! TO.P,Q1,1*
G04 #@! TO.N,LED_CTL_R*
X139192000Y-66294000D03*
D22*
G04 #@! TO.P,Q1,2*
G04 #@! TO.N,LED_R*
X141732000Y-66294000D03*
G04 #@! TO.P,Q1,3*
G04 #@! TO.N,GND*
X144272000Y-66294000D03*
G04 #@! TD*
D23*
G04 #@! TO.P,J6,1*
G04 #@! TO.N,SDA*
X127000000Y-124460000D03*
D24*
G04 #@! TO.P,J6,2*
G04 #@! TO.N,SCL*
X127000000Y-121920000D03*
G04 #@! TD*
D23*
G04 #@! TO.P,J5,1*
G04 #@! TO.N,RAW*
X149860000Y-76200000D03*
D24*
G04 #@! TO.P,J5,2*
G04 #@! TO.N,LED_R*
X149860000Y-78740000D03*
G04 #@! TO.P,J5,3*
G04 #@! TO.N,LED_G*
X149860000Y-81280000D03*
G04 #@! TO.P,J5,4*
G04 #@! TO.N,LED_B*
X149860000Y-83820000D03*
G04 #@! TD*
G04 #@! TO.P,J4,12*
G04 #@! TO.N,D10*
X149860000Y-116840000D03*
G04 #@! TO.P,J4,11*
G04 #@! TO.N,MOSI*
X149860000Y-114300000D03*
G04 #@! TO.P,J4,10*
G04 #@! TO.N,MISO*
X149860000Y-111760000D03*
G04 #@! TO.P,J4,9*
G04 #@! TO.N,SCK*
X149860000Y-109220000D03*
G04 #@! TO.P,J4,8*
G04 #@! TO.N,A0*
X149860000Y-106680000D03*
G04 #@! TO.P,J4,7*
G04 #@! TO.N,A1*
X149860000Y-104140000D03*
G04 #@! TO.P,J4,6*
G04 #@! TO.N,A2*
X149860000Y-101600000D03*
G04 #@! TO.P,J4,5*
G04 #@! TO.N,A3*
X149860000Y-99060000D03*
G04 #@! TO.P,J4,4*
G04 #@! TO.N,VCC*
X149860000Y-96520000D03*
G04 #@! TO.P,J4,3*
G04 #@! TO.N,RESET*
X149860000Y-93980000D03*
G04 #@! TO.P,J4,2*
G04 #@! TO.N,GND*
X149860000Y-91440000D03*
D23*
G04 #@! TO.P,J4,1*
G04 #@! TO.N,RAW*
X149860000Y-88900000D03*
G04 #@! TD*
G04 #@! TO.P,J3,1*
G04 #@! TO.N,GND*
X139700000Y-50800000D03*
D24*
G04 #@! TO.P,J3,2*
X137160000Y-50800000D03*
G04 #@! TO.P,J3,3*
G04 #@! TO.N,VCC*
X134620000Y-50800000D03*
G04 #@! TO.P,J3,4*
G04 #@! TO.N,RXI*
X132080000Y-50800000D03*
G04 #@! TO.P,J3,5*
G04 #@! TO.N,TXO*
X129540000Y-50800000D03*
G04 #@! TO.P,J3,6*
G04 #@! TO.N,DTR*
X127000000Y-50800000D03*
G04 #@! TD*
D23*
G04 #@! TO.P,J2,1*
G04 #@! TO.N,TXO*
X127000000Y-88900000D03*
D24*
G04 #@! TO.P,J2,2*
G04 #@! TO.N,RXI*
X127000000Y-91440000D03*
G04 #@! TO.P,J2,3*
G04 #@! TO.N,RESET*
X127000000Y-93980000D03*
G04 #@! TO.P,J2,4*
G04 #@! TO.N,GND*
X127000000Y-96520000D03*
G04 #@! TO.P,J2,5*
G04 #@! TO.N,D2*
X127000000Y-99060000D03*
G04 #@! TO.P,J2,6*
G04 #@! TO.N,LED_R*
X127000000Y-101600000D03*
G04 #@! TO.P,J2,7*
G04 #@! TO.N,D4*
X127000000Y-104140000D03*
G04 #@! TO.P,J2,8*
G04 #@! TO.N,D5*
X127000000Y-106680000D03*
G04 #@! TO.P,J2,9*
G04 #@! TO.N,LED_G*
X127000000Y-109220000D03*
G04 #@! TO.P,J2,10*
G04 #@! TO.N,D7*
X127000000Y-111760000D03*
G04 #@! TO.P,J2,11*
G04 #@! TO.N,D8*
X127000000Y-114300000D03*
G04 #@! TO.P,J2,12*
G04 #@! TO.N,LED_B*
X127000000Y-116840000D03*
G04 #@! TD*
D25*
G04 #@! TO.P,J1,1*
G04 #@! TO.N,RAW*
X146558000Y-59944000D03*
D26*
G04 #@! TD*
G04 #@! TO.N,GND*
G04 #@! TO.C,J1*
G36*
X147631513Y-52447611D02*
X147704318Y-52458411D01*
X147775714Y-52476295D01*
X147845013Y-52501090D01*
X147911548Y-52532559D01*
X147974678Y-52570398D01*
X148033795Y-52614242D01*
X148088330Y-52663670D01*
X148137758Y-52718205D01*
X148181602Y-52777322D01*
X148219441Y-52840452D01*
X148250910Y-52906987D01*
X148275705Y-52976286D01*
X148293589Y-53047682D01*
X148304389Y-53120487D01*
X148308000Y-53194000D01*
X148308000Y-54694000D01*
X148304389Y-54767513D01*
X148293589Y-54840318D01*
X148275705Y-54911714D01*
X148250910Y-54981013D01*
X148219441Y-55047548D01*
X148181602Y-55110678D01*
X148137758Y-55169795D01*
X148088330Y-55224330D01*
X148033795Y-55273758D01*
X147974678Y-55317602D01*
X147911548Y-55355441D01*
X147845013Y-55386910D01*
X147775714Y-55411705D01*
X147704318Y-55429589D01*
X147631513Y-55440389D01*
X147558000Y-55444000D01*
X145558000Y-55444000D01*
X145484487Y-55440389D01*
X145411682Y-55429589D01*
X145340286Y-55411705D01*
X145270987Y-55386910D01*
X145204452Y-55355441D01*
X145141322Y-55317602D01*
X145082205Y-55273758D01*
X145027670Y-55224330D01*
X144978242Y-55169795D01*
X144934398Y-55110678D01*
X144896559Y-55047548D01*
X144865090Y-54981013D01*
X144840295Y-54911714D01*
X144822411Y-54840318D01*
X144811611Y-54767513D01*
X144808000Y-54694000D01*
X144808000Y-53194000D01*
X144811611Y-53120487D01*
X144822411Y-53047682D01*
X144840295Y-52976286D01*
X144865090Y-52906987D01*
X144896559Y-52840452D01*
X144934398Y-52777322D01*
X144978242Y-52718205D01*
X145027670Y-52663670D01*
X145082205Y-52614242D01*
X145141322Y-52570398D01*
X145204452Y-52532559D01*
X145270987Y-52501090D01*
X145340286Y-52476295D01*
X145411682Y-52458411D01*
X145484487Y-52447611D01*
X145558000Y-52444000D01*
X147558000Y-52444000D01*
X147631513Y-52447611D01*
X147631513Y-52447611D01*
G37*
D27*
G04 #@! TO.P,J1,2*
G04 #@! TO.N,GND*
X146558000Y-53944000D03*
D26*
G04 #@! TD*
G04 #@! TO.N,N/C*
G04 #@! TO.C,J1*
G36*
X142818765Y-55198213D02*
X142903704Y-55210813D01*
X142986999Y-55231677D01*
X143067848Y-55260605D01*
X143145472Y-55297319D01*
X143219124Y-55341464D01*
X143288094Y-55392616D01*
X143351718Y-55450282D01*
X143409384Y-55513906D01*
X143460536Y-55582876D01*
X143504681Y-55656528D01*
X143541395Y-55734152D01*
X143570323Y-55815001D01*
X143591187Y-55898296D01*
X143603787Y-55983235D01*
X143608000Y-56069000D01*
X143608000Y-57819000D01*
X143603787Y-57904765D01*
X143591187Y-57989704D01*
X143570323Y-58072999D01*
X143541395Y-58153848D01*
X143504681Y-58231472D01*
X143460536Y-58305124D01*
X143409384Y-58374094D01*
X143351718Y-58437718D01*
X143288094Y-58495384D01*
X143219124Y-58546536D01*
X143145472Y-58590681D01*
X143067848Y-58627395D01*
X142986999Y-58656323D01*
X142903704Y-58677187D01*
X142818765Y-58689787D01*
X142733000Y-58694000D01*
X140983000Y-58694000D01*
X140897235Y-58689787D01*
X140812296Y-58677187D01*
X140729001Y-58656323D01*
X140648152Y-58627395D01*
X140570528Y-58590681D01*
X140496876Y-58546536D01*
X140427906Y-58495384D01*
X140364282Y-58437718D01*
X140306616Y-58374094D01*
X140255464Y-58305124D01*
X140211319Y-58231472D01*
X140174605Y-58153848D01*
X140145677Y-58072999D01*
X140124813Y-57989704D01*
X140112213Y-57904765D01*
X140108000Y-57819000D01*
X140108000Y-56069000D01*
X140112213Y-55983235D01*
X140124813Y-55898296D01*
X140145677Y-55815001D01*
X140174605Y-55734152D01*
X140211319Y-55656528D01*
X140255464Y-55582876D01*
X140306616Y-55513906D01*
X140364282Y-55450282D01*
X140427906Y-55392616D01*
X140496876Y-55341464D01*
X140570528Y-55297319D01*
X140648152Y-55260605D01*
X140729001Y-55231677D01*
X140812296Y-55210813D01*
X140897235Y-55198213D01*
X140983000Y-55194000D01*
X142733000Y-55194000D01*
X142818765Y-55198213D01*
X142818765Y-55198213D01*
G37*
D28*
G04 #@! TO.P,J1,3*
G04 #@! TO.N,N/C*
X141858000Y-56944000D03*
G04 #@! TD*
D29*
G04 #@! TO.P,D2,1*
G04 #@! TO.N,Net-(D2-Pad1)*
X148082000Y-121158000D03*
D30*
G04 #@! TO.P,D2,2*
G04 #@! TO.N,SCK*
X145542000Y-121158000D03*
G04 #@! TD*
G04 #@! TO.P,D1,2*
G04 #@! TO.N,VCC*
X135128000Y-56896000D03*
D29*
G04 #@! TO.P,D1,1*
G04 #@! TO.N,Net-(D1-Pad1)*
X137668000Y-56896000D03*
G04 #@! TD*
D20*
G04 #@! TO.P,C6,2*
G04 #@! TO.N,DTR*
X127588000Y-54356000D03*
G04 #@! TO.P,C6,1*
G04 #@! TO.N,RESET*
X132588000Y-54356000D03*
G04 #@! TD*
G04 #@! TO.P,C5,1*
G04 #@! TO.N,VCC*
X145288000Y-104394000D03*
G04 #@! TO.P,C5,2*
G04 #@! TO.N,GND*
X145288000Y-99394000D03*
G04 #@! TD*
G04 #@! TO.P,C4,1*
G04 #@! TO.N,Net-(C4-Pad1)*
X145288000Y-111760000D03*
G04 #@! TO.P,C4,2*
G04 #@! TO.N,GND*
X145288000Y-106760000D03*
G04 #@! TD*
G04 #@! TO.P,C3,2*
G04 #@! TO.N,GND*
X127588000Y-57658000D03*
G04 #@! TO.P,C3,1*
G04 #@! TO.N,VCC*
X132588000Y-57658000D03*
G04 #@! TD*
D31*
G04 #@! TO.P,C2,2*
G04 #@! TO.N,GND*
X129262000Y-62230000D03*
D15*
G04 #@! TO.P,C2,1*
G04 #@! TO.N,VCC*
X127762000Y-62230000D03*
G04 #@! TD*
G04 #@! TO.P,C1,1*
G04 #@! TO.N,RAW*
X134366000Y-62230000D03*
D31*
G04 #@! TO.P,C1,2*
G04 #@! TO.N,GND*
X132866000Y-62230000D03*
G04 #@! TD*
D32*
G04 #@! TO.P,SW1,2*
G04 #@! TO.N,RESET*
X135232000Y-84836000D03*
G04 #@! TO.P,SW1,1*
G04 #@! TO.N,GND*
X135232000Y-80336000D03*
G04 #@! TO.P,SW1,2*
G04 #@! TO.N,RESET*
X141732000Y-84836000D03*
G04 #@! TO.P,SW1,1*
G04 #@! TO.N,GND*
X141732000Y-80336000D03*
G04 #@! TD*
D33*
G04 #@! TO.N,Net-(BT1-Pad1)*
X131918446Y-142494000D02*
X133350000Y-142494000D01*
X130302000Y-142494000D02*
X131918446Y-142494000D01*
X130302000Y-129286000D02*
X133350000Y-129286000D01*
X136906000Y-142494000D02*
X133350000Y-142494000D01*
X144018000Y-135382000D02*
X136906000Y-142494000D01*
X134492999Y-130428999D02*
X133350000Y-129286000D01*
X140627001Y-136563001D02*
X134492999Y-130428999D01*
X142836999Y-136563001D02*
X140627001Y-136563001D01*
X144018000Y-135382000D02*
X142836999Y-136563001D01*
D34*
G04 #@! TO.N,RAW*
X149860000Y-86983200D02*
X149860000Y-88900000D01*
X148222599Y-85345799D02*
X149860000Y-86983200D01*
X148222599Y-77837401D02*
X148222599Y-85345799D01*
X149860000Y-76200000D02*
X148222599Y-77837401D01*
D33*
G04 #@! TO.N,VCC*
X127762000Y-65532000D02*
X129286000Y-67056000D01*
X127762000Y-62230000D02*
X127762000Y-65532000D01*
X148298001Y-142202001D02*
X149098000Y-143002000D01*
X145376999Y-134993117D02*
X145376999Y-139280999D01*
X144584881Y-134200999D02*
X145376999Y-134993117D01*
X145376999Y-139280999D02*
X148298001Y-142202001D01*
X141312999Y-134200999D02*
X144584881Y-134200999D01*
X139446000Y-132334000D02*
X141312999Y-134200999D01*
X132588000Y-70358000D02*
X133604000Y-70358000D01*
X129286000Y-67056000D02*
X132588000Y-70358000D01*
X133604000Y-70358000D02*
X136144000Y-67818000D01*
X146087999Y-79210001D02*
X145288000Y-80010000D01*
X146087999Y-66176632D02*
X146087999Y-79210001D01*
X144824357Y-64912990D02*
X146087999Y-66176632D01*
X137934708Y-64912990D02*
X144824357Y-64912990D01*
X136144000Y-66703698D02*
X137934708Y-64912990D01*
X136144000Y-67818000D02*
X136144000Y-66703698D01*
X133858000Y-125222000D02*
X139446000Y-130810000D01*
X139446000Y-130810000D02*
X139446000Y-132334000D01*
X131572000Y-125222000D02*
X133858000Y-125222000D01*
G04 #@! TO.N,Net-(C4-Pad1)*
X143039999Y-107225999D02*
X142240000Y-106426000D01*
X143421001Y-107607001D02*
X143039999Y-107225999D01*
X145288000Y-110628630D02*
X143421001Y-108761631D01*
X143421001Y-108761631D02*
X143421001Y-107607001D01*
X145288000Y-111760000D02*
X145288000Y-110628630D01*
G04 #@! TO.N,DTR*
X127000000Y-53768000D02*
X127588000Y-54356000D01*
X127000000Y-50800000D02*
X127000000Y-53768000D01*
G04 #@! TO.N,RESET*
X136646213Y-84836000D02*
X141732000Y-84836000D01*
X135232000Y-84836000D02*
X136646213Y-84836000D01*
X142494000Y-84836000D02*
X141732000Y-84836000D01*
X145288000Y-87630000D02*
X142494000Y-84836000D01*
X145288000Y-89408000D02*
X149860000Y-93980000D01*
X145288000Y-87630000D02*
X145288000Y-89408000D01*
X135186881Y-94907001D02*
X136309010Y-93784872D01*
X136309010Y-89281010D02*
X135674000Y-88646000D01*
X130642999Y-94907001D02*
X135186881Y-94907001D01*
X136309010Y-93784872D02*
X136309010Y-89281010D01*
X128865999Y-93130001D02*
X130642999Y-94907001D01*
X127849999Y-93130001D02*
X128865999Y-93130001D01*
X135674000Y-88646000D02*
X134620000Y-88646000D01*
X127000000Y-93980000D02*
X127849999Y-93130001D01*
X146087999Y-86830001D02*
X145288000Y-87630000D01*
X139726990Y-56469188D02*
X139726990Y-59097189D01*
X146596009Y-65966208D02*
X146596009Y-86321991D01*
X139726990Y-59097189D02*
X146596009Y-65966208D01*
X137613802Y-54356000D02*
X139726990Y-56469188D01*
X146596009Y-86321991D02*
X146087999Y-86830001D01*
X132588000Y-54356000D02*
X137613802Y-54356000D01*
G04 #@! TO.N,Net-(D2-Pad1)*
X144526000Y-124714000D02*
X143002000Y-124714000D01*
X148082000Y-121158000D02*
X144526000Y-124714000D01*
G04 #@! TO.N,SCK*
X143675001Y-112941001D02*
X143039999Y-112305999D01*
X149010001Y-110293881D02*
X146362881Y-112941001D01*
X143039999Y-112305999D02*
X142240000Y-111506000D01*
X149010001Y-110069999D02*
X149010001Y-110293881D01*
X146362881Y-112941001D02*
X143675001Y-112941001D01*
X149860000Y-109220000D02*
X149010001Y-110069999D01*
X141440001Y-112305999D02*
X142240000Y-111506000D01*
X141058999Y-112687001D02*
X141440001Y-112305999D01*
X141058999Y-119692881D02*
X141058999Y-112687001D01*
X144269208Y-121158000D02*
X143507208Y-120396000D01*
X141762118Y-120396000D02*
X141058999Y-119692881D01*
X143507208Y-120396000D02*
X141762118Y-120396000D01*
X145542000Y-121158000D02*
X144269208Y-121158000D01*
G04 #@! TO.N,TXO*
X128104000Y-88900000D02*
X127000000Y-88900000D01*
X135801001Y-90081001D02*
X135547001Y-89827001D01*
X135801001Y-92544999D02*
X135801001Y-90081001D01*
X129031001Y-89827001D02*
X128104000Y-88900000D01*
X135547001Y-89827001D02*
X129031001Y-89827001D01*
X134620000Y-93726000D02*
X135801001Y-92544999D01*
X127000000Y-87796000D02*
X127000000Y-88900000D01*
X126272989Y-87068989D02*
X127000000Y-87796000D01*
X126272989Y-56861011D02*
X126272989Y-87068989D01*
X127596999Y-55537001D02*
X126272989Y-56861011D01*
X128154881Y-55537001D02*
X127596999Y-55537001D01*
X129540000Y-54151882D02*
X128154881Y-55537001D01*
X129540000Y-50800000D02*
X129540000Y-54151882D01*
G04 #@! TO.N,RXI*
X127254000Y-91186000D02*
X127000000Y-91440000D01*
X134620000Y-91186000D02*
X127254000Y-91186000D01*
G04 #@! TO.N,D2*
X129794000Y-96266000D02*
X127000000Y-99060000D01*
X134620000Y-96266000D02*
X129794000Y-96266000D01*
G04 #@! TO.N,D4*
X129794000Y-101346000D02*
X127000000Y-104140000D01*
X134620000Y-101346000D02*
X129794000Y-101346000D01*
G04 #@! TO.N,D5*
X127849999Y-107529999D02*
X127000000Y-106680000D01*
X128231001Y-107911001D02*
X127849999Y-107529999D01*
X128231001Y-112018883D02*
X128231001Y-107911001D01*
X131058117Y-114845999D02*
X128231001Y-112018883D01*
X133820001Y-114845999D02*
X131058117Y-114845999D01*
X134620000Y-114046000D02*
X133820001Y-114845999D01*
G04 #@! TO.N,D7*
X131348118Y-119126000D02*
X133488630Y-119126000D01*
X130390999Y-118168881D02*
X131348118Y-119126000D01*
X130390999Y-115150999D02*
X130390999Y-118168881D01*
X133488630Y-119126000D02*
X134620000Y-119126000D01*
X127000000Y-111760000D02*
X130390999Y-115150999D01*
G04 #@! TO.N,D8*
X133488630Y-121666000D02*
X134620000Y-121666000D01*
X128231001Y-116727317D02*
X133169684Y-121666000D01*
X133169684Y-121666000D02*
X133488630Y-121666000D01*
X128231001Y-115531001D02*
X128231001Y-116727317D01*
X127000000Y-114300000D02*
X128231001Y-115531001D01*
G04 #@! TO.N,D10*
X147574000Y-119126000D02*
X149860000Y-116840000D01*
X142240000Y-119126000D02*
X147574000Y-119126000D01*
G04 #@! TO.N,MOSI*
X147574000Y-116586000D02*
X149860000Y-114300000D01*
X142240000Y-116586000D02*
X147574000Y-116586000D01*
G04 #@! TO.N,MISO*
X147574000Y-114046000D02*
X149860000Y-111760000D01*
X142240000Y-114046000D02*
X147574000Y-114046000D01*
G04 #@! TO.N,A0*
X144526000Y-101346000D02*
X142240000Y-101346000D01*
X149860000Y-106680000D02*
X144526000Y-101346000D01*
G04 #@! TO.N,A1*
X146557991Y-100837991D02*
X144271991Y-100837991D01*
X143039999Y-99605999D02*
X142240000Y-98806000D01*
X144271991Y-100837991D02*
X143039999Y-99605999D01*
X149860000Y-104140000D02*
X146557991Y-100837991D01*
G04 #@! TO.N,A2*
X143371370Y-96266000D02*
X142240000Y-96266000D01*
X144415882Y-96266000D02*
X143371370Y-96266000D01*
X148899883Y-100750001D02*
X144415882Y-96266000D01*
X149010001Y-100750001D02*
X148899883Y-100750001D01*
X149860000Y-101600000D02*
X149010001Y-100750001D01*
G04 #@! TO.N,A3*
X144526000Y-93726000D02*
X142240000Y-93726000D01*
X149860000Y-99060000D02*
X144526000Y-93726000D01*
G04 #@! TO.N,SDA*
X138646001Y-123914001D02*
X139446000Y-124714000D01*
X128649999Y-123914001D02*
X138646001Y-123914001D01*
X128104000Y-124460000D02*
X128649999Y-123914001D01*
X127000000Y-124460000D02*
X128104000Y-124460000D01*
G04 #@! TO.N,LED_CTL_R*
X139192000Y-67548000D02*
X139192000Y-66294000D01*
X137858499Y-68881501D02*
X139192000Y-67548000D01*
X137858499Y-72199501D02*
X137858499Y-68881501D01*
X135128000Y-74930000D02*
X137858499Y-72199501D01*
G04 #@! TO.N,LED_CTL_G*
X129323999Y-76924001D02*
X128524000Y-77724000D01*
X129705001Y-76542999D02*
X129323999Y-76924001D01*
X135531001Y-76542999D02*
X129705001Y-76542999D01*
X139192000Y-72882000D02*
X135531001Y-76542999D01*
X139192000Y-71628000D02*
X139192000Y-72882000D01*
X135419999Y-115786001D02*
X134620000Y-116586000D01*
X136817020Y-114388980D02*
X135419999Y-115786001D01*
X136817020Y-88557218D02*
X136817020Y-114388980D01*
X132199117Y-87464999D02*
X135724801Y-87464999D01*
X135724801Y-87464999D02*
X136817020Y-88557218D01*
X130644999Y-85910881D02*
X132199117Y-87464999D01*
X128524000Y-78855370D02*
X130644999Y-80976369D01*
X130644999Y-80976369D02*
X130644999Y-85910881D01*
X128524000Y-77724000D02*
X128524000Y-78855370D01*
G04 #@! TO.N,LED_CTL_B*
X132957370Y-77724000D02*
X131826000Y-77724000D01*
X137223500Y-77724000D02*
X132957370Y-77724000D01*
X137985500Y-76962000D02*
X137223500Y-77724000D01*
X139192000Y-76962000D02*
X137985500Y-76962000D01*
X137325029Y-88346793D02*
X135195237Y-86217001D01*
X131826000Y-78855370D02*
X131826000Y-77724000D01*
X135195237Y-86217001D02*
X134569119Y-86217001D01*
X131826000Y-83473882D02*
X131826000Y-78855370D01*
X142240000Y-121666000D02*
X137325030Y-116751030D01*
X137325030Y-116751030D02*
X137325029Y-88346793D01*
X134569119Y-86217001D02*
X131826000Y-83473882D01*
G04 #@! TO.N,Net-(U2-Pad1)*
X148844000Y-135128000D02*
X149098000Y-135382000D01*
X148844000Y-133096000D02*
X148844000Y-135128000D01*
G04 #@! TO.N,Net-(U2-Pad2)*
X146944000Y-134996000D02*
X146558000Y-135382000D01*
X146944000Y-133096000D02*
X146944000Y-134996000D01*
G04 #@! TO.N,Net-(U3-Pad9)*
X133684000Y-108030000D02*
X134620000Y-108966000D01*
X131318000Y-108030000D02*
X133684000Y-108030000D01*
G04 #@! TO.N,Net-(U3-Pad10)*
X133096000Y-113030000D02*
X134620000Y-111506000D01*
X131318000Y-113030000D02*
X133096000Y-113030000D01*
G04 #@! TD*
G04 #@! TO.N,GND*
G36*
X136309021Y-114178558D02*
X135096166Y-115391414D01*
X135025132Y-115462448D01*
X134736318Y-115405000D01*
X134503682Y-115405000D01*
X134159197Y-115473522D01*
X133768547Y-115734547D01*
X133507522Y-116125197D01*
X133415863Y-116586000D01*
X133507522Y-117046803D01*
X133768547Y-117437453D01*
X134159197Y-117698478D01*
X134503682Y-117767000D01*
X134736318Y-117767000D01*
X135080803Y-117698478D01*
X135471453Y-117437453D01*
X135732478Y-117046803D01*
X135824137Y-116586000D01*
X135743552Y-116180868D01*
X135814586Y-116109834D01*
X136817031Y-115107390D01*
X136817031Y-116700997D01*
X136807079Y-116751030D01*
X136846505Y-116949241D01*
X136930442Y-117074862D01*
X136930445Y-117074865D01*
X136958784Y-117117277D01*
X137001196Y-117145616D01*
X141116448Y-121260869D01*
X141035863Y-121666000D01*
X141127522Y-122126803D01*
X141388547Y-122517453D01*
X141779197Y-122778478D01*
X142123682Y-122847000D01*
X142356318Y-122847000D01*
X142700803Y-122778478D01*
X143091453Y-122517453D01*
X143352478Y-122126803D01*
X143444137Y-121666000D01*
X143352478Y-121205197D01*
X143151224Y-120904000D01*
X143296788Y-120904000D01*
X143874622Y-121481835D01*
X143902961Y-121524247D01*
X143945373Y-121552586D01*
X143945375Y-121552588D01*
X144070996Y-121636525D01*
X144219176Y-121666000D01*
X144219180Y-121666000D01*
X144269208Y-121675951D01*
X144319236Y-121666000D01*
X144365876Y-121666000D01*
X144456021Y-121883628D01*
X144816372Y-122243979D01*
X145287193Y-122439000D01*
X145796807Y-122439000D01*
X146267628Y-122243979D01*
X146627979Y-121883628D01*
X146793536Y-121483939D01*
X146793536Y-121728044D01*
X144315580Y-124206000D01*
X144082942Y-124206000D01*
X143853453Y-123862547D01*
X143462803Y-123601522D01*
X143118318Y-123533000D01*
X142885682Y-123533000D01*
X142541197Y-123601522D01*
X142150547Y-123862547D01*
X141889522Y-124253197D01*
X141797863Y-124714000D01*
X141889522Y-125174803D01*
X142150547Y-125565453D01*
X142541197Y-125826478D01*
X142885682Y-125895000D01*
X143118318Y-125895000D01*
X143462803Y-125826478D01*
X143853453Y-125565453D01*
X144082942Y-125222000D01*
X144475972Y-125222000D01*
X144526000Y-125231951D01*
X144576028Y-125222000D01*
X144576032Y-125222000D01*
X144724212Y-125192525D01*
X144892247Y-125080247D01*
X144920588Y-125037832D01*
X147511956Y-122446464D01*
X148982000Y-122446464D01*
X149130659Y-122416894D01*
X149256686Y-122332686D01*
X149340894Y-122206659D01*
X149370464Y-122058000D01*
X149370464Y-120258000D01*
X149340894Y-120109341D01*
X149256686Y-119983314D01*
X149130659Y-119899106D01*
X148982000Y-119869536D01*
X147182000Y-119869536D01*
X147033341Y-119899106D01*
X146907314Y-119983314D01*
X146823106Y-120109341D01*
X146793536Y-120258000D01*
X146793536Y-120832061D01*
X146627979Y-120432372D01*
X146267628Y-120072021D01*
X145796807Y-119877000D01*
X145287193Y-119877000D01*
X144816372Y-120072021D01*
X144456021Y-120432372D01*
X144399194Y-120569565D01*
X143901795Y-120072167D01*
X143873455Y-120029753D01*
X143705420Y-119917475D01*
X143557240Y-119888000D01*
X143557236Y-119888000D01*
X143507208Y-119878049D01*
X143457180Y-119888000D01*
X143151224Y-119888000D01*
X143320942Y-119634000D01*
X147523972Y-119634000D01*
X147574000Y-119643951D01*
X147624028Y-119634000D01*
X147624032Y-119634000D01*
X147772212Y-119604525D01*
X147940247Y-119492247D01*
X147968588Y-119449832D01*
X149412348Y-118006073D01*
X149738761Y-118071000D01*
X149981239Y-118071000D01*
X150340312Y-117999576D01*
X150736301Y-117734985D01*
X150736301Y-144386300D01*
X126123700Y-144386300D01*
X126123700Y-137007210D01*
X126925235Y-139042142D01*
X127038359Y-139211444D01*
X127729172Y-139807223D01*
X131646395Y-135890000D01*
X127729172Y-131972777D01*
X127038359Y-132568556D01*
X126131735Y-134653537D01*
X126123700Y-135113343D01*
X126123700Y-125693233D01*
X126150000Y-125698464D01*
X127850000Y-125698464D01*
X127998659Y-125668894D01*
X128124686Y-125584686D01*
X128208894Y-125458659D01*
X128238464Y-125310000D01*
X128238464Y-124951205D01*
X128302212Y-124938525D01*
X128470247Y-124826247D01*
X128498588Y-124783832D01*
X128860420Y-124422001D01*
X130701813Y-124422001D01*
X130570797Y-124553017D01*
X130391000Y-124987085D01*
X130391000Y-125456915D01*
X130570797Y-125890983D01*
X130903017Y-126223203D01*
X131337085Y-126403000D01*
X131806915Y-126403000D01*
X132240983Y-126223203D01*
X132573203Y-125890983D01*
X132639884Y-125730000D01*
X133647580Y-125730000D01*
X138938000Y-131020420D01*
X138938000Y-131266115D01*
X138777017Y-131332797D01*
X138444797Y-131665017D01*
X138265000Y-132099085D01*
X138265000Y-132568915D01*
X138444797Y-133002983D01*
X138777017Y-133335203D01*
X139211085Y-133515000D01*
X139680915Y-133515000D01*
X139841898Y-133448318D01*
X140637717Y-134244137D01*
X140325611Y-134526866D01*
X140086086Y-135032959D01*
X140207370Y-135254998D01*
X140043000Y-135254998D01*
X140043000Y-135260579D01*
X134887589Y-130105169D01*
X134887587Y-130105166D01*
X134726840Y-129944419D01*
X134874000Y-129589142D01*
X134874000Y-128982858D01*
X134641985Y-128422723D01*
X134213277Y-127994015D01*
X133653142Y-127762000D01*
X133046858Y-127762000D01*
X132486723Y-127994015D01*
X132058015Y-128422723D01*
X131910855Y-128778000D01*
X131741145Y-128778000D01*
X131593985Y-128422723D01*
X131165277Y-127994015D01*
X130605142Y-127762000D01*
X129998858Y-127762000D01*
X129438723Y-127994015D01*
X129010015Y-128422723D01*
X128778000Y-128982858D01*
X128778000Y-129589142D01*
X129010015Y-130149277D01*
X129438723Y-130577985D01*
X129574819Y-130634358D01*
X128673858Y-130989235D01*
X128504556Y-131102359D01*
X127908777Y-131793172D01*
X131826000Y-135710395D01*
X131840143Y-135696253D01*
X132019748Y-135875858D01*
X132005605Y-135890000D01*
X135922828Y-139807223D01*
X136613641Y-139211444D01*
X137520265Y-137126463D01*
X137559989Y-134853242D01*
X137144838Y-133799258D01*
X140232415Y-136886836D01*
X140260754Y-136929248D01*
X140303166Y-136957587D01*
X140303168Y-136957589D01*
X140428789Y-137041526D01*
X140576969Y-137071001D01*
X140576973Y-137071001D01*
X140627001Y-137080952D01*
X140677029Y-137071001D01*
X141610578Y-137071001D01*
X136695580Y-141986000D01*
X134789145Y-141986000D01*
X134641985Y-141630723D01*
X134213277Y-141202015D01*
X134077181Y-141145642D01*
X134978142Y-140790765D01*
X135147444Y-140677641D01*
X135743223Y-139986828D01*
X131826000Y-136069605D01*
X127908777Y-139986828D01*
X128504556Y-140677641D01*
X129577896Y-141144368D01*
X129438723Y-141202015D01*
X129010015Y-141630723D01*
X128778000Y-142190858D01*
X128778000Y-142797142D01*
X129010015Y-143357277D01*
X129438723Y-143785985D01*
X129998858Y-144018000D01*
X130605142Y-144018000D01*
X131165277Y-143785985D01*
X131593985Y-143357277D01*
X131741145Y-143002000D01*
X131910855Y-143002000D01*
X132058015Y-143357277D01*
X132486723Y-143785985D01*
X133046858Y-144018000D01*
X133653142Y-144018000D01*
X134213277Y-143785985D01*
X134641985Y-143357277D01*
X134789145Y-143002000D01*
X136855972Y-143002000D01*
X136906000Y-143011951D01*
X136956028Y-143002000D01*
X136956032Y-143002000D01*
X140273863Y-143002000D01*
X140365522Y-143462803D01*
X140626547Y-143853453D01*
X141017197Y-144114478D01*
X141361682Y-144183000D01*
X141594318Y-144183000D01*
X141938803Y-144114478D01*
X142329453Y-143853453D01*
X142590478Y-143462803D01*
X142682137Y-143002000D01*
X142813863Y-143002000D01*
X142905522Y-143462803D01*
X143166547Y-143853453D01*
X143557197Y-144114478D01*
X143901682Y-144183000D01*
X144134318Y-144183000D01*
X144478803Y-144114478D01*
X144869453Y-143853453D01*
X145130478Y-143462803D01*
X145222137Y-143002000D01*
X145353863Y-143002000D01*
X145445522Y-143462803D01*
X145706547Y-143853453D01*
X146097197Y-144114478D01*
X146441682Y-144183000D01*
X146674318Y-144183000D01*
X147018803Y-144114478D01*
X147409453Y-143853453D01*
X147670478Y-143462803D01*
X147762137Y-143002000D01*
X147670478Y-142541197D01*
X147409453Y-142150547D01*
X147018803Y-141889522D01*
X146674318Y-141821000D01*
X146441682Y-141821000D01*
X146097197Y-141889522D01*
X145706547Y-142150547D01*
X145445522Y-142541197D01*
X145353863Y-143002000D01*
X145222137Y-143002000D01*
X145130478Y-142541197D01*
X144869453Y-142150547D01*
X144478803Y-141889522D01*
X144134318Y-141821000D01*
X143901682Y-141821000D01*
X143557197Y-141889522D01*
X143166547Y-142150547D01*
X142905522Y-142541197D01*
X142813863Y-143002000D01*
X142682137Y-143002000D01*
X142590478Y-142541197D01*
X142329453Y-142150547D01*
X141938803Y-141889522D01*
X141594318Y-141821000D01*
X141361682Y-141821000D01*
X141017197Y-141889522D01*
X140626547Y-142150547D01*
X140365522Y-142541197D01*
X140273863Y-143002000D01*
X136956032Y-143002000D01*
X137104212Y-142972525D01*
X137272247Y-142860247D01*
X137300588Y-142817832D01*
X143160834Y-136957587D01*
X143203246Y-136929248D01*
X143231585Y-136886836D01*
X143612869Y-136505552D01*
X143901682Y-136563000D01*
X144134318Y-136563000D01*
X144478803Y-136494478D01*
X144868999Y-136233756D01*
X144869000Y-139230966D01*
X144859048Y-139280999D01*
X144898474Y-139479210D01*
X144982411Y-139604831D01*
X144982414Y-139604834D01*
X145010753Y-139647246D01*
X145053165Y-139675585D01*
X147974168Y-142596589D01*
X147974171Y-142596591D01*
X147974448Y-142596868D01*
X147893863Y-143002000D01*
X147985522Y-143462803D01*
X148246547Y-143853453D01*
X148637197Y-144114478D01*
X148981682Y-144183000D01*
X149214318Y-144183000D01*
X149558803Y-144114478D01*
X149949453Y-143853453D01*
X150210478Y-143462803D01*
X150302137Y-143002000D01*
X150210478Y-142541197D01*
X149949453Y-142150547D01*
X149558803Y-141889522D01*
X149214318Y-141821000D01*
X148981682Y-141821000D01*
X148692868Y-141878448D01*
X148692591Y-141878171D01*
X148692589Y-141878168D01*
X145884999Y-139070579D01*
X145884999Y-136352691D01*
X146097197Y-136494478D01*
X146441682Y-136563000D01*
X146674318Y-136563000D01*
X147018803Y-136494478D01*
X147409453Y-136233453D01*
X147670478Y-135842803D01*
X147762137Y-135382000D01*
X147670478Y-134921197D01*
X147452000Y-134594223D01*
X147452000Y-134582000D01*
X147909536Y-134582000D01*
X147909536Y-136182000D01*
X147939106Y-136330659D01*
X148023314Y-136456686D01*
X148149341Y-136540894D01*
X148298000Y-136570464D01*
X149898000Y-136570464D01*
X150046659Y-136540894D01*
X150172686Y-136456686D01*
X150256894Y-136330659D01*
X150286464Y-136182000D01*
X150286464Y-134582000D01*
X150256894Y-134433341D01*
X150172686Y-134307314D01*
X150046659Y-134223106D01*
X149898000Y-134193536D01*
X149352000Y-134193536D01*
X149352000Y-133833923D01*
X149590876Y-133595047D01*
X149725000Y-133271242D01*
X149725000Y-132920758D01*
X149590876Y-132596953D01*
X149343047Y-132349124D01*
X149019242Y-132215000D01*
X148668758Y-132215000D01*
X148344953Y-132349124D01*
X148097124Y-132596953D01*
X147963000Y-132920758D01*
X147963000Y-133271242D01*
X148097124Y-133595047D01*
X148336000Y-133833923D01*
X148336001Y-134193536D01*
X148298000Y-134193536D01*
X148149341Y-134223106D01*
X148023314Y-134307314D01*
X147939106Y-134433341D01*
X147909536Y-134582000D01*
X147452000Y-134582000D01*
X147452000Y-133833923D01*
X147690876Y-133595047D01*
X147825000Y-133271242D01*
X147825000Y-132920758D01*
X147690876Y-132596953D01*
X147443047Y-132349124D01*
X147119242Y-132215000D01*
X146768758Y-132215000D01*
X146444953Y-132349124D01*
X146197124Y-132596953D01*
X146063000Y-132920758D01*
X146063000Y-133271242D01*
X146197124Y-133595047D01*
X146436000Y-133833923D01*
X146436001Y-134202130D01*
X146097197Y-134269522D01*
X145706547Y-134530547D01*
X145677028Y-134574725D01*
X144979468Y-133877166D01*
X144951128Y-133834752D01*
X144783093Y-133722474D01*
X144634913Y-133692999D01*
X144634909Y-133692999D01*
X144584881Y-133683048D01*
X144534853Y-133692999D01*
X143502187Y-133692999D01*
X143756005Y-133587864D01*
X143830139Y-133341745D01*
X143002000Y-132513605D01*
X142173861Y-133341745D01*
X142247995Y-133587864D01*
X142540492Y-133692999D01*
X141523419Y-133692999D01*
X140560318Y-132729898D01*
X140627000Y-132568915D01*
X140627000Y-132117223D01*
X141555035Y-132117223D01*
X141582222Y-132687454D01*
X141748136Y-133088005D01*
X141994255Y-133162139D01*
X142822395Y-132334000D01*
X143181605Y-132334000D01*
X144009745Y-133162139D01*
X144255864Y-133088005D01*
X144448965Y-132550777D01*
X144421778Y-131980546D01*
X144255864Y-131579995D01*
X144009745Y-131505861D01*
X143181605Y-132334000D01*
X142822395Y-132334000D01*
X141994255Y-131505861D01*
X141748136Y-131579995D01*
X141555035Y-132117223D01*
X140627000Y-132117223D01*
X140627000Y-132099085D01*
X140447203Y-131665017D01*
X140114983Y-131332797D01*
X140099190Y-131326255D01*
X142173861Y-131326255D01*
X143002000Y-132154395D01*
X143830139Y-131326255D01*
X143756005Y-131080136D01*
X143218777Y-130887035D01*
X142648546Y-130914222D01*
X142247995Y-131080136D01*
X142173861Y-131326255D01*
X140099190Y-131326255D01*
X139954000Y-131266116D01*
X139954000Y-130860027D01*
X139963951Y-130809999D01*
X139954000Y-130759969D01*
X139954000Y-130759968D01*
X139924525Y-130611788D01*
X139812247Y-130443753D01*
X139769833Y-130415413D01*
X136100420Y-126746000D01*
X145405536Y-126746000D01*
X145405536Y-127946000D01*
X145435106Y-128094659D01*
X145519314Y-128220686D01*
X145645341Y-128304894D01*
X145794000Y-128334464D01*
X146405536Y-128334464D01*
X146405536Y-130596000D01*
X146435106Y-130744659D01*
X146519314Y-130870686D01*
X146645341Y-130954894D01*
X146794000Y-130984464D01*
X148994000Y-130984464D01*
X149142659Y-130954894D01*
X149268686Y-130870686D01*
X149352894Y-130744659D01*
X149382464Y-130596000D01*
X149382464Y-128334464D01*
X149994000Y-128334464D01*
X150142659Y-128304894D01*
X150268686Y-128220686D01*
X150352894Y-128094659D01*
X150382464Y-127946000D01*
X150382464Y-126746000D01*
X150352894Y-126597341D01*
X150268686Y-126471314D01*
X150142659Y-126387106D01*
X149994000Y-126357536D01*
X149382464Y-126357536D01*
X149382464Y-124096000D01*
X149352894Y-123947341D01*
X149268686Y-123821314D01*
X149142659Y-123737106D01*
X148994000Y-123707536D01*
X146794000Y-123707536D01*
X146645341Y-123737106D01*
X146519314Y-123821314D01*
X146435106Y-123947341D01*
X146405536Y-124096000D01*
X146405536Y-126357536D01*
X145794000Y-126357536D01*
X145645341Y-126387106D01*
X145519314Y-126471314D01*
X145435106Y-126597341D01*
X145405536Y-126746000D01*
X136100420Y-126746000D01*
X134252588Y-124898168D01*
X134224247Y-124855753D01*
X134056212Y-124743475D01*
X133908032Y-124714000D01*
X133908028Y-124714000D01*
X133858000Y-124704049D01*
X133807972Y-124714000D01*
X132639884Y-124714000D01*
X132573203Y-124553017D01*
X132442187Y-124422001D01*
X138299945Y-124422001D01*
X138241863Y-124714000D01*
X138333522Y-125174803D01*
X138594547Y-125565453D01*
X138985197Y-125826478D01*
X139329682Y-125895000D01*
X139562318Y-125895000D01*
X139906803Y-125826478D01*
X140297453Y-125565453D01*
X140558478Y-125174803D01*
X140650137Y-124714000D01*
X140558478Y-124253197D01*
X140297453Y-123862547D01*
X139906803Y-123601522D01*
X139562318Y-123533000D01*
X139329682Y-123533000D01*
X139040868Y-123590448D01*
X139040589Y-123590169D01*
X139012248Y-123547754D01*
X138844213Y-123435476D01*
X138696033Y-123406001D01*
X138696029Y-123406001D01*
X138646001Y-123396050D01*
X138595973Y-123406001D01*
X128700026Y-123406001D01*
X128649998Y-123396050D01*
X128599970Y-123406001D01*
X128599967Y-123406001D01*
X128451787Y-123435476D01*
X128326166Y-123519413D01*
X128326164Y-123519415D01*
X128283752Y-123547754D01*
X128255413Y-123590166D01*
X128237985Y-123607594D01*
X128208894Y-123461341D01*
X128124686Y-123335314D01*
X127998659Y-123251106D01*
X127850000Y-123221536D01*
X126150000Y-123221536D01*
X126123700Y-123226767D01*
X126123700Y-122814985D01*
X126519688Y-123079576D01*
X126878761Y-123151000D01*
X127121239Y-123151000D01*
X127480312Y-123079576D01*
X127887501Y-122807501D01*
X128159576Y-122400312D01*
X128255116Y-121920000D01*
X128159576Y-121439688D01*
X127887501Y-121032499D01*
X127480312Y-120760424D01*
X127121239Y-120689000D01*
X126878761Y-120689000D01*
X126519688Y-120760424D01*
X126123700Y-121025015D01*
X126123700Y-117734985D01*
X126519688Y-117999576D01*
X126878761Y-118071000D01*
X127121239Y-118071000D01*
X127480312Y-117999576D01*
X127887501Y-117727501D01*
X128137947Y-117352683D01*
X132775096Y-121989832D01*
X132803437Y-122032247D01*
X132971472Y-122144525D01*
X133119652Y-122174000D01*
X133119656Y-122174000D01*
X133169683Y-122183951D01*
X133219710Y-122174000D01*
X133539058Y-122174000D01*
X133768547Y-122517453D01*
X134159197Y-122778478D01*
X134503682Y-122847000D01*
X134736318Y-122847000D01*
X135080803Y-122778478D01*
X135471453Y-122517453D01*
X135732478Y-122126803D01*
X135824137Y-121666000D01*
X135732478Y-121205197D01*
X135471453Y-120814547D01*
X135080803Y-120553522D01*
X134736318Y-120485000D01*
X134503682Y-120485000D01*
X134159197Y-120553522D01*
X133768547Y-120814547D01*
X133539058Y-121158000D01*
X133380104Y-121158000D01*
X131856104Y-119634000D01*
X133539058Y-119634000D01*
X133768547Y-119977453D01*
X134159197Y-120238478D01*
X134503682Y-120307000D01*
X134736318Y-120307000D01*
X135080803Y-120238478D01*
X135471453Y-119977453D01*
X135732478Y-119586803D01*
X135824137Y-119126000D01*
X135732478Y-118665197D01*
X135471453Y-118274547D01*
X135080803Y-118013522D01*
X134736318Y-117945000D01*
X134503682Y-117945000D01*
X134159197Y-118013522D01*
X133768547Y-118274547D01*
X133539058Y-118618000D01*
X132177192Y-118618000D01*
X132423453Y-118453453D01*
X132684478Y-118062803D01*
X132776137Y-117602000D01*
X132684478Y-117141197D01*
X132423453Y-116750547D01*
X132032803Y-116489522D01*
X131688318Y-116421000D01*
X131455682Y-116421000D01*
X131111197Y-116489522D01*
X130898999Y-116631309D01*
X130898999Y-115332300D01*
X131008085Y-115353999D01*
X131008089Y-115353999D01*
X131058117Y-115363950D01*
X131108145Y-115353999D01*
X133769973Y-115353999D01*
X133820001Y-115363950D01*
X133870029Y-115353999D01*
X133870033Y-115353999D01*
X134018213Y-115324524D01*
X134186248Y-115212246D01*
X134214589Y-115169831D01*
X134214868Y-115169552D01*
X134503682Y-115227000D01*
X134736318Y-115227000D01*
X135080803Y-115158478D01*
X135471453Y-114897453D01*
X135732478Y-114506803D01*
X135824137Y-114046000D01*
X135732478Y-113585197D01*
X135471453Y-113194547D01*
X135080803Y-112933522D01*
X134736318Y-112865000D01*
X134503682Y-112865000D01*
X134159197Y-112933522D01*
X133768547Y-113194547D01*
X133507522Y-113585197D01*
X133415863Y-114046000D01*
X133473945Y-114337999D01*
X131268538Y-114337999D01*
X131191539Y-114261000D01*
X131562861Y-114261000D01*
X132015306Y-114073592D01*
X132361592Y-113727306D01*
X132440005Y-113538000D01*
X133045972Y-113538000D01*
X133096000Y-113547951D01*
X133146028Y-113538000D01*
X133146032Y-113538000D01*
X133294212Y-113508525D01*
X133462247Y-113396247D01*
X133490588Y-113353832D01*
X134214868Y-112629552D01*
X134503682Y-112687000D01*
X134736318Y-112687000D01*
X135080803Y-112618478D01*
X135471453Y-112357453D01*
X135732478Y-111966803D01*
X135824137Y-111506000D01*
X135732478Y-111045197D01*
X135471453Y-110654547D01*
X135080803Y-110393522D01*
X134736318Y-110325000D01*
X134503682Y-110325000D01*
X134159197Y-110393522D01*
X133768547Y-110654547D01*
X133507522Y-111045197D01*
X133415863Y-111506000D01*
X133496448Y-111911132D01*
X132885580Y-112522000D01*
X132440005Y-112522000D01*
X132361592Y-112332694D01*
X132015306Y-111986408D01*
X131864169Y-111923805D01*
X132102080Y-111825259D01*
X132182353Y-111573958D01*
X131318000Y-110709605D01*
X130453647Y-111573958D01*
X130533920Y-111825259D01*
X130787588Y-111917278D01*
X130620694Y-111986408D01*
X130274408Y-112332694D01*
X130087000Y-112785139D01*
X130087000Y-113156461D01*
X128739001Y-111808463D01*
X128739001Y-110301279D01*
X129821282Y-110301279D01*
X129847685Y-110891458D01*
X130022741Y-111314080D01*
X130274042Y-111394353D01*
X131138395Y-110530000D01*
X131497605Y-110530000D01*
X132361958Y-111394353D01*
X132613259Y-111314080D01*
X132814718Y-110758721D01*
X132788315Y-110168542D01*
X132613259Y-109745920D01*
X132361958Y-109665647D01*
X131497605Y-110530000D01*
X131138395Y-110530000D01*
X130274042Y-109665647D01*
X130022741Y-109745920D01*
X129821282Y-110301279D01*
X128739001Y-110301279D01*
X128739001Y-107961028D01*
X128748952Y-107911000D01*
X128739001Y-107860972D01*
X128739001Y-107860969D01*
X128723918Y-107785139D01*
X130087000Y-107785139D01*
X130087000Y-108274861D01*
X130274408Y-108727306D01*
X130620694Y-109073592D01*
X130771831Y-109136195D01*
X130533920Y-109234741D01*
X130453647Y-109486042D01*
X131318000Y-110350395D01*
X132182353Y-109486042D01*
X132102080Y-109234741D01*
X131848412Y-109142722D01*
X132015306Y-109073592D01*
X132361592Y-108727306D01*
X132440005Y-108538000D01*
X133473580Y-108538000D01*
X133496448Y-108560869D01*
X133415863Y-108966000D01*
X133507522Y-109426803D01*
X133768547Y-109817453D01*
X134159197Y-110078478D01*
X134503682Y-110147000D01*
X134736318Y-110147000D01*
X135080803Y-110078478D01*
X135471453Y-109817453D01*
X135732478Y-109426803D01*
X135824137Y-108966000D01*
X135732478Y-108505197D01*
X135471453Y-108114547D01*
X135080803Y-107853522D01*
X134747002Y-107787125D01*
X134747002Y-107696630D01*
X134969041Y-107817914D01*
X135475134Y-107578389D01*
X135851041Y-107163423D01*
X136011904Y-106775039D01*
X135889915Y-106553000D01*
X134747000Y-106553000D01*
X134747000Y-106573000D01*
X134493000Y-106573000D01*
X134493000Y-106553000D01*
X133350085Y-106553000D01*
X133228096Y-106775039D01*
X133388959Y-107163423D01*
X133709335Y-107517088D01*
X133684000Y-107512049D01*
X133633972Y-107522000D01*
X132440005Y-107522000D01*
X132361592Y-107332694D01*
X132015306Y-106986408D01*
X131562861Y-106799000D01*
X131073139Y-106799000D01*
X130620694Y-106986408D01*
X130274408Y-107332694D01*
X130087000Y-107785139D01*
X128723918Y-107785139D01*
X128709526Y-107712789D01*
X128625589Y-107587168D01*
X128625587Y-107587166D01*
X128597248Y-107544754D01*
X128554836Y-107516415D01*
X128244589Y-107206169D01*
X128244587Y-107206166D01*
X128166073Y-107127652D01*
X128255116Y-106680000D01*
X128159576Y-106199688D01*
X128077573Y-106076961D01*
X133228096Y-106076961D01*
X133350085Y-106299000D01*
X134493000Y-106299000D01*
X134493000Y-106279000D01*
X134747000Y-106279000D01*
X134747000Y-106299000D01*
X135889915Y-106299000D01*
X136011904Y-106076961D01*
X135851041Y-105688577D01*
X135475134Y-105273611D01*
X134969041Y-105034086D01*
X134747002Y-105155370D01*
X134747002Y-105064875D01*
X135080803Y-104998478D01*
X135471453Y-104737453D01*
X135732478Y-104346803D01*
X135824137Y-103886000D01*
X135732478Y-103425197D01*
X135471453Y-103034547D01*
X135080803Y-102773522D01*
X134736318Y-102705000D01*
X134503682Y-102705000D01*
X134159197Y-102773522D01*
X133768547Y-103034547D01*
X133507522Y-103425197D01*
X133415863Y-103886000D01*
X133507522Y-104346803D01*
X133768547Y-104737453D01*
X134159197Y-104998478D01*
X134492998Y-105064875D01*
X134492998Y-105155370D01*
X134270959Y-105034086D01*
X133764866Y-105273611D01*
X133388959Y-105688577D01*
X133228096Y-106076961D01*
X128077573Y-106076961D01*
X127887501Y-105792499D01*
X127480312Y-105520424D01*
X127121239Y-105449000D01*
X126878761Y-105449000D01*
X126519688Y-105520424D01*
X126123700Y-105785015D01*
X126123700Y-105034985D01*
X126519688Y-105299576D01*
X126878761Y-105371000D01*
X127121239Y-105371000D01*
X127480312Y-105299576D01*
X127887501Y-105027501D01*
X128159576Y-104620312D01*
X128255116Y-104140000D01*
X128166072Y-103692348D01*
X130004421Y-101854000D01*
X133539058Y-101854000D01*
X133768547Y-102197453D01*
X134159197Y-102458478D01*
X134503682Y-102527000D01*
X134736318Y-102527000D01*
X135080803Y-102458478D01*
X135471453Y-102197453D01*
X135732478Y-101806803D01*
X135824137Y-101346000D01*
X135732478Y-100885197D01*
X135471453Y-100494547D01*
X135080803Y-100233522D01*
X134736318Y-100165000D01*
X134503682Y-100165000D01*
X134159197Y-100233522D01*
X133768547Y-100494547D01*
X133539058Y-100838000D01*
X129844028Y-100838000D01*
X129794000Y-100828049D01*
X129743972Y-100838000D01*
X129743968Y-100838000D01*
X129595788Y-100867475D01*
X129470167Y-100951412D01*
X129470165Y-100951414D01*
X129427753Y-100979753D01*
X129399414Y-101022165D01*
X127447652Y-102973928D01*
X127121239Y-102909000D01*
X126878761Y-102909000D01*
X126519688Y-102980424D01*
X126123700Y-103245015D01*
X126123700Y-102494985D01*
X126519688Y-102759576D01*
X126878761Y-102831000D01*
X127121239Y-102831000D01*
X127480312Y-102759576D01*
X127887501Y-102487501D01*
X128159576Y-102080312D01*
X128255116Y-101600000D01*
X128159576Y-101119688D01*
X127887501Y-100712499D01*
X127480312Y-100440424D01*
X127121239Y-100369000D01*
X126878761Y-100369000D01*
X126519688Y-100440424D01*
X126123700Y-100705015D01*
X126123700Y-99954985D01*
X126519688Y-100219576D01*
X126878761Y-100291000D01*
X127121239Y-100291000D01*
X127480312Y-100219576D01*
X127887501Y-99947501D01*
X128159576Y-99540312D01*
X128255116Y-99060000D01*
X128204592Y-98806000D01*
X133415863Y-98806000D01*
X133507522Y-99266803D01*
X133768547Y-99657453D01*
X134159197Y-99918478D01*
X134503682Y-99987000D01*
X134736318Y-99987000D01*
X135080803Y-99918478D01*
X135471453Y-99657453D01*
X135732478Y-99266803D01*
X135824137Y-98806000D01*
X135732478Y-98345197D01*
X135471453Y-97954547D01*
X135080803Y-97693522D01*
X134736318Y-97625000D01*
X134503682Y-97625000D01*
X134159197Y-97693522D01*
X133768547Y-97954547D01*
X133507522Y-98345197D01*
X133415863Y-98806000D01*
X128204592Y-98806000D01*
X128166072Y-98612348D01*
X130004421Y-96774000D01*
X133539058Y-96774000D01*
X133768547Y-97117453D01*
X134159197Y-97378478D01*
X134503682Y-97447000D01*
X134736318Y-97447000D01*
X135080803Y-97378478D01*
X135471453Y-97117453D01*
X135732478Y-96726803D01*
X135824137Y-96266000D01*
X135732478Y-95805197D01*
X135471453Y-95414547D01*
X135406557Y-95371184D01*
X135553128Y-95273248D01*
X135581469Y-95230833D01*
X136309020Y-94503282D01*
X136309021Y-114178558D01*
X136309021Y-114178558D01*
G37*
X136309021Y-114178558D02*
X135096166Y-115391414D01*
X135025132Y-115462448D01*
X134736318Y-115405000D01*
X134503682Y-115405000D01*
X134159197Y-115473522D01*
X133768547Y-115734547D01*
X133507522Y-116125197D01*
X133415863Y-116586000D01*
X133507522Y-117046803D01*
X133768547Y-117437453D01*
X134159197Y-117698478D01*
X134503682Y-117767000D01*
X134736318Y-117767000D01*
X135080803Y-117698478D01*
X135471453Y-117437453D01*
X135732478Y-117046803D01*
X135824137Y-116586000D01*
X135743552Y-116180868D01*
X135814586Y-116109834D01*
X136817031Y-115107390D01*
X136817031Y-116700997D01*
X136807079Y-116751030D01*
X136846505Y-116949241D01*
X136930442Y-117074862D01*
X136930445Y-117074865D01*
X136958784Y-117117277D01*
X137001196Y-117145616D01*
X141116448Y-121260869D01*
X141035863Y-121666000D01*
X141127522Y-122126803D01*
X141388547Y-122517453D01*
X141779197Y-122778478D01*
X142123682Y-122847000D01*
X142356318Y-122847000D01*
X142700803Y-122778478D01*
X143091453Y-122517453D01*
X143352478Y-122126803D01*
X143444137Y-121666000D01*
X143352478Y-121205197D01*
X143151224Y-120904000D01*
X143296788Y-120904000D01*
X143874622Y-121481835D01*
X143902961Y-121524247D01*
X143945373Y-121552586D01*
X143945375Y-121552588D01*
X144070996Y-121636525D01*
X144219176Y-121666000D01*
X144219180Y-121666000D01*
X144269208Y-121675951D01*
X144319236Y-121666000D01*
X144365876Y-121666000D01*
X144456021Y-121883628D01*
X144816372Y-122243979D01*
X145287193Y-122439000D01*
X145796807Y-122439000D01*
X146267628Y-122243979D01*
X146627979Y-121883628D01*
X146793536Y-121483939D01*
X146793536Y-121728044D01*
X144315580Y-124206000D01*
X144082942Y-124206000D01*
X143853453Y-123862547D01*
X143462803Y-123601522D01*
X143118318Y-123533000D01*
X142885682Y-123533000D01*
X142541197Y-123601522D01*
X142150547Y-123862547D01*
X141889522Y-124253197D01*
X141797863Y-124714000D01*
X141889522Y-125174803D01*
X142150547Y-125565453D01*
X142541197Y-125826478D01*
X142885682Y-125895000D01*
X143118318Y-125895000D01*
X143462803Y-125826478D01*
X143853453Y-125565453D01*
X144082942Y-125222000D01*
X144475972Y-125222000D01*
X144526000Y-125231951D01*
X144576028Y-125222000D01*
X144576032Y-125222000D01*
X144724212Y-125192525D01*
X144892247Y-125080247D01*
X144920588Y-125037832D01*
X147511956Y-122446464D01*
X148982000Y-122446464D01*
X149130659Y-122416894D01*
X149256686Y-122332686D01*
X149340894Y-122206659D01*
X149370464Y-122058000D01*
X149370464Y-120258000D01*
X149340894Y-120109341D01*
X149256686Y-119983314D01*
X149130659Y-119899106D01*
X148982000Y-119869536D01*
X147182000Y-119869536D01*
X147033341Y-119899106D01*
X146907314Y-119983314D01*
X146823106Y-120109341D01*
X146793536Y-120258000D01*
X146793536Y-120832061D01*
X146627979Y-120432372D01*
X146267628Y-120072021D01*
X145796807Y-119877000D01*
X145287193Y-119877000D01*
X144816372Y-120072021D01*
X144456021Y-120432372D01*
X144399194Y-120569565D01*
X143901795Y-120072167D01*
X143873455Y-120029753D01*
X143705420Y-119917475D01*
X143557240Y-119888000D01*
X143557236Y-119888000D01*
X143507208Y-119878049D01*
X143457180Y-119888000D01*
X143151224Y-119888000D01*
X143320942Y-119634000D01*
X147523972Y-119634000D01*
X147574000Y-119643951D01*
X147624028Y-119634000D01*
X147624032Y-119634000D01*
X147772212Y-119604525D01*
X147940247Y-119492247D01*
X147968588Y-119449832D01*
X149412348Y-118006073D01*
X149738761Y-118071000D01*
X149981239Y-118071000D01*
X150340312Y-117999576D01*
X150736301Y-117734985D01*
X150736301Y-144386300D01*
X126123700Y-144386300D01*
X126123700Y-137007210D01*
X126925235Y-139042142D01*
X127038359Y-139211444D01*
X127729172Y-139807223D01*
X131646395Y-135890000D01*
X127729172Y-131972777D01*
X127038359Y-132568556D01*
X126131735Y-134653537D01*
X126123700Y-135113343D01*
X126123700Y-125693233D01*
X126150000Y-125698464D01*
X127850000Y-125698464D01*
X127998659Y-125668894D01*
X128124686Y-125584686D01*
X128208894Y-125458659D01*
X128238464Y-125310000D01*
X128238464Y-124951205D01*
X128302212Y-124938525D01*
X128470247Y-124826247D01*
X128498588Y-124783832D01*
X128860420Y-124422001D01*
X130701813Y-124422001D01*
X130570797Y-124553017D01*
X130391000Y-124987085D01*
X130391000Y-125456915D01*
X130570797Y-125890983D01*
X130903017Y-126223203D01*
X131337085Y-126403000D01*
X131806915Y-126403000D01*
X132240983Y-126223203D01*
X132573203Y-125890983D01*
X132639884Y-125730000D01*
X133647580Y-125730000D01*
X138938000Y-131020420D01*
X138938000Y-131266115D01*
X138777017Y-131332797D01*
X138444797Y-131665017D01*
X138265000Y-132099085D01*
X138265000Y-132568915D01*
X138444797Y-133002983D01*
X138777017Y-133335203D01*
X139211085Y-133515000D01*
X139680915Y-133515000D01*
X139841898Y-133448318D01*
X140637717Y-134244137D01*
X140325611Y-134526866D01*
X140086086Y-135032959D01*
X140207370Y-135254998D01*
X140043000Y-135254998D01*
X140043000Y-135260579D01*
X134887589Y-130105169D01*
X134887587Y-130105166D01*
X134726840Y-129944419D01*
X134874000Y-129589142D01*
X134874000Y-128982858D01*
X134641985Y-128422723D01*
X134213277Y-127994015D01*
X133653142Y-127762000D01*
X133046858Y-127762000D01*
X132486723Y-127994015D01*
X132058015Y-128422723D01*
X131910855Y-128778000D01*
X131741145Y-128778000D01*
X131593985Y-128422723D01*
X131165277Y-127994015D01*
X130605142Y-127762000D01*
X129998858Y-127762000D01*
X129438723Y-127994015D01*
X129010015Y-128422723D01*
X128778000Y-128982858D01*
X128778000Y-129589142D01*
X129010015Y-130149277D01*
X129438723Y-130577985D01*
X129574819Y-130634358D01*
X128673858Y-130989235D01*
X128504556Y-131102359D01*
X127908777Y-131793172D01*
X131826000Y-135710395D01*
X131840143Y-135696253D01*
X132019748Y-135875858D01*
X132005605Y-135890000D01*
X135922828Y-139807223D01*
X136613641Y-139211444D01*
X137520265Y-137126463D01*
X137559989Y-134853242D01*
X137144838Y-133799258D01*
X140232415Y-136886836D01*
X140260754Y-136929248D01*
X140303166Y-136957587D01*
X140303168Y-136957589D01*
X140428789Y-137041526D01*
X140576969Y-137071001D01*
X140576973Y-137071001D01*
X140627001Y-137080952D01*
X140677029Y-137071001D01*
X141610578Y-137071001D01*
X136695580Y-141986000D01*
X134789145Y-141986000D01*
X134641985Y-141630723D01*
X134213277Y-141202015D01*
X134077181Y-141145642D01*
X134978142Y-140790765D01*
X135147444Y-140677641D01*
X135743223Y-139986828D01*
X131826000Y-136069605D01*
X127908777Y-139986828D01*
X128504556Y-140677641D01*
X129577896Y-141144368D01*
X129438723Y-141202015D01*
X129010015Y-141630723D01*
X128778000Y-142190858D01*
X128778000Y-142797142D01*
X129010015Y-143357277D01*
X129438723Y-143785985D01*
X129998858Y-144018000D01*
X130605142Y-144018000D01*
X131165277Y-143785985D01*
X131593985Y-143357277D01*
X131741145Y-143002000D01*
X131910855Y-143002000D01*
X132058015Y-143357277D01*
X132486723Y-143785985D01*
X133046858Y-144018000D01*
X133653142Y-144018000D01*
X134213277Y-143785985D01*
X134641985Y-143357277D01*
X134789145Y-143002000D01*
X136855972Y-143002000D01*
X136906000Y-143011951D01*
X136956028Y-143002000D01*
X136956032Y-143002000D01*
X140273863Y-143002000D01*
X140365522Y-143462803D01*
X140626547Y-143853453D01*
X141017197Y-144114478D01*
X141361682Y-144183000D01*
X141594318Y-144183000D01*
X141938803Y-144114478D01*
X142329453Y-143853453D01*
X142590478Y-143462803D01*
X142682137Y-143002000D01*
X142813863Y-143002000D01*
X142905522Y-143462803D01*
X143166547Y-143853453D01*
X143557197Y-144114478D01*
X143901682Y-144183000D01*
X144134318Y-144183000D01*
X144478803Y-144114478D01*
X144869453Y-143853453D01*
X145130478Y-143462803D01*
X145222137Y-143002000D01*
X145353863Y-143002000D01*
X145445522Y-143462803D01*
X145706547Y-143853453D01*
X146097197Y-144114478D01*
X146441682Y-144183000D01*
X146674318Y-144183000D01*
X147018803Y-144114478D01*
X147409453Y-143853453D01*
X147670478Y-143462803D01*
X147762137Y-143002000D01*
X147670478Y-142541197D01*
X147409453Y-142150547D01*
X147018803Y-141889522D01*
X146674318Y-141821000D01*
X146441682Y-141821000D01*
X146097197Y-141889522D01*
X145706547Y-142150547D01*
X145445522Y-142541197D01*
X145353863Y-143002000D01*
X145222137Y-143002000D01*
X145130478Y-142541197D01*
X144869453Y-142150547D01*
X144478803Y-141889522D01*
X144134318Y-141821000D01*
X143901682Y-141821000D01*
X143557197Y-141889522D01*
X143166547Y-142150547D01*
X142905522Y-142541197D01*
X142813863Y-143002000D01*
X142682137Y-143002000D01*
X142590478Y-142541197D01*
X142329453Y-142150547D01*
X141938803Y-141889522D01*
X141594318Y-141821000D01*
X141361682Y-141821000D01*
X141017197Y-141889522D01*
X140626547Y-142150547D01*
X140365522Y-142541197D01*
X140273863Y-143002000D01*
X136956032Y-143002000D01*
X137104212Y-142972525D01*
X137272247Y-142860247D01*
X137300588Y-142817832D01*
X143160834Y-136957587D01*
X143203246Y-136929248D01*
X143231585Y-136886836D01*
X143612869Y-136505552D01*
X143901682Y-136563000D01*
X144134318Y-136563000D01*
X144478803Y-136494478D01*
X144868999Y-136233756D01*
X144869000Y-139230966D01*
X144859048Y-139280999D01*
X144898474Y-139479210D01*
X144982411Y-139604831D01*
X144982414Y-139604834D01*
X145010753Y-139647246D01*
X145053165Y-139675585D01*
X147974168Y-142596589D01*
X147974171Y-142596591D01*
X147974448Y-142596868D01*
X147893863Y-143002000D01*
X147985522Y-143462803D01*
X148246547Y-143853453D01*
X148637197Y-144114478D01*
X148981682Y-144183000D01*
X149214318Y-144183000D01*
X149558803Y-144114478D01*
X149949453Y-143853453D01*
X150210478Y-143462803D01*
X150302137Y-143002000D01*
X150210478Y-142541197D01*
X149949453Y-142150547D01*
X149558803Y-141889522D01*
X149214318Y-141821000D01*
X148981682Y-141821000D01*
X148692868Y-141878448D01*
X148692591Y-141878171D01*
X148692589Y-141878168D01*
X145884999Y-139070579D01*
X145884999Y-136352691D01*
X146097197Y-136494478D01*
X146441682Y-136563000D01*
X146674318Y-136563000D01*
X147018803Y-136494478D01*
X147409453Y-136233453D01*
X147670478Y-135842803D01*
X147762137Y-135382000D01*
X147670478Y-134921197D01*
X147452000Y-134594223D01*
X147452000Y-134582000D01*
X147909536Y-134582000D01*
X147909536Y-136182000D01*
X147939106Y-136330659D01*
X148023314Y-136456686D01*
X148149341Y-136540894D01*
X148298000Y-136570464D01*
X149898000Y-136570464D01*
X150046659Y-136540894D01*
X150172686Y-136456686D01*
X150256894Y-136330659D01*
X150286464Y-136182000D01*
X150286464Y-134582000D01*
X150256894Y-134433341D01*
X150172686Y-134307314D01*
X150046659Y-134223106D01*
X149898000Y-134193536D01*
X149352000Y-134193536D01*
X149352000Y-133833923D01*
X149590876Y-133595047D01*
X149725000Y-133271242D01*
X149725000Y-132920758D01*
X149590876Y-132596953D01*
X149343047Y-132349124D01*
X149019242Y-132215000D01*
X148668758Y-132215000D01*
X148344953Y-132349124D01*
X148097124Y-132596953D01*
X147963000Y-132920758D01*
X147963000Y-133271242D01*
X148097124Y-133595047D01*
X148336000Y-133833923D01*
X148336001Y-134193536D01*
X148298000Y-134193536D01*
X148149341Y-134223106D01*
X148023314Y-134307314D01*
X147939106Y-134433341D01*
X147909536Y-134582000D01*
X147452000Y-134582000D01*
X147452000Y-133833923D01*
X147690876Y-133595047D01*
X147825000Y-133271242D01*
X147825000Y-132920758D01*
X147690876Y-132596953D01*
X147443047Y-132349124D01*
X147119242Y-132215000D01*
X146768758Y-132215000D01*
X146444953Y-132349124D01*
X146197124Y-132596953D01*
X146063000Y-132920758D01*
X146063000Y-133271242D01*
X146197124Y-133595047D01*
X146436000Y-133833923D01*
X146436001Y-134202130D01*
X146097197Y-134269522D01*
X145706547Y-134530547D01*
X145677028Y-134574725D01*
X144979468Y-133877166D01*
X144951128Y-133834752D01*
X144783093Y-133722474D01*
X144634913Y-133692999D01*
X144634909Y-133692999D01*
X144584881Y-133683048D01*
X144534853Y-133692999D01*
X143502187Y-133692999D01*
X143756005Y-133587864D01*
X143830139Y-133341745D01*
X143002000Y-132513605D01*
X142173861Y-133341745D01*
X142247995Y-133587864D01*
X142540492Y-133692999D01*
X141523419Y-133692999D01*
X140560318Y-132729898D01*
X140627000Y-132568915D01*
X140627000Y-132117223D01*
X141555035Y-132117223D01*
X141582222Y-132687454D01*
X141748136Y-133088005D01*
X141994255Y-133162139D01*
X142822395Y-132334000D01*
X143181605Y-132334000D01*
X144009745Y-133162139D01*
X144255864Y-133088005D01*
X144448965Y-132550777D01*
X144421778Y-131980546D01*
X144255864Y-131579995D01*
X144009745Y-131505861D01*
X143181605Y-132334000D01*
X142822395Y-132334000D01*
X141994255Y-131505861D01*
X141748136Y-131579995D01*
X141555035Y-132117223D01*
X140627000Y-132117223D01*
X140627000Y-132099085D01*
X140447203Y-131665017D01*
X140114983Y-131332797D01*
X140099190Y-131326255D01*
X142173861Y-131326255D01*
X143002000Y-132154395D01*
X143830139Y-131326255D01*
X143756005Y-131080136D01*
X143218777Y-130887035D01*
X142648546Y-130914222D01*
X142247995Y-131080136D01*
X142173861Y-131326255D01*
X140099190Y-131326255D01*
X139954000Y-131266116D01*
X139954000Y-130860027D01*
X139963951Y-130809999D01*
X139954000Y-130759969D01*
X139954000Y-130759968D01*
X139924525Y-130611788D01*
X139812247Y-130443753D01*
X139769833Y-130415413D01*
X136100420Y-126746000D01*
X145405536Y-126746000D01*
X145405536Y-127946000D01*
X145435106Y-128094659D01*
X145519314Y-128220686D01*
X145645341Y-128304894D01*
X145794000Y-128334464D01*
X146405536Y-128334464D01*
X146405536Y-130596000D01*
X146435106Y-130744659D01*
X146519314Y-130870686D01*
X146645341Y-130954894D01*
X146794000Y-130984464D01*
X148994000Y-130984464D01*
X149142659Y-130954894D01*
X149268686Y-130870686D01*
X149352894Y-130744659D01*
X149382464Y-130596000D01*
X149382464Y-128334464D01*
X149994000Y-128334464D01*
X150142659Y-128304894D01*
X150268686Y-128220686D01*
X150352894Y-128094659D01*
X150382464Y-127946000D01*
X150382464Y-126746000D01*
X150352894Y-126597341D01*
X150268686Y-126471314D01*
X150142659Y-126387106D01*
X149994000Y-126357536D01*
X149382464Y-126357536D01*
X149382464Y-124096000D01*
X149352894Y-123947341D01*
X149268686Y-123821314D01*
X149142659Y-123737106D01*
X148994000Y-123707536D01*
X146794000Y-123707536D01*
X146645341Y-123737106D01*
X146519314Y-123821314D01*
X146435106Y-123947341D01*
X146405536Y-124096000D01*
X146405536Y-126357536D01*
X145794000Y-126357536D01*
X145645341Y-126387106D01*
X145519314Y-126471314D01*
X145435106Y-126597341D01*
X145405536Y-126746000D01*
X136100420Y-126746000D01*
X134252588Y-124898168D01*
X134224247Y-124855753D01*
X134056212Y-124743475D01*
X133908032Y-124714000D01*
X133908028Y-124714000D01*
X133858000Y-124704049D01*
X133807972Y-124714000D01*
X132639884Y-124714000D01*
X132573203Y-124553017D01*
X132442187Y-124422001D01*
X138299945Y-124422001D01*
X138241863Y-124714000D01*
X138333522Y-125174803D01*
X138594547Y-125565453D01*
X138985197Y-125826478D01*
X139329682Y-125895000D01*
X139562318Y-125895000D01*
X139906803Y-125826478D01*
X140297453Y-125565453D01*
X140558478Y-125174803D01*
X140650137Y-124714000D01*
X140558478Y-124253197D01*
X140297453Y-123862547D01*
X139906803Y-123601522D01*
X139562318Y-123533000D01*
X139329682Y-123533000D01*
X139040868Y-123590448D01*
X139040589Y-123590169D01*
X139012248Y-123547754D01*
X138844213Y-123435476D01*
X138696033Y-123406001D01*
X138696029Y-123406001D01*
X138646001Y-123396050D01*
X138595973Y-123406001D01*
X128700026Y-123406001D01*
X128649998Y-123396050D01*
X128599970Y-123406001D01*
X128599967Y-123406001D01*
X128451787Y-123435476D01*
X128326166Y-123519413D01*
X128326164Y-123519415D01*
X128283752Y-123547754D01*
X128255413Y-123590166D01*
X128237985Y-123607594D01*
X128208894Y-123461341D01*
X128124686Y-123335314D01*
X127998659Y-123251106D01*
X127850000Y-123221536D01*
X126150000Y-123221536D01*
X126123700Y-123226767D01*
X126123700Y-122814985D01*
X126519688Y-123079576D01*
X126878761Y-123151000D01*
X127121239Y-123151000D01*
X127480312Y-123079576D01*
X127887501Y-122807501D01*
X128159576Y-122400312D01*
X128255116Y-121920000D01*
X128159576Y-121439688D01*
X127887501Y-121032499D01*
X127480312Y-120760424D01*
X127121239Y-120689000D01*
X126878761Y-120689000D01*
X126519688Y-120760424D01*
X126123700Y-121025015D01*
X126123700Y-117734985D01*
X126519688Y-117999576D01*
X126878761Y-118071000D01*
X127121239Y-118071000D01*
X127480312Y-117999576D01*
X127887501Y-117727501D01*
X128137947Y-117352683D01*
X132775096Y-121989832D01*
X132803437Y-122032247D01*
X132971472Y-122144525D01*
X133119652Y-122174000D01*
X133119656Y-122174000D01*
X133169683Y-122183951D01*
X133219710Y-122174000D01*
X133539058Y-122174000D01*
X133768547Y-122517453D01*
X134159197Y-122778478D01*
X134503682Y-122847000D01*
X134736318Y-122847000D01*
X135080803Y-122778478D01*
X135471453Y-122517453D01*
X135732478Y-122126803D01*
X135824137Y-121666000D01*
X135732478Y-121205197D01*
X135471453Y-120814547D01*
X135080803Y-120553522D01*
X134736318Y-120485000D01*
X134503682Y-120485000D01*
X134159197Y-120553522D01*
X133768547Y-120814547D01*
X133539058Y-121158000D01*
X133380104Y-121158000D01*
X131856104Y-119634000D01*
X133539058Y-119634000D01*
X133768547Y-119977453D01*
X134159197Y-120238478D01*
X134503682Y-120307000D01*
X134736318Y-120307000D01*
X135080803Y-120238478D01*
X135471453Y-119977453D01*
X135732478Y-119586803D01*
X135824137Y-119126000D01*
X135732478Y-118665197D01*
X135471453Y-118274547D01*
X135080803Y-118013522D01*
X134736318Y-117945000D01*
X134503682Y-117945000D01*
X134159197Y-118013522D01*
X133768547Y-118274547D01*
X133539058Y-118618000D01*
X132177192Y-118618000D01*
X132423453Y-118453453D01*
X132684478Y-118062803D01*
X132776137Y-117602000D01*
X132684478Y-117141197D01*
X132423453Y-116750547D01*
X132032803Y-116489522D01*
X131688318Y-116421000D01*
X131455682Y-116421000D01*
X131111197Y-116489522D01*
X130898999Y-116631309D01*
X130898999Y-115332300D01*
X131008085Y-115353999D01*
X131008089Y-115353999D01*
X131058117Y-115363950D01*
X131108145Y-115353999D01*
X133769973Y-115353999D01*
X133820001Y-115363950D01*
X133870029Y-115353999D01*
X133870033Y-115353999D01*
X134018213Y-115324524D01*
X134186248Y-115212246D01*
X134214589Y-115169831D01*
X134214868Y-115169552D01*
X134503682Y-115227000D01*
X134736318Y-115227000D01*
X135080803Y-115158478D01*
X135471453Y-114897453D01*
X135732478Y-114506803D01*
X135824137Y-114046000D01*
X135732478Y-113585197D01*
X135471453Y-113194547D01*
X135080803Y-112933522D01*
X134736318Y-112865000D01*
X134503682Y-112865000D01*
X134159197Y-112933522D01*
X133768547Y-113194547D01*
X133507522Y-113585197D01*
X133415863Y-114046000D01*
X133473945Y-114337999D01*
X131268538Y-114337999D01*
X131191539Y-114261000D01*
X131562861Y-114261000D01*
X132015306Y-114073592D01*
X132361592Y-113727306D01*
X132440005Y-113538000D01*
X133045972Y-113538000D01*
X133096000Y-113547951D01*
X133146028Y-113538000D01*
X133146032Y-113538000D01*
X133294212Y-113508525D01*
X133462247Y-113396247D01*
X133490588Y-113353832D01*
X134214868Y-112629552D01*
X134503682Y-112687000D01*
X134736318Y-112687000D01*
X135080803Y-112618478D01*
X135471453Y-112357453D01*
X135732478Y-111966803D01*
X135824137Y-111506000D01*
X135732478Y-111045197D01*
X135471453Y-110654547D01*
X135080803Y-110393522D01*
X134736318Y-110325000D01*
X134503682Y-110325000D01*
X134159197Y-110393522D01*
X133768547Y-110654547D01*
X133507522Y-111045197D01*
X133415863Y-111506000D01*
X133496448Y-111911132D01*
X132885580Y-112522000D01*
X132440005Y-112522000D01*
X132361592Y-112332694D01*
X132015306Y-111986408D01*
X131864169Y-111923805D01*
X132102080Y-111825259D01*
X132182353Y-111573958D01*
X131318000Y-110709605D01*
X130453647Y-111573958D01*
X130533920Y-111825259D01*
X130787588Y-111917278D01*
X130620694Y-111986408D01*
X130274408Y-112332694D01*
X130087000Y-112785139D01*
X130087000Y-113156461D01*
X128739001Y-111808463D01*
X128739001Y-110301279D01*
X129821282Y-110301279D01*
X129847685Y-110891458D01*
X130022741Y-111314080D01*
X130274042Y-111394353D01*
X131138395Y-110530000D01*
X131497605Y-110530000D01*
X132361958Y-111394353D01*
X132613259Y-111314080D01*
X132814718Y-110758721D01*
X132788315Y-110168542D01*
X132613259Y-109745920D01*
X132361958Y-109665647D01*
X131497605Y-110530000D01*
X131138395Y-110530000D01*
X130274042Y-109665647D01*
X130022741Y-109745920D01*
X129821282Y-110301279D01*
X128739001Y-110301279D01*
X128739001Y-107961028D01*
X128748952Y-107911000D01*
X128739001Y-107860972D01*
X128739001Y-107860969D01*
X128723918Y-107785139D01*
X130087000Y-107785139D01*
X130087000Y-108274861D01*
X130274408Y-108727306D01*
X130620694Y-109073592D01*
X130771831Y-109136195D01*
X130533920Y-109234741D01*
X130453647Y-109486042D01*
X131318000Y-110350395D01*
X132182353Y-109486042D01*
X132102080Y-109234741D01*
X131848412Y-109142722D01*
X132015306Y-109073592D01*
X132361592Y-108727306D01*
X132440005Y-108538000D01*
X133473580Y-108538000D01*
X133496448Y-108560869D01*
X133415863Y-108966000D01*
X133507522Y-109426803D01*
X133768547Y-109817453D01*
X134159197Y-110078478D01*
X134503682Y-110147000D01*
X134736318Y-110147000D01*
X135080803Y-110078478D01*
X135471453Y-109817453D01*
X135732478Y-109426803D01*
X135824137Y-108966000D01*
X135732478Y-108505197D01*
X135471453Y-108114547D01*
X135080803Y-107853522D01*
X134747002Y-107787125D01*
X134747002Y-107696630D01*
X134969041Y-107817914D01*
X135475134Y-107578389D01*
X135851041Y-107163423D01*
X136011904Y-106775039D01*
X135889915Y-106553000D01*
X134747000Y-106553000D01*
X134747000Y-106573000D01*
X134493000Y-106573000D01*
X134493000Y-106553000D01*
X133350085Y-106553000D01*
X133228096Y-106775039D01*
X133388959Y-107163423D01*
X133709335Y-107517088D01*
X133684000Y-107512049D01*
X133633972Y-107522000D01*
X132440005Y-107522000D01*
X132361592Y-107332694D01*
X132015306Y-106986408D01*
X131562861Y-106799000D01*
X131073139Y-106799000D01*
X130620694Y-106986408D01*
X130274408Y-107332694D01*
X130087000Y-107785139D01*
X128723918Y-107785139D01*
X128709526Y-107712789D01*
X128625589Y-107587168D01*
X128625587Y-107587166D01*
X128597248Y-107544754D01*
X128554836Y-107516415D01*
X128244589Y-107206169D01*
X128244587Y-107206166D01*
X128166073Y-107127652D01*
X128255116Y-106680000D01*
X128159576Y-106199688D01*
X128077573Y-106076961D01*
X133228096Y-106076961D01*
X133350085Y-106299000D01*
X134493000Y-106299000D01*
X134493000Y-106279000D01*
X134747000Y-106279000D01*
X134747000Y-106299000D01*
X135889915Y-106299000D01*
X136011904Y-106076961D01*
X135851041Y-105688577D01*
X135475134Y-105273611D01*
X134969041Y-105034086D01*
X134747002Y-105155370D01*
X134747002Y-105064875D01*
X135080803Y-104998478D01*
X135471453Y-104737453D01*
X135732478Y-104346803D01*
X135824137Y-103886000D01*
X135732478Y-103425197D01*
X135471453Y-103034547D01*
X135080803Y-102773522D01*
X134736318Y-102705000D01*
X134503682Y-102705000D01*
X134159197Y-102773522D01*
X133768547Y-103034547D01*
X133507522Y-103425197D01*
X133415863Y-103886000D01*
X133507522Y-104346803D01*
X133768547Y-104737453D01*
X134159197Y-104998478D01*
X134492998Y-105064875D01*
X134492998Y-105155370D01*
X134270959Y-105034086D01*
X133764866Y-105273611D01*
X133388959Y-105688577D01*
X133228096Y-106076961D01*
X128077573Y-106076961D01*
X127887501Y-105792499D01*
X127480312Y-105520424D01*
X127121239Y-105449000D01*
X126878761Y-105449000D01*
X126519688Y-105520424D01*
X126123700Y-105785015D01*
X126123700Y-105034985D01*
X126519688Y-105299576D01*
X126878761Y-105371000D01*
X127121239Y-105371000D01*
X127480312Y-105299576D01*
X127887501Y-105027501D01*
X128159576Y-104620312D01*
X128255116Y-104140000D01*
X128166072Y-103692348D01*
X130004421Y-101854000D01*
X133539058Y-101854000D01*
X133768547Y-102197453D01*
X134159197Y-102458478D01*
X134503682Y-102527000D01*
X134736318Y-102527000D01*
X135080803Y-102458478D01*
X135471453Y-102197453D01*
X135732478Y-101806803D01*
X135824137Y-101346000D01*
X135732478Y-100885197D01*
X135471453Y-100494547D01*
X135080803Y-100233522D01*
X134736318Y-100165000D01*
X134503682Y-100165000D01*
X134159197Y-100233522D01*
X133768547Y-100494547D01*
X133539058Y-100838000D01*
X129844028Y-100838000D01*
X129794000Y-100828049D01*
X129743972Y-100838000D01*
X129743968Y-100838000D01*
X129595788Y-100867475D01*
X129470167Y-100951412D01*
X129470165Y-100951414D01*
X129427753Y-100979753D01*
X129399414Y-101022165D01*
X127447652Y-102973928D01*
X127121239Y-102909000D01*
X126878761Y-102909000D01*
X126519688Y-102980424D01*
X126123700Y-103245015D01*
X126123700Y-102494985D01*
X126519688Y-102759576D01*
X126878761Y-102831000D01*
X127121239Y-102831000D01*
X127480312Y-102759576D01*
X127887501Y-102487501D01*
X128159576Y-102080312D01*
X128255116Y-101600000D01*
X128159576Y-101119688D01*
X127887501Y-100712499D01*
X127480312Y-100440424D01*
X127121239Y-100369000D01*
X126878761Y-100369000D01*
X126519688Y-100440424D01*
X126123700Y-100705015D01*
X126123700Y-99954985D01*
X126519688Y-100219576D01*
X126878761Y-100291000D01*
X127121239Y-100291000D01*
X127480312Y-100219576D01*
X127887501Y-99947501D01*
X128159576Y-99540312D01*
X128255116Y-99060000D01*
X128204592Y-98806000D01*
X133415863Y-98806000D01*
X133507522Y-99266803D01*
X133768547Y-99657453D01*
X134159197Y-99918478D01*
X134503682Y-99987000D01*
X134736318Y-99987000D01*
X135080803Y-99918478D01*
X135471453Y-99657453D01*
X135732478Y-99266803D01*
X135824137Y-98806000D01*
X135732478Y-98345197D01*
X135471453Y-97954547D01*
X135080803Y-97693522D01*
X134736318Y-97625000D01*
X134503682Y-97625000D01*
X134159197Y-97693522D01*
X133768547Y-97954547D01*
X133507522Y-98345197D01*
X133415863Y-98806000D01*
X128204592Y-98806000D01*
X128166072Y-98612348D01*
X130004421Y-96774000D01*
X133539058Y-96774000D01*
X133768547Y-97117453D01*
X134159197Y-97378478D01*
X134503682Y-97447000D01*
X134736318Y-97447000D01*
X135080803Y-97378478D01*
X135471453Y-97117453D01*
X135732478Y-96726803D01*
X135824137Y-96266000D01*
X135732478Y-95805197D01*
X135471453Y-95414547D01*
X135406557Y-95371184D01*
X135553128Y-95273248D01*
X135581469Y-95230833D01*
X136309020Y-94503282D01*
X136309021Y-114178558D01*
G36*
X141605000Y-135255000D02*
X141625000Y-135255000D01*
X141625000Y-135509000D01*
X141605000Y-135509000D01*
X141605000Y-135529000D01*
X141351000Y-135529000D01*
X141351000Y-135509000D01*
X141331000Y-135509000D01*
X141331000Y-135255000D01*
X141351000Y-135255000D01*
X141351000Y-135235000D01*
X141605000Y-135235000D01*
X141605000Y-135255000D01*
X141605000Y-135255000D01*
G37*
X141605000Y-135255000D02*
X141625000Y-135255000D01*
X141625000Y-135509000D01*
X141605000Y-135509000D01*
X141605000Y-135529000D01*
X141351000Y-135529000D01*
X141351000Y-135509000D01*
X141331000Y-135509000D01*
X141331000Y-135255000D01*
X141351000Y-135255000D01*
X141351000Y-135235000D01*
X141605000Y-135235000D01*
X141605000Y-135255000D01*
G36*
X140561245Y-85618273D02*
X140949727Y-86006755D01*
X141457302Y-86217000D01*
X142006698Y-86217000D01*
X142514273Y-86006755D01*
X142730304Y-85790724D01*
X144164448Y-87224869D01*
X144083863Y-87630000D01*
X144175522Y-88090803D01*
X144436547Y-88481453D01*
X144780001Y-88710942D01*
X144780001Y-89357967D01*
X144770049Y-89408000D01*
X144809475Y-89606211D01*
X144893412Y-89731832D01*
X144893415Y-89731835D01*
X144921754Y-89774247D01*
X144964166Y-89802586D01*
X148693928Y-93532348D01*
X148604884Y-93980000D01*
X148700424Y-94460312D01*
X148972499Y-94867501D01*
X149379688Y-95139576D01*
X149738761Y-95211000D01*
X149981239Y-95211000D01*
X150340312Y-95139576D01*
X150736300Y-94874985D01*
X150736300Y-95625015D01*
X150340312Y-95360424D01*
X149981239Y-95289000D01*
X149738761Y-95289000D01*
X149379688Y-95360424D01*
X148972499Y-95632499D01*
X148700424Y-96039688D01*
X148604884Y-96520000D01*
X148700424Y-97000312D01*
X148972499Y-97407501D01*
X149379688Y-97679576D01*
X149738761Y-97751000D01*
X149981239Y-97751000D01*
X150340312Y-97679576D01*
X150736301Y-97414985D01*
X150736301Y-98165015D01*
X150340312Y-97900424D01*
X149981239Y-97829000D01*
X149738761Y-97829000D01*
X149412348Y-97893927D01*
X144920588Y-93402168D01*
X144892247Y-93359753D01*
X144724212Y-93247475D01*
X144576032Y-93218000D01*
X144576028Y-93218000D01*
X144526000Y-93208049D01*
X144475972Y-93218000D01*
X143320942Y-93218000D01*
X143091453Y-92874547D01*
X142700803Y-92613522D01*
X142356318Y-92545000D01*
X142123682Y-92545000D01*
X141779197Y-92613522D01*
X141388547Y-92874547D01*
X141127522Y-93265197D01*
X141035863Y-93726000D01*
X141127522Y-94186803D01*
X141388547Y-94577453D01*
X141779197Y-94838478D01*
X142123682Y-94907000D01*
X142356318Y-94907000D01*
X142700803Y-94838478D01*
X143091453Y-94577453D01*
X143320942Y-94234000D01*
X144315580Y-94234000D01*
X148693927Y-98612348D01*
X148604884Y-99060000D01*
X148700424Y-99540312D01*
X148972499Y-99947501D01*
X149379688Y-100219576D01*
X149738761Y-100291000D01*
X149981239Y-100291000D01*
X150340312Y-100219576D01*
X150736301Y-99954985D01*
X150736301Y-100705015D01*
X150340312Y-100440424D01*
X149981239Y-100369000D01*
X149738761Y-100369000D01*
X149412348Y-100433928D01*
X149404588Y-100426168D01*
X149376248Y-100383754D01*
X149208213Y-100271476D01*
X149122786Y-100254484D01*
X144810470Y-95942168D01*
X144782129Y-95899753D01*
X144614094Y-95787475D01*
X144465914Y-95758000D01*
X144465910Y-95758000D01*
X144415882Y-95748049D01*
X144365854Y-95758000D01*
X143320942Y-95758000D01*
X143091453Y-95414547D01*
X142700803Y-95153522D01*
X142356318Y-95085000D01*
X142123682Y-95085000D01*
X141779197Y-95153522D01*
X141388547Y-95414547D01*
X141127522Y-95805197D01*
X141035863Y-96266000D01*
X141127522Y-96726803D01*
X141388547Y-97117453D01*
X141779197Y-97378478D01*
X142123682Y-97447000D01*
X142356318Y-97447000D01*
X142700803Y-97378478D01*
X143091453Y-97117453D01*
X143320942Y-96774000D01*
X144205462Y-96774000D01*
X145384243Y-97952782D01*
X144934546Y-97974222D01*
X144533995Y-98140136D01*
X144459861Y-98386255D01*
X145288000Y-99214395D01*
X145302142Y-99200252D01*
X145481748Y-99379858D01*
X145467605Y-99394000D01*
X145481748Y-99408142D01*
X145302142Y-99587748D01*
X145288000Y-99573605D01*
X145273858Y-99587748D01*
X145094252Y-99408142D01*
X145108395Y-99394000D01*
X144280255Y-98565861D01*
X144034136Y-98639995D01*
X143841035Y-99177223D01*
X143866637Y-99714217D01*
X143363552Y-99211132D01*
X143444137Y-98806000D01*
X143352478Y-98345197D01*
X143091453Y-97954547D01*
X142700803Y-97693522D01*
X142356318Y-97625000D01*
X142123682Y-97625000D01*
X141779197Y-97693522D01*
X141388547Y-97954547D01*
X141127522Y-98345197D01*
X141035863Y-98806000D01*
X141127522Y-99266803D01*
X141388547Y-99657453D01*
X141779197Y-99918478D01*
X142123682Y-99987000D01*
X142356318Y-99987000D01*
X142645132Y-99929552D01*
X142645411Y-99929831D01*
X143553579Y-100838000D01*
X143320942Y-100838000D01*
X143091453Y-100494547D01*
X142700803Y-100233522D01*
X142356318Y-100165000D01*
X142123682Y-100165000D01*
X141779197Y-100233522D01*
X141388547Y-100494547D01*
X141127522Y-100885197D01*
X141035863Y-101346000D01*
X141127522Y-101806803D01*
X141388547Y-102197453D01*
X141779197Y-102458478D01*
X142112998Y-102524875D01*
X142112998Y-102615370D01*
X141890959Y-102494086D01*
X141384866Y-102733611D01*
X141008959Y-103148577D01*
X140848096Y-103536961D01*
X140970085Y-103759000D01*
X142113000Y-103759000D01*
X142113000Y-103739000D01*
X142367000Y-103739000D01*
X142367000Y-103759000D01*
X143509915Y-103759000D01*
X143631904Y-103536961D01*
X143471041Y-103148577D01*
X143095134Y-102733611D01*
X142589041Y-102494086D01*
X142367002Y-102615370D01*
X142367002Y-102524875D01*
X142700803Y-102458478D01*
X143091453Y-102197453D01*
X143320942Y-101854000D01*
X144315580Y-101854000D01*
X145781823Y-103320243D01*
X145522915Y-103213000D01*
X145053085Y-103213000D01*
X144619017Y-103392797D01*
X144286797Y-103725017D01*
X144107000Y-104159085D01*
X144107000Y-104628915D01*
X144286797Y-105062983D01*
X144619017Y-105395203D01*
X144710414Y-105433061D01*
X144533995Y-105506136D01*
X144459861Y-105752255D01*
X145288000Y-106580395D01*
X146116139Y-105752255D01*
X146042005Y-105506136D01*
X145853096Y-105438235D01*
X145956983Y-105395203D01*
X146289203Y-105062983D01*
X146469000Y-104628915D01*
X146469000Y-104159085D01*
X146361757Y-103900177D01*
X148693927Y-106232348D01*
X148604884Y-106680000D01*
X148700424Y-107160312D01*
X148972499Y-107567501D01*
X149379688Y-107839576D01*
X149738761Y-107911000D01*
X149981239Y-107911000D01*
X150340312Y-107839576D01*
X150736301Y-107574985D01*
X150736301Y-108325015D01*
X150340312Y-108060424D01*
X149981239Y-107989000D01*
X149738761Y-107989000D01*
X149379688Y-108060424D01*
X148972499Y-108332499D01*
X148700424Y-108739688D01*
X148604884Y-109220000D01*
X148693928Y-109667652D01*
X148686169Y-109675411D01*
X148643754Y-109703752D01*
X148531476Y-109871788D01*
X148502001Y-110019968D01*
X148502001Y-110019971D01*
X148492050Y-110069999D01*
X148495934Y-110089527D01*
X146383053Y-112202409D01*
X146469000Y-111994915D01*
X146469000Y-111525085D01*
X146289203Y-111091017D01*
X145956983Y-110758797D01*
X145796000Y-110692116D01*
X145796000Y-110678657D01*
X145805951Y-110628629D01*
X145796000Y-110578601D01*
X145796000Y-110578598D01*
X145766525Y-110430418D01*
X145654247Y-110262383D01*
X145611832Y-110234042D01*
X143929001Y-108551211D01*
X143929001Y-107767745D01*
X144459861Y-107767745D01*
X144533995Y-108013864D01*
X145071223Y-108206965D01*
X145641454Y-108179778D01*
X146042005Y-108013864D01*
X146116139Y-107767745D01*
X145288000Y-106939605D01*
X144459861Y-107767745D01*
X143929001Y-107767745D01*
X143929001Y-107657028D01*
X143938952Y-107607000D01*
X143929001Y-107556972D01*
X143929001Y-107556969D01*
X143899526Y-107408789D01*
X143848681Y-107332694D01*
X143815589Y-107283168D01*
X143815587Y-107283166D01*
X143787248Y-107240754D01*
X143744836Y-107212415D01*
X143363831Y-106831411D01*
X143363552Y-106831132D01*
X143420820Y-106543223D01*
X143841035Y-106543223D01*
X143868222Y-107113454D01*
X144034136Y-107514005D01*
X144280255Y-107588139D01*
X145108395Y-106760000D01*
X145467605Y-106760000D01*
X146295745Y-107588139D01*
X146541864Y-107514005D01*
X146734965Y-106976777D01*
X146707778Y-106406546D01*
X146541864Y-106005995D01*
X146295745Y-105931861D01*
X145467605Y-106760000D01*
X145108395Y-106760000D01*
X144280255Y-105931861D01*
X144034136Y-106005995D01*
X143841035Y-106543223D01*
X143420820Y-106543223D01*
X143444137Y-106426000D01*
X143352478Y-105965197D01*
X143091453Y-105574547D01*
X142700803Y-105313522D01*
X142367002Y-105247125D01*
X142367002Y-105156630D01*
X142589041Y-105277914D01*
X143095134Y-105038389D01*
X143471041Y-104623423D01*
X143631904Y-104235039D01*
X143509915Y-104013000D01*
X142367000Y-104013000D01*
X142367000Y-104033000D01*
X142113000Y-104033000D01*
X142113000Y-104013000D01*
X140970085Y-104013000D01*
X140848096Y-104235039D01*
X141008959Y-104623423D01*
X141384866Y-105038389D01*
X141890959Y-105277914D01*
X142112998Y-105156630D01*
X142112998Y-105247125D01*
X141779197Y-105313522D01*
X141388547Y-105574547D01*
X141127522Y-105965197D01*
X141035863Y-106426000D01*
X141127522Y-106886803D01*
X141388547Y-107277453D01*
X141779197Y-107538478D01*
X142123682Y-107607000D01*
X142356318Y-107607000D01*
X142645132Y-107549552D01*
X142913002Y-107817422D01*
X142913002Y-107995309D01*
X142700803Y-107853522D01*
X142356318Y-107785000D01*
X142123682Y-107785000D01*
X141779197Y-107853522D01*
X141388547Y-108114547D01*
X141127522Y-108505197D01*
X141035863Y-108966000D01*
X141127522Y-109426803D01*
X141388547Y-109817453D01*
X141779197Y-110078478D01*
X142123682Y-110147000D01*
X142356318Y-110147000D01*
X142700803Y-110078478D01*
X143091453Y-109817453D01*
X143352478Y-109426803D01*
X143355012Y-109414062D01*
X144676102Y-110735152D01*
X144619017Y-110758797D01*
X144286797Y-111091017D01*
X144107000Y-111525085D01*
X144107000Y-111994915D01*
X144286797Y-112428983D01*
X144290815Y-112433001D01*
X143885421Y-112433001D01*
X143363552Y-111911132D01*
X143444137Y-111506000D01*
X143352478Y-111045197D01*
X143091453Y-110654547D01*
X142700803Y-110393522D01*
X142356318Y-110325000D01*
X142123682Y-110325000D01*
X141779197Y-110393522D01*
X141388547Y-110654547D01*
X141127522Y-111045197D01*
X141035863Y-111506000D01*
X141116448Y-111911132D01*
X141116171Y-111911409D01*
X141116168Y-111911411D01*
X140735164Y-112292415D01*
X140692753Y-112320754D01*
X140664414Y-112363166D01*
X140664411Y-112363169D01*
X140580474Y-112488790D01*
X140541048Y-112687001D01*
X140551000Y-112737034D01*
X140550999Y-119258578D01*
X137833030Y-116540610D01*
X137833029Y-91186000D01*
X141035863Y-91186000D01*
X141127522Y-91646803D01*
X141388547Y-92037453D01*
X141779197Y-92298478D01*
X142123682Y-92367000D01*
X142356318Y-92367000D01*
X142700803Y-92298478D01*
X143091453Y-92037453D01*
X143352478Y-91646803D01*
X143444137Y-91186000D01*
X143352478Y-90725197D01*
X143091453Y-90334547D01*
X142700803Y-90073522D01*
X142356318Y-90005000D01*
X142123682Y-90005000D01*
X141779197Y-90073522D01*
X141388547Y-90334547D01*
X141127522Y-90725197D01*
X141035863Y-91186000D01*
X137833029Y-91186000D01*
X137833029Y-88646000D01*
X141035863Y-88646000D01*
X141127522Y-89106803D01*
X141388547Y-89497453D01*
X141779197Y-89758478D01*
X142123682Y-89827000D01*
X142356318Y-89827000D01*
X142700803Y-89758478D01*
X143091453Y-89497453D01*
X143352478Y-89106803D01*
X143444137Y-88646000D01*
X143352478Y-88185197D01*
X143091453Y-87794547D01*
X142700803Y-87533522D01*
X142356318Y-87465000D01*
X142123682Y-87465000D01*
X141779197Y-87533522D01*
X141388547Y-87794547D01*
X141127522Y-88185197D01*
X141035863Y-88646000D01*
X137833029Y-88646000D01*
X137833028Y-88396826D01*
X137842980Y-88346793D01*
X137803554Y-88148581D01*
X137719617Y-88022960D01*
X137719612Y-88022955D01*
X137691275Y-87980546D01*
X137648866Y-87952209D01*
X135794461Y-86097805D01*
X136014273Y-86006755D01*
X136402755Y-85618273D01*
X136516363Y-85344000D01*
X140447637Y-85344000D01*
X140561245Y-85618273D01*
X140561245Y-85618273D01*
G37*
X140561245Y-85618273D02*
X140949727Y-86006755D01*
X141457302Y-86217000D01*
X142006698Y-86217000D01*
X142514273Y-86006755D01*
X142730304Y-85790724D01*
X144164448Y-87224869D01*
X144083863Y-87630000D01*
X144175522Y-88090803D01*
X144436547Y-88481453D01*
X144780001Y-88710942D01*
X144780001Y-89357967D01*
X144770049Y-89408000D01*
X144809475Y-89606211D01*
X144893412Y-89731832D01*
X144893415Y-89731835D01*
X144921754Y-89774247D01*
X144964166Y-89802586D01*
X148693928Y-93532348D01*
X148604884Y-93980000D01*
X148700424Y-94460312D01*
X148972499Y-94867501D01*
X149379688Y-95139576D01*
X149738761Y-95211000D01*
X149981239Y-95211000D01*
X150340312Y-95139576D01*
X150736300Y-94874985D01*
X150736300Y-95625015D01*
X150340312Y-95360424D01*
X149981239Y-95289000D01*
X149738761Y-95289000D01*
X149379688Y-95360424D01*
X148972499Y-95632499D01*
X148700424Y-96039688D01*
X148604884Y-96520000D01*
X148700424Y-97000312D01*
X148972499Y-97407501D01*
X149379688Y-97679576D01*
X149738761Y-97751000D01*
X149981239Y-97751000D01*
X150340312Y-97679576D01*
X150736301Y-97414985D01*
X150736301Y-98165015D01*
X150340312Y-97900424D01*
X149981239Y-97829000D01*
X149738761Y-97829000D01*
X149412348Y-97893927D01*
X144920588Y-93402168D01*
X144892247Y-93359753D01*
X144724212Y-93247475D01*
X144576032Y-93218000D01*
X144576028Y-93218000D01*
X144526000Y-93208049D01*
X144475972Y-93218000D01*
X143320942Y-93218000D01*
X143091453Y-92874547D01*
X142700803Y-92613522D01*
X142356318Y-92545000D01*
X142123682Y-92545000D01*
X141779197Y-92613522D01*
X141388547Y-92874547D01*
X141127522Y-93265197D01*
X141035863Y-93726000D01*
X141127522Y-94186803D01*
X141388547Y-94577453D01*
X141779197Y-94838478D01*
X142123682Y-94907000D01*
X142356318Y-94907000D01*
X142700803Y-94838478D01*
X143091453Y-94577453D01*
X143320942Y-94234000D01*
X144315580Y-94234000D01*
X148693927Y-98612348D01*
X148604884Y-99060000D01*
X148700424Y-99540312D01*
X148972499Y-99947501D01*
X149379688Y-100219576D01*
X149738761Y-100291000D01*
X149981239Y-100291000D01*
X150340312Y-100219576D01*
X150736301Y-99954985D01*
X150736301Y-100705015D01*
X150340312Y-100440424D01*
X149981239Y-100369000D01*
X149738761Y-100369000D01*
X149412348Y-100433928D01*
X149404588Y-100426168D01*
X149376248Y-100383754D01*
X149208213Y-100271476D01*
X149122786Y-100254484D01*
X144810470Y-95942168D01*
X144782129Y-95899753D01*
X144614094Y-95787475D01*
X144465914Y-95758000D01*
X144465910Y-95758000D01*
X144415882Y-95748049D01*
X144365854Y-95758000D01*
X143320942Y-95758000D01*
X143091453Y-95414547D01*
X142700803Y-95153522D01*
X142356318Y-95085000D01*
X142123682Y-95085000D01*
X141779197Y-95153522D01*
X141388547Y-95414547D01*
X141127522Y-95805197D01*
X141035863Y-96266000D01*
X141127522Y-96726803D01*
X141388547Y-97117453D01*
X141779197Y-97378478D01*
X142123682Y-97447000D01*
X142356318Y-97447000D01*
X142700803Y-97378478D01*
X143091453Y-97117453D01*
X143320942Y-96774000D01*
X144205462Y-96774000D01*
X145384243Y-97952782D01*
X144934546Y-97974222D01*
X144533995Y-98140136D01*
X144459861Y-98386255D01*
X145288000Y-99214395D01*
X145302142Y-99200252D01*
X145481748Y-99379858D01*
X145467605Y-99394000D01*
X145481748Y-99408142D01*
X145302142Y-99587748D01*
X145288000Y-99573605D01*
X145273858Y-99587748D01*
X145094252Y-99408142D01*
X145108395Y-99394000D01*
X144280255Y-98565861D01*
X144034136Y-98639995D01*
X143841035Y-99177223D01*
X143866637Y-99714217D01*
X143363552Y-99211132D01*
X143444137Y-98806000D01*
X143352478Y-98345197D01*
X143091453Y-97954547D01*
X142700803Y-97693522D01*
X142356318Y-97625000D01*
X142123682Y-97625000D01*
X141779197Y-97693522D01*
X141388547Y-97954547D01*
X141127522Y-98345197D01*
X141035863Y-98806000D01*
X141127522Y-99266803D01*
X141388547Y-99657453D01*
X141779197Y-99918478D01*
X142123682Y-99987000D01*
X142356318Y-99987000D01*
X142645132Y-99929552D01*
X142645411Y-99929831D01*
X143553579Y-100838000D01*
X143320942Y-100838000D01*
X143091453Y-100494547D01*
X142700803Y-100233522D01*
X142356318Y-100165000D01*
X142123682Y-100165000D01*
X141779197Y-100233522D01*
X141388547Y-100494547D01*
X141127522Y-100885197D01*
X141035863Y-101346000D01*
X141127522Y-101806803D01*
X141388547Y-102197453D01*
X141779197Y-102458478D01*
X142112998Y-102524875D01*
X142112998Y-102615370D01*
X141890959Y-102494086D01*
X141384866Y-102733611D01*
X141008959Y-103148577D01*
X140848096Y-103536961D01*
X140970085Y-103759000D01*
X142113000Y-103759000D01*
X142113000Y-103739000D01*
X142367000Y-103739000D01*
X142367000Y-103759000D01*
X143509915Y-103759000D01*
X143631904Y-103536961D01*
X143471041Y-103148577D01*
X143095134Y-102733611D01*
X142589041Y-102494086D01*
X142367002Y-102615370D01*
X142367002Y-102524875D01*
X142700803Y-102458478D01*
X143091453Y-102197453D01*
X143320942Y-101854000D01*
X144315580Y-101854000D01*
X145781823Y-103320243D01*
X145522915Y-103213000D01*
X145053085Y-103213000D01*
X144619017Y-103392797D01*
X144286797Y-103725017D01*
X144107000Y-104159085D01*
X144107000Y-104628915D01*
X144286797Y-105062983D01*
X144619017Y-105395203D01*
X144710414Y-105433061D01*
X144533995Y-105506136D01*
X144459861Y-105752255D01*
X145288000Y-106580395D01*
X146116139Y-105752255D01*
X146042005Y-105506136D01*
X145853096Y-105438235D01*
X145956983Y-105395203D01*
X146289203Y-105062983D01*
X146469000Y-104628915D01*
X146469000Y-104159085D01*
X146361757Y-103900177D01*
X148693927Y-106232348D01*
X148604884Y-106680000D01*
X148700424Y-107160312D01*
X148972499Y-107567501D01*
X149379688Y-107839576D01*
X149738761Y-107911000D01*
X149981239Y-107911000D01*
X150340312Y-107839576D01*
X150736301Y-107574985D01*
X150736301Y-108325015D01*
X150340312Y-108060424D01*
X149981239Y-107989000D01*
X149738761Y-107989000D01*
X149379688Y-108060424D01*
X148972499Y-108332499D01*
X148700424Y-108739688D01*
X148604884Y-109220000D01*
X148693928Y-109667652D01*
X148686169Y-109675411D01*
X148643754Y-109703752D01*
X148531476Y-109871788D01*
X148502001Y-110019968D01*
X148502001Y-110019971D01*
X148492050Y-110069999D01*
X148495934Y-110089527D01*
X146383053Y-112202409D01*
X146469000Y-111994915D01*
X146469000Y-111525085D01*
X146289203Y-111091017D01*
X145956983Y-110758797D01*
X145796000Y-110692116D01*
X145796000Y-110678657D01*
X145805951Y-110628629D01*
X145796000Y-110578601D01*
X145796000Y-110578598D01*
X145766525Y-110430418D01*
X145654247Y-110262383D01*
X145611832Y-110234042D01*
X143929001Y-108551211D01*
X143929001Y-107767745D01*
X144459861Y-107767745D01*
X144533995Y-108013864D01*
X145071223Y-108206965D01*
X145641454Y-108179778D01*
X146042005Y-108013864D01*
X146116139Y-107767745D01*
X145288000Y-106939605D01*
X144459861Y-107767745D01*
X143929001Y-107767745D01*
X143929001Y-107657028D01*
X143938952Y-107607000D01*
X143929001Y-107556972D01*
X143929001Y-107556969D01*
X143899526Y-107408789D01*
X143848681Y-107332694D01*
X143815589Y-107283168D01*
X143815587Y-107283166D01*
X143787248Y-107240754D01*
X143744836Y-107212415D01*
X143363831Y-106831411D01*
X143363552Y-106831132D01*
X143420820Y-106543223D01*
X143841035Y-106543223D01*
X143868222Y-107113454D01*
X144034136Y-107514005D01*
X144280255Y-107588139D01*
X145108395Y-106760000D01*
X145467605Y-106760000D01*
X146295745Y-107588139D01*
X146541864Y-107514005D01*
X146734965Y-106976777D01*
X146707778Y-106406546D01*
X146541864Y-106005995D01*
X146295745Y-105931861D01*
X145467605Y-106760000D01*
X145108395Y-106760000D01*
X144280255Y-105931861D01*
X144034136Y-106005995D01*
X143841035Y-106543223D01*
X143420820Y-106543223D01*
X143444137Y-106426000D01*
X143352478Y-105965197D01*
X143091453Y-105574547D01*
X142700803Y-105313522D01*
X142367002Y-105247125D01*
X142367002Y-105156630D01*
X142589041Y-105277914D01*
X143095134Y-105038389D01*
X143471041Y-104623423D01*
X143631904Y-104235039D01*
X143509915Y-104013000D01*
X142367000Y-104013000D01*
X142367000Y-104033000D01*
X142113000Y-104033000D01*
X142113000Y-104013000D01*
X140970085Y-104013000D01*
X140848096Y-104235039D01*
X141008959Y-104623423D01*
X141384866Y-105038389D01*
X141890959Y-105277914D01*
X142112998Y-105156630D01*
X142112998Y-105247125D01*
X141779197Y-105313522D01*
X141388547Y-105574547D01*
X141127522Y-105965197D01*
X141035863Y-106426000D01*
X141127522Y-106886803D01*
X141388547Y-107277453D01*
X141779197Y-107538478D01*
X142123682Y-107607000D01*
X142356318Y-107607000D01*
X142645132Y-107549552D01*
X142913002Y-107817422D01*
X142913002Y-107995309D01*
X142700803Y-107853522D01*
X142356318Y-107785000D01*
X142123682Y-107785000D01*
X141779197Y-107853522D01*
X141388547Y-108114547D01*
X141127522Y-108505197D01*
X141035863Y-108966000D01*
X141127522Y-109426803D01*
X141388547Y-109817453D01*
X141779197Y-110078478D01*
X142123682Y-110147000D01*
X142356318Y-110147000D01*
X142700803Y-110078478D01*
X143091453Y-109817453D01*
X143352478Y-109426803D01*
X143355012Y-109414062D01*
X144676102Y-110735152D01*
X144619017Y-110758797D01*
X144286797Y-111091017D01*
X144107000Y-111525085D01*
X144107000Y-111994915D01*
X144286797Y-112428983D01*
X144290815Y-112433001D01*
X143885421Y-112433001D01*
X143363552Y-111911132D01*
X143444137Y-111506000D01*
X143352478Y-111045197D01*
X143091453Y-110654547D01*
X142700803Y-110393522D01*
X142356318Y-110325000D01*
X142123682Y-110325000D01*
X141779197Y-110393522D01*
X141388547Y-110654547D01*
X141127522Y-111045197D01*
X141035863Y-111506000D01*
X141116448Y-111911132D01*
X141116171Y-111911409D01*
X141116168Y-111911411D01*
X140735164Y-112292415D01*
X140692753Y-112320754D01*
X140664414Y-112363166D01*
X140664411Y-112363169D01*
X140580474Y-112488790D01*
X140541048Y-112687001D01*
X140551000Y-112737034D01*
X140550999Y-119258578D01*
X137833030Y-116540610D01*
X137833029Y-91186000D01*
X141035863Y-91186000D01*
X141127522Y-91646803D01*
X141388547Y-92037453D01*
X141779197Y-92298478D01*
X142123682Y-92367000D01*
X142356318Y-92367000D01*
X142700803Y-92298478D01*
X143091453Y-92037453D01*
X143352478Y-91646803D01*
X143444137Y-91186000D01*
X143352478Y-90725197D01*
X143091453Y-90334547D01*
X142700803Y-90073522D01*
X142356318Y-90005000D01*
X142123682Y-90005000D01*
X141779197Y-90073522D01*
X141388547Y-90334547D01*
X141127522Y-90725197D01*
X141035863Y-91186000D01*
X137833029Y-91186000D01*
X137833029Y-88646000D01*
X141035863Y-88646000D01*
X141127522Y-89106803D01*
X141388547Y-89497453D01*
X141779197Y-89758478D01*
X142123682Y-89827000D01*
X142356318Y-89827000D01*
X142700803Y-89758478D01*
X143091453Y-89497453D01*
X143352478Y-89106803D01*
X143444137Y-88646000D01*
X143352478Y-88185197D01*
X143091453Y-87794547D01*
X142700803Y-87533522D01*
X142356318Y-87465000D01*
X142123682Y-87465000D01*
X141779197Y-87533522D01*
X141388547Y-87794547D01*
X141127522Y-88185197D01*
X141035863Y-88646000D01*
X137833029Y-88646000D01*
X137833028Y-88396826D01*
X137842980Y-88346793D01*
X137803554Y-88148581D01*
X137719617Y-88022960D01*
X137719612Y-88022955D01*
X137691275Y-87980546D01*
X137648866Y-87952209D01*
X135794461Y-86097805D01*
X136014273Y-86006755D01*
X136402755Y-85618273D01*
X136516363Y-85344000D01*
X140447637Y-85344000D01*
X140561245Y-85618273D01*
G36*
X130248411Y-95230833D02*
X130276752Y-95273248D01*
X130444787Y-95385526D01*
X130592967Y-95415001D01*
X130592971Y-95415001D01*
X130642999Y-95424952D01*
X130693027Y-95415001D01*
X133768244Y-95415001D01*
X133539058Y-95758000D01*
X129844028Y-95758000D01*
X129794000Y-95748049D01*
X129743972Y-95758000D01*
X129743968Y-95758000D01*
X129595788Y-95787475D01*
X129470167Y-95871412D01*
X129470165Y-95871414D01*
X129427753Y-95899753D01*
X129399414Y-95942165D01*
X128425063Y-96916516D01*
X128441476Y-96876890D01*
X128320155Y-96647000D01*
X127127000Y-96647000D01*
X127127000Y-96667000D01*
X126873000Y-96667000D01*
X126873000Y-96647000D01*
X126853000Y-96647000D01*
X126853000Y-96393000D01*
X126873000Y-96393000D01*
X126873000Y-96373000D01*
X127127000Y-96373000D01*
X127127000Y-96393000D01*
X128320155Y-96393000D01*
X128441476Y-96163110D01*
X128271645Y-95753076D01*
X127881358Y-95324817D01*
X127483037Y-95137755D01*
X127887501Y-94867501D01*
X128159576Y-94460312D01*
X128255116Y-93980000D01*
X128187088Y-93638001D01*
X128655579Y-93638001D01*
X130248411Y-95230833D01*
X130248411Y-95230833D01*
G37*
X130248411Y-95230833D02*
X130276752Y-95273248D01*
X130444787Y-95385526D01*
X130592967Y-95415001D01*
X130592971Y-95415001D01*
X130642999Y-95424952D01*
X130693027Y-95415001D01*
X133768244Y-95415001D01*
X133539058Y-95758000D01*
X129844028Y-95758000D01*
X129794000Y-95748049D01*
X129743972Y-95758000D01*
X129743968Y-95758000D01*
X129595788Y-95787475D01*
X129470167Y-95871412D01*
X129470165Y-95871414D01*
X129427753Y-95899753D01*
X129399414Y-95942165D01*
X128425063Y-96916516D01*
X128441476Y-96876890D01*
X128320155Y-96647000D01*
X127127000Y-96647000D01*
X127127000Y-96667000D01*
X126873000Y-96667000D01*
X126873000Y-96647000D01*
X126853000Y-96647000D01*
X126853000Y-96393000D01*
X126873000Y-96393000D01*
X126873000Y-96373000D01*
X127127000Y-96373000D01*
X127127000Y-96393000D01*
X128320155Y-96393000D01*
X128441476Y-96163110D01*
X128271645Y-95753076D01*
X127881358Y-95324817D01*
X127483037Y-95137755D01*
X127887501Y-94867501D01*
X128159576Y-94460312D01*
X128255116Y-93980000D01*
X128187088Y-93638001D01*
X128655579Y-93638001D01*
X130248411Y-95230833D01*
G36*
X130920424Y-50319688D02*
X130824884Y-50800000D01*
X130920424Y-51280312D01*
X131192499Y-51687501D01*
X131599688Y-51959576D01*
X131958761Y-52031000D01*
X132201239Y-52031000D01*
X132560312Y-51959576D01*
X132967501Y-51687501D01*
X133239576Y-51280312D01*
X133335116Y-50800000D01*
X133239576Y-50319688D01*
X132974985Y-49923700D01*
X133725015Y-49923700D01*
X133460424Y-50319688D01*
X133364884Y-50800000D01*
X133460424Y-51280312D01*
X133732499Y-51687501D01*
X134139688Y-51959576D01*
X134498761Y-52031000D01*
X134741239Y-52031000D01*
X135100312Y-51959576D01*
X135507501Y-51687501D01*
X135777755Y-51283037D01*
X135964817Y-51681358D01*
X136393076Y-52071645D01*
X136803110Y-52241476D01*
X137033000Y-52120155D01*
X137033000Y-50927000D01*
X137287000Y-50927000D01*
X137287000Y-52120155D01*
X137516890Y-52241476D01*
X137926924Y-52071645D01*
X138224864Y-51800122D01*
X138311673Y-52009698D01*
X138490301Y-52188327D01*
X138723690Y-52285000D01*
X139414250Y-52285000D01*
X139573000Y-52126250D01*
X139573000Y-50927000D01*
X139827000Y-50927000D01*
X139827000Y-52126250D01*
X139985750Y-52285000D01*
X140676310Y-52285000D01*
X140909699Y-52188327D01*
X141088327Y-52009698D01*
X141185000Y-51776309D01*
X141185000Y-51085750D01*
X141026250Y-50927000D01*
X139827000Y-50927000D01*
X139573000Y-50927000D01*
X137287000Y-50927000D01*
X137033000Y-50927000D01*
X137013000Y-50927000D01*
X137013000Y-50673000D01*
X137033000Y-50673000D01*
X137033000Y-50653000D01*
X137287000Y-50653000D01*
X137287000Y-50673000D01*
X139573000Y-50673000D01*
X139573000Y-50653000D01*
X139827000Y-50653000D01*
X139827000Y-50673000D01*
X141026250Y-50673000D01*
X141185000Y-50514250D01*
X141185000Y-49923700D01*
X150736300Y-49923700D01*
X150736300Y-74966767D01*
X150710000Y-74961536D01*
X149010000Y-74961536D01*
X148861341Y-74991106D01*
X148735314Y-75075314D01*
X148651106Y-75201341D01*
X148621536Y-75350000D01*
X148621536Y-76145307D01*
X147639707Y-77127137D01*
X147563353Y-77178155D01*
X147361253Y-77480621D01*
X147322794Y-77673968D01*
X147290285Y-77837401D01*
X147308199Y-77927460D01*
X147308200Y-85255735D01*
X147290285Y-85345799D01*
X147344484Y-85618273D01*
X147361254Y-85702580D01*
X147563354Y-86005045D01*
X147639705Y-86056061D01*
X148945600Y-87361957D01*
X148945600Y-87674346D01*
X148861341Y-87691106D01*
X148735314Y-87775314D01*
X148651106Y-87901341D01*
X148621536Y-88050000D01*
X148621536Y-89750000D01*
X148651106Y-89898659D01*
X148735314Y-90024686D01*
X148861341Y-90108894D01*
X149010000Y-90138464D01*
X149205105Y-90138464D01*
X148978642Y-90244817D01*
X148588355Y-90673076D01*
X148418524Y-91083110D01*
X148539845Y-91313000D01*
X149733000Y-91313000D01*
X149733000Y-91293000D01*
X149987000Y-91293000D01*
X149987000Y-91313000D01*
X150007000Y-91313000D01*
X150007000Y-91567000D01*
X149987000Y-91567000D01*
X149987000Y-91587000D01*
X149733000Y-91587000D01*
X149733000Y-91567000D01*
X148539845Y-91567000D01*
X148418524Y-91796890D01*
X148434937Y-91836517D01*
X145796000Y-89197580D01*
X145796000Y-88710942D01*
X146139453Y-88481453D01*
X146400478Y-88090803D01*
X146492137Y-87630000D01*
X146411552Y-87224868D01*
X146482586Y-87153834D01*
X146919844Y-86716577D01*
X146962256Y-86688238D01*
X146990595Y-86645826D01*
X146990597Y-86645824D01*
X147037892Y-86575041D01*
X147074534Y-86520203D01*
X147104009Y-86372023D01*
X147104009Y-86372019D01*
X147113960Y-86321991D01*
X147104009Y-86271963D01*
X147104009Y-66016236D01*
X147113960Y-65966208D01*
X147104009Y-65916180D01*
X147104009Y-65916176D01*
X147074534Y-65767996D01*
X146990597Y-65642375D01*
X146990595Y-65642373D01*
X146962256Y-65599961D01*
X146919845Y-65571623D01*
X140234990Y-58886769D01*
X140234990Y-58809553D01*
X140499493Y-58986289D01*
X140983000Y-59082464D01*
X142733000Y-59082464D01*
X143216507Y-58986289D01*
X143626404Y-58712404D01*
X143900289Y-58302507D01*
X143921872Y-58194000D01*
X144419536Y-58194000D01*
X144419536Y-61694000D01*
X144449106Y-61842659D01*
X144533314Y-61968686D01*
X144659341Y-62052894D01*
X144808000Y-62082464D01*
X148308000Y-62082464D01*
X148456659Y-62052894D01*
X148582686Y-61968686D01*
X148666894Y-61842659D01*
X148696464Y-61694000D01*
X148696464Y-58194000D01*
X148666894Y-58045341D01*
X148582686Y-57919314D01*
X148456659Y-57835106D01*
X148308000Y-57805536D01*
X144808000Y-57805536D01*
X144659341Y-57835106D01*
X144533314Y-57919314D01*
X144449106Y-58045341D01*
X144419536Y-58194000D01*
X143921872Y-58194000D01*
X143996464Y-57819000D01*
X143996464Y-56069000D01*
X143900289Y-55585493D01*
X143626404Y-55175596D01*
X143216507Y-54901711D01*
X142733000Y-54805536D01*
X140983000Y-54805536D01*
X140499493Y-54901711D01*
X140089596Y-55175596D01*
X139815711Y-55585493D01*
X139773571Y-55797348D01*
X138205973Y-54229750D01*
X144173000Y-54229750D01*
X144173000Y-55570309D01*
X144269673Y-55803698D01*
X144448301Y-55982327D01*
X144681690Y-56079000D01*
X146272250Y-56079000D01*
X146431000Y-55920250D01*
X146431000Y-54071000D01*
X146685000Y-54071000D01*
X146685000Y-55920250D01*
X146843750Y-56079000D01*
X148434310Y-56079000D01*
X148667699Y-55982327D01*
X148846327Y-55803698D01*
X148943000Y-55570309D01*
X148943000Y-54229750D01*
X148784250Y-54071000D01*
X146685000Y-54071000D01*
X146431000Y-54071000D01*
X144331750Y-54071000D01*
X144173000Y-54229750D01*
X138205973Y-54229750D01*
X138008390Y-54032168D01*
X137980049Y-53989753D01*
X137812014Y-53877475D01*
X137663834Y-53848000D01*
X137663830Y-53848000D01*
X137613802Y-53838049D01*
X137563774Y-53848000D01*
X133655884Y-53848000D01*
X133589203Y-53687017D01*
X133256983Y-53354797D01*
X132822915Y-53175000D01*
X132353085Y-53175000D01*
X131919017Y-53354797D01*
X131586797Y-53687017D01*
X131407000Y-54121085D01*
X131407000Y-54590915D01*
X131586797Y-55024983D01*
X131919017Y-55357203D01*
X132353085Y-55537000D01*
X132822915Y-55537000D01*
X133256983Y-55357203D01*
X133589203Y-55024983D01*
X133655884Y-54864000D01*
X137403382Y-54864000D01*
X138146918Y-55607536D01*
X136768000Y-55607536D01*
X136619341Y-55637106D01*
X136493314Y-55721314D01*
X136409106Y-55847341D01*
X136379536Y-55996000D01*
X136379536Y-56570061D01*
X136213979Y-56170372D01*
X135853628Y-55810021D01*
X135382807Y-55615000D01*
X134873193Y-55615000D01*
X134402372Y-55810021D01*
X134042021Y-56170372D01*
X133847000Y-56641193D01*
X133847000Y-57150807D01*
X134042021Y-57621628D01*
X134402372Y-57981979D01*
X134873193Y-58177000D01*
X135382807Y-58177000D01*
X135853628Y-57981979D01*
X136213979Y-57621628D01*
X136379536Y-57221939D01*
X136379536Y-57796000D01*
X136409106Y-57944659D01*
X136493314Y-58070686D01*
X136619341Y-58154894D01*
X136768000Y-58184464D01*
X138568000Y-58184464D01*
X138716659Y-58154894D01*
X138842686Y-58070686D01*
X138926894Y-57944659D01*
X138956464Y-57796000D01*
X138956464Y-56417083D01*
X139218990Y-56679609D01*
X139218991Y-59047156D01*
X139209039Y-59097189D01*
X139248465Y-59295400D01*
X139332402Y-59421021D01*
X139332405Y-59421024D01*
X139360744Y-59463436D01*
X139403156Y-59491775D01*
X144316370Y-64404990D01*
X137984736Y-64404990D01*
X137934708Y-64395039D01*
X137884680Y-64404990D01*
X137884676Y-64404990D01*
X137736496Y-64434465D01*
X137568461Y-64546743D01*
X137540120Y-64589158D01*
X135820166Y-66309112D01*
X135777754Y-66337451D01*
X135749415Y-66379863D01*
X135749412Y-66379866D01*
X135665475Y-66505487D01*
X135626049Y-66703698D01*
X135636001Y-66753730D01*
X135636000Y-67607580D01*
X135504464Y-67739116D01*
X135504464Y-66306000D01*
X135474894Y-66157341D01*
X135390686Y-66031314D01*
X135264659Y-65947106D01*
X135116000Y-65917536D01*
X133616000Y-65917536D01*
X133467341Y-65947106D01*
X133341314Y-66031314D01*
X133257106Y-66157341D01*
X133227536Y-66306000D01*
X133227536Y-67806000D01*
X133257106Y-67954659D01*
X133341314Y-68080686D01*
X133467341Y-68164894D01*
X133616000Y-68194464D01*
X135049116Y-68194464D01*
X133393580Y-69850000D01*
X132798421Y-69850000D01*
X131280313Y-68331893D01*
X131621171Y-68453201D01*
X132171448Y-68425230D01*
X132549923Y-68268460D01*
X132617912Y-68027517D01*
X131826000Y-67235605D01*
X131811858Y-67249748D01*
X131632253Y-67070143D01*
X131646395Y-67056000D01*
X132005605Y-67056000D01*
X132797517Y-67847912D01*
X133038460Y-67779923D01*
X133223201Y-67260829D01*
X133195230Y-66710552D01*
X133038460Y-66332077D01*
X132797517Y-66264088D01*
X132005605Y-67056000D01*
X131646395Y-67056000D01*
X130854483Y-66264088D01*
X130613540Y-66332077D01*
X130428799Y-66851171D01*
X130456770Y-67401448D01*
X130532361Y-67583941D01*
X130362050Y-67413630D01*
X130417000Y-67280970D01*
X130417000Y-66831030D01*
X130244816Y-66415340D01*
X129926660Y-66097184D01*
X129895997Y-66084483D01*
X131034088Y-66084483D01*
X131826000Y-66876395D01*
X132617912Y-66084483D01*
X132549923Y-65843540D01*
X132030829Y-65658799D01*
X131480552Y-65686770D01*
X131102077Y-65843540D01*
X131034088Y-66084483D01*
X129895997Y-66084483D01*
X129510970Y-65925000D01*
X129061030Y-65925000D01*
X128928370Y-65979950D01*
X128270000Y-65321580D01*
X128270000Y-63218464D01*
X128362000Y-63218464D01*
X128454761Y-63200013D01*
X128463178Y-63208430D01*
X128475775Y-63195833D01*
X128510659Y-63188894D01*
X128588558Y-63136844D01*
X128628383Y-63318164D01*
X129093036Y-63477807D01*
X129583413Y-63447482D01*
X129895617Y-63318164D01*
X129945130Y-63092735D01*
X129262000Y-62409605D01*
X129247858Y-62423748D01*
X129068253Y-62244143D01*
X129082395Y-62230000D01*
X129441605Y-62230000D01*
X130124735Y-62913130D01*
X130350164Y-62863617D01*
X130509807Y-62398964D01*
X130488910Y-62061036D01*
X131618193Y-62061036D01*
X131648518Y-62551413D01*
X131777836Y-62863617D01*
X132003265Y-62913130D01*
X132686395Y-62230000D01*
X132003265Y-61546870D01*
X131777836Y-61596383D01*
X131618193Y-62061036D01*
X130488910Y-62061036D01*
X130479482Y-61908587D01*
X130350164Y-61596383D01*
X130124735Y-61546870D01*
X129441605Y-62230000D01*
X129082395Y-62230000D01*
X129068253Y-62215858D01*
X129247858Y-62036253D01*
X129262000Y-62050395D01*
X129945130Y-61367265D01*
X132182870Y-61367265D01*
X132866000Y-62050395D01*
X132880143Y-62036253D01*
X133059748Y-62215858D01*
X133045605Y-62230000D01*
X133059748Y-62244143D01*
X132880143Y-62423748D01*
X132866000Y-62409605D01*
X132182870Y-63092735D01*
X132232383Y-63318164D01*
X132697036Y-63477807D01*
X133187413Y-63447482D01*
X133499617Y-63318164D01*
X133539442Y-63136844D01*
X133617341Y-63188894D01*
X133652225Y-63195833D01*
X133664822Y-63208430D01*
X133673239Y-63200013D01*
X133766000Y-63218464D01*
X134966000Y-63218464D01*
X135114659Y-63188894D01*
X135240686Y-63104686D01*
X135324894Y-62978659D01*
X135354464Y-62830000D01*
X135354464Y-61630000D01*
X135324894Y-61481341D01*
X135240686Y-61355314D01*
X135114659Y-61271106D01*
X134966000Y-61241536D01*
X133766000Y-61241536D01*
X133673239Y-61259987D01*
X133664822Y-61251570D01*
X133652225Y-61264167D01*
X133617341Y-61271106D01*
X133539442Y-61323156D01*
X133499617Y-61141836D01*
X133034964Y-60982193D01*
X132544587Y-61012518D01*
X132232383Y-61141836D01*
X132182870Y-61367265D01*
X129945130Y-61367265D01*
X129895617Y-61141836D01*
X129430964Y-60982193D01*
X128940587Y-61012518D01*
X128628383Y-61141836D01*
X128588558Y-61323156D01*
X128510659Y-61271106D01*
X128475775Y-61264167D01*
X128463178Y-61251570D01*
X128454761Y-61259987D01*
X128362000Y-61241536D01*
X127162000Y-61241536D01*
X127013341Y-61271106D01*
X126887314Y-61355314D01*
X126803106Y-61481341D01*
X126780989Y-61592531D01*
X126780989Y-58735888D01*
X126833995Y-58911864D01*
X127371223Y-59104965D01*
X127941454Y-59077778D01*
X128342005Y-58911864D01*
X128416139Y-58665745D01*
X127588000Y-57837605D01*
X127573858Y-57851748D01*
X127394252Y-57672142D01*
X127408395Y-57658000D01*
X127767605Y-57658000D01*
X128595745Y-58486139D01*
X128841864Y-58412005D01*
X129034965Y-57874777D01*
X129013430Y-57423085D01*
X131407000Y-57423085D01*
X131407000Y-57892915D01*
X131586797Y-58326983D01*
X131919017Y-58659203D01*
X132353085Y-58839000D01*
X132822915Y-58839000D01*
X133256983Y-58659203D01*
X133589203Y-58326983D01*
X133769000Y-57892915D01*
X133769000Y-57423085D01*
X133589203Y-56989017D01*
X133256983Y-56656797D01*
X132822915Y-56477000D01*
X132353085Y-56477000D01*
X131919017Y-56656797D01*
X131586797Y-56989017D01*
X131407000Y-57423085D01*
X129013430Y-57423085D01*
X129007778Y-57304546D01*
X128841864Y-56903995D01*
X128595745Y-56829861D01*
X127767605Y-57658000D01*
X127408395Y-57658000D01*
X127394252Y-57643858D01*
X127573858Y-57464252D01*
X127588000Y-57478395D01*
X128416139Y-56650255D01*
X128342005Y-56404136D01*
X127804777Y-56211035D01*
X127633206Y-56219215D01*
X127807420Y-56045001D01*
X128104853Y-56045001D01*
X128154881Y-56054952D01*
X128204909Y-56045001D01*
X128204913Y-56045001D01*
X128353093Y-56015526D01*
X128521128Y-55903248D01*
X128549469Y-55860833D01*
X129863835Y-54546468D01*
X129906247Y-54518129D01*
X129934586Y-54475717D01*
X129934588Y-54475715D01*
X130018525Y-54350094D01*
X130048000Y-54201914D01*
X130048000Y-54201911D01*
X130057951Y-54151883D01*
X130048000Y-54101855D01*
X130048000Y-52317691D01*
X144173000Y-52317691D01*
X144173000Y-53658250D01*
X144331750Y-53817000D01*
X146431000Y-53817000D01*
X146431000Y-51967750D01*
X146685000Y-51967750D01*
X146685000Y-53817000D01*
X148784250Y-53817000D01*
X148943000Y-53658250D01*
X148943000Y-52317691D01*
X148846327Y-52084302D01*
X148667699Y-51905673D01*
X148434310Y-51809000D01*
X146843750Y-51809000D01*
X146685000Y-51967750D01*
X146431000Y-51967750D01*
X146272250Y-51809000D01*
X144681690Y-51809000D01*
X144448301Y-51905673D01*
X144269673Y-52084302D01*
X144173000Y-52317691D01*
X130048000Y-52317691D01*
X130048000Y-51941075D01*
X130427501Y-51687501D01*
X130699576Y-51280312D01*
X130795116Y-50800000D01*
X130699576Y-50319688D01*
X130434985Y-49923700D01*
X131185015Y-49923700D01*
X130920424Y-50319688D01*
X130920424Y-50319688D01*
G37*
X130920424Y-50319688D02*
X130824884Y-50800000D01*
X130920424Y-51280312D01*
X131192499Y-51687501D01*
X131599688Y-51959576D01*
X131958761Y-52031000D01*
X132201239Y-52031000D01*
X132560312Y-51959576D01*
X132967501Y-51687501D01*
X133239576Y-51280312D01*
X133335116Y-50800000D01*
X133239576Y-50319688D01*
X132974985Y-49923700D01*
X133725015Y-49923700D01*
X133460424Y-50319688D01*
X133364884Y-50800000D01*
X133460424Y-51280312D01*
X133732499Y-51687501D01*
X134139688Y-51959576D01*
X134498761Y-52031000D01*
X134741239Y-52031000D01*
X135100312Y-51959576D01*
X135507501Y-51687501D01*
X135777755Y-51283037D01*
X135964817Y-51681358D01*
X136393076Y-52071645D01*
X136803110Y-52241476D01*
X137033000Y-52120155D01*
X137033000Y-50927000D01*
X137287000Y-50927000D01*
X137287000Y-52120155D01*
X137516890Y-52241476D01*
X137926924Y-52071645D01*
X138224864Y-51800122D01*
X138311673Y-52009698D01*
X138490301Y-52188327D01*
X138723690Y-52285000D01*
X139414250Y-52285000D01*
X139573000Y-52126250D01*
X139573000Y-50927000D01*
X139827000Y-50927000D01*
X139827000Y-52126250D01*
X139985750Y-52285000D01*
X140676310Y-52285000D01*
X140909699Y-52188327D01*
X141088327Y-52009698D01*
X141185000Y-51776309D01*
X141185000Y-51085750D01*
X141026250Y-50927000D01*
X139827000Y-50927000D01*
X139573000Y-50927000D01*
X137287000Y-50927000D01*
X137033000Y-50927000D01*
X137013000Y-50927000D01*
X137013000Y-50673000D01*
X137033000Y-50673000D01*
X137033000Y-50653000D01*
X137287000Y-50653000D01*
X137287000Y-50673000D01*
X139573000Y-50673000D01*
X139573000Y-50653000D01*
X139827000Y-50653000D01*
X139827000Y-50673000D01*
X141026250Y-50673000D01*
X141185000Y-50514250D01*
X141185000Y-49923700D01*
X150736300Y-49923700D01*
X150736300Y-74966767D01*
X150710000Y-74961536D01*
X149010000Y-74961536D01*
X148861341Y-74991106D01*
X148735314Y-75075314D01*
X148651106Y-75201341D01*
X148621536Y-75350000D01*
X148621536Y-76145307D01*
X147639707Y-77127137D01*
X147563353Y-77178155D01*
X147361253Y-77480621D01*
X147322794Y-77673968D01*
X147290285Y-77837401D01*
X147308199Y-77927460D01*
X147308200Y-85255735D01*
X147290285Y-85345799D01*
X147344484Y-85618273D01*
X147361254Y-85702580D01*
X147563354Y-86005045D01*
X147639705Y-86056061D01*
X148945600Y-87361957D01*
X148945600Y-87674346D01*
X148861341Y-87691106D01*
X148735314Y-87775314D01*
X148651106Y-87901341D01*
X148621536Y-88050000D01*
X148621536Y-89750000D01*
X148651106Y-89898659D01*
X148735314Y-90024686D01*
X148861341Y-90108894D01*
X149010000Y-90138464D01*
X149205105Y-90138464D01*
X148978642Y-90244817D01*
X148588355Y-90673076D01*
X148418524Y-91083110D01*
X148539845Y-91313000D01*
X149733000Y-91313000D01*
X149733000Y-91293000D01*
X149987000Y-91293000D01*
X149987000Y-91313000D01*
X150007000Y-91313000D01*
X150007000Y-91567000D01*
X149987000Y-91567000D01*
X149987000Y-91587000D01*
X149733000Y-91587000D01*
X149733000Y-91567000D01*
X148539845Y-91567000D01*
X148418524Y-91796890D01*
X148434937Y-91836517D01*
X145796000Y-89197580D01*
X145796000Y-88710942D01*
X146139453Y-88481453D01*
X146400478Y-88090803D01*
X146492137Y-87630000D01*
X146411552Y-87224868D01*
X146482586Y-87153834D01*
X146919844Y-86716577D01*
X146962256Y-86688238D01*
X146990595Y-86645826D01*
X146990597Y-86645824D01*
X147037892Y-86575041D01*
X147074534Y-86520203D01*
X147104009Y-86372023D01*
X147104009Y-86372019D01*
X147113960Y-86321991D01*
X147104009Y-86271963D01*
X147104009Y-66016236D01*
X147113960Y-65966208D01*
X147104009Y-65916180D01*
X147104009Y-65916176D01*
X147074534Y-65767996D01*
X146990597Y-65642375D01*
X146990595Y-65642373D01*
X146962256Y-65599961D01*
X146919845Y-65571623D01*
X140234990Y-58886769D01*
X140234990Y-58809553D01*
X140499493Y-58986289D01*
X140983000Y-59082464D01*
X142733000Y-59082464D01*
X143216507Y-58986289D01*
X143626404Y-58712404D01*
X143900289Y-58302507D01*
X143921872Y-58194000D01*
X144419536Y-58194000D01*
X144419536Y-61694000D01*
X144449106Y-61842659D01*
X144533314Y-61968686D01*
X144659341Y-62052894D01*
X144808000Y-62082464D01*
X148308000Y-62082464D01*
X148456659Y-62052894D01*
X148582686Y-61968686D01*
X148666894Y-61842659D01*
X148696464Y-61694000D01*
X148696464Y-58194000D01*
X148666894Y-58045341D01*
X148582686Y-57919314D01*
X148456659Y-57835106D01*
X148308000Y-57805536D01*
X144808000Y-57805536D01*
X144659341Y-57835106D01*
X144533314Y-57919314D01*
X144449106Y-58045341D01*
X144419536Y-58194000D01*
X143921872Y-58194000D01*
X143996464Y-57819000D01*
X143996464Y-56069000D01*
X143900289Y-55585493D01*
X143626404Y-55175596D01*
X143216507Y-54901711D01*
X142733000Y-54805536D01*
X140983000Y-54805536D01*
X140499493Y-54901711D01*
X140089596Y-55175596D01*
X139815711Y-55585493D01*
X139773571Y-55797348D01*
X138205973Y-54229750D01*
X144173000Y-54229750D01*
X144173000Y-55570309D01*
X144269673Y-55803698D01*
X144448301Y-55982327D01*
X144681690Y-56079000D01*
X146272250Y-56079000D01*
X146431000Y-55920250D01*
X146431000Y-54071000D01*
X146685000Y-54071000D01*
X146685000Y-55920250D01*
X146843750Y-56079000D01*
X148434310Y-56079000D01*
X148667699Y-55982327D01*
X148846327Y-55803698D01*
X148943000Y-55570309D01*
X148943000Y-54229750D01*
X148784250Y-54071000D01*
X146685000Y-54071000D01*
X146431000Y-54071000D01*
X144331750Y-54071000D01*
X144173000Y-54229750D01*
X138205973Y-54229750D01*
X138008390Y-54032168D01*
X137980049Y-53989753D01*
X137812014Y-53877475D01*
X137663834Y-53848000D01*
X137663830Y-53848000D01*
X137613802Y-53838049D01*
X137563774Y-53848000D01*
X133655884Y-53848000D01*
X133589203Y-53687017D01*
X133256983Y-53354797D01*
X132822915Y-53175000D01*
X132353085Y-53175000D01*
X131919017Y-53354797D01*
X131586797Y-53687017D01*
X131407000Y-54121085D01*
X131407000Y-54590915D01*
X131586797Y-55024983D01*
X131919017Y-55357203D01*
X132353085Y-55537000D01*
X132822915Y-55537000D01*
X133256983Y-55357203D01*
X133589203Y-55024983D01*
X133655884Y-54864000D01*
X137403382Y-54864000D01*
X138146918Y-55607536D01*
X136768000Y-55607536D01*
X136619341Y-55637106D01*
X136493314Y-55721314D01*
X136409106Y-55847341D01*
X136379536Y-55996000D01*
X136379536Y-56570061D01*
X136213979Y-56170372D01*
X135853628Y-55810021D01*
X135382807Y-55615000D01*
X134873193Y-55615000D01*
X134402372Y-55810021D01*
X134042021Y-56170372D01*
X133847000Y-56641193D01*
X133847000Y-57150807D01*
X134042021Y-57621628D01*
X134402372Y-57981979D01*
X134873193Y-58177000D01*
X135382807Y-58177000D01*
X135853628Y-57981979D01*
X136213979Y-57621628D01*
X136379536Y-57221939D01*
X136379536Y-57796000D01*
X136409106Y-57944659D01*
X136493314Y-58070686D01*
X136619341Y-58154894D01*
X136768000Y-58184464D01*
X138568000Y-58184464D01*
X138716659Y-58154894D01*
X138842686Y-58070686D01*
X138926894Y-57944659D01*
X138956464Y-57796000D01*
X138956464Y-56417083D01*
X139218990Y-56679609D01*
X139218991Y-59047156D01*
X139209039Y-59097189D01*
X139248465Y-59295400D01*
X139332402Y-59421021D01*
X139332405Y-59421024D01*
X139360744Y-59463436D01*
X139403156Y-59491775D01*
X144316370Y-64404990D01*
X137984736Y-64404990D01*
X137934708Y-64395039D01*
X137884680Y-64404990D01*
X137884676Y-64404990D01*
X137736496Y-64434465D01*
X137568461Y-64546743D01*
X137540120Y-64589158D01*
X135820166Y-66309112D01*
X135777754Y-66337451D01*
X135749415Y-66379863D01*
X135749412Y-66379866D01*
X135665475Y-66505487D01*
X135626049Y-66703698D01*
X135636001Y-66753730D01*
X135636000Y-67607580D01*
X135504464Y-67739116D01*
X135504464Y-66306000D01*
X135474894Y-66157341D01*
X135390686Y-66031314D01*
X135264659Y-65947106D01*
X135116000Y-65917536D01*
X133616000Y-65917536D01*
X133467341Y-65947106D01*
X133341314Y-66031314D01*
X133257106Y-66157341D01*
X133227536Y-66306000D01*
X133227536Y-67806000D01*
X133257106Y-67954659D01*
X133341314Y-68080686D01*
X133467341Y-68164894D01*
X133616000Y-68194464D01*
X135049116Y-68194464D01*
X133393580Y-69850000D01*
X132798421Y-69850000D01*
X131280313Y-68331893D01*
X131621171Y-68453201D01*
X132171448Y-68425230D01*
X132549923Y-68268460D01*
X132617912Y-68027517D01*
X131826000Y-67235605D01*
X131811858Y-67249748D01*
X131632253Y-67070143D01*
X131646395Y-67056000D01*
X132005605Y-67056000D01*
X132797517Y-67847912D01*
X133038460Y-67779923D01*
X133223201Y-67260829D01*
X133195230Y-66710552D01*
X133038460Y-66332077D01*
X132797517Y-66264088D01*
X132005605Y-67056000D01*
X131646395Y-67056000D01*
X130854483Y-66264088D01*
X130613540Y-66332077D01*
X130428799Y-66851171D01*
X130456770Y-67401448D01*
X130532361Y-67583941D01*
X130362050Y-67413630D01*
X130417000Y-67280970D01*
X130417000Y-66831030D01*
X130244816Y-66415340D01*
X129926660Y-66097184D01*
X129895997Y-66084483D01*
X131034088Y-66084483D01*
X131826000Y-66876395D01*
X132617912Y-66084483D01*
X132549923Y-65843540D01*
X132030829Y-65658799D01*
X131480552Y-65686770D01*
X131102077Y-65843540D01*
X131034088Y-66084483D01*
X129895997Y-66084483D01*
X129510970Y-65925000D01*
X129061030Y-65925000D01*
X128928370Y-65979950D01*
X128270000Y-65321580D01*
X128270000Y-63218464D01*
X128362000Y-63218464D01*
X128454761Y-63200013D01*
X128463178Y-63208430D01*
X128475775Y-63195833D01*
X128510659Y-63188894D01*
X128588558Y-63136844D01*
X128628383Y-63318164D01*
X129093036Y-63477807D01*
X129583413Y-63447482D01*
X129895617Y-63318164D01*
X129945130Y-63092735D01*
X129262000Y-62409605D01*
X129247858Y-62423748D01*
X129068253Y-62244143D01*
X129082395Y-62230000D01*
X129441605Y-62230000D01*
X130124735Y-62913130D01*
X130350164Y-62863617D01*
X130509807Y-62398964D01*
X130488910Y-62061036D01*
X131618193Y-62061036D01*
X131648518Y-62551413D01*
X131777836Y-62863617D01*
X132003265Y-62913130D01*
X132686395Y-62230000D01*
X132003265Y-61546870D01*
X131777836Y-61596383D01*
X131618193Y-62061036D01*
X130488910Y-62061036D01*
X130479482Y-61908587D01*
X130350164Y-61596383D01*
X130124735Y-61546870D01*
X129441605Y-62230000D01*
X129082395Y-62230000D01*
X129068253Y-62215858D01*
X129247858Y-62036253D01*
X129262000Y-62050395D01*
X129945130Y-61367265D01*
X132182870Y-61367265D01*
X132866000Y-62050395D01*
X132880143Y-62036253D01*
X133059748Y-62215858D01*
X133045605Y-62230000D01*
X133059748Y-62244143D01*
X132880143Y-62423748D01*
X132866000Y-62409605D01*
X132182870Y-63092735D01*
X132232383Y-63318164D01*
X132697036Y-63477807D01*
X133187413Y-63447482D01*
X133499617Y-63318164D01*
X133539442Y-63136844D01*
X133617341Y-63188894D01*
X133652225Y-63195833D01*
X133664822Y-63208430D01*
X133673239Y-63200013D01*
X133766000Y-63218464D01*
X134966000Y-63218464D01*
X135114659Y-63188894D01*
X135240686Y-63104686D01*
X135324894Y-62978659D01*
X135354464Y-62830000D01*
X135354464Y-61630000D01*
X135324894Y-61481341D01*
X135240686Y-61355314D01*
X135114659Y-61271106D01*
X134966000Y-61241536D01*
X133766000Y-61241536D01*
X133673239Y-61259987D01*
X133664822Y-61251570D01*
X133652225Y-61264167D01*
X133617341Y-61271106D01*
X133539442Y-61323156D01*
X133499617Y-61141836D01*
X133034964Y-60982193D01*
X132544587Y-61012518D01*
X132232383Y-61141836D01*
X132182870Y-61367265D01*
X129945130Y-61367265D01*
X129895617Y-61141836D01*
X129430964Y-60982193D01*
X128940587Y-61012518D01*
X128628383Y-61141836D01*
X128588558Y-61323156D01*
X128510659Y-61271106D01*
X128475775Y-61264167D01*
X128463178Y-61251570D01*
X128454761Y-61259987D01*
X128362000Y-61241536D01*
X127162000Y-61241536D01*
X127013341Y-61271106D01*
X126887314Y-61355314D01*
X126803106Y-61481341D01*
X126780989Y-61592531D01*
X126780989Y-58735888D01*
X126833995Y-58911864D01*
X127371223Y-59104965D01*
X127941454Y-59077778D01*
X128342005Y-58911864D01*
X128416139Y-58665745D01*
X127588000Y-57837605D01*
X127573858Y-57851748D01*
X127394252Y-57672142D01*
X127408395Y-57658000D01*
X127767605Y-57658000D01*
X128595745Y-58486139D01*
X128841864Y-58412005D01*
X129034965Y-57874777D01*
X129013430Y-57423085D01*
X131407000Y-57423085D01*
X131407000Y-57892915D01*
X131586797Y-58326983D01*
X131919017Y-58659203D01*
X132353085Y-58839000D01*
X132822915Y-58839000D01*
X133256983Y-58659203D01*
X133589203Y-58326983D01*
X133769000Y-57892915D01*
X133769000Y-57423085D01*
X133589203Y-56989017D01*
X133256983Y-56656797D01*
X132822915Y-56477000D01*
X132353085Y-56477000D01*
X131919017Y-56656797D01*
X131586797Y-56989017D01*
X131407000Y-57423085D01*
X129013430Y-57423085D01*
X129007778Y-57304546D01*
X128841864Y-56903995D01*
X128595745Y-56829861D01*
X127767605Y-57658000D01*
X127408395Y-57658000D01*
X127394252Y-57643858D01*
X127573858Y-57464252D01*
X127588000Y-57478395D01*
X128416139Y-56650255D01*
X128342005Y-56404136D01*
X127804777Y-56211035D01*
X127633206Y-56219215D01*
X127807420Y-56045001D01*
X128104853Y-56045001D01*
X128154881Y-56054952D01*
X128204909Y-56045001D01*
X128204913Y-56045001D01*
X128353093Y-56015526D01*
X128521128Y-55903248D01*
X128549469Y-55860833D01*
X129863835Y-54546468D01*
X129906247Y-54518129D01*
X129934586Y-54475717D01*
X129934588Y-54475715D01*
X130018525Y-54350094D01*
X130048000Y-54201914D01*
X130048000Y-54201911D01*
X130057951Y-54151883D01*
X130048000Y-54101855D01*
X130048000Y-52317691D01*
X144173000Y-52317691D01*
X144173000Y-53658250D01*
X144331750Y-53817000D01*
X146431000Y-53817000D01*
X146431000Y-51967750D01*
X146685000Y-51967750D01*
X146685000Y-53817000D01*
X148784250Y-53817000D01*
X148943000Y-53658250D01*
X148943000Y-52317691D01*
X148846327Y-52084302D01*
X148667699Y-51905673D01*
X148434310Y-51809000D01*
X146843750Y-51809000D01*
X146685000Y-51967750D01*
X146431000Y-51967750D01*
X146272250Y-51809000D01*
X144681690Y-51809000D01*
X144448301Y-51905673D01*
X144269673Y-52084302D01*
X144173000Y-52317691D01*
X130048000Y-52317691D01*
X130048000Y-51941075D01*
X130427501Y-51687501D01*
X130699576Y-51280312D01*
X130795116Y-50800000D01*
X130699576Y-50319688D01*
X130434985Y-49923700D01*
X131185015Y-49923700D01*
X130920424Y-50319688D01*
G36*
X126803106Y-62978659D02*
X126887314Y-63104686D01*
X127013341Y-63188894D01*
X127162000Y-63218464D01*
X127254000Y-63218464D01*
X127254001Y-65481967D01*
X127244049Y-65532000D01*
X127283475Y-65730211D01*
X127367412Y-65855832D01*
X127367415Y-65855835D01*
X127395754Y-65898247D01*
X127438166Y-65926586D01*
X128209950Y-66698370D01*
X128155000Y-66831030D01*
X128155000Y-67280970D01*
X128327184Y-67696660D01*
X128645340Y-68014816D01*
X129061030Y-68187000D01*
X129510970Y-68187000D01*
X129643630Y-68132050D01*
X132193414Y-70681835D01*
X132221753Y-70724247D01*
X132264165Y-70752586D01*
X132264167Y-70752588D01*
X132389788Y-70836525D01*
X132537968Y-70866000D01*
X132537971Y-70866000D01*
X132587999Y-70875951D01*
X132638027Y-70866000D01*
X133553972Y-70866000D01*
X133604000Y-70875951D01*
X133654028Y-70866000D01*
X133654032Y-70866000D01*
X133802212Y-70836525D01*
X133970247Y-70724247D01*
X133998588Y-70681832D01*
X136467833Y-68212587D01*
X136510247Y-68184247D01*
X136622525Y-68016212D01*
X136652000Y-67868032D01*
X136652000Y-67868029D01*
X136661951Y-67818001D01*
X136652000Y-67767973D01*
X136652000Y-66914118D01*
X137851036Y-65715082D01*
X137851036Y-67294000D01*
X137880606Y-67442659D01*
X137964814Y-67568686D01*
X138090841Y-67652894D01*
X138239500Y-67682464D01*
X138339115Y-67682464D01*
X137534665Y-68486915D01*
X137492253Y-68515254D01*
X137463914Y-68557666D01*
X137463911Y-68557669D01*
X137379974Y-68683290D01*
X137340548Y-68881501D01*
X137350500Y-68931534D01*
X137350499Y-71989080D01*
X135523898Y-73815681D01*
X135362915Y-73749000D01*
X134893085Y-73749000D01*
X134459017Y-73928797D01*
X134126797Y-74261017D01*
X133947000Y-74695085D01*
X133947000Y-75164915D01*
X134126797Y-75598983D01*
X134459017Y-75931203D01*
X134709603Y-76034999D01*
X129755028Y-76034999D01*
X129705000Y-76025048D01*
X129654972Y-76034999D01*
X129654969Y-76034999D01*
X129506789Y-76064474D01*
X129381168Y-76148411D01*
X129381166Y-76148413D01*
X129338754Y-76176752D01*
X129310415Y-76219164D01*
X129000166Y-76529414D01*
X128919898Y-76609682D01*
X128758915Y-76543000D01*
X128289085Y-76543000D01*
X127855017Y-76722797D01*
X127522797Y-77055017D01*
X127343000Y-77489085D01*
X127343000Y-77958915D01*
X127522797Y-78392983D01*
X127855017Y-78725203D01*
X128016001Y-78791885D01*
X128016001Y-78805338D01*
X128006049Y-78855370D01*
X128045475Y-79053581D01*
X128129412Y-79179202D01*
X128129415Y-79179205D01*
X128157754Y-79221617D01*
X128200166Y-79249956D01*
X130136999Y-81186789D01*
X130137000Y-85860848D01*
X130127048Y-85910881D01*
X130166474Y-86109092D01*
X130250411Y-86234713D01*
X130250414Y-86234716D01*
X130278753Y-86277128D01*
X130321165Y-86305467D01*
X131804531Y-87788834D01*
X131832870Y-87831246D01*
X131875282Y-87859585D01*
X131875284Y-87859587D01*
X131958985Y-87915514D01*
X132000905Y-87943524D01*
X132149085Y-87972999D01*
X132149089Y-87972999D01*
X132199117Y-87982950D01*
X132249145Y-87972999D01*
X133431536Y-87972999D01*
X133431536Y-89319001D01*
X129241421Y-89319001D01*
X128498588Y-88576168D01*
X128470247Y-88533753D01*
X128302212Y-88421475D01*
X128238464Y-88408795D01*
X128238464Y-88050000D01*
X128208894Y-87901341D01*
X128124686Y-87775314D01*
X127998659Y-87691106D01*
X127850000Y-87661536D01*
X127491205Y-87661536D01*
X127478525Y-87597788D01*
X127435584Y-87533522D01*
X127394588Y-87472167D01*
X127394586Y-87472165D01*
X127366247Y-87429753D01*
X127323835Y-87401414D01*
X126780989Y-86858569D01*
X126780989Y-85693041D01*
X127132086Y-85693041D01*
X127371611Y-86199134D01*
X127786577Y-86575041D01*
X128174961Y-86735904D01*
X128397000Y-86613915D01*
X128397000Y-85471000D01*
X128651000Y-85471000D01*
X128651000Y-86613915D01*
X128873039Y-86735904D01*
X129261423Y-86575041D01*
X129676389Y-86199134D01*
X129915914Y-85693041D01*
X129794629Y-85471000D01*
X128651000Y-85471000D01*
X128397000Y-85471000D01*
X127253371Y-85471000D01*
X127132086Y-85693041D01*
X126780989Y-85693041D01*
X126780989Y-84994959D01*
X127132086Y-84994959D01*
X127253371Y-85217000D01*
X128397000Y-85217000D01*
X128397000Y-84074085D01*
X128651000Y-84074085D01*
X128651000Y-85217000D01*
X129794629Y-85217000D01*
X129915914Y-84994959D01*
X129676389Y-84488866D01*
X129261423Y-84112959D01*
X128873039Y-83952096D01*
X128651000Y-84074085D01*
X128397000Y-84074085D01*
X128174961Y-83952096D01*
X127786577Y-84112959D01*
X127371611Y-84488866D01*
X127132086Y-84994959D01*
X126780989Y-84994959D01*
X126780989Y-76143027D01*
X127158959Y-76321914D01*
X127381000Y-76200629D01*
X127381000Y-75057000D01*
X127635000Y-75057000D01*
X127635000Y-76200629D01*
X127857041Y-76321914D01*
X128363134Y-76082389D01*
X128739041Y-75667423D01*
X128899904Y-75279039D01*
X128777915Y-75057000D01*
X127635000Y-75057000D01*
X127381000Y-75057000D01*
X127361000Y-75057000D01*
X127361000Y-74803000D01*
X127381000Y-74803000D01*
X127381000Y-73659371D01*
X127635000Y-73659371D01*
X127635000Y-74803000D01*
X128777915Y-74803000D01*
X128899904Y-74580961D01*
X128739041Y-74192577D01*
X128363134Y-73777611D01*
X127857041Y-73538086D01*
X127635000Y-73659371D01*
X127381000Y-73659371D01*
X127158959Y-73538086D01*
X126780989Y-73716973D01*
X126780989Y-72571175D01*
X126839017Y-72629203D01*
X127273085Y-72809000D01*
X127742915Y-72809000D01*
X128176983Y-72629203D01*
X128509203Y-72296983D01*
X128641728Y-71977039D01*
X133736096Y-71977039D01*
X133896959Y-72365423D01*
X134272866Y-72780389D01*
X134778959Y-73019914D01*
X135001000Y-72898629D01*
X135001000Y-71755000D01*
X135255000Y-71755000D01*
X135255000Y-72898629D01*
X135477041Y-73019914D01*
X135983134Y-72780389D01*
X136359041Y-72365423D01*
X136519904Y-71977039D01*
X136397915Y-71755000D01*
X135255000Y-71755000D01*
X135001000Y-71755000D01*
X133858085Y-71755000D01*
X133736096Y-71977039D01*
X128641728Y-71977039D01*
X128689000Y-71862915D01*
X128689000Y-71393085D01*
X128641729Y-71278961D01*
X133736096Y-71278961D01*
X133858085Y-71501000D01*
X135001000Y-71501000D01*
X135001000Y-70357371D01*
X135255000Y-70357371D01*
X135255000Y-71501000D01*
X136397915Y-71501000D01*
X136519904Y-71278961D01*
X136359041Y-70890577D01*
X135983134Y-70475611D01*
X135477041Y-70236086D01*
X135255000Y-70357371D01*
X135001000Y-70357371D01*
X134778959Y-70236086D01*
X134272866Y-70475611D01*
X133896959Y-70890577D01*
X133736096Y-71278961D01*
X128641729Y-71278961D01*
X128509203Y-70959017D01*
X128176983Y-70626797D01*
X127742915Y-70447000D01*
X127273085Y-70447000D01*
X126839017Y-70626797D01*
X126780989Y-70684825D01*
X126780989Y-62867469D01*
X126803106Y-62978659D01*
X126803106Y-62978659D01*
G37*
X126803106Y-62978659D02*
X126887314Y-63104686D01*
X127013341Y-63188894D01*
X127162000Y-63218464D01*
X127254000Y-63218464D01*
X127254001Y-65481967D01*
X127244049Y-65532000D01*
X127283475Y-65730211D01*
X127367412Y-65855832D01*
X127367415Y-65855835D01*
X127395754Y-65898247D01*
X127438166Y-65926586D01*
X128209950Y-66698370D01*
X128155000Y-66831030D01*
X128155000Y-67280970D01*
X128327184Y-67696660D01*
X128645340Y-68014816D01*
X129061030Y-68187000D01*
X129510970Y-68187000D01*
X129643630Y-68132050D01*
X132193414Y-70681835D01*
X132221753Y-70724247D01*
X132264165Y-70752586D01*
X132264167Y-70752588D01*
X132389788Y-70836525D01*
X132537968Y-70866000D01*
X132537971Y-70866000D01*
X132587999Y-70875951D01*
X132638027Y-70866000D01*
X133553972Y-70866000D01*
X133604000Y-70875951D01*
X133654028Y-70866000D01*
X133654032Y-70866000D01*
X133802212Y-70836525D01*
X133970247Y-70724247D01*
X133998588Y-70681832D01*
X136467833Y-68212587D01*
X136510247Y-68184247D01*
X136622525Y-68016212D01*
X136652000Y-67868032D01*
X136652000Y-67868029D01*
X136661951Y-67818001D01*
X136652000Y-67767973D01*
X136652000Y-66914118D01*
X137851036Y-65715082D01*
X137851036Y-67294000D01*
X137880606Y-67442659D01*
X137964814Y-67568686D01*
X138090841Y-67652894D01*
X138239500Y-67682464D01*
X138339115Y-67682464D01*
X137534665Y-68486915D01*
X137492253Y-68515254D01*
X137463914Y-68557666D01*
X137463911Y-68557669D01*
X137379974Y-68683290D01*
X137340548Y-68881501D01*
X137350500Y-68931534D01*
X137350499Y-71989080D01*
X135523898Y-73815681D01*
X135362915Y-73749000D01*
X134893085Y-73749000D01*
X134459017Y-73928797D01*
X134126797Y-74261017D01*
X133947000Y-74695085D01*
X133947000Y-75164915D01*
X134126797Y-75598983D01*
X134459017Y-75931203D01*
X134709603Y-76034999D01*
X129755028Y-76034999D01*
X129705000Y-76025048D01*
X129654972Y-76034999D01*
X129654969Y-76034999D01*
X129506789Y-76064474D01*
X129381168Y-76148411D01*
X129381166Y-76148413D01*
X129338754Y-76176752D01*
X129310415Y-76219164D01*
X129000166Y-76529414D01*
X128919898Y-76609682D01*
X128758915Y-76543000D01*
X128289085Y-76543000D01*
X127855017Y-76722797D01*
X127522797Y-77055017D01*
X127343000Y-77489085D01*
X127343000Y-77958915D01*
X127522797Y-78392983D01*
X127855017Y-78725203D01*
X128016001Y-78791885D01*
X128016001Y-78805338D01*
X128006049Y-78855370D01*
X128045475Y-79053581D01*
X128129412Y-79179202D01*
X128129415Y-79179205D01*
X128157754Y-79221617D01*
X128200166Y-79249956D01*
X130136999Y-81186789D01*
X130137000Y-85860848D01*
X130127048Y-85910881D01*
X130166474Y-86109092D01*
X130250411Y-86234713D01*
X130250414Y-86234716D01*
X130278753Y-86277128D01*
X130321165Y-86305467D01*
X131804531Y-87788834D01*
X131832870Y-87831246D01*
X131875282Y-87859585D01*
X131875284Y-87859587D01*
X131958985Y-87915514D01*
X132000905Y-87943524D01*
X132149085Y-87972999D01*
X132149089Y-87972999D01*
X132199117Y-87982950D01*
X132249145Y-87972999D01*
X133431536Y-87972999D01*
X133431536Y-89319001D01*
X129241421Y-89319001D01*
X128498588Y-88576168D01*
X128470247Y-88533753D01*
X128302212Y-88421475D01*
X128238464Y-88408795D01*
X128238464Y-88050000D01*
X128208894Y-87901341D01*
X128124686Y-87775314D01*
X127998659Y-87691106D01*
X127850000Y-87661536D01*
X127491205Y-87661536D01*
X127478525Y-87597788D01*
X127435584Y-87533522D01*
X127394588Y-87472167D01*
X127394586Y-87472165D01*
X127366247Y-87429753D01*
X127323835Y-87401414D01*
X126780989Y-86858569D01*
X126780989Y-85693041D01*
X127132086Y-85693041D01*
X127371611Y-86199134D01*
X127786577Y-86575041D01*
X128174961Y-86735904D01*
X128397000Y-86613915D01*
X128397000Y-85471000D01*
X128651000Y-85471000D01*
X128651000Y-86613915D01*
X128873039Y-86735904D01*
X129261423Y-86575041D01*
X129676389Y-86199134D01*
X129915914Y-85693041D01*
X129794629Y-85471000D01*
X128651000Y-85471000D01*
X128397000Y-85471000D01*
X127253371Y-85471000D01*
X127132086Y-85693041D01*
X126780989Y-85693041D01*
X126780989Y-84994959D01*
X127132086Y-84994959D01*
X127253371Y-85217000D01*
X128397000Y-85217000D01*
X128397000Y-84074085D01*
X128651000Y-84074085D01*
X128651000Y-85217000D01*
X129794629Y-85217000D01*
X129915914Y-84994959D01*
X129676389Y-84488866D01*
X129261423Y-84112959D01*
X128873039Y-83952096D01*
X128651000Y-84074085D01*
X128397000Y-84074085D01*
X128174961Y-83952096D01*
X127786577Y-84112959D01*
X127371611Y-84488866D01*
X127132086Y-84994959D01*
X126780989Y-84994959D01*
X126780989Y-76143027D01*
X127158959Y-76321914D01*
X127381000Y-76200629D01*
X127381000Y-75057000D01*
X127635000Y-75057000D01*
X127635000Y-76200629D01*
X127857041Y-76321914D01*
X128363134Y-76082389D01*
X128739041Y-75667423D01*
X128899904Y-75279039D01*
X128777915Y-75057000D01*
X127635000Y-75057000D01*
X127381000Y-75057000D01*
X127361000Y-75057000D01*
X127361000Y-74803000D01*
X127381000Y-74803000D01*
X127381000Y-73659371D01*
X127635000Y-73659371D01*
X127635000Y-74803000D01*
X128777915Y-74803000D01*
X128899904Y-74580961D01*
X128739041Y-74192577D01*
X128363134Y-73777611D01*
X127857041Y-73538086D01*
X127635000Y-73659371D01*
X127381000Y-73659371D01*
X127158959Y-73538086D01*
X126780989Y-73716973D01*
X126780989Y-72571175D01*
X126839017Y-72629203D01*
X127273085Y-72809000D01*
X127742915Y-72809000D01*
X128176983Y-72629203D01*
X128509203Y-72296983D01*
X128641728Y-71977039D01*
X133736096Y-71977039D01*
X133896959Y-72365423D01*
X134272866Y-72780389D01*
X134778959Y-73019914D01*
X135001000Y-72898629D01*
X135001000Y-71755000D01*
X135255000Y-71755000D01*
X135255000Y-72898629D01*
X135477041Y-73019914D01*
X135983134Y-72780389D01*
X136359041Y-72365423D01*
X136519904Y-71977039D01*
X136397915Y-71755000D01*
X135255000Y-71755000D01*
X135001000Y-71755000D01*
X133858085Y-71755000D01*
X133736096Y-71977039D01*
X128641728Y-71977039D01*
X128689000Y-71862915D01*
X128689000Y-71393085D01*
X128641729Y-71278961D01*
X133736096Y-71278961D01*
X133858085Y-71501000D01*
X135001000Y-71501000D01*
X135001000Y-70357371D01*
X135255000Y-70357371D01*
X135255000Y-71501000D01*
X136397915Y-71501000D01*
X136519904Y-71278961D01*
X136359041Y-70890577D01*
X135983134Y-70475611D01*
X135477041Y-70236086D01*
X135255000Y-70357371D01*
X135001000Y-70357371D01*
X134778959Y-70236086D01*
X134272866Y-70475611D01*
X133896959Y-70890577D01*
X133736096Y-71278961D01*
X128641729Y-71278961D01*
X128509203Y-70959017D01*
X128176983Y-70626797D01*
X127742915Y-70447000D01*
X127273085Y-70447000D01*
X126839017Y-70626797D01*
X126780989Y-70684825D01*
X126780989Y-62867469D01*
X126803106Y-62978659D01*
G36*
X144399000Y-66167000D02*
X144419000Y-66167000D01*
X144419000Y-66421000D01*
X144399000Y-66421000D01*
X144399000Y-67764594D01*
X144644980Y-67884563D01*
X145138924Y-67669973D01*
X145579999Y-67238382D01*
X145579999Y-70683619D01*
X145138924Y-70252027D01*
X144644980Y-70037437D01*
X144399000Y-70157406D01*
X144399000Y-71501000D01*
X144419000Y-71501000D01*
X144419000Y-71755000D01*
X144399000Y-71755000D01*
X144399000Y-73098594D01*
X144644980Y-73218563D01*
X145138924Y-73003973D01*
X145579999Y-72572381D01*
X145580000Y-76017619D01*
X145138924Y-75586027D01*
X144644980Y-75371437D01*
X144399000Y-75491406D01*
X144399000Y-76835000D01*
X144419000Y-76835000D01*
X144419000Y-77089000D01*
X144399000Y-77089000D01*
X144399000Y-78432594D01*
X144644980Y-78552563D01*
X145138924Y-78337973D01*
X145580000Y-77906381D01*
X145580000Y-78852645D01*
X145522915Y-78829000D01*
X145053085Y-78829000D01*
X144619017Y-79008797D01*
X144286797Y-79341017D01*
X144107000Y-79775085D01*
X144107000Y-80244915D01*
X144286797Y-80678983D01*
X144619017Y-81011203D01*
X145053085Y-81191000D01*
X145522915Y-81191000D01*
X145956983Y-81011203D01*
X146088010Y-80880176D01*
X146088010Y-86111569D01*
X145764166Y-86435414D01*
X145693132Y-86506448D01*
X145404318Y-86449000D01*
X145171682Y-86449000D01*
X144882869Y-86506448D01*
X143113000Y-84736580D01*
X143113000Y-84561302D01*
X142902755Y-84053727D01*
X142514273Y-83665245D01*
X142006698Y-83455000D01*
X141457302Y-83455000D01*
X140949727Y-83665245D01*
X140561245Y-84053727D01*
X140447637Y-84328000D01*
X136516363Y-84328000D01*
X136402755Y-84053727D01*
X136014273Y-83665245D01*
X135506698Y-83455000D01*
X134957302Y-83455000D01*
X134449727Y-83665245D01*
X134061245Y-84053727D01*
X133851000Y-84561302D01*
X133851000Y-84780461D01*
X132334000Y-83263462D01*
X132334000Y-81488532D01*
X134259073Y-81488532D01*
X134357736Y-81755387D01*
X134967461Y-81981908D01*
X135617460Y-81957856D01*
X136106264Y-81755387D01*
X136204927Y-81488532D01*
X140759073Y-81488532D01*
X140857736Y-81755387D01*
X141467461Y-81981908D01*
X142117460Y-81957856D01*
X142606264Y-81755387D01*
X142704927Y-81488532D01*
X141732000Y-80515605D01*
X140759073Y-81488532D01*
X136204927Y-81488532D01*
X135232000Y-80515605D01*
X134259073Y-81488532D01*
X132334000Y-81488532D01*
X132334000Y-80071461D01*
X133586092Y-80071461D01*
X133610144Y-80721460D01*
X133812613Y-81210264D01*
X134079468Y-81308927D01*
X135052395Y-80336000D01*
X135411605Y-80336000D01*
X136384532Y-81308927D01*
X136651387Y-81210264D01*
X136877908Y-80600539D01*
X136858331Y-80071461D01*
X140086092Y-80071461D01*
X140110144Y-80721460D01*
X140312613Y-81210264D01*
X140579468Y-81308927D01*
X141552395Y-80336000D01*
X141911605Y-80336000D01*
X142884532Y-81308927D01*
X143151387Y-81210264D01*
X143377908Y-80600539D01*
X143353856Y-79950540D01*
X143151387Y-79461736D01*
X142884532Y-79363073D01*
X141911605Y-80336000D01*
X141552395Y-80336000D01*
X140579468Y-79363073D01*
X140312613Y-79461736D01*
X140086092Y-80071461D01*
X136858331Y-80071461D01*
X136853856Y-79950540D01*
X136651387Y-79461736D01*
X136384532Y-79363073D01*
X135411605Y-80336000D01*
X135052395Y-80336000D01*
X134079468Y-79363073D01*
X133812613Y-79461736D01*
X133586092Y-80071461D01*
X132334000Y-80071461D01*
X132334000Y-79183468D01*
X134259073Y-79183468D01*
X135232000Y-80156395D01*
X136204927Y-79183468D01*
X140759073Y-79183468D01*
X141732000Y-80156395D01*
X142704927Y-79183468D01*
X142606264Y-78916613D01*
X141996539Y-78690092D01*
X141346540Y-78714144D01*
X140857736Y-78916613D01*
X140759073Y-79183468D01*
X136204927Y-79183468D01*
X136106264Y-78916613D01*
X135496539Y-78690092D01*
X134846540Y-78714144D01*
X134357736Y-78916613D01*
X134259073Y-79183468D01*
X132334000Y-79183468D01*
X132334000Y-78791884D01*
X132494983Y-78725203D01*
X132827203Y-78392983D01*
X132893884Y-78232000D01*
X137173472Y-78232000D01*
X137223500Y-78241951D01*
X137273528Y-78232000D01*
X137273532Y-78232000D01*
X137421712Y-78202525D01*
X137589747Y-78090247D01*
X137618088Y-78047832D01*
X137851036Y-77814884D01*
X137851036Y-77962000D01*
X137880606Y-78110659D01*
X137964814Y-78236686D01*
X138090841Y-78320894D01*
X138239500Y-78350464D01*
X140144500Y-78350464D01*
X140293159Y-78320894D01*
X140419186Y-78236686D01*
X140503394Y-78110659D01*
X140532964Y-77962000D01*
X140532964Y-77615251D01*
X140770602Y-77970899D01*
X141211695Y-78265629D01*
X141732000Y-78369124D01*
X142252306Y-78265629D01*
X142693399Y-77970899D01*
X142874835Y-77699362D01*
X142962682Y-77905091D01*
X143405076Y-78337973D01*
X143899020Y-78552563D01*
X144145000Y-78432594D01*
X144145000Y-77089000D01*
X144125000Y-77089000D01*
X144125000Y-76835000D01*
X144145000Y-76835000D01*
X144145000Y-75491406D01*
X143899020Y-75371437D01*
X143405076Y-75586027D01*
X142962682Y-76018909D01*
X142874835Y-76224638D01*
X142693398Y-75953101D01*
X142252305Y-75658371D01*
X141732000Y-75554876D01*
X141211694Y-75658371D01*
X140770601Y-75953102D01*
X140532964Y-76308750D01*
X140532964Y-75962000D01*
X140503394Y-75813341D01*
X140419186Y-75687314D01*
X140293159Y-75603106D01*
X140144500Y-75573536D01*
X138239500Y-75573536D01*
X138090841Y-75603106D01*
X137964814Y-75687314D01*
X137880606Y-75813341D01*
X137851036Y-75962000D01*
X137851036Y-76470795D01*
X137787288Y-76483475D01*
X137661667Y-76567412D01*
X137661665Y-76567414D01*
X137619253Y-76595753D01*
X137590914Y-76638165D01*
X137013080Y-77216000D01*
X132893884Y-77216000D01*
X132827203Y-77055017D01*
X132823185Y-77050999D01*
X135480973Y-77050999D01*
X135531001Y-77060950D01*
X135581029Y-77050999D01*
X135581033Y-77050999D01*
X135729213Y-77021524D01*
X135897248Y-76909246D01*
X135925589Y-76866831D01*
X139515832Y-73276588D01*
X139558247Y-73248247D01*
X139670525Y-73080212D01*
X139683205Y-73016464D01*
X140144500Y-73016464D01*
X140293159Y-72986894D01*
X140419186Y-72902686D01*
X140503394Y-72776659D01*
X140532964Y-72628000D01*
X140532964Y-72281251D01*
X140770602Y-72636899D01*
X141211695Y-72931629D01*
X141732000Y-73035124D01*
X142252306Y-72931629D01*
X142693399Y-72636899D01*
X142874835Y-72365362D01*
X142962682Y-72571091D01*
X143405076Y-73003973D01*
X143899020Y-73218563D01*
X144145000Y-73098594D01*
X144145000Y-71755000D01*
X144125000Y-71755000D01*
X144125000Y-71501000D01*
X144145000Y-71501000D01*
X144145000Y-70157406D01*
X143899020Y-70037437D01*
X143405076Y-70252027D01*
X142962682Y-70684909D01*
X142874835Y-70890638D01*
X142693398Y-70619101D01*
X142252305Y-70324371D01*
X141732000Y-70220876D01*
X141211694Y-70324371D01*
X140770601Y-70619102D01*
X140532964Y-70974750D01*
X140532964Y-70628000D01*
X140503394Y-70479341D01*
X140419186Y-70353314D01*
X140293159Y-70269106D01*
X140144500Y-70239536D01*
X138366499Y-70239536D01*
X138366499Y-69091921D01*
X139515836Y-67942585D01*
X139558247Y-67914247D01*
X139586586Y-67871835D01*
X139586588Y-67871833D01*
X139670525Y-67746212D01*
X139670525Y-67746211D01*
X139683205Y-67682464D01*
X140144500Y-67682464D01*
X140293159Y-67652894D01*
X140419186Y-67568686D01*
X140503394Y-67442659D01*
X140532964Y-67294000D01*
X140532964Y-66947251D01*
X140770602Y-67302899D01*
X141211695Y-67597629D01*
X141732000Y-67701124D01*
X142252306Y-67597629D01*
X142693399Y-67302899D01*
X142874835Y-67031362D01*
X142962682Y-67237091D01*
X143405076Y-67669973D01*
X143899020Y-67884563D01*
X144145000Y-67764594D01*
X144145000Y-66421000D01*
X144125000Y-66421000D01*
X144125000Y-66167000D01*
X144145000Y-66167000D01*
X144145000Y-66147000D01*
X144399000Y-66147000D01*
X144399000Y-66167000D01*
X144399000Y-66167000D01*
G37*
X144399000Y-66167000D02*
X144419000Y-66167000D01*
X144419000Y-66421000D01*
X144399000Y-66421000D01*
X144399000Y-67764594D01*
X144644980Y-67884563D01*
X145138924Y-67669973D01*
X145579999Y-67238382D01*
X145579999Y-70683619D01*
X145138924Y-70252027D01*
X144644980Y-70037437D01*
X144399000Y-70157406D01*
X144399000Y-71501000D01*
X144419000Y-71501000D01*
X144419000Y-71755000D01*
X144399000Y-71755000D01*
X144399000Y-73098594D01*
X144644980Y-73218563D01*
X145138924Y-73003973D01*
X145579999Y-72572381D01*
X145580000Y-76017619D01*
X145138924Y-75586027D01*
X144644980Y-75371437D01*
X144399000Y-75491406D01*
X144399000Y-76835000D01*
X144419000Y-76835000D01*
X144419000Y-77089000D01*
X144399000Y-77089000D01*
X144399000Y-78432594D01*
X144644980Y-78552563D01*
X145138924Y-78337973D01*
X145580000Y-77906381D01*
X145580000Y-78852645D01*
X145522915Y-78829000D01*
X145053085Y-78829000D01*
X144619017Y-79008797D01*
X144286797Y-79341017D01*
X144107000Y-79775085D01*
X144107000Y-80244915D01*
X144286797Y-80678983D01*
X144619017Y-81011203D01*
X145053085Y-81191000D01*
X145522915Y-81191000D01*
X145956983Y-81011203D01*
X146088010Y-80880176D01*
X146088010Y-86111569D01*
X145764166Y-86435414D01*
X145693132Y-86506448D01*
X145404318Y-86449000D01*
X145171682Y-86449000D01*
X144882869Y-86506448D01*
X143113000Y-84736580D01*
X143113000Y-84561302D01*
X142902755Y-84053727D01*
X142514273Y-83665245D01*
X142006698Y-83455000D01*
X141457302Y-83455000D01*
X140949727Y-83665245D01*
X140561245Y-84053727D01*
X140447637Y-84328000D01*
X136516363Y-84328000D01*
X136402755Y-84053727D01*
X136014273Y-83665245D01*
X135506698Y-83455000D01*
X134957302Y-83455000D01*
X134449727Y-83665245D01*
X134061245Y-84053727D01*
X133851000Y-84561302D01*
X133851000Y-84780461D01*
X132334000Y-83263462D01*
X132334000Y-81488532D01*
X134259073Y-81488532D01*
X134357736Y-81755387D01*
X134967461Y-81981908D01*
X135617460Y-81957856D01*
X136106264Y-81755387D01*
X136204927Y-81488532D01*
X140759073Y-81488532D01*
X140857736Y-81755387D01*
X141467461Y-81981908D01*
X142117460Y-81957856D01*
X142606264Y-81755387D01*
X142704927Y-81488532D01*
X141732000Y-80515605D01*
X140759073Y-81488532D01*
X136204927Y-81488532D01*
X135232000Y-80515605D01*
X134259073Y-81488532D01*
X132334000Y-81488532D01*
X132334000Y-80071461D01*
X133586092Y-80071461D01*
X133610144Y-80721460D01*
X133812613Y-81210264D01*
X134079468Y-81308927D01*
X135052395Y-80336000D01*
X135411605Y-80336000D01*
X136384532Y-81308927D01*
X136651387Y-81210264D01*
X136877908Y-80600539D01*
X136858331Y-80071461D01*
X140086092Y-80071461D01*
X140110144Y-80721460D01*
X140312613Y-81210264D01*
X140579468Y-81308927D01*
X141552395Y-80336000D01*
X141911605Y-80336000D01*
X142884532Y-81308927D01*
X143151387Y-81210264D01*
X143377908Y-80600539D01*
X143353856Y-79950540D01*
X143151387Y-79461736D01*
X142884532Y-79363073D01*
X141911605Y-80336000D01*
X141552395Y-80336000D01*
X140579468Y-79363073D01*
X140312613Y-79461736D01*
X140086092Y-80071461D01*
X136858331Y-80071461D01*
X136853856Y-79950540D01*
X136651387Y-79461736D01*
X136384532Y-79363073D01*
X135411605Y-80336000D01*
X135052395Y-80336000D01*
X134079468Y-79363073D01*
X133812613Y-79461736D01*
X133586092Y-80071461D01*
X132334000Y-80071461D01*
X132334000Y-79183468D01*
X134259073Y-79183468D01*
X135232000Y-80156395D01*
X136204927Y-79183468D01*
X140759073Y-79183468D01*
X141732000Y-80156395D01*
X142704927Y-79183468D01*
X142606264Y-78916613D01*
X141996539Y-78690092D01*
X141346540Y-78714144D01*
X140857736Y-78916613D01*
X140759073Y-79183468D01*
X136204927Y-79183468D01*
X136106264Y-78916613D01*
X135496539Y-78690092D01*
X134846540Y-78714144D01*
X134357736Y-78916613D01*
X134259073Y-79183468D01*
X132334000Y-79183468D01*
X132334000Y-78791884D01*
X132494983Y-78725203D01*
X132827203Y-78392983D01*
X132893884Y-78232000D01*
X137173472Y-78232000D01*
X137223500Y-78241951D01*
X137273528Y-78232000D01*
X137273532Y-78232000D01*
X137421712Y-78202525D01*
X137589747Y-78090247D01*
X137618088Y-78047832D01*
X137851036Y-77814884D01*
X137851036Y-77962000D01*
X137880606Y-78110659D01*
X137964814Y-78236686D01*
X138090841Y-78320894D01*
X138239500Y-78350464D01*
X140144500Y-78350464D01*
X140293159Y-78320894D01*
X140419186Y-78236686D01*
X140503394Y-78110659D01*
X140532964Y-77962000D01*
X140532964Y-77615251D01*
X140770602Y-77970899D01*
X141211695Y-78265629D01*
X141732000Y-78369124D01*
X142252306Y-78265629D01*
X142693399Y-77970899D01*
X142874835Y-77699362D01*
X142962682Y-77905091D01*
X143405076Y-78337973D01*
X143899020Y-78552563D01*
X144145000Y-78432594D01*
X144145000Y-77089000D01*
X144125000Y-77089000D01*
X144125000Y-76835000D01*
X144145000Y-76835000D01*
X144145000Y-75491406D01*
X143899020Y-75371437D01*
X143405076Y-75586027D01*
X142962682Y-76018909D01*
X142874835Y-76224638D01*
X142693398Y-75953101D01*
X142252305Y-75658371D01*
X141732000Y-75554876D01*
X141211694Y-75658371D01*
X140770601Y-75953102D01*
X140532964Y-76308750D01*
X140532964Y-75962000D01*
X140503394Y-75813341D01*
X140419186Y-75687314D01*
X140293159Y-75603106D01*
X140144500Y-75573536D01*
X138239500Y-75573536D01*
X138090841Y-75603106D01*
X137964814Y-75687314D01*
X137880606Y-75813341D01*
X137851036Y-75962000D01*
X137851036Y-76470795D01*
X137787288Y-76483475D01*
X137661667Y-76567412D01*
X137661665Y-76567414D01*
X137619253Y-76595753D01*
X137590914Y-76638165D01*
X137013080Y-77216000D01*
X132893884Y-77216000D01*
X132827203Y-77055017D01*
X132823185Y-77050999D01*
X135480973Y-77050999D01*
X135531001Y-77060950D01*
X135581029Y-77050999D01*
X135581033Y-77050999D01*
X135729213Y-77021524D01*
X135897248Y-76909246D01*
X135925589Y-76866831D01*
X139515832Y-73276588D01*
X139558247Y-73248247D01*
X139670525Y-73080212D01*
X139683205Y-73016464D01*
X140144500Y-73016464D01*
X140293159Y-72986894D01*
X140419186Y-72902686D01*
X140503394Y-72776659D01*
X140532964Y-72628000D01*
X140532964Y-72281251D01*
X140770602Y-72636899D01*
X141211695Y-72931629D01*
X141732000Y-73035124D01*
X142252306Y-72931629D01*
X142693399Y-72636899D01*
X142874835Y-72365362D01*
X142962682Y-72571091D01*
X143405076Y-73003973D01*
X143899020Y-73218563D01*
X144145000Y-73098594D01*
X144145000Y-71755000D01*
X144125000Y-71755000D01*
X144125000Y-71501000D01*
X144145000Y-71501000D01*
X144145000Y-70157406D01*
X143899020Y-70037437D01*
X143405076Y-70252027D01*
X142962682Y-70684909D01*
X142874835Y-70890638D01*
X142693398Y-70619101D01*
X142252305Y-70324371D01*
X141732000Y-70220876D01*
X141211694Y-70324371D01*
X140770601Y-70619102D01*
X140532964Y-70974750D01*
X140532964Y-70628000D01*
X140503394Y-70479341D01*
X140419186Y-70353314D01*
X140293159Y-70269106D01*
X140144500Y-70239536D01*
X138366499Y-70239536D01*
X138366499Y-69091921D01*
X139515836Y-67942585D01*
X139558247Y-67914247D01*
X139586586Y-67871835D01*
X139586588Y-67871833D01*
X139670525Y-67746212D01*
X139670525Y-67746211D01*
X139683205Y-67682464D01*
X140144500Y-67682464D01*
X140293159Y-67652894D01*
X140419186Y-67568686D01*
X140503394Y-67442659D01*
X140532964Y-67294000D01*
X140532964Y-66947251D01*
X140770602Y-67302899D01*
X141211695Y-67597629D01*
X141732000Y-67701124D01*
X142252306Y-67597629D01*
X142693399Y-67302899D01*
X142874835Y-67031362D01*
X142962682Y-67237091D01*
X143405076Y-67669973D01*
X143899020Y-67884563D01*
X144145000Y-67764594D01*
X144145000Y-66421000D01*
X144125000Y-66421000D01*
X144125000Y-66167000D01*
X144145000Y-66167000D01*
X144145000Y-66147000D01*
X144399000Y-66147000D01*
X144399000Y-66167000D01*
G36*
X131953000Y-85217000D02*
X131973000Y-85217000D01*
X131973000Y-85471000D01*
X131953000Y-85471000D01*
X131953000Y-85491000D01*
X131699000Y-85491000D01*
X131699000Y-85471000D01*
X131679000Y-85471000D01*
X131679000Y-85217000D01*
X131699000Y-85217000D01*
X131699000Y-85197000D01*
X131953000Y-85197000D01*
X131953000Y-85217000D01*
X131953000Y-85217000D01*
G37*
X131953000Y-85217000D02*
X131973000Y-85217000D01*
X131973000Y-85471000D01*
X131953000Y-85471000D01*
X131953000Y-85491000D01*
X131699000Y-85491000D01*
X131699000Y-85471000D01*
X131679000Y-85471000D01*
X131679000Y-85217000D01*
X131699000Y-85217000D01*
X131699000Y-85197000D01*
X131953000Y-85197000D01*
X131953000Y-85217000D01*
G04 #@! TD*
M02*
