G04 #@! TF.GenerationSoftware,KiCad,Pcbnew,5.0.2-bee76a0~70~ubuntu16.04.1*
G04 #@! TF.CreationDate,2019-06-13T12:14:42-07:00*
G04 #@! TF.ProjectId,sunrise-board,73756e72-6973-4652-9d62-6f6172642e6b,v1*
G04 #@! TF.SameCoordinates,Original*
G04 #@! TF.FileFunction,Legend,Top*
G04 #@! TF.FilePolarity,Positive*
%FSLAX46Y46*%
G04 Gerber Fmt 4.6, Leading zero omitted, Abs format (unit mm)*
G04 Created by KiCad (PCBNEW 5.0.2-bee76a0~70~ubuntu16.04.1) date Thu 13 Jun 2019 12:14:42 PM PDT*
%MOMM*%
%LPD*%
G01*
G04 APERTURE LIST*
%ADD10C,0.152400*%
%ADD11C,0.150000*%
%ADD12C,1.270000*%
%ADD13C,0.762000*%
%ADD14C,0.120000*%
G04 APERTURE END LIST*
D10*
X136906000Y-143256000D02*
X136144000Y-143256000D01*
X138938000Y-143256000D02*
X139700000Y-143256000D01*
X137160002Y-143510000D02*
G75*
G02X138683999Y-143509999I761998J254000D01*
G01*
X136398000Y-144018000D02*
X139446000Y-144018000D01*
X139954000Y-143764000D02*
X135890000Y-143764000D01*
X137922000Y-142240000D02*
X137922000Y-141478000D01*
X138938000Y-142748000D02*
X139446000Y-142494000D01*
X138430000Y-142240000D02*
X138684000Y-141732000D01*
X136906000Y-142748000D02*
X136398000Y-142494000D01*
X137414000Y-142240000D02*
X137160000Y-141732000D01*
X137160000Y-144272000D02*
X138684000Y-144272000D01*
D11*
G36*
X150114000Y-68072000D02*
X148844000Y-67310000D01*
X149352000Y-66802000D01*
X150114000Y-68072000D01*
G37*
X150114000Y-68072000D02*
X148844000Y-67310000D01*
X149352000Y-66802000D01*
X150114000Y-68072000D01*
G36*
X148082000Y-68072000D02*
X148844000Y-66802000D01*
X149352000Y-67310000D01*
X148082000Y-68072000D01*
G37*
X148082000Y-68072000D02*
X148844000Y-66802000D01*
X149352000Y-67310000D01*
X148082000Y-68072000D01*
G36*
X148082000Y-66040000D02*
X149352000Y-66802000D01*
X148844000Y-67310000D01*
X148082000Y-66040000D01*
G37*
X148082000Y-66040000D02*
X149352000Y-66802000D01*
X148844000Y-67310000D01*
X148082000Y-66040000D01*
G36*
X150114000Y-66040000D02*
X149352000Y-67310000D01*
X148844000Y-66802000D01*
X150114000Y-66040000D01*
G37*
X150114000Y-66040000D02*
X149352000Y-67310000D01*
X148844000Y-66802000D01*
X150114000Y-66040000D01*
G36*
X150622000Y-67056000D02*
X149098000Y-67310000D01*
X149098000Y-66802000D01*
X150622000Y-67056000D01*
G37*
X150622000Y-67056000D02*
X149098000Y-67310000D01*
X149098000Y-66802000D01*
X150622000Y-67056000D01*
G36*
X149098000Y-68580000D02*
X148844000Y-67056000D01*
X149352000Y-67056000D01*
X149098000Y-68580000D01*
G37*
X149098000Y-68580000D02*
X148844000Y-67056000D01*
X149352000Y-67056000D01*
X149098000Y-68580000D01*
G36*
X147574000Y-67056000D02*
X149098000Y-66802000D01*
X149098000Y-67310000D01*
X147574000Y-67056000D01*
G37*
X147574000Y-67056000D02*
X149098000Y-66802000D01*
X149098000Y-67310000D01*
X147574000Y-67056000D01*
G36*
X149098000Y-65532000D02*
X149352000Y-67056000D01*
X148844000Y-67056000D01*
X149098000Y-65532000D01*
G37*
X149098000Y-65532000D02*
X149352000Y-67056000D01*
X148844000Y-67056000D01*
X149098000Y-65532000D01*
G36*
X149098000Y-65532000D02*
X149352000Y-67056000D01*
X148844000Y-67056000D01*
X149098000Y-65532000D01*
G37*
X149098000Y-65532000D02*
X149352000Y-67056000D01*
X148844000Y-67056000D01*
X149098000Y-65532000D01*
D12*
X149352000Y-67056000D02*
G75*
G03X149352000Y-67056000I-254000J0D01*
G01*
D10*
X146304000Y-93472000D02*
X143764000Y-92456000D01*
X143764000Y-93472000D02*
X146304000Y-92456000D01*
X145542000Y-91694000D02*
X144526000Y-94234000D01*
X145542000Y-94234000D02*
X144526000Y-91694000D01*
X144018000Y-91948000D02*
X146050000Y-93980000D01*
X144018000Y-93980000D02*
X146050000Y-91948000D01*
X145034000Y-91440000D02*
X145034000Y-94488000D01*
X146558000Y-92964000D02*
X143510000Y-92964000D01*
D13*
X145288000Y-92964000D02*
G75*
G03X145288000Y-92964000I-254000J0D01*
G01*
D10*
X131572000Y-98298000D02*
X131572000Y-98806000D01*
X132080000Y-98806000D02*
X132080000Y-98298000D01*
X131826000Y-98298000D02*
X131826000Y-99060000D01*
X131064000Y-97790000D02*
X130556000Y-97790000D01*
X131064000Y-97282000D02*
X130556000Y-97282000D01*
X131064000Y-97536000D02*
X130302000Y-97536000D01*
X131572000Y-96774000D02*
X131572000Y-96266000D01*
X132080000Y-96774000D02*
X132080000Y-96266000D01*
X131826000Y-96774000D02*
X131826000Y-96012000D01*
X132334000Y-97536000D02*
G75*
G03X132334000Y-97536000I-508000J0D01*
G01*
X132588000Y-97790000D02*
X133096000Y-97790000D01*
X132588000Y-97282000D02*
X133096000Y-97282000D01*
X132588000Y-97536000D02*
X133350000Y-97536000D01*
X149333857Y-62320714D02*
X149079857Y-61957857D01*
X148898428Y-62320714D02*
X148898428Y-61558714D01*
X149188714Y-61558714D01*
X149261285Y-61595000D01*
X149297571Y-61631285D01*
X149333857Y-61703857D01*
X149333857Y-61812714D01*
X149297571Y-61885285D01*
X149261285Y-61921571D01*
X149188714Y-61957857D01*
X148898428Y-61957857D01*
X149624142Y-62103000D02*
X149987000Y-62103000D01*
X149551571Y-62320714D02*
X149805571Y-61558714D01*
X150059571Y-62320714D01*
X150241000Y-61558714D02*
X150422428Y-62320714D01*
X150567571Y-61776428D01*
X150712714Y-62320714D01*
X150894142Y-61558714D01*
X127635000Y-119089714D02*
X127635000Y-119452571D01*
X127417285Y-119017142D02*
X128179285Y-119271142D01*
X127417285Y-119525142D01*
X128179285Y-120142000D02*
X128179285Y-119779142D01*
X127816428Y-119742857D01*
X127852714Y-119779142D01*
X127889000Y-119851714D01*
X127889000Y-120033142D01*
X127852714Y-120105714D01*
X127816428Y-120142000D01*
X127743857Y-120178285D01*
X127562428Y-120178285D01*
X127489857Y-120142000D01*
X127453571Y-120105714D01*
X127417285Y-120033142D01*
X127417285Y-119851714D01*
X127453571Y-119779142D01*
X127489857Y-119742857D01*
X127635000Y-126201714D02*
X127635000Y-126564571D01*
X127417285Y-126129142D02*
X128179285Y-126383142D01*
X127417285Y-126637142D01*
X127925285Y-127217714D02*
X127417285Y-127217714D01*
X128215571Y-127036285D02*
X127671285Y-126854857D01*
X127671285Y-127326571D01*
X148172714Y-84509428D02*
X147410714Y-84509428D01*
X147410714Y-84328000D01*
X147447000Y-84219142D01*
X147519571Y-84146571D01*
X147592142Y-84110285D01*
X147737285Y-84074000D01*
X147846142Y-84074000D01*
X147991285Y-84110285D01*
X148063857Y-84146571D01*
X148136428Y-84219142D01*
X148172714Y-84328000D01*
X148172714Y-84509428D01*
X148172714Y-83711142D02*
X148172714Y-83566000D01*
X148136428Y-83493428D01*
X148100142Y-83457142D01*
X147991285Y-83384571D01*
X147846142Y-83348285D01*
X147555857Y-83348285D01*
X147483285Y-83384571D01*
X147447000Y-83420857D01*
X147410714Y-83493428D01*
X147410714Y-83638571D01*
X147447000Y-83711142D01*
X147483285Y-83747428D01*
X147555857Y-83783714D01*
X147737285Y-83783714D01*
X147809857Y-83747428D01*
X147846142Y-83711142D01*
X147882428Y-83638571D01*
X147882428Y-83493428D01*
X147846142Y-83420857D01*
X147809857Y-83384571D01*
X147737285Y-83348285D01*
X147410714Y-82985428D02*
X147555857Y-83058000D01*
X148172714Y-82078285D02*
X147410714Y-82078285D01*
X147410714Y-81896857D01*
X147447000Y-81788000D01*
X147519571Y-81715428D01*
X147592142Y-81679142D01*
X147737285Y-81642857D01*
X147846142Y-81642857D01*
X147991285Y-81679142D01*
X148063857Y-81715428D01*
X148136428Y-81788000D01*
X148172714Y-81896857D01*
X148172714Y-82078285D01*
X147410714Y-80989714D02*
X147410714Y-81134857D01*
X147447000Y-81207428D01*
X147483285Y-81243714D01*
X147592142Y-81316285D01*
X147737285Y-81352571D01*
X148027571Y-81352571D01*
X148100142Y-81316285D01*
X148136428Y-81280000D01*
X148172714Y-81207428D01*
X148172714Y-81062285D01*
X148136428Y-80989714D01*
X148100142Y-80953428D01*
X148027571Y-80917142D01*
X147846142Y-80917142D01*
X147773571Y-80953428D01*
X147737285Y-80989714D01*
X147701000Y-81062285D01*
X147701000Y-81207428D01*
X147737285Y-81280000D01*
X147773571Y-81316285D01*
X147846142Y-81352571D01*
X147410714Y-80554285D02*
X147555857Y-80626857D01*
X128669142Y-108447840D02*
X129394857Y-108447840D01*
X129177142Y-108777314D02*
X129032000Y-108777314D01*
X128959428Y-108813600D01*
X128923142Y-108849885D01*
X128850571Y-108958742D01*
X128814285Y-109103885D01*
X128814285Y-109394171D01*
X128850571Y-109466742D01*
X128886857Y-109503028D01*
X128959428Y-109539314D01*
X129104571Y-109539314D01*
X129177142Y-109503028D01*
X129213428Y-109466742D01*
X129249714Y-109394171D01*
X129249714Y-109212742D01*
X129213428Y-109140171D01*
X129177142Y-109103885D01*
X129104571Y-109067600D01*
X128959428Y-109067600D01*
X128886857Y-109103885D01*
X128850571Y-109140171D01*
X128814285Y-109212742D01*
X128778000Y-111368114D02*
X129286000Y-111368114D01*
X128959428Y-112130114D01*
D11*
G36*
X148590000Y-85852000D02*
X149860000Y-86614000D01*
X149860000Y-86106000D01*
X150876000Y-86360000D01*
X149606000Y-85598000D01*
X149606000Y-86106000D01*
X148590000Y-85852000D01*
G37*
X148590000Y-85852000D02*
X149860000Y-86614000D01*
X149860000Y-86106000D01*
X150876000Y-86360000D01*
X149606000Y-85598000D01*
X149606000Y-86106000D01*
X148590000Y-85852000D01*
D10*
X148172714Y-79647142D02*
X147410714Y-79647142D01*
X147410714Y-79465714D01*
X147447000Y-79356857D01*
X147519571Y-79284285D01*
X147592142Y-79248000D01*
X147737285Y-79211714D01*
X147846142Y-79211714D01*
X147991285Y-79248000D01*
X148063857Y-79284285D01*
X148136428Y-79356857D01*
X148172714Y-79465714D01*
X148172714Y-79647142D01*
X147410714Y-78957714D02*
X147410714Y-78486000D01*
X147701000Y-78740000D01*
X147701000Y-78631142D01*
X147737285Y-78558571D01*
X147773571Y-78522285D01*
X147846142Y-78486000D01*
X148027571Y-78486000D01*
X148100142Y-78522285D01*
X148136428Y-78558571D01*
X148172714Y-78631142D01*
X148172714Y-78848857D01*
X148136428Y-78921428D01*
X148100142Y-78957714D01*
X147410714Y-78123142D02*
X147555857Y-78195714D01*
X148172714Y-76780571D02*
X147809857Y-77034571D01*
X148172714Y-77216000D02*
X147410714Y-77216000D01*
X147410714Y-76925714D01*
X147447000Y-76853142D01*
X147483285Y-76816857D01*
X147555857Y-76780571D01*
X147664714Y-76780571D01*
X147737285Y-76816857D01*
X147773571Y-76853142D01*
X147809857Y-76925714D01*
X147809857Y-77216000D01*
X147955000Y-76490285D02*
X147955000Y-76127428D01*
X148172714Y-76562857D02*
X147410714Y-76308857D01*
X148172714Y-76054857D01*
X147410714Y-75873428D02*
X148172714Y-75692000D01*
X147628428Y-75546857D01*
X148172714Y-75401714D01*
X147410714Y-75220285D01*
X150168428Y-123643571D02*
X150204714Y-123534714D01*
X150204714Y-123353285D01*
X150168428Y-123280714D01*
X150132142Y-123244428D01*
X150059571Y-123208142D01*
X149987000Y-123208142D01*
X149914428Y-123244428D01*
X149878142Y-123280714D01*
X149841857Y-123353285D01*
X149805571Y-123498428D01*
X149769285Y-123571000D01*
X149733000Y-123607285D01*
X149660428Y-123643571D01*
X149587857Y-123643571D01*
X149515285Y-123607285D01*
X149479000Y-123571000D01*
X149442714Y-123498428D01*
X149442714Y-123317000D01*
X149479000Y-123208142D01*
X150132142Y-122446142D02*
X150168428Y-122482428D01*
X150204714Y-122591285D01*
X150204714Y-122663857D01*
X150168428Y-122772714D01*
X150095857Y-122845285D01*
X150023285Y-122881571D01*
X149878142Y-122917857D01*
X149769285Y-122917857D01*
X149624142Y-122881571D01*
X149551571Y-122845285D01*
X149479000Y-122772714D01*
X149442714Y-122663857D01*
X149442714Y-122591285D01*
X149479000Y-122482428D01*
X149515285Y-122446142D01*
X150204714Y-122119571D02*
X149442714Y-122119571D01*
X150204714Y-121684142D02*
X149769285Y-122010714D01*
X149442714Y-121684142D02*
X149878142Y-122119571D01*
X149406428Y-120813285D02*
X150386142Y-121466428D01*
X150204714Y-120559285D02*
X149442714Y-120559285D01*
X149442714Y-120377857D01*
X149479000Y-120269000D01*
X149551571Y-120196428D01*
X149624142Y-120160142D01*
X149769285Y-120123857D01*
X149878142Y-120123857D01*
X150023285Y-120160142D01*
X150095857Y-120196428D01*
X150168428Y-120269000D01*
X150204714Y-120377857D01*
X150204714Y-120559285D01*
X150204714Y-119398142D02*
X150204714Y-119833571D01*
X150204714Y-119615857D02*
X149442714Y-119615857D01*
X149551571Y-119688428D01*
X149624142Y-119761000D01*
X149660428Y-119833571D01*
X149442714Y-119144142D02*
X149442714Y-118672428D01*
X149733000Y-118926428D01*
X149733000Y-118817571D01*
X149769285Y-118745000D01*
X149805571Y-118708714D01*
X149878142Y-118672428D01*
X150059571Y-118672428D01*
X150132142Y-118708714D01*
X150168428Y-118745000D01*
X150204714Y-118817571D01*
X150204714Y-119035285D01*
X150168428Y-119107857D01*
X150132142Y-119144142D01*
D11*
G36*
X130048000Y-100838000D02*
X130048000Y-100584000D01*
X130556000Y-100838000D01*
X129794000Y-100330000D01*
X129794000Y-100584000D01*
X129286000Y-100330000D01*
X130048000Y-100838000D01*
G37*
X130048000Y-100838000D02*
X130048000Y-100584000D01*
X130556000Y-100838000D01*
X129794000Y-100330000D01*
X129794000Y-100584000D01*
X129286000Y-100330000D01*
X130048000Y-100838000D01*
G36*
X132334000Y-103886000D02*
X132334000Y-103632000D01*
X132842000Y-103886000D01*
X132080000Y-103378000D01*
X132080000Y-103632000D01*
X131572000Y-103378000D01*
X132334000Y-103886000D01*
G37*
X132334000Y-103886000D02*
X132334000Y-103632000D01*
X132842000Y-103886000D01*
X132080000Y-103378000D01*
X132080000Y-103632000D01*
X131572000Y-103378000D01*
X132334000Y-103886000D01*
G36*
X130048000Y-116078000D02*
X130048000Y-115824000D01*
X130556000Y-116078000D01*
X129794000Y-115570000D01*
X129794000Y-115824000D01*
X129286000Y-115570000D01*
X130048000Y-116078000D01*
G37*
X130048000Y-116078000D02*
X130048000Y-115824000D01*
X130556000Y-116078000D01*
X129794000Y-115570000D01*
X129794000Y-115824000D01*
X129286000Y-115570000D01*
X130048000Y-116078000D01*
D10*
X128687285Y-113683142D02*
X129449285Y-113683142D01*
X129449285Y-113864571D01*
X129413000Y-113973428D01*
X129340428Y-114046000D01*
X129267857Y-114082285D01*
X129122714Y-114118571D01*
X129013857Y-114118571D01*
X128868714Y-114082285D01*
X128796142Y-114046000D01*
X128723571Y-113973428D01*
X128687285Y-113864571D01*
X128687285Y-113683142D01*
X129122714Y-114554000D02*
X129159000Y-114481428D01*
X129195285Y-114445142D01*
X129267857Y-114408857D01*
X129304142Y-114408857D01*
X129376714Y-114445142D01*
X129413000Y-114481428D01*
X129449285Y-114554000D01*
X129449285Y-114699142D01*
X129413000Y-114771714D01*
X129376714Y-114808000D01*
X129304142Y-114844285D01*
X129267857Y-114844285D01*
X129195285Y-114808000D01*
X129159000Y-114771714D01*
X129122714Y-114699142D01*
X129122714Y-114554000D01*
X129086428Y-114481428D01*
X129050142Y-114445142D01*
X128977571Y-114408857D01*
X128832428Y-114408857D01*
X128759857Y-114445142D01*
X128723571Y-114481428D01*
X128687285Y-114554000D01*
X128687285Y-114699142D01*
X128723571Y-114771714D01*
X128759857Y-114808000D01*
X128832428Y-114844285D01*
X128977571Y-114844285D01*
X129050142Y-114808000D01*
X129086428Y-114771714D01*
X129122714Y-114699142D01*
X129778760Y-116150571D02*
X129778760Y-116912571D01*
X128687285Y-116332000D02*
X129449285Y-116332000D01*
X129449285Y-116513428D01*
X129413000Y-116622285D01*
X129340428Y-116694857D01*
X129267857Y-116731142D01*
X129122714Y-116767428D01*
X129013857Y-116767428D01*
X128868714Y-116731142D01*
X128796142Y-116694857D01*
X128723571Y-116622285D01*
X128687285Y-116513428D01*
X128687285Y-116332000D01*
X129778760Y-116912571D02*
X129778760Y-117638285D01*
X128687285Y-117130285D02*
X128687285Y-117275428D01*
X128723571Y-117348000D01*
X128759857Y-117384285D01*
X128868714Y-117456857D01*
X129013857Y-117493142D01*
X129304142Y-117493142D01*
X129376714Y-117456857D01*
X129413000Y-117420571D01*
X129449285Y-117348000D01*
X129449285Y-117202857D01*
X129413000Y-117130285D01*
X129376714Y-117094000D01*
X129304142Y-117057714D01*
X129122714Y-117057714D01*
X129050142Y-117094000D01*
X129013857Y-117130285D01*
X128977571Y-117202857D01*
X128977571Y-117348000D01*
X129013857Y-117420571D01*
X129050142Y-117456857D01*
X129122714Y-117493142D01*
X128687285Y-103523142D02*
X129449285Y-103523142D01*
X129449285Y-103704571D01*
X129413000Y-103813428D01*
X129340428Y-103886000D01*
X129267857Y-103922285D01*
X129122714Y-103958571D01*
X129013857Y-103958571D01*
X128868714Y-103922285D01*
X128796142Y-103886000D01*
X128723571Y-103813428D01*
X128687285Y-103704571D01*
X128687285Y-103523142D01*
X129195285Y-104611714D02*
X128687285Y-104611714D01*
X129485571Y-104430285D02*
X128941285Y-104248857D01*
X128941285Y-104720571D01*
X128687285Y-106172000D02*
X129449285Y-106172000D01*
X129449285Y-106353428D01*
X129413000Y-106462285D01*
X129340428Y-106534857D01*
X129267857Y-106571142D01*
X129122714Y-106607428D01*
X129013857Y-106607428D01*
X128868714Y-106571142D01*
X128796142Y-106534857D01*
X128723571Y-106462285D01*
X128687285Y-106353428D01*
X128687285Y-106172000D01*
X129449285Y-107296857D02*
X129449285Y-106934000D01*
X129086428Y-106897714D01*
X129122714Y-106934000D01*
X129159000Y-107006571D01*
X129159000Y-107188000D01*
X129122714Y-107260571D01*
X129086428Y-107296857D01*
X129013857Y-107333142D01*
X128832428Y-107333142D01*
X128759857Y-107296857D01*
X128723571Y-107260571D01*
X128687285Y-107188000D01*
X128687285Y-107006571D01*
X128723571Y-106934000D01*
X128759857Y-106897714D01*
X128687285Y-98443142D02*
X129449285Y-98443142D01*
X129449285Y-98624571D01*
X129413000Y-98733428D01*
X129340428Y-98806000D01*
X129267857Y-98842285D01*
X129122714Y-98878571D01*
X129013857Y-98878571D01*
X128868714Y-98842285D01*
X128796142Y-98806000D01*
X128723571Y-98733428D01*
X128687285Y-98624571D01*
X128687285Y-98443142D01*
X129376714Y-99168857D02*
X129413000Y-99205142D01*
X129449285Y-99277714D01*
X129449285Y-99459142D01*
X129413000Y-99531714D01*
X129376714Y-99568000D01*
X129304142Y-99604285D01*
X129231571Y-99604285D01*
X129122714Y-99568000D01*
X128687285Y-99132571D01*
X128687285Y-99604285D01*
X129778760Y-100910571D02*
X129778760Y-101672571D01*
X128687285Y-101092000D02*
X129449285Y-101092000D01*
X129449285Y-101273428D01*
X129413000Y-101382285D01*
X129340428Y-101454857D01*
X129267857Y-101491142D01*
X129122714Y-101527428D01*
X129013857Y-101527428D01*
X128868714Y-101491142D01*
X128796142Y-101454857D01*
X128723571Y-101382285D01*
X128687285Y-101273428D01*
X128687285Y-101092000D01*
X129778760Y-101672571D02*
X129778760Y-102398285D01*
X129449285Y-101781428D02*
X129449285Y-102253142D01*
X129159000Y-101999142D01*
X129159000Y-102108000D01*
X129122714Y-102180571D01*
X129086428Y-102216857D01*
X129013857Y-102253142D01*
X128832428Y-102253142D01*
X128759857Y-102216857D01*
X128723571Y-102180571D01*
X128687285Y-102108000D01*
X128687285Y-101890285D01*
X128723571Y-101817714D01*
X128759857Y-101781428D01*
X129778760Y-92764428D02*
X129778760Y-93526428D01*
X128687285Y-93381285D02*
X129050142Y-93127285D01*
X128687285Y-92945857D02*
X129449285Y-92945857D01*
X129449285Y-93236142D01*
X129413000Y-93308714D01*
X129376714Y-93345000D01*
X129304142Y-93381285D01*
X129195285Y-93381285D01*
X129122714Y-93345000D01*
X129086428Y-93308714D01*
X129050142Y-93236142D01*
X129050142Y-92945857D01*
X129778760Y-93526428D02*
X129778760Y-94252142D01*
X128723571Y-93671571D02*
X128687285Y-93780428D01*
X128687285Y-93961857D01*
X128723571Y-94034428D01*
X128759857Y-94070714D01*
X128832428Y-94107000D01*
X128905000Y-94107000D01*
X128977571Y-94070714D01*
X129013857Y-94034428D01*
X129050142Y-93961857D01*
X129086428Y-93816714D01*
X129122714Y-93744142D01*
X129159000Y-93707857D01*
X129231571Y-93671571D01*
X129304142Y-93671571D01*
X129376714Y-93707857D01*
X129413000Y-93744142D01*
X129449285Y-93816714D01*
X129449285Y-93998142D01*
X129413000Y-94107000D01*
X129778760Y-94252142D02*
X129778760Y-94832714D01*
X129449285Y-94324714D02*
X129449285Y-94760142D01*
X128687285Y-94542428D02*
X129449285Y-94542428D01*
X129413000Y-95993857D02*
X129449285Y-95921285D01*
X129449285Y-95812428D01*
X129413000Y-95703571D01*
X129340428Y-95631000D01*
X129267857Y-95594714D01*
X129122714Y-95558428D01*
X129013857Y-95558428D01*
X128868714Y-95594714D01*
X128796142Y-95631000D01*
X128723571Y-95703571D01*
X128687285Y-95812428D01*
X128687285Y-95885000D01*
X128723571Y-95993857D01*
X128759857Y-96030142D01*
X129013857Y-96030142D01*
X129013857Y-95885000D01*
X128687285Y-96356714D02*
X129449285Y-96356714D01*
X128687285Y-96792142D01*
X129449285Y-96792142D01*
X128687285Y-97155000D02*
X129449285Y-97155000D01*
X129449285Y-97336428D01*
X129413000Y-97445285D01*
X129340428Y-97517857D01*
X129267857Y-97554142D01*
X129122714Y-97590428D01*
X129013857Y-97590428D01*
X128868714Y-97554142D01*
X128796142Y-97517857D01*
X128723571Y-97445285D01*
X128687285Y-97336428D01*
X128687285Y-97155000D01*
X129449285Y-87974714D02*
X129449285Y-88410142D01*
X128687285Y-88192428D02*
X129449285Y-88192428D01*
X129449285Y-88591571D02*
X128687285Y-89099571D01*
X129449285Y-89099571D02*
X128687285Y-88591571D01*
X129449285Y-89535000D02*
X129449285Y-89680142D01*
X129413000Y-89752714D01*
X129340428Y-89825285D01*
X129195285Y-89861571D01*
X128941285Y-89861571D01*
X128796142Y-89825285D01*
X128723571Y-89752714D01*
X128687285Y-89680142D01*
X128687285Y-89535000D01*
X128723571Y-89462428D01*
X128796142Y-89389857D01*
X128941285Y-89353571D01*
X129195285Y-89353571D01*
X129340428Y-89389857D01*
X129413000Y-89462428D01*
X129449285Y-89535000D01*
X128687285Y-91204142D02*
X129050142Y-90950142D01*
X128687285Y-90768714D02*
X129449285Y-90768714D01*
X129449285Y-91059000D01*
X129413000Y-91131571D01*
X129376714Y-91167857D01*
X129304142Y-91204142D01*
X129195285Y-91204142D01*
X129122714Y-91167857D01*
X129086428Y-91131571D01*
X129050142Y-91059000D01*
X129050142Y-90768714D01*
X129449285Y-91458142D02*
X128687285Y-91966142D01*
X129449285Y-91966142D02*
X128687285Y-91458142D01*
X128687285Y-92256428D02*
X129449285Y-92256428D01*
X145253361Y-114922151D02*
X144714546Y-114383336D01*
X145279019Y-114588599D01*
X145073756Y-114024126D01*
X145612572Y-114562941D01*
X145869150Y-114306362D02*
X145330335Y-113767547D01*
X146074413Y-114049783D02*
X146177045Y-113998468D01*
X146305334Y-113870178D01*
X146330992Y-113793205D01*
X146330992Y-113741889D01*
X146305334Y-113664915D01*
X146254019Y-113613600D01*
X146177045Y-113587942D01*
X146125729Y-113587942D01*
X146048756Y-113613600D01*
X145920466Y-113690573D01*
X145843493Y-113716231D01*
X145792177Y-113716231D01*
X145715203Y-113690573D01*
X145663887Y-113639257D01*
X145638230Y-113562284D01*
X145638230Y-113510968D01*
X145663887Y-113433994D01*
X145792177Y-113305705D01*
X145894808Y-113254389D01*
X146202703Y-112895179D02*
X146305334Y-112792548D01*
X146382308Y-112766890D01*
X146484939Y-112766890D01*
X146613229Y-112843863D01*
X146792834Y-113023468D01*
X146869808Y-113151758D01*
X146869808Y-113254389D01*
X146844150Y-113331363D01*
X146741518Y-113433994D01*
X146664545Y-113459652D01*
X146561913Y-113459652D01*
X146433624Y-113382679D01*
X146254019Y-113203074D01*
X146177045Y-113074784D01*
X146177045Y-112972153D01*
X146202703Y-112895179D01*
X145143032Y-116864452D02*
X144604217Y-116325637D01*
X145168690Y-116530900D01*
X144963427Y-115966427D01*
X145502243Y-116505242D01*
X145322638Y-115607216D02*
X145425269Y-115504585D01*
X145502243Y-115478927D01*
X145604874Y-115478927D01*
X145733164Y-115555901D01*
X145912769Y-115735506D01*
X145989742Y-115863795D01*
X145989742Y-115966427D01*
X145964084Y-116043400D01*
X145861453Y-116146032D01*
X145784479Y-116171690D01*
X145681848Y-116171690D01*
X145553558Y-116094716D01*
X145373953Y-115915111D01*
X145296980Y-115786821D01*
X145296980Y-115684190D01*
X145322638Y-115607216D01*
X146271979Y-115684190D02*
X146374610Y-115632874D01*
X146502900Y-115504585D01*
X146528558Y-115427611D01*
X146528558Y-115376295D01*
X146502900Y-115299322D01*
X146451584Y-115248006D01*
X146374610Y-115222348D01*
X146323295Y-115222348D01*
X146246321Y-115248006D01*
X146118032Y-115324980D01*
X146041058Y-115350638D01*
X145989742Y-115350638D01*
X145912769Y-115324980D01*
X145861453Y-115273664D01*
X145835795Y-115196690D01*
X145835795Y-115145375D01*
X145861453Y-115068401D01*
X145989742Y-114940112D01*
X146092374Y-114888796D01*
X146836452Y-115171032D02*
X146297637Y-114632217D01*
X147955000Y-102144285D02*
X147955000Y-101781428D01*
X148172714Y-102216857D02*
X147410714Y-101962857D01*
X148172714Y-101708857D01*
X147483285Y-101491142D02*
X147447000Y-101454857D01*
X147410714Y-101382285D01*
X147410714Y-101200857D01*
X147447000Y-101128285D01*
X147483285Y-101092000D01*
X147555857Y-101055714D01*
X147628428Y-101055714D01*
X147737285Y-101092000D01*
X148172714Y-101527428D01*
X148172714Y-101055714D01*
X147955000Y-99604285D02*
X147955000Y-99241428D01*
X148172714Y-99676857D02*
X147410714Y-99422857D01*
X148172714Y-99168857D01*
X147410714Y-98987428D02*
X147410714Y-98515714D01*
X147701000Y-98769714D01*
X147701000Y-98660857D01*
X147737285Y-98588285D01*
X147773571Y-98552000D01*
X147846142Y-98515714D01*
X148027571Y-98515714D01*
X148100142Y-98552000D01*
X148136428Y-98588285D01*
X148172714Y-98660857D01*
X148172714Y-98878571D01*
X148136428Y-98951142D01*
X148100142Y-98987428D01*
X147955000Y-107224285D02*
X147955000Y-106861428D01*
X148172714Y-107296857D02*
X147410714Y-107042857D01*
X148172714Y-106788857D01*
X147410714Y-106389714D02*
X147410714Y-106317142D01*
X147447000Y-106244571D01*
X147483285Y-106208285D01*
X147555857Y-106172000D01*
X147701000Y-106135714D01*
X147882428Y-106135714D01*
X148027571Y-106172000D01*
X148100142Y-106208285D01*
X148136428Y-106244571D01*
X148172714Y-106317142D01*
X148172714Y-106389714D01*
X148136428Y-106462285D01*
X148100142Y-106498571D01*
X148027571Y-106534857D01*
X147882428Y-106571142D01*
X147701000Y-106571142D01*
X147555857Y-106534857D01*
X147483285Y-106498571D01*
X147447000Y-106462285D01*
X147410714Y-106389714D01*
X147955000Y-104684285D02*
X147955000Y-104321428D01*
X148172714Y-104756857D02*
X147410714Y-104502857D01*
X148172714Y-104248857D01*
X148172714Y-103595714D02*
X148172714Y-104031142D01*
X148172714Y-103813428D02*
X147410714Y-103813428D01*
X147519571Y-103886000D01*
X147592142Y-103958571D01*
X147628428Y-104031142D01*
X148172714Y-112830428D02*
X147410714Y-112830428D01*
X147410714Y-112649000D01*
X147447000Y-112540142D01*
X147519571Y-112467571D01*
X147592142Y-112431285D01*
X147737285Y-112395000D01*
X147846142Y-112395000D01*
X147991285Y-112431285D01*
X148063857Y-112467571D01*
X148136428Y-112540142D01*
X148172714Y-112649000D01*
X148172714Y-112830428D01*
X148172714Y-111669285D02*
X148172714Y-112104714D01*
X148172714Y-111887000D02*
X147410714Y-111887000D01*
X147519571Y-111959571D01*
X147592142Y-112032142D01*
X147628428Y-112104714D01*
X147483285Y-111379000D02*
X147447000Y-111342714D01*
X147410714Y-111270142D01*
X147410714Y-111088714D01*
X147447000Y-111016142D01*
X147483285Y-110979857D01*
X147555857Y-110943571D01*
X147628428Y-110943571D01*
X147737285Y-110979857D01*
X148172714Y-111415285D01*
X148172714Y-110943571D01*
X148136428Y-110072714D02*
X148172714Y-109963857D01*
X148172714Y-109782428D01*
X148136428Y-109709857D01*
X148100142Y-109673571D01*
X148027571Y-109637285D01*
X147955000Y-109637285D01*
X147882428Y-109673571D01*
X147846142Y-109709857D01*
X147809857Y-109782428D01*
X147773571Y-109927571D01*
X147737285Y-110000142D01*
X147701000Y-110036428D01*
X147628428Y-110072714D01*
X147555857Y-110072714D01*
X147483285Y-110036428D01*
X147447000Y-110000142D01*
X147410714Y-109927571D01*
X147410714Y-109746142D01*
X147447000Y-109637285D01*
X148100142Y-108875285D02*
X148136428Y-108911571D01*
X148172714Y-109020428D01*
X148172714Y-109093000D01*
X148136428Y-109201857D01*
X148063857Y-109274428D01*
X147991285Y-109310714D01*
X147846142Y-109347000D01*
X147737285Y-109347000D01*
X147592142Y-109310714D01*
X147519571Y-109274428D01*
X147447000Y-109201857D01*
X147410714Y-109093000D01*
X147410714Y-109020428D01*
X147447000Y-108911571D01*
X147483285Y-108875285D01*
X148172714Y-108548714D02*
X147410714Y-108548714D01*
X148172714Y-108113285D02*
X147737285Y-108439857D01*
X147410714Y-108113285D02*
X147846142Y-108548714D01*
X147410714Y-97844428D02*
X148172714Y-97590428D01*
X147410714Y-97336428D01*
X148100142Y-96647000D02*
X148136428Y-96683285D01*
X148172714Y-96792142D01*
X148172714Y-96864714D01*
X148136428Y-96973571D01*
X148063857Y-97046142D01*
X147991285Y-97082428D01*
X147846142Y-97118714D01*
X147737285Y-97118714D01*
X147592142Y-97082428D01*
X147519571Y-97046142D01*
X147447000Y-96973571D01*
X147410714Y-96864714D01*
X147410714Y-96792142D01*
X147447000Y-96683285D01*
X147483285Y-96647000D01*
X148100142Y-95885000D02*
X148136428Y-95921285D01*
X148172714Y-96030142D01*
X148172714Y-96102714D01*
X148136428Y-96211571D01*
X148063857Y-96284142D01*
X147991285Y-96320428D01*
X147846142Y-96356714D01*
X147737285Y-96356714D01*
X147592142Y-96320428D01*
X147519571Y-96284142D01*
X147447000Y-96211571D01*
X147410714Y-96102714D01*
X147410714Y-96030142D01*
X147447000Y-95921285D01*
X147483285Y-95885000D01*
X147081240Y-95159285D02*
X147081240Y-94397285D01*
X148172714Y-94542428D02*
X147809857Y-94796428D01*
X148172714Y-94977857D02*
X147410714Y-94977857D01*
X147410714Y-94687571D01*
X147447000Y-94615000D01*
X147483285Y-94578714D01*
X147555857Y-94542428D01*
X147664714Y-94542428D01*
X147737285Y-94578714D01*
X147773571Y-94615000D01*
X147809857Y-94687571D01*
X147809857Y-94977857D01*
X147081240Y-94397285D02*
X147081240Y-93671571D01*
X148136428Y-94252142D02*
X148172714Y-94143285D01*
X148172714Y-93961857D01*
X148136428Y-93889285D01*
X148100142Y-93853000D01*
X148027571Y-93816714D01*
X147955000Y-93816714D01*
X147882428Y-93853000D01*
X147846142Y-93889285D01*
X147809857Y-93961857D01*
X147773571Y-94107000D01*
X147737285Y-94179571D01*
X147701000Y-94215857D01*
X147628428Y-94252142D01*
X147555857Y-94252142D01*
X147483285Y-94215857D01*
X147447000Y-94179571D01*
X147410714Y-94107000D01*
X147410714Y-93925571D01*
X147447000Y-93816714D01*
X147081240Y-93671571D02*
X147081240Y-93091000D01*
X147410714Y-93599000D02*
X147410714Y-93163571D01*
X148172714Y-93381285D02*
X147410714Y-93381285D01*
X147447000Y-91929857D02*
X147410714Y-92002428D01*
X147410714Y-92111285D01*
X147447000Y-92220142D01*
X147519571Y-92292714D01*
X147592142Y-92329000D01*
X147737285Y-92365285D01*
X147846142Y-92365285D01*
X147991285Y-92329000D01*
X148063857Y-92292714D01*
X148136428Y-92220142D01*
X148172714Y-92111285D01*
X148172714Y-92038714D01*
X148136428Y-91929857D01*
X148100142Y-91893571D01*
X147846142Y-91893571D01*
X147846142Y-92038714D01*
X148172714Y-91567000D02*
X147410714Y-91567000D01*
X148172714Y-91131571D01*
X147410714Y-91131571D01*
X148172714Y-90768714D02*
X147410714Y-90768714D01*
X147410714Y-90587285D01*
X147447000Y-90478428D01*
X147519571Y-90405857D01*
X147592142Y-90369571D01*
X147737285Y-90333285D01*
X147846142Y-90333285D01*
X147991285Y-90369571D01*
X148063857Y-90405857D01*
X148136428Y-90478428D01*
X148172714Y-90587285D01*
X148172714Y-90768714D01*
X148172714Y-88990714D02*
X147809857Y-89244714D01*
X148172714Y-89426142D02*
X147410714Y-89426142D01*
X147410714Y-89135857D01*
X147447000Y-89063285D01*
X147483285Y-89027000D01*
X147555857Y-88990714D01*
X147664714Y-88990714D01*
X147737285Y-89027000D01*
X147773571Y-89063285D01*
X147809857Y-89135857D01*
X147809857Y-89426142D01*
X147955000Y-88700428D02*
X147955000Y-88337571D01*
X148172714Y-88773000D02*
X147410714Y-88519000D01*
X148172714Y-88265000D01*
X147410714Y-88083571D02*
X148172714Y-87902142D01*
X147628428Y-87757000D01*
X148172714Y-87611857D01*
X147410714Y-87430428D01*
X148136428Y-117547571D02*
X148172714Y-117438714D01*
X148172714Y-117257285D01*
X148136428Y-117184714D01*
X148100142Y-117148428D01*
X148027571Y-117112142D01*
X147955000Y-117112142D01*
X147882428Y-117148428D01*
X147846142Y-117184714D01*
X147809857Y-117257285D01*
X147773571Y-117402428D01*
X147737285Y-117475000D01*
X147701000Y-117511285D01*
X147628428Y-117547571D01*
X147555857Y-117547571D01*
X147483285Y-117511285D01*
X147447000Y-117475000D01*
X147410714Y-117402428D01*
X147410714Y-117221000D01*
X147447000Y-117112142D01*
X148136428Y-116821857D02*
X148172714Y-116713000D01*
X148172714Y-116531571D01*
X148136428Y-116459000D01*
X148100142Y-116422714D01*
X148027571Y-116386428D01*
X147955000Y-116386428D01*
X147882428Y-116422714D01*
X147846142Y-116459000D01*
X147809857Y-116531571D01*
X147773571Y-116676714D01*
X147737285Y-116749285D01*
X147701000Y-116785571D01*
X147628428Y-116821857D01*
X147555857Y-116821857D01*
X147483285Y-116785571D01*
X147447000Y-116749285D01*
X147410714Y-116676714D01*
X147410714Y-116495285D01*
X147447000Y-116386428D01*
X148172714Y-115479285D02*
X147410714Y-115479285D01*
X147410714Y-115297857D01*
X147447000Y-115189000D01*
X147519571Y-115116428D01*
X147592142Y-115080142D01*
X147737285Y-115043857D01*
X147846142Y-115043857D01*
X147991285Y-115080142D01*
X148063857Y-115116428D01*
X148136428Y-115189000D01*
X148172714Y-115297857D01*
X148172714Y-115479285D01*
X148172714Y-114318142D02*
X148172714Y-114753571D01*
X148172714Y-114535857D02*
X147410714Y-114535857D01*
X147519571Y-114608428D01*
X147592142Y-114681000D01*
X147628428Y-114753571D01*
X148172714Y-113592428D02*
X148172714Y-114027857D01*
X148172714Y-113810142D02*
X147410714Y-113810142D01*
X147519571Y-113882714D01*
X147592142Y-113955285D01*
X147628428Y-114027857D01*
X136168190Y-53013428D02*
X135829523Y-53013428D01*
X135829523Y-53545619D02*
X135829523Y-52529619D01*
X136313333Y-52529619D01*
X136555238Y-52529619D02*
X137135809Y-52529619D01*
X136845523Y-53545619D02*
X136845523Y-52529619D01*
X137474476Y-53545619D02*
X137474476Y-52529619D01*
X137716380Y-52529619D01*
X137861523Y-52578000D01*
X137958285Y-52674761D01*
X138006666Y-52771523D01*
X138055047Y-52965047D01*
X138055047Y-53110190D01*
X138006666Y-53303714D01*
X137958285Y-53400476D01*
X137861523Y-53497238D01*
X137716380Y-53545619D01*
X137474476Y-53545619D01*
X138490476Y-53545619D02*
X138490476Y-52529619D01*
X139627428Y-52451000D02*
X139554857Y-52414714D01*
X139446000Y-52414714D01*
X139337142Y-52451000D01*
X139264571Y-52523571D01*
X139228285Y-52596142D01*
X139192000Y-52741285D01*
X139192000Y-52850142D01*
X139228285Y-52995285D01*
X139264571Y-53067857D01*
X139337142Y-53140428D01*
X139446000Y-53176714D01*
X139518571Y-53176714D01*
X139627428Y-53140428D01*
X139663714Y-53104142D01*
X139663714Y-52850142D01*
X139518571Y-52850142D01*
X139990285Y-53176714D02*
X139990285Y-52414714D01*
X140425714Y-53176714D01*
X140425714Y-52414714D01*
X140788571Y-53176714D02*
X140788571Y-52414714D01*
X140970000Y-52414714D01*
X141078857Y-52451000D01*
X141151428Y-52523571D01*
X141187714Y-52596142D01*
X141224000Y-52741285D01*
X141224000Y-52850142D01*
X141187714Y-52995285D01*
X141151428Y-53067857D01*
X141078857Y-53140428D01*
X140970000Y-53176714D01*
X140788571Y-53176714D01*
X132064760Y-103904142D02*
X132064760Y-104666142D01*
X130973285Y-104085571D02*
X131735285Y-104085571D01*
X131735285Y-104267000D01*
X131699000Y-104375857D01*
X131626428Y-104448428D01*
X131553857Y-104484714D01*
X131408714Y-104521000D01*
X131299857Y-104521000D01*
X131154714Y-104484714D01*
X131082142Y-104448428D01*
X131009571Y-104375857D01*
X130973285Y-104267000D01*
X130973285Y-104085571D01*
X132064760Y-104666142D02*
X132064760Y-105391857D01*
X131735285Y-105174142D02*
X131735285Y-105029000D01*
X131699000Y-104956428D01*
X131662714Y-104920142D01*
X131553857Y-104847571D01*
X131408714Y-104811285D01*
X131118428Y-104811285D01*
X131045857Y-104847571D01*
X131009571Y-104883857D01*
X130973285Y-104956428D01*
X130973285Y-105101571D01*
X131009571Y-105174142D01*
X131045857Y-105210428D01*
X131118428Y-105246714D01*
X131299857Y-105246714D01*
X131372428Y-105210428D01*
X131408714Y-105174142D01*
X131445000Y-105101571D01*
X131445000Y-104956428D01*
X131408714Y-104883857D01*
X131372428Y-104847571D01*
X131299857Y-104811285D01*
X128723571Y-120922142D02*
X128687285Y-121031000D01*
X128687285Y-121212428D01*
X128723571Y-121285000D01*
X128759857Y-121321285D01*
X128832428Y-121357571D01*
X128905000Y-121357571D01*
X128977571Y-121321285D01*
X129013857Y-121285000D01*
X129050142Y-121212428D01*
X129086428Y-121067285D01*
X129122714Y-120994714D01*
X129159000Y-120958428D01*
X129231571Y-120922142D01*
X129304142Y-120922142D01*
X129376714Y-120958428D01*
X129413000Y-120994714D01*
X129449285Y-121067285D01*
X129449285Y-121248714D01*
X129413000Y-121357571D01*
X128759857Y-122119571D02*
X128723571Y-122083285D01*
X128687285Y-121974428D01*
X128687285Y-121901857D01*
X128723571Y-121793000D01*
X128796142Y-121720428D01*
X128868714Y-121684142D01*
X129013857Y-121647857D01*
X129122714Y-121647857D01*
X129267857Y-121684142D01*
X129340428Y-121720428D01*
X129413000Y-121793000D01*
X129449285Y-121901857D01*
X129449285Y-121974428D01*
X129413000Y-122083285D01*
X129376714Y-122119571D01*
X128687285Y-122809000D02*
X128687285Y-122446142D01*
X129449285Y-122446142D01*
X128723571Y-123607285D02*
X128687285Y-123716142D01*
X128687285Y-123897571D01*
X128723571Y-123970142D01*
X128759857Y-124006428D01*
X128832428Y-124042714D01*
X128905000Y-124042714D01*
X128977571Y-124006428D01*
X129013857Y-123970142D01*
X129050142Y-123897571D01*
X129086428Y-123752428D01*
X129122714Y-123679857D01*
X129159000Y-123643571D01*
X129231571Y-123607285D01*
X129304142Y-123607285D01*
X129376714Y-123643571D01*
X129413000Y-123679857D01*
X129449285Y-123752428D01*
X129449285Y-123933857D01*
X129413000Y-124042714D01*
X128687285Y-124369285D02*
X129449285Y-124369285D01*
X129449285Y-124550714D01*
X129413000Y-124659571D01*
X129340428Y-124732142D01*
X129267857Y-124768428D01*
X129122714Y-124804714D01*
X129013857Y-124804714D01*
X128868714Y-124768428D01*
X128796142Y-124732142D01*
X128723571Y-124659571D01*
X128687285Y-124550714D01*
X128687285Y-124369285D01*
X128905000Y-125095000D02*
X128905000Y-125457857D01*
X128687285Y-125022428D02*
X129449285Y-125276428D01*
X128687285Y-125530428D01*
D14*
G04 #@! TO.C,Y2*
X129618000Y-112030000D02*
X129618000Y-109030000D01*
X133018000Y-112030000D02*
X133018000Y-109030000D01*
X130269039Y-113367790D02*
G75*
G02X129618000Y-112030000I1048961J1337790D01*
G01*
X130269039Y-107692210D02*
G75*
G03X129618000Y-109030000I1048961J-1337790D01*
G01*
X132366961Y-113367790D02*
G75*
G03X133018000Y-112030000I-1048961J1337790D01*
G01*
X132366961Y-107692210D02*
G75*
G02X133018000Y-109030000I-1048961J-1337790D01*
G01*
G04 #@! TO.C,Y1*
X149194000Y-128146000D02*
X149194000Y-131296000D01*
X149194000Y-131296000D02*
X146594000Y-131296000D01*
X146594000Y-131296000D02*
X146594000Y-128146000D01*
X148244000Y-131296000D02*
X148844000Y-132196000D01*
X148844000Y-132196000D02*
X148844000Y-132396000D01*
X147544000Y-131296000D02*
X146944000Y-132196000D01*
X146944000Y-132196000D02*
X146944000Y-132396000D01*
G04 #@! TO.C,U3*
X139430000Y-87316000D02*
G75*
G02X137430000Y-87316000I-1000000J0D01*
G01*
X137430000Y-87316000D02*
X135780000Y-87316000D01*
X135780000Y-87316000D02*
X135780000Y-122996000D01*
X135780000Y-122996000D02*
X141080000Y-122996000D01*
X141080000Y-122996000D02*
X141080000Y-87316000D01*
X141080000Y-87316000D02*
X139430000Y-87316000D01*
G04 #@! TO.C,U2*
X150428000Y-140192000D02*
G75*
G02X150428000Y-138192000I0J1000000D01*
G01*
X150428000Y-138192000D02*
X150428000Y-136542000D01*
X150428000Y-136542000D02*
X140148000Y-136542000D01*
X140148000Y-136542000D02*
X140148000Y-141842000D01*
X140148000Y-141842000D02*
X150428000Y-141842000D01*
X150428000Y-141842000D02*
X150428000Y-140192000D01*
G04 #@! TO.C,U1*
X133626000Y-65206000D02*
X130026000Y-65206000D01*
X134150184Y-65933205D02*
G75*
G03X133626000Y-65206000I-2324184J-1122795D01*
G01*
X134182400Y-68154807D02*
G75*
G02X131826000Y-69656000I-2356400J1098807D01*
G01*
X129469600Y-68154807D02*
G75*
G03X131826000Y-69656000I2356400J1098807D01*
G01*
X129501816Y-65933205D02*
G75*
G02X130026000Y-65206000I2324184J-1122795D01*
G01*
G04 #@! TO.C,R8*
X146328000Y-80550000D02*
X146658000Y-80550000D01*
X146658000Y-80550000D02*
X146658000Y-87090000D01*
X146658000Y-87090000D02*
X146328000Y-87090000D01*
X144248000Y-80550000D02*
X143918000Y-80550000D01*
X143918000Y-80550000D02*
X143918000Y-87090000D01*
X143918000Y-87090000D02*
X144248000Y-87090000D01*
G04 #@! TO.C,R7*
X144372000Y-125254000D02*
X144042000Y-125254000D01*
X144372000Y-131794000D02*
X144372000Y-125254000D01*
X144042000Y-131794000D02*
X144372000Y-131794000D01*
X141632000Y-125254000D02*
X141962000Y-125254000D01*
X141632000Y-131794000D02*
X141632000Y-125254000D01*
X141962000Y-131794000D02*
X141632000Y-131794000D01*
G04 #@! TO.C,R6*
X130532000Y-124682000D02*
X130202000Y-124682000D01*
X130202000Y-124682000D02*
X130202000Y-118142000D01*
X130202000Y-118142000D02*
X130532000Y-118142000D01*
X132612000Y-124682000D02*
X132942000Y-124682000D01*
X132942000Y-124682000D02*
X132942000Y-118142000D01*
X132942000Y-118142000D02*
X132612000Y-118142000D01*
G04 #@! TO.C,R5*
X140816000Y-125254000D02*
X140486000Y-125254000D01*
X140816000Y-131794000D02*
X140816000Y-125254000D01*
X140486000Y-131794000D02*
X140816000Y-131794000D01*
X138076000Y-125254000D02*
X138406000Y-125254000D01*
X138076000Y-131794000D02*
X138076000Y-125254000D01*
X138406000Y-131794000D02*
X138076000Y-131794000D01*
G04 #@! TO.C,R4*
X134588000Y-72998000D02*
X134588000Y-72668000D01*
X128048000Y-72998000D02*
X134588000Y-72998000D01*
X128048000Y-72668000D02*
X128048000Y-72998000D01*
X134588000Y-70258000D02*
X134588000Y-70588000D01*
X128048000Y-70258000D02*
X134588000Y-70258000D01*
X128048000Y-70588000D02*
X128048000Y-70258000D01*
G04 #@! TO.C,R3*
X130456000Y-84804000D02*
X130786000Y-84804000D01*
X130456000Y-78264000D02*
X130456000Y-84804000D01*
X130786000Y-78264000D02*
X130456000Y-78264000D01*
X133196000Y-84804000D02*
X132866000Y-84804000D01*
X133196000Y-78264000D02*
X133196000Y-84804000D01*
X132866000Y-78264000D02*
X133196000Y-78264000D01*
G04 #@! TO.C,R2*
X127154000Y-84804000D02*
X127484000Y-84804000D01*
X127154000Y-78264000D02*
X127154000Y-84804000D01*
X127484000Y-78264000D02*
X127154000Y-78264000D01*
X129894000Y-84804000D02*
X129564000Y-84804000D01*
X129894000Y-78264000D02*
X129894000Y-84804000D01*
X129564000Y-78264000D02*
X129894000Y-78264000D01*
G04 #@! TO.C,R1*
X134588000Y-75970000D02*
X134588000Y-76300000D01*
X134588000Y-76300000D02*
X128048000Y-76300000D01*
X128048000Y-76300000D02*
X128048000Y-75970000D01*
X134588000Y-73890000D02*
X134588000Y-73560000D01*
X134588000Y-73560000D02*
X128048000Y-73560000D01*
X128048000Y-73560000D02*
X128048000Y-73890000D01*
G04 #@! TO.C,Q3*
X136612000Y-73692000D02*
X146852000Y-73692000D01*
X136612000Y-78333000D02*
X146852000Y-78333000D01*
X136612000Y-73692000D02*
X136612000Y-78333000D01*
X146852000Y-73692000D02*
X146852000Y-78333000D01*
X136612000Y-75202000D02*
X146852000Y-75202000D01*
X139882000Y-73692000D02*
X139882000Y-75202000D01*
X143583000Y-73692000D02*
X143583000Y-75202000D01*
G04 #@! TO.C,Q2*
X143583000Y-68358000D02*
X143583000Y-69868000D01*
X139882000Y-68358000D02*
X139882000Y-69868000D01*
X136612000Y-69868000D02*
X146852000Y-69868000D01*
X146852000Y-68358000D02*
X146852000Y-72999000D01*
X136612000Y-68358000D02*
X136612000Y-72999000D01*
X136612000Y-72999000D02*
X146852000Y-72999000D01*
X136612000Y-68358000D02*
X146852000Y-68358000D01*
G04 #@! TO.C,Q1*
X136612000Y-63024000D02*
X146852000Y-63024000D01*
X136612000Y-67665000D02*
X146852000Y-67665000D01*
X136612000Y-63024000D02*
X136612000Y-67665000D01*
X146852000Y-63024000D02*
X146852000Y-67665000D01*
X136612000Y-64534000D02*
X146852000Y-64534000D01*
X139882000Y-63024000D02*
X139882000Y-64534000D01*
X143583000Y-63024000D02*
X143583000Y-64534000D01*
G04 #@! TO.C,J6*
X128330000Y-120590000D02*
X125670000Y-120590000D01*
X128330000Y-123190000D02*
X128330000Y-120590000D01*
X125670000Y-123190000D02*
X125670000Y-120590000D01*
X128330000Y-123190000D02*
X125670000Y-123190000D01*
X128330000Y-124460000D02*
X128330000Y-125790000D01*
X128330000Y-125790000D02*
X127000000Y-125790000D01*
G04 #@! TO.C,J5*
X148530000Y-85150000D02*
X151190000Y-85150000D01*
X148530000Y-77470000D02*
X148530000Y-85150000D01*
X151190000Y-77470000D02*
X151190000Y-85150000D01*
X148530000Y-77470000D02*
X151190000Y-77470000D01*
X148530000Y-76200000D02*
X148530000Y-74870000D01*
X148530000Y-74870000D02*
X149860000Y-74870000D01*
G04 #@! TO.C,J4*
X148530000Y-87570000D02*
X149860000Y-87570000D01*
X148530000Y-88900000D02*
X148530000Y-87570000D01*
X148530000Y-90170000D02*
X151190000Y-90170000D01*
X151190000Y-90170000D02*
X151190000Y-118170000D01*
X148530000Y-90170000D02*
X148530000Y-118170000D01*
X148530000Y-118170000D02*
X151190000Y-118170000D01*
G04 #@! TO.C,J3*
X125670000Y-49470000D02*
X125670000Y-52130000D01*
X138430000Y-49470000D02*
X125670000Y-49470000D01*
X138430000Y-52130000D02*
X125670000Y-52130000D01*
X138430000Y-49470000D02*
X138430000Y-52130000D01*
X139700000Y-49470000D02*
X141030000Y-49470000D01*
X141030000Y-49470000D02*
X141030000Y-50800000D01*
G04 #@! TO.C,J2*
X125670000Y-118170000D02*
X128330000Y-118170000D01*
X125670000Y-90170000D02*
X125670000Y-118170000D01*
X128330000Y-90170000D02*
X128330000Y-118170000D01*
X125670000Y-90170000D02*
X128330000Y-90170000D01*
X125670000Y-88900000D02*
X125670000Y-87570000D01*
X125670000Y-87570000D02*
X127000000Y-87570000D01*
G04 #@! TO.C,J1*
X150308000Y-61044000D02*
X151358000Y-61044000D01*
X151358000Y-59994000D02*
X151358000Y-61044000D01*
X141958000Y-54944000D02*
X141958000Y-46144000D01*
X141958000Y-46144000D02*
X151158000Y-46144000D01*
X144658000Y-60844000D02*
X141958000Y-60844000D01*
X141958000Y-60844000D02*
X141958000Y-58944000D01*
X151158000Y-46144000D02*
X151158000Y-60844000D01*
X151158000Y-60844000D02*
X148558000Y-60844000D01*
G04 #@! TO.C,D2*
X145139665Y-122236608D02*
G75*
G03X148372000Y-122393516I1672335J1078608D01*
G01*
X145139665Y-120079392D02*
G75*
G02X148372000Y-119922484I1672335J-1078608D01*
G01*
X145770870Y-122237837D02*
G75*
G03X147852961Y-122238000I1041130J1079837D01*
G01*
X145770870Y-120078163D02*
G75*
G02X147852961Y-120078000I1041130J-1079837D01*
G01*
X148372000Y-122394000D02*
X148372000Y-122238000D01*
X148372000Y-120078000D02*
X148372000Y-119922000D01*
G04 #@! TO.C,D1*
X137958000Y-55816000D02*
X137958000Y-55660000D01*
X137958000Y-58132000D02*
X137958000Y-57976000D01*
X135356870Y-55816163D02*
G75*
G02X137438961Y-55816000I1041130J-1079837D01*
G01*
X135356870Y-57975837D02*
G75*
G03X137438961Y-57976000I1041130J1079837D01*
G01*
X134725665Y-55817392D02*
G75*
G02X137958000Y-55660484I1672335J-1078608D01*
G01*
X134725665Y-57974608D02*
G75*
G03X137958000Y-58131516I1672335J1078608D01*
G01*
G04 #@! TO.C,C6*
X127618000Y-53301000D02*
X127618000Y-52986000D01*
X127618000Y-55726000D02*
X127618000Y-55411000D01*
X132558000Y-53301000D02*
X132558000Y-52986000D01*
X132558000Y-55726000D02*
X132558000Y-55411000D01*
X132558000Y-52986000D02*
X127618000Y-52986000D01*
X132558000Y-55726000D02*
X127618000Y-55726000D01*
G04 #@! TO.C,C5*
X143918000Y-104364000D02*
X143918000Y-99424000D01*
X146658000Y-104364000D02*
X146658000Y-99424000D01*
X143918000Y-104364000D02*
X144233000Y-104364000D01*
X146343000Y-104364000D02*
X146658000Y-104364000D01*
X143918000Y-99424000D02*
X144233000Y-99424000D01*
X146343000Y-99424000D02*
X146658000Y-99424000D01*
G04 #@! TO.C,C4*
X143918000Y-111730000D02*
X143918000Y-106790000D01*
X146658000Y-111730000D02*
X146658000Y-106790000D01*
X143918000Y-111730000D02*
X144233000Y-111730000D01*
X146343000Y-111730000D02*
X146658000Y-111730000D01*
X143918000Y-106790000D02*
X144233000Y-106790000D01*
X146343000Y-106790000D02*
X146658000Y-106790000D01*
G04 #@! TO.C,C3*
X127618000Y-56603000D02*
X127618000Y-56288000D01*
X127618000Y-59028000D02*
X127618000Y-58713000D01*
X132558000Y-56603000D02*
X132558000Y-56288000D01*
X132558000Y-59028000D02*
X132558000Y-58713000D01*
X132558000Y-56288000D02*
X127618000Y-56288000D01*
X132558000Y-59028000D02*
X127618000Y-59028000D01*
G04 #@! TO.C,C2*
X126442199Y-60835000D02*
X126442199Y-61235000D01*
X126242199Y-61035000D02*
X126642199Y-61035000D01*
X130593000Y-61860000D02*
X130593000Y-62600000D01*
X130553000Y-61693000D02*
X130553000Y-62767000D01*
X130513000Y-61566000D02*
X130513000Y-62894000D01*
X130473000Y-61462000D02*
X130473000Y-62998000D01*
X130433000Y-61371000D02*
X130433000Y-63089000D01*
X130393000Y-61290000D02*
X130393000Y-63170000D01*
X130353000Y-61217000D02*
X130353000Y-63243000D01*
X130313000Y-61150000D02*
X130313000Y-63310000D01*
X130273000Y-61088000D02*
X130273000Y-63372000D01*
X130233000Y-61030000D02*
X130233000Y-63430000D01*
X130193000Y-60976000D02*
X130193000Y-63484000D01*
X130153000Y-60926000D02*
X130153000Y-63534000D01*
X130113000Y-60879000D02*
X130113000Y-63581000D01*
X130073000Y-63070000D02*
X130073000Y-63626000D01*
X130073000Y-60834000D02*
X130073000Y-61390000D01*
X130033000Y-63070000D02*
X130033000Y-63668000D01*
X130033000Y-60792000D02*
X130033000Y-61390000D01*
X129993000Y-63070000D02*
X129993000Y-63708000D01*
X129993000Y-60752000D02*
X129993000Y-61390000D01*
X129953000Y-63070000D02*
X129953000Y-63746000D01*
X129953000Y-60714000D02*
X129953000Y-61390000D01*
X129913000Y-63070000D02*
X129913000Y-63782000D01*
X129913000Y-60678000D02*
X129913000Y-61390000D01*
X129873000Y-63070000D02*
X129873000Y-63817000D01*
X129873000Y-60643000D02*
X129873000Y-61390000D01*
X129833000Y-63070000D02*
X129833000Y-63849000D01*
X129833000Y-60611000D02*
X129833000Y-61390000D01*
X129793000Y-63070000D02*
X129793000Y-63880000D01*
X129793000Y-60580000D02*
X129793000Y-61390000D01*
X129753000Y-63070000D02*
X129753000Y-63910000D01*
X129753000Y-60550000D02*
X129753000Y-61390000D01*
X129713000Y-63070000D02*
X129713000Y-63938000D01*
X129713000Y-60522000D02*
X129713000Y-61390000D01*
X129673000Y-63070000D02*
X129673000Y-63965000D01*
X129673000Y-60495000D02*
X129673000Y-61390000D01*
X129633000Y-63070000D02*
X129633000Y-63990000D01*
X129633000Y-60470000D02*
X129633000Y-61390000D01*
X129593000Y-63070000D02*
X129593000Y-64015000D01*
X129593000Y-60445000D02*
X129593000Y-61390000D01*
X129553000Y-63070000D02*
X129553000Y-64038000D01*
X129553000Y-60422000D02*
X129553000Y-61390000D01*
X129513000Y-63070000D02*
X129513000Y-64060000D01*
X129513000Y-60400000D02*
X129513000Y-61390000D01*
X129473000Y-63070000D02*
X129473000Y-64081000D01*
X129473000Y-60379000D02*
X129473000Y-61390000D01*
X129433000Y-63070000D02*
X129433000Y-64100000D01*
X129433000Y-60360000D02*
X129433000Y-61390000D01*
X129393000Y-63070000D02*
X129393000Y-64119000D01*
X129393000Y-60341000D02*
X129393000Y-61390000D01*
X129353000Y-63070000D02*
X129353000Y-64137000D01*
X129353000Y-60323000D02*
X129353000Y-61390000D01*
X129313000Y-63070000D02*
X129313000Y-64154000D01*
X129313000Y-60306000D02*
X129313000Y-61390000D01*
X129273000Y-63070000D02*
X129273000Y-64170000D01*
X129273000Y-60290000D02*
X129273000Y-61390000D01*
X129233000Y-63070000D02*
X129233000Y-64184000D01*
X129233000Y-60276000D02*
X129233000Y-61390000D01*
X129192000Y-63070000D02*
X129192000Y-64198000D01*
X129192000Y-60262000D02*
X129192000Y-61390000D01*
X129152000Y-63070000D02*
X129152000Y-64212000D01*
X129152000Y-60248000D02*
X129152000Y-61390000D01*
X129112000Y-63070000D02*
X129112000Y-64224000D01*
X129112000Y-60236000D02*
X129112000Y-61390000D01*
X129072000Y-63070000D02*
X129072000Y-64235000D01*
X129072000Y-60225000D02*
X129072000Y-61390000D01*
X129032000Y-63070000D02*
X129032000Y-64246000D01*
X129032000Y-60214000D02*
X129032000Y-61390000D01*
X128992000Y-63070000D02*
X128992000Y-64255000D01*
X128992000Y-60205000D02*
X128992000Y-61390000D01*
X128952000Y-63070000D02*
X128952000Y-64264000D01*
X128952000Y-60196000D02*
X128952000Y-61390000D01*
X128912000Y-63070000D02*
X128912000Y-64272000D01*
X128912000Y-60188000D02*
X128912000Y-61390000D01*
X128872000Y-63070000D02*
X128872000Y-64280000D01*
X128872000Y-60180000D02*
X128872000Y-61390000D01*
X128832000Y-63070000D02*
X128832000Y-64286000D01*
X128832000Y-60174000D02*
X128832000Y-61390000D01*
X128792000Y-63070000D02*
X128792000Y-64292000D01*
X128792000Y-60168000D02*
X128792000Y-61390000D01*
X128752000Y-63070000D02*
X128752000Y-64297000D01*
X128752000Y-60163000D02*
X128752000Y-61390000D01*
X128712000Y-63070000D02*
X128712000Y-64301000D01*
X128712000Y-60159000D02*
X128712000Y-61390000D01*
X128672000Y-63070000D02*
X128672000Y-64304000D01*
X128672000Y-60156000D02*
X128672000Y-61390000D01*
X128632000Y-63070000D02*
X128632000Y-64307000D01*
X128632000Y-60153000D02*
X128632000Y-61390000D01*
X128592000Y-60151000D02*
X128592000Y-61390000D01*
X128592000Y-63070000D02*
X128592000Y-64309000D01*
X128552000Y-60150000D02*
X128552000Y-61390000D01*
X128552000Y-63070000D02*
X128552000Y-64310000D01*
X128512000Y-60150000D02*
X128512000Y-61390000D01*
X128512000Y-63070000D02*
X128512000Y-64310000D01*
X130632000Y-62230000D02*
G75*
G03X130632000Y-62230000I-2120000J0D01*
G01*
G04 #@! TO.C,C1*
X135736000Y-62230000D02*
G75*
G03X135736000Y-62230000I-2120000J0D01*
G01*
X133616000Y-61390000D02*
X133616000Y-60150000D01*
X133616000Y-64310000D02*
X133616000Y-63070000D01*
X133576000Y-61390000D02*
X133576000Y-60150000D01*
X133576000Y-64310000D02*
X133576000Y-63070000D01*
X133536000Y-61390000D02*
X133536000Y-60151000D01*
X133536000Y-64309000D02*
X133536000Y-63070000D01*
X133496000Y-64307000D02*
X133496000Y-63070000D01*
X133496000Y-61390000D02*
X133496000Y-60153000D01*
X133456000Y-64304000D02*
X133456000Y-63070000D01*
X133456000Y-61390000D02*
X133456000Y-60156000D01*
X133416000Y-64301000D02*
X133416000Y-63070000D01*
X133416000Y-61390000D02*
X133416000Y-60159000D01*
X133376000Y-64297000D02*
X133376000Y-63070000D01*
X133376000Y-61390000D02*
X133376000Y-60163000D01*
X133336000Y-64292000D02*
X133336000Y-63070000D01*
X133336000Y-61390000D02*
X133336000Y-60168000D01*
X133296000Y-64286000D02*
X133296000Y-63070000D01*
X133296000Y-61390000D02*
X133296000Y-60174000D01*
X133256000Y-64280000D02*
X133256000Y-63070000D01*
X133256000Y-61390000D02*
X133256000Y-60180000D01*
X133216000Y-64272000D02*
X133216000Y-63070000D01*
X133216000Y-61390000D02*
X133216000Y-60188000D01*
X133176000Y-64264000D02*
X133176000Y-63070000D01*
X133176000Y-61390000D02*
X133176000Y-60196000D01*
X133136000Y-64255000D02*
X133136000Y-63070000D01*
X133136000Y-61390000D02*
X133136000Y-60205000D01*
X133096000Y-64246000D02*
X133096000Y-63070000D01*
X133096000Y-61390000D02*
X133096000Y-60214000D01*
X133056000Y-64235000D02*
X133056000Y-63070000D01*
X133056000Y-61390000D02*
X133056000Y-60225000D01*
X133016000Y-64224000D02*
X133016000Y-63070000D01*
X133016000Y-61390000D02*
X133016000Y-60236000D01*
X132976000Y-64212000D02*
X132976000Y-63070000D01*
X132976000Y-61390000D02*
X132976000Y-60248000D01*
X132936000Y-64198000D02*
X132936000Y-63070000D01*
X132936000Y-61390000D02*
X132936000Y-60262000D01*
X132895000Y-64184000D02*
X132895000Y-63070000D01*
X132895000Y-61390000D02*
X132895000Y-60276000D01*
X132855000Y-64170000D02*
X132855000Y-63070000D01*
X132855000Y-61390000D02*
X132855000Y-60290000D01*
X132815000Y-64154000D02*
X132815000Y-63070000D01*
X132815000Y-61390000D02*
X132815000Y-60306000D01*
X132775000Y-64137000D02*
X132775000Y-63070000D01*
X132775000Y-61390000D02*
X132775000Y-60323000D01*
X132735000Y-64119000D02*
X132735000Y-63070000D01*
X132735000Y-61390000D02*
X132735000Y-60341000D01*
X132695000Y-64100000D02*
X132695000Y-63070000D01*
X132695000Y-61390000D02*
X132695000Y-60360000D01*
X132655000Y-64081000D02*
X132655000Y-63070000D01*
X132655000Y-61390000D02*
X132655000Y-60379000D01*
X132615000Y-64060000D02*
X132615000Y-63070000D01*
X132615000Y-61390000D02*
X132615000Y-60400000D01*
X132575000Y-64038000D02*
X132575000Y-63070000D01*
X132575000Y-61390000D02*
X132575000Y-60422000D01*
X132535000Y-64015000D02*
X132535000Y-63070000D01*
X132535000Y-61390000D02*
X132535000Y-60445000D01*
X132495000Y-63990000D02*
X132495000Y-63070000D01*
X132495000Y-61390000D02*
X132495000Y-60470000D01*
X132455000Y-63965000D02*
X132455000Y-63070000D01*
X132455000Y-61390000D02*
X132455000Y-60495000D01*
X132415000Y-63938000D02*
X132415000Y-63070000D01*
X132415000Y-61390000D02*
X132415000Y-60522000D01*
X132375000Y-63910000D02*
X132375000Y-63070000D01*
X132375000Y-61390000D02*
X132375000Y-60550000D01*
X132335000Y-63880000D02*
X132335000Y-63070000D01*
X132335000Y-61390000D02*
X132335000Y-60580000D01*
X132295000Y-63849000D02*
X132295000Y-63070000D01*
X132295000Y-61390000D02*
X132295000Y-60611000D01*
X132255000Y-63817000D02*
X132255000Y-63070000D01*
X132255000Y-61390000D02*
X132255000Y-60643000D01*
X132215000Y-63782000D02*
X132215000Y-63070000D01*
X132215000Y-61390000D02*
X132215000Y-60678000D01*
X132175000Y-63746000D02*
X132175000Y-63070000D01*
X132175000Y-61390000D02*
X132175000Y-60714000D01*
X132135000Y-63708000D02*
X132135000Y-63070000D01*
X132135000Y-61390000D02*
X132135000Y-60752000D01*
X132095000Y-63668000D02*
X132095000Y-63070000D01*
X132095000Y-61390000D02*
X132095000Y-60792000D01*
X132055000Y-63626000D02*
X132055000Y-63070000D01*
X132055000Y-61390000D02*
X132055000Y-60834000D01*
X132015000Y-63581000D02*
X132015000Y-60879000D01*
X131975000Y-63534000D02*
X131975000Y-60926000D01*
X131935000Y-63484000D02*
X131935000Y-60976000D01*
X131895000Y-63430000D02*
X131895000Y-61030000D01*
X131855000Y-63372000D02*
X131855000Y-61088000D01*
X131815000Y-63310000D02*
X131815000Y-61150000D01*
X131775000Y-63243000D02*
X131775000Y-61217000D01*
X131735000Y-63170000D02*
X131735000Y-61290000D01*
X131695000Y-63089000D02*
X131695000Y-61371000D01*
X131655000Y-62998000D02*
X131655000Y-61462000D01*
X131615000Y-62894000D02*
X131615000Y-61566000D01*
X131575000Y-62767000D02*
X131575000Y-61693000D01*
X131535000Y-62600000D02*
X131535000Y-61860000D01*
X135885801Y-63425000D02*
X135485801Y-63425000D01*
X135685801Y-63625000D02*
X135685801Y-63225000D01*
G04 #@! TO.C,SW1*
X136232000Y-85836000D02*
X140732000Y-85836000D01*
X134982000Y-81836000D02*
X134982000Y-83336000D01*
X140732000Y-79336000D02*
X136232000Y-79336000D01*
X141982000Y-83336000D02*
X141982000Y-81836000D01*
G04 #@! TO.C,BT1*
D11*
X126976285Y-143438571D02*
X127119142Y-143486190D01*
X127166761Y-143533809D01*
X127214380Y-143629047D01*
X127214380Y-143771904D01*
X127166761Y-143867142D01*
X127119142Y-143914761D01*
X127023904Y-143962380D01*
X126642952Y-143962380D01*
X126642952Y-142962380D01*
X126976285Y-142962380D01*
X127071523Y-143010000D01*
X127119142Y-143057619D01*
X127166761Y-143152857D01*
X127166761Y-143248095D01*
X127119142Y-143343333D01*
X127071523Y-143390952D01*
X126976285Y-143438571D01*
X126642952Y-143438571D01*
X127500095Y-142962380D02*
X128071523Y-142962380D01*
X127785809Y-143962380D02*
X127785809Y-142962380D01*
X128928666Y-143962380D02*
X128357238Y-143962380D01*
X128642952Y-143962380D02*
X128642952Y-142962380D01*
X128547714Y-143105238D01*
X128452476Y-143200476D01*
X128357238Y-143248095D01*
G04 #@! TO.C,Y2*
X132365809Y-106910190D02*
X132365809Y-107386380D01*
X132032476Y-106386380D02*
X132365809Y-106910190D01*
X132699142Y-106386380D01*
X132984857Y-106481619D02*
X133032476Y-106434000D01*
X133127714Y-106386380D01*
X133365809Y-106386380D01*
X133461047Y-106434000D01*
X133508666Y-106481619D01*
X133556285Y-106576857D01*
X133556285Y-106672095D01*
X133508666Y-106814952D01*
X132937238Y-107386380D01*
X133556285Y-107386380D01*
G04 #@! TO.C,Y1*
X145065809Y-129516190D02*
X145065809Y-129992380D01*
X144732476Y-128992380D02*
X145065809Y-129516190D01*
X145399142Y-128992380D01*
X146256285Y-129992380D02*
X145684857Y-129992380D01*
X145970571Y-129992380D02*
X145970571Y-128992380D01*
X145875333Y-129135238D01*
X145780095Y-129230476D01*
X145684857Y-129278095D01*
G04 #@! TO.C,U3*
X134112095Y-86320380D02*
X134112095Y-87129904D01*
X134159714Y-87225142D01*
X134207333Y-87272761D01*
X134302571Y-87320380D01*
X134493047Y-87320380D01*
X134588285Y-87272761D01*
X134635904Y-87225142D01*
X134683523Y-87129904D01*
X134683523Y-86320380D01*
X135064476Y-86320380D02*
X135683523Y-86320380D01*
X135350190Y-86701333D01*
X135493047Y-86701333D01*
X135588285Y-86748952D01*
X135635904Y-86796571D01*
X135683523Y-86891809D01*
X135683523Y-87129904D01*
X135635904Y-87225142D01*
X135588285Y-87272761D01*
X135493047Y-87320380D01*
X135207333Y-87320380D01*
X135112095Y-87272761D01*
X135064476Y-87225142D01*
G04 #@! TO.C,U2*
X138644380Y-139953904D02*
X139453904Y-139953904D01*
X139549142Y-139906285D01*
X139596761Y-139858666D01*
X139644380Y-139763428D01*
X139644380Y-139572952D01*
X139596761Y-139477714D01*
X139549142Y-139430095D01*
X139453904Y-139382476D01*
X138644380Y-139382476D01*
X138739619Y-138953904D02*
X138692000Y-138906285D01*
X138644380Y-138811047D01*
X138644380Y-138572952D01*
X138692000Y-138477714D01*
X138739619Y-138430095D01*
X138834857Y-138382476D01*
X138930095Y-138382476D01*
X139072952Y-138430095D01*
X139644380Y-139001523D01*
X139644380Y-138382476D01*
G04 #@! TO.C,U1*
X134366095Y-68540380D02*
X134366095Y-69349904D01*
X134413714Y-69445142D01*
X134461333Y-69492761D01*
X134556571Y-69540380D01*
X134747047Y-69540380D01*
X134842285Y-69492761D01*
X134889904Y-69445142D01*
X134937523Y-69349904D01*
X134937523Y-68540380D01*
X135937523Y-69540380D02*
X135366095Y-69540380D01*
X135651809Y-69540380D02*
X135651809Y-68540380D01*
X135556571Y-68683238D01*
X135461333Y-68778476D01*
X135366095Y-68826095D01*
G04 #@! TO.C,R8*
X145121333Y-89860380D02*
X144788000Y-89384190D01*
X144549904Y-89860380D02*
X144549904Y-88860380D01*
X144930857Y-88860380D01*
X145026095Y-88908000D01*
X145073714Y-88955619D01*
X145121333Y-89050857D01*
X145121333Y-89193714D01*
X145073714Y-89288952D01*
X145026095Y-89336571D01*
X144930857Y-89384190D01*
X144549904Y-89384190D01*
X145692761Y-89288952D02*
X145597523Y-89241333D01*
X145549904Y-89193714D01*
X145502285Y-89098476D01*
X145502285Y-89050857D01*
X145549904Y-88955619D01*
X145597523Y-88908000D01*
X145692761Y-88860380D01*
X145883238Y-88860380D01*
X145978476Y-88908000D01*
X146026095Y-88955619D01*
X146073714Y-89050857D01*
X146073714Y-89098476D01*
X146026095Y-89193714D01*
X145978476Y-89241333D01*
X145883238Y-89288952D01*
X145692761Y-89288952D01*
X145597523Y-89336571D01*
X145549904Y-89384190D01*
X145502285Y-89479428D01*
X145502285Y-89669904D01*
X145549904Y-89765142D01*
X145597523Y-89812761D01*
X145692761Y-89860380D01*
X145883238Y-89860380D01*
X145978476Y-89812761D01*
X146026095Y-89765142D01*
X146073714Y-89669904D01*
X146073714Y-89479428D01*
X146026095Y-89384190D01*
X145978476Y-89336571D01*
X145883238Y-89288952D01*
G04 #@! TO.C,R7*
X144867333Y-133294380D02*
X144534000Y-132818190D01*
X144295904Y-133294380D02*
X144295904Y-132294380D01*
X144676857Y-132294380D01*
X144772095Y-132342000D01*
X144819714Y-132389619D01*
X144867333Y-132484857D01*
X144867333Y-132627714D01*
X144819714Y-132722952D01*
X144772095Y-132770571D01*
X144676857Y-132818190D01*
X144295904Y-132818190D01*
X145200666Y-132294380D02*
X145867333Y-132294380D01*
X145438761Y-133294380D01*
G04 #@! TO.C,R6*
X133945333Y-124658380D02*
X133612000Y-124182190D01*
X133373904Y-124658380D02*
X133373904Y-123658380D01*
X133754857Y-123658380D01*
X133850095Y-123706000D01*
X133897714Y-123753619D01*
X133945333Y-123848857D01*
X133945333Y-123991714D01*
X133897714Y-124086952D01*
X133850095Y-124134571D01*
X133754857Y-124182190D01*
X133373904Y-124182190D01*
X134802476Y-123658380D02*
X134612000Y-123658380D01*
X134516761Y-123706000D01*
X134469142Y-123753619D01*
X134373904Y-123896476D01*
X134326285Y-124086952D01*
X134326285Y-124467904D01*
X134373904Y-124563142D01*
X134421523Y-124610761D01*
X134516761Y-124658380D01*
X134707238Y-124658380D01*
X134802476Y-124610761D01*
X134850095Y-124563142D01*
X134897714Y-124467904D01*
X134897714Y-124229809D01*
X134850095Y-124134571D01*
X134802476Y-124086952D01*
X134707238Y-124039333D01*
X134516761Y-124039333D01*
X134421523Y-124086952D01*
X134373904Y-124134571D01*
X134326285Y-124229809D01*
G04 #@! TO.C,R5*
X136739333Y-126182380D02*
X136406000Y-125706190D01*
X136167904Y-126182380D02*
X136167904Y-125182380D01*
X136548857Y-125182380D01*
X136644095Y-125230000D01*
X136691714Y-125277619D01*
X136739333Y-125372857D01*
X136739333Y-125515714D01*
X136691714Y-125610952D01*
X136644095Y-125658571D01*
X136548857Y-125706190D01*
X136167904Y-125706190D01*
X137644095Y-125182380D02*
X137167904Y-125182380D01*
X137120285Y-125658571D01*
X137167904Y-125610952D01*
X137263142Y-125563333D01*
X137501238Y-125563333D01*
X137596476Y-125610952D01*
X137644095Y-125658571D01*
X137691714Y-125753809D01*
X137691714Y-125991904D01*
X137644095Y-126087142D01*
X137596476Y-126134761D01*
X137501238Y-126182380D01*
X137263142Y-126182380D01*
X137167904Y-126134761D01*
X137120285Y-126087142D01*
G04 #@! TO.C,R4*
X127595333Y-69794380D02*
X127262000Y-69318190D01*
X127023904Y-69794380D02*
X127023904Y-68794380D01*
X127404857Y-68794380D01*
X127500095Y-68842000D01*
X127547714Y-68889619D01*
X127595333Y-68984857D01*
X127595333Y-69127714D01*
X127547714Y-69222952D01*
X127500095Y-69270571D01*
X127404857Y-69318190D01*
X127023904Y-69318190D01*
X128452476Y-69127714D02*
X128452476Y-69794380D01*
X128214380Y-68746761D02*
X127976285Y-69461047D01*
X128595333Y-69461047D01*
G04 #@! TO.C,R3*
X132421333Y-87574380D02*
X132088000Y-87098190D01*
X131849904Y-87574380D02*
X131849904Y-86574380D01*
X132230857Y-86574380D01*
X132326095Y-86622000D01*
X132373714Y-86669619D01*
X132421333Y-86764857D01*
X132421333Y-86907714D01*
X132373714Y-87002952D01*
X132326095Y-87050571D01*
X132230857Y-87098190D01*
X131849904Y-87098190D01*
X132754666Y-86574380D02*
X133373714Y-86574380D01*
X133040380Y-86955333D01*
X133183238Y-86955333D01*
X133278476Y-87002952D01*
X133326095Y-87050571D01*
X133373714Y-87145809D01*
X133373714Y-87383904D01*
X133326095Y-87479142D01*
X133278476Y-87526761D01*
X133183238Y-87574380D01*
X132897523Y-87574380D01*
X132802285Y-87526761D01*
X132754666Y-87479142D01*
G04 #@! TO.C,R2*
X129881333Y-87320380D02*
X129548000Y-86844190D01*
X129309904Y-87320380D02*
X129309904Y-86320380D01*
X129690857Y-86320380D01*
X129786095Y-86368000D01*
X129833714Y-86415619D01*
X129881333Y-86510857D01*
X129881333Y-86653714D01*
X129833714Y-86748952D01*
X129786095Y-86796571D01*
X129690857Y-86844190D01*
X129309904Y-86844190D01*
X130262285Y-86415619D02*
X130309904Y-86368000D01*
X130405142Y-86320380D01*
X130643238Y-86320380D01*
X130738476Y-86368000D01*
X130786095Y-86415619D01*
X130833714Y-86510857D01*
X130833714Y-86606095D01*
X130786095Y-86748952D01*
X130214666Y-87320380D01*
X130833714Y-87320380D01*
G04 #@! TO.C,R1*
X135469333Y-77160380D02*
X135136000Y-76684190D01*
X134897904Y-77160380D02*
X134897904Y-76160380D01*
X135278857Y-76160380D01*
X135374095Y-76208000D01*
X135421714Y-76255619D01*
X135469333Y-76350857D01*
X135469333Y-76493714D01*
X135421714Y-76588952D01*
X135374095Y-76636571D01*
X135278857Y-76684190D01*
X134897904Y-76684190D01*
X136421714Y-77160380D02*
X135850285Y-77160380D01*
X136136000Y-77160380D02*
X136136000Y-76160380D01*
X136040761Y-76303238D01*
X135945523Y-76398476D01*
X135850285Y-76446095D01*
G04 #@! TO.C,Q3*
X147986761Y-74207619D02*
X147891523Y-74160000D01*
X147796285Y-74064761D01*
X147653428Y-73921904D01*
X147558190Y-73874285D01*
X147462952Y-73874285D01*
X147510571Y-74112380D02*
X147415333Y-74064761D01*
X147320095Y-73969523D01*
X147272476Y-73779047D01*
X147272476Y-73445714D01*
X147320095Y-73255238D01*
X147415333Y-73160000D01*
X147510571Y-73112380D01*
X147701047Y-73112380D01*
X147796285Y-73160000D01*
X147891523Y-73255238D01*
X147939142Y-73445714D01*
X147939142Y-73779047D01*
X147891523Y-73969523D01*
X147796285Y-74064761D01*
X147701047Y-74112380D01*
X147510571Y-74112380D01*
X148272476Y-73112380D02*
X148891523Y-73112380D01*
X148558190Y-73493333D01*
X148701047Y-73493333D01*
X148796285Y-73540952D01*
X148843904Y-73588571D01*
X148891523Y-73683809D01*
X148891523Y-73921904D01*
X148843904Y-74017142D01*
X148796285Y-74064761D01*
X148701047Y-74112380D01*
X148415333Y-74112380D01*
X148320095Y-74064761D01*
X148272476Y-74017142D01*
G04 #@! TO.C,Q2*
X147986761Y-70397619D02*
X147891523Y-70350000D01*
X147796285Y-70254761D01*
X147653428Y-70111904D01*
X147558190Y-70064285D01*
X147462952Y-70064285D01*
X147510571Y-70302380D02*
X147415333Y-70254761D01*
X147320095Y-70159523D01*
X147272476Y-69969047D01*
X147272476Y-69635714D01*
X147320095Y-69445238D01*
X147415333Y-69350000D01*
X147510571Y-69302380D01*
X147701047Y-69302380D01*
X147796285Y-69350000D01*
X147891523Y-69445238D01*
X147939142Y-69635714D01*
X147939142Y-69969047D01*
X147891523Y-70159523D01*
X147796285Y-70254761D01*
X147701047Y-70302380D01*
X147510571Y-70302380D01*
X148320095Y-69397619D02*
X148367714Y-69350000D01*
X148462952Y-69302380D01*
X148701047Y-69302380D01*
X148796285Y-69350000D01*
X148843904Y-69397619D01*
X148891523Y-69492857D01*
X148891523Y-69588095D01*
X148843904Y-69730952D01*
X148272476Y-70302380D01*
X148891523Y-70302380D01*
G04 #@! TO.C,Q1*
X147986761Y-65063619D02*
X147891523Y-65016000D01*
X147796285Y-64920761D01*
X147653428Y-64777904D01*
X147558190Y-64730285D01*
X147462952Y-64730285D01*
X147510571Y-64968380D02*
X147415333Y-64920761D01*
X147320095Y-64825523D01*
X147272476Y-64635047D01*
X147272476Y-64301714D01*
X147320095Y-64111238D01*
X147415333Y-64016000D01*
X147510571Y-63968380D01*
X147701047Y-63968380D01*
X147796285Y-64016000D01*
X147891523Y-64111238D01*
X147939142Y-64301714D01*
X147939142Y-64635047D01*
X147891523Y-64825523D01*
X147796285Y-64920761D01*
X147701047Y-64968380D01*
X147510571Y-64968380D01*
X148891523Y-64968380D02*
X148320095Y-64968380D01*
X148605809Y-64968380D02*
X148605809Y-63968380D01*
X148510571Y-64111238D01*
X148415333Y-64206476D01*
X148320095Y-64254095D01*
G04 #@! TO.C,D2*
X144295904Y-119070380D02*
X144295904Y-118070380D01*
X144534000Y-118070380D01*
X144676857Y-118118000D01*
X144772095Y-118213238D01*
X144819714Y-118308476D01*
X144867333Y-118498952D01*
X144867333Y-118641809D01*
X144819714Y-118832285D01*
X144772095Y-118927523D01*
X144676857Y-119022761D01*
X144534000Y-119070380D01*
X144295904Y-119070380D01*
X145248285Y-118165619D02*
X145295904Y-118118000D01*
X145391142Y-118070380D01*
X145629238Y-118070380D01*
X145724476Y-118118000D01*
X145772095Y-118165619D01*
X145819714Y-118260857D01*
X145819714Y-118356095D01*
X145772095Y-118498952D01*
X145200666Y-119070380D01*
X145819714Y-119070380D01*
G04 #@! TO.C,D1*
X137691904Y-59888380D02*
X137691904Y-58888380D01*
X137930000Y-58888380D01*
X138072857Y-58936000D01*
X138168095Y-59031238D01*
X138215714Y-59126476D01*
X138263333Y-59316952D01*
X138263333Y-59459809D01*
X138215714Y-59650285D01*
X138168095Y-59745523D01*
X138072857Y-59840761D01*
X137930000Y-59888380D01*
X137691904Y-59888380D01*
X139215714Y-59888380D02*
X138644285Y-59888380D01*
X138930000Y-59888380D02*
X138930000Y-58888380D01*
X138834761Y-59031238D01*
X138739523Y-59126476D01*
X138644285Y-59174095D01*
G04 #@! TO.C,C6*
X134453333Y-54713142D02*
X134405714Y-54760761D01*
X134262857Y-54808380D01*
X134167619Y-54808380D01*
X134024761Y-54760761D01*
X133929523Y-54665523D01*
X133881904Y-54570285D01*
X133834285Y-54379809D01*
X133834285Y-54236952D01*
X133881904Y-54046476D01*
X133929523Y-53951238D01*
X134024761Y-53856000D01*
X134167619Y-53808380D01*
X134262857Y-53808380D01*
X134405714Y-53856000D01*
X134453333Y-53903619D01*
X135310476Y-53808380D02*
X135120000Y-53808380D01*
X135024761Y-53856000D01*
X134977142Y-53903619D01*
X134881904Y-54046476D01*
X134834285Y-54236952D01*
X134834285Y-54617904D01*
X134881904Y-54713142D01*
X134929523Y-54760761D01*
X135024761Y-54808380D01*
X135215238Y-54808380D01*
X135310476Y-54760761D01*
X135358095Y-54713142D01*
X135405714Y-54617904D01*
X135405714Y-54379809D01*
X135358095Y-54284571D01*
X135310476Y-54236952D01*
X135215238Y-54189333D01*
X135024761Y-54189333D01*
X134929523Y-54236952D01*
X134881904Y-54284571D01*
X134834285Y-54379809D01*
G04 #@! TO.C,C5*
X143851333Y-98147142D02*
X143803714Y-98194761D01*
X143660857Y-98242380D01*
X143565619Y-98242380D01*
X143422761Y-98194761D01*
X143327523Y-98099523D01*
X143279904Y-98004285D01*
X143232285Y-97813809D01*
X143232285Y-97670952D01*
X143279904Y-97480476D01*
X143327523Y-97385238D01*
X143422761Y-97290000D01*
X143565619Y-97242380D01*
X143660857Y-97242380D01*
X143803714Y-97290000D01*
X143851333Y-97337619D01*
X144756095Y-97242380D02*
X144279904Y-97242380D01*
X144232285Y-97718571D01*
X144279904Y-97670952D01*
X144375142Y-97623333D01*
X144613238Y-97623333D01*
X144708476Y-97670952D01*
X144756095Y-97718571D01*
X144803714Y-97813809D01*
X144803714Y-98051904D01*
X144756095Y-98147142D01*
X144708476Y-98194761D01*
X144613238Y-98242380D01*
X144375142Y-98242380D01*
X144279904Y-98194761D01*
X144232285Y-98147142D01*
G04 #@! TO.C,C4*
X143851333Y-113641142D02*
X143803714Y-113688761D01*
X143660857Y-113736380D01*
X143565619Y-113736380D01*
X143422761Y-113688761D01*
X143327523Y-113593523D01*
X143279904Y-113498285D01*
X143232285Y-113307809D01*
X143232285Y-113164952D01*
X143279904Y-112974476D01*
X143327523Y-112879238D01*
X143422761Y-112784000D01*
X143565619Y-112736380D01*
X143660857Y-112736380D01*
X143803714Y-112784000D01*
X143851333Y-112831619D01*
X144708476Y-113069714D02*
X144708476Y-113736380D01*
X144470380Y-112688761D02*
X144232285Y-113403047D01*
X144851333Y-113403047D01*
G04 #@! TO.C,C3*
X131151333Y-60301142D02*
X131103714Y-60348761D01*
X130960857Y-60396380D01*
X130865619Y-60396380D01*
X130722761Y-60348761D01*
X130627523Y-60253523D01*
X130579904Y-60158285D01*
X130532285Y-59967809D01*
X130532285Y-59824952D01*
X130579904Y-59634476D01*
X130627523Y-59539238D01*
X130722761Y-59444000D01*
X130865619Y-59396380D01*
X130960857Y-59396380D01*
X131103714Y-59444000D01*
X131151333Y-59491619D01*
X131484666Y-59396380D02*
X132103714Y-59396380D01*
X131770380Y-59777333D01*
X131913238Y-59777333D01*
X132008476Y-59824952D01*
X132056095Y-59872571D01*
X132103714Y-59967809D01*
X132103714Y-60205904D01*
X132056095Y-60301142D01*
X132008476Y-60348761D01*
X131913238Y-60396380D01*
X131627523Y-60396380D01*
X131532285Y-60348761D01*
X131484666Y-60301142D01*
G04 #@! TO.C,C2*
X127341333Y-65635142D02*
X127293714Y-65682761D01*
X127150857Y-65730380D01*
X127055619Y-65730380D01*
X126912761Y-65682761D01*
X126817523Y-65587523D01*
X126769904Y-65492285D01*
X126722285Y-65301809D01*
X126722285Y-65158952D01*
X126769904Y-64968476D01*
X126817523Y-64873238D01*
X126912761Y-64778000D01*
X127055619Y-64730380D01*
X127150857Y-64730380D01*
X127293714Y-64778000D01*
X127341333Y-64825619D01*
X127722285Y-64825619D02*
X127769904Y-64778000D01*
X127865142Y-64730380D01*
X128103238Y-64730380D01*
X128198476Y-64778000D01*
X128246095Y-64825619D01*
X128293714Y-64920857D01*
X128293714Y-65016095D01*
X128246095Y-65158952D01*
X127674666Y-65730380D01*
X128293714Y-65730380D01*
G04 #@! TO.C,C1*
X136485333Y-61571142D02*
X136437714Y-61618761D01*
X136294857Y-61666380D01*
X136199619Y-61666380D01*
X136056761Y-61618761D01*
X135961523Y-61523523D01*
X135913904Y-61428285D01*
X135866285Y-61237809D01*
X135866285Y-61094952D01*
X135913904Y-60904476D01*
X135961523Y-60809238D01*
X136056761Y-60714000D01*
X136199619Y-60666380D01*
X136294857Y-60666380D01*
X136437714Y-60714000D01*
X136485333Y-60761619D01*
X137437714Y-61666380D02*
X136866285Y-61666380D01*
X137152000Y-61666380D02*
X137152000Y-60666380D01*
X137056761Y-60809238D01*
X136961523Y-60904476D01*
X136866285Y-60952095D01*
G04 #@! TO.C,SW1*
X133794666Y-78890761D02*
X133937523Y-78938380D01*
X134175619Y-78938380D01*
X134270857Y-78890761D01*
X134318476Y-78843142D01*
X134366095Y-78747904D01*
X134366095Y-78652666D01*
X134318476Y-78557428D01*
X134270857Y-78509809D01*
X134175619Y-78462190D01*
X133985142Y-78414571D01*
X133889904Y-78366952D01*
X133842285Y-78319333D01*
X133794666Y-78224095D01*
X133794666Y-78128857D01*
X133842285Y-78033619D01*
X133889904Y-77986000D01*
X133985142Y-77938380D01*
X134223238Y-77938380D01*
X134366095Y-77986000D01*
X134699428Y-77938380D02*
X134937523Y-78938380D01*
X135128000Y-78224095D01*
X135318476Y-78938380D01*
X135556571Y-77938380D01*
X136461333Y-78938380D02*
X135889904Y-78938380D01*
X136175619Y-78938380D02*
X136175619Y-77938380D01*
X136080380Y-78081238D01*
X135985142Y-78176476D01*
X135889904Y-78224095D01*
G04 #@! TD*
M02*
