G04 #@! TF.GenerationSoftware,KiCad,Pcbnew,5.0.2-bee76a0~70~ubuntu16.04.1*
G04 #@! TF.CreationDate,2019-06-25T12:15:08-07:00*
G04 #@! TF.ProjectId,sunrise-board,73756e72-6973-4652-9d62-6f6172642e6b,v2*
G04 #@! TF.SameCoordinates,Original*
G04 #@! TF.FileFunction,Soldermask,Top*
G04 #@! TF.FilePolarity,Negative*
%FSLAX46Y46*%
G04 Gerber Fmt 4.6, Leading zero omitted, Abs format (unit mm)*
G04 Created by KiCad (PCBNEW 5.0.2-bee76a0~70~ubuntu16.04.1) date Tue 25 Jun 2019 12:15:08 PM PDT*
%MOMM*%
%LPD*%
G01*
G04 APERTURE LIST*
%ADD10C,0.101600*%
G04 APERTURE END LIST*
D10*
G36*
X144184787Y-142163510D02*
X144345160Y-142212160D01*
X144345162Y-142212161D01*
X144492966Y-142291163D01*
X144622517Y-142397483D01*
X144728837Y-142527034D01*
X144774027Y-142611580D01*
X144807840Y-142674840D01*
X144856490Y-142835213D01*
X144872916Y-143002000D01*
X144856490Y-143168787D01*
X144807840Y-143329160D01*
X144807839Y-143329162D01*
X144728837Y-143476966D01*
X144622517Y-143606517D01*
X144492966Y-143712837D01*
X144345162Y-143791839D01*
X144345160Y-143791840D01*
X144184787Y-143840490D01*
X144059794Y-143852800D01*
X143976206Y-143852800D01*
X143851213Y-143840490D01*
X143690840Y-143791840D01*
X143690838Y-143791839D01*
X143543034Y-143712837D01*
X143413483Y-143606517D01*
X143307163Y-143476966D01*
X143228161Y-143329162D01*
X143228160Y-143329160D01*
X143179510Y-143168787D01*
X143163084Y-143002000D01*
X143179510Y-142835213D01*
X143228160Y-142674840D01*
X143261973Y-142611580D01*
X143307163Y-142527034D01*
X143413483Y-142397483D01*
X143543034Y-142291163D01*
X143690838Y-142212161D01*
X143690840Y-142212160D01*
X143851213Y-142163510D01*
X143976206Y-142151200D01*
X144059794Y-142151200D01*
X144184787Y-142163510D01*
X144184787Y-142163510D01*
G37*
G36*
X146724787Y-142163510D02*
X146885160Y-142212160D01*
X146885162Y-142212161D01*
X147032966Y-142291163D01*
X147162517Y-142397483D01*
X147268837Y-142527034D01*
X147314027Y-142611580D01*
X147347840Y-142674840D01*
X147396490Y-142835213D01*
X147412916Y-143002000D01*
X147396490Y-143168787D01*
X147347840Y-143329160D01*
X147347839Y-143329162D01*
X147268837Y-143476966D01*
X147162517Y-143606517D01*
X147032966Y-143712837D01*
X146885162Y-143791839D01*
X146885160Y-143791840D01*
X146724787Y-143840490D01*
X146599794Y-143852800D01*
X146516206Y-143852800D01*
X146391213Y-143840490D01*
X146230840Y-143791840D01*
X146230838Y-143791839D01*
X146083034Y-143712837D01*
X145953483Y-143606517D01*
X145847163Y-143476966D01*
X145768161Y-143329162D01*
X145768160Y-143329160D01*
X145719510Y-143168787D01*
X145703084Y-143002000D01*
X145719510Y-142835213D01*
X145768160Y-142674840D01*
X145801973Y-142611580D01*
X145847163Y-142527034D01*
X145953483Y-142397483D01*
X146083034Y-142291163D01*
X146230838Y-142212161D01*
X146230840Y-142212160D01*
X146391213Y-142163510D01*
X146516206Y-142151200D01*
X146599794Y-142151200D01*
X146724787Y-142163510D01*
X146724787Y-142163510D01*
G37*
G36*
X149264787Y-142163510D02*
X149425160Y-142212160D01*
X149425162Y-142212161D01*
X149572966Y-142291163D01*
X149702517Y-142397483D01*
X149808837Y-142527034D01*
X149854027Y-142611580D01*
X149887840Y-142674840D01*
X149936490Y-142835213D01*
X149952916Y-143002000D01*
X149936490Y-143168787D01*
X149887840Y-143329160D01*
X149887839Y-143329162D01*
X149808837Y-143476966D01*
X149702517Y-143606517D01*
X149572966Y-143712837D01*
X149425162Y-143791839D01*
X149425160Y-143791840D01*
X149264787Y-143840490D01*
X149139794Y-143852800D01*
X149056206Y-143852800D01*
X148931213Y-143840490D01*
X148770840Y-143791840D01*
X148770838Y-143791839D01*
X148623034Y-143712837D01*
X148493483Y-143606517D01*
X148387163Y-143476966D01*
X148308161Y-143329162D01*
X148308160Y-143329160D01*
X148259510Y-143168787D01*
X148243084Y-143002000D01*
X148259510Y-142835213D01*
X148308160Y-142674840D01*
X148341973Y-142611580D01*
X148387163Y-142527034D01*
X148493483Y-142397483D01*
X148623034Y-142291163D01*
X148770838Y-142212161D01*
X148770840Y-142212160D01*
X148931213Y-142163510D01*
X149056206Y-142151200D01*
X149139794Y-142151200D01*
X149264787Y-142163510D01*
X149264787Y-142163510D01*
G37*
G36*
X141644787Y-142163510D02*
X141805160Y-142212160D01*
X141805162Y-142212161D01*
X141952966Y-142291163D01*
X142082517Y-142397483D01*
X142188837Y-142527034D01*
X142234027Y-142611580D01*
X142267840Y-142674840D01*
X142316490Y-142835213D01*
X142332916Y-143002000D01*
X142316490Y-143168787D01*
X142267840Y-143329160D01*
X142267839Y-143329162D01*
X142188837Y-143476966D01*
X142082517Y-143606517D01*
X141952966Y-143712837D01*
X141805162Y-143791839D01*
X141805160Y-143791840D01*
X141644787Y-143840490D01*
X141519794Y-143852800D01*
X141436206Y-143852800D01*
X141311213Y-143840490D01*
X141150840Y-143791840D01*
X141150838Y-143791839D01*
X141003034Y-143712837D01*
X140873483Y-143606517D01*
X140767163Y-143476966D01*
X140688161Y-143329162D01*
X140688160Y-143329160D01*
X140639510Y-143168787D01*
X140623084Y-143002000D01*
X140639510Y-142835213D01*
X140688160Y-142674840D01*
X140721973Y-142611580D01*
X140767163Y-142527034D01*
X140873483Y-142397483D01*
X141003034Y-142291163D01*
X141150838Y-142212161D01*
X141150840Y-142212160D01*
X141311213Y-142163510D01*
X141436206Y-142151200D01*
X141519794Y-142151200D01*
X141644787Y-142163510D01*
X141644787Y-142163510D01*
G37*
G36*
X133525239Y-141311669D02*
X133698219Y-141346077D01*
X133915476Y-141436068D01*
X133915477Y-141436069D01*
X134111006Y-141566717D01*
X134277283Y-141732994D01*
X134277285Y-141732997D01*
X134407932Y-141928524D01*
X134497923Y-142145781D01*
X134543800Y-142376421D01*
X134543800Y-142611579D01*
X134497923Y-142842219D01*
X134407932Y-143059476D01*
X134407931Y-143059477D01*
X134277283Y-143255006D01*
X134111006Y-143421283D01*
X134111003Y-143421285D01*
X133915476Y-143551932D01*
X133698219Y-143641923D01*
X133525239Y-143676331D01*
X133467580Y-143687800D01*
X133232420Y-143687800D01*
X133174761Y-143676331D01*
X133001781Y-143641923D01*
X132784524Y-143551932D01*
X132588997Y-143421285D01*
X132588994Y-143421283D01*
X132422717Y-143255006D01*
X132292069Y-143059477D01*
X132292068Y-143059476D01*
X132202077Y-142842219D01*
X132156200Y-142611579D01*
X132156200Y-142376421D01*
X132202077Y-142145781D01*
X132292068Y-141928524D01*
X132422715Y-141732997D01*
X132422717Y-141732994D01*
X132588994Y-141566717D01*
X132784523Y-141436069D01*
X132784524Y-141436068D01*
X133001781Y-141346077D01*
X133174761Y-141311669D01*
X133232420Y-141300200D01*
X133467580Y-141300200D01*
X133525239Y-141311669D01*
X133525239Y-141311669D01*
G37*
G36*
X130477239Y-141311669D02*
X130650219Y-141346077D01*
X130867476Y-141436068D01*
X130867477Y-141436069D01*
X131063006Y-141566717D01*
X131229283Y-141732994D01*
X131229285Y-141732997D01*
X131359932Y-141928524D01*
X131449923Y-142145781D01*
X131495800Y-142376421D01*
X131495800Y-142611579D01*
X131449923Y-142842219D01*
X131359932Y-143059476D01*
X131359931Y-143059477D01*
X131229283Y-143255006D01*
X131063006Y-143421283D01*
X131063003Y-143421285D01*
X130867476Y-143551932D01*
X130650219Y-143641923D01*
X130477239Y-143676331D01*
X130419580Y-143687800D01*
X130184420Y-143687800D01*
X130126761Y-143676331D01*
X129953781Y-143641923D01*
X129736524Y-143551932D01*
X129540997Y-143421285D01*
X129540994Y-143421283D01*
X129374717Y-143255006D01*
X129244069Y-143059477D01*
X129244068Y-143059476D01*
X129154077Y-142842219D01*
X129108200Y-142611579D01*
X129108200Y-142376421D01*
X129154077Y-142145781D01*
X129244068Y-141928524D01*
X129374715Y-141732997D01*
X129374717Y-141732994D01*
X129540994Y-141566717D01*
X129736523Y-141436069D01*
X129736524Y-141436068D01*
X129953781Y-141346077D01*
X130126761Y-141311669D01*
X130184420Y-141300200D01*
X130419580Y-141300200D01*
X130477239Y-141311669D01*
X130477239Y-141311669D01*
G37*
G36*
X133322598Y-130956373D02*
X134256344Y-131343143D01*
X134256345Y-131343144D01*
X135096695Y-131904647D01*
X135811353Y-132619305D01*
X136167357Y-133152104D01*
X136372857Y-133459656D01*
X136759627Y-134393402D01*
X136956800Y-135384659D01*
X136956800Y-136395341D01*
X136759627Y-137386598D01*
X136372857Y-138320344D01*
X136372856Y-138320345D01*
X135811353Y-139160695D01*
X135096695Y-139875353D01*
X134536462Y-140249688D01*
X134256344Y-140436857D01*
X133322598Y-140823627D01*
X132331341Y-141020800D01*
X131320659Y-141020800D01*
X130329402Y-140823627D01*
X129395656Y-140436857D01*
X129115538Y-140249688D01*
X128555305Y-139875353D01*
X127840647Y-139160695D01*
X127279144Y-138320345D01*
X127279143Y-138320344D01*
X126892373Y-137386598D01*
X126695200Y-136395341D01*
X126695200Y-135384659D01*
X126892373Y-134393402D01*
X127279143Y-133459656D01*
X127484643Y-133152104D01*
X127840647Y-132619305D01*
X128555305Y-131904647D01*
X129395655Y-131343144D01*
X129395656Y-131343143D01*
X130329402Y-130956373D01*
X131320659Y-130759200D01*
X132331341Y-130759200D01*
X133322598Y-130956373D01*
X133322598Y-130956373D01*
G37*
G36*
X141644787Y-134543510D02*
X141805160Y-134592160D01*
X141805162Y-134592161D01*
X141952966Y-134671163D01*
X142082517Y-134777483D01*
X142188837Y-134907034D01*
X142267839Y-135054838D01*
X142267840Y-135054840D01*
X142316490Y-135215213D01*
X142332916Y-135382000D01*
X142316490Y-135548787D01*
X142267840Y-135709160D01*
X142267839Y-135709162D01*
X142188837Y-135856966D01*
X142082517Y-135986517D01*
X141952966Y-136092837D01*
X141805162Y-136171839D01*
X141805160Y-136171840D01*
X141644787Y-136220490D01*
X141519794Y-136232800D01*
X141436206Y-136232800D01*
X141311213Y-136220490D01*
X141150840Y-136171840D01*
X141150838Y-136171839D01*
X141003034Y-136092837D01*
X140873483Y-135986517D01*
X140767163Y-135856966D01*
X140688161Y-135709162D01*
X140688160Y-135709160D01*
X140639510Y-135548787D01*
X140623084Y-135382000D01*
X140639510Y-135215213D01*
X140688160Y-135054840D01*
X140688161Y-135054838D01*
X140767163Y-134907034D01*
X140873483Y-134777483D01*
X141003034Y-134671163D01*
X141150838Y-134592161D01*
X141150840Y-134592160D01*
X141311213Y-134543510D01*
X141436206Y-134531200D01*
X141519794Y-134531200D01*
X141644787Y-134543510D01*
X141644787Y-134543510D01*
G37*
G36*
X149948800Y-136232800D02*
X148247200Y-136232800D01*
X148247200Y-134531200D01*
X149948800Y-134531200D01*
X149948800Y-136232800D01*
X149948800Y-136232800D01*
G37*
G36*
X144184787Y-134543510D02*
X144345160Y-134592160D01*
X144345162Y-134592161D01*
X144492966Y-134671163D01*
X144622517Y-134777483D01*
X144728837Y-134907034D01*
X144807839Y-135054838D01*
X144807840Y-135054840D01*
X144856490Y-135215213D01*
X144872916Y-135382000D01*
X144856490Y-135548787D01*
X144807840Y-135709160D01*
X144807839Y-135709162D01*
X144728837Y-135856966D01*
X144622517Y-135986517D01*
X144492966Y-136092837D01*
X144345162Y-136171839D01*
X144345160Y-136171840D01*
X144184787Y-136220490D01*
X144059794Y-136232800D01*
X143976206Y-136232800D01*
X143851213Y-136220490D01*
X143690840Y-136171840D01*
X143690838Y-136171839D01*
X143543034Y-136092837D01*
X143413483Y-135986517D01*
X143307163Y-135856966D01*
X143228161Y-135709162D01*
X143228160Y-135709160D01*
X143179510Y-135548787D01*
X143163084Y-135382000D01*
X143179510Y-135215213D01*
X143228160Y-135054840D01*
X143228161Y-135054838D01*
X143307163Y-134907034D01*
X143413483Y-134777483D01*
X143543034Y-134671163D01*
X143690838Y-134592161D01*
X143690840Y-134592160D01*
X143851213Y-134543510D01*
X143976206Y-134531200D01*
X144059794Y-134531200D01*
X144184787Y-134543510D01*
X144184787Y-134543510D01*
G37*
G36*
X146724787Y-134543510D02*
X146885160Y-134592160D01*
X146885162Y-134592161D01*
X147032966Y-134671163D01*
X147162517Y-134777483D01*
X147268837Y-134907034D01*
X147347839Y-135054838D01*
X147347840Y-135054840D01*
X147396490Y-135215213D01*
X147412916Y-135382000D01*
X147396490Y-135548787D01*
X147347840Y-135709160D01*
X147347839Y-135709162D01*
X147268837Y-135856966D01*
X147162517Y-135986517D01*
X147032966Y-136092837D01*
X146885162Y-136171839D01*
X146885160Y-136171840D01*
X146724787Y-136220490D01*
X146599794Y-136232800D01*
X146516206Y-136232800D01*
X146391213Y-136220490D01*
X146230840Y-136171840D01*
X146230838Y-136171839D01*
X146083034Y-136092837D01*
X145953483Y-135986517D01*
X145847163Y-135856966D01*
X145768161Y-135709162D01*
X145768160Y-135709160D01*
X145719510Y-135548787D01*
X145703084Y-135382000D01*
X145719510Y-135215213D01*
X145768160Y-135054840D01*
X145768161Y-135054838D01*
X145847163Y-134907034D01*
X145953483Y-134777483D01*
X146083034Y-134671163D01*
X146230838Y-134592161D01*
X146230840Y-134592160D01*
X146391213Y-134543510D01*
X146516206Y-134531200D01*
X146599794Y-134531200D01*
X146724787Y-134543510D01*
X146724787Y-134543510D01*
G37*
G36*
X147033720Y-132552256D02*
X147104662Y-132566367D01*
X147204902Y-132607887D01*
X147294706Y-132667893D01*
X147295117Y-132668168D01*
X147371832Y-132744883D01*
X147371834Y-132744886D01*
X147432113Y-132835098D01*
X147473633Y-132935338D01*
X147494800Y-133041751D01*
X147494800Y-133150249D01*
X147473633Y-133256662D01*
X147432113Y-133356902D01*
X147372107Y-133446706D01*
X147371832Y-133447117D01*
X147295117Y-133523832D01*
X147295114Y-133523834D01*
X147204902Y-133584113D01*
X147104662Y-133625633D01*
X147033720Y-133639744D01*
X146998250Y-133646800D01*
X146889750Y-133646800D01*
X146854280Y-133639744D01*
X146783338Y-133625633D01*
X146683098Y-133584113D01*
X146592886Y-133523834D01*
X146592883Y-133523832D01*
X146516168Y-133447117D01*
X146515893Y-133446706D01*
X146455887Y-133356902D01*
X146414367Y-133256662D01*
X146393200Y-133150249D01*
X146393200Y-133041751D01*
X146414367Y-132935338D01*
X146455887Y-132835098D01*
X146516166Y-132744886D01*
X146516168Y-132744883D01*
X146592883Y-132668168D01*
X146593294Y-132667893D01*
X146683098Y-132607887D01*
X146783338Y-132566367D01*
X146854280Y-132552256D01*
X146889750Y-132545200D01*
X146998250Y-132545200D01*
X147033720Y-132552256D01*
X147033720Y-132552256D01*
G37*
G36*
X148933720Y-132552256D02*
X149004662Y-132566367D01*
X149104902Y-132607887D01*
X149194706Y-132667893D01*
X149195117Y-132668168D01*
X149271832Y-132744883D01*
X149271834Y-132744886D01*
X149332113Y-132835098D01*
X149373633Y-132935338D01*
X149394800Y-133041751D01*
X149394800Y-133150249D01*
X149373633Y-133256662D01*
X149332113Y-133356902D01*
X149272107Y-133446706D01*
X149271832Y-133447117D01*
X149195117Y-133523832D01*
X149195114Y-133523834D01*
X149104902Y-133584113D01*
X149004662Y-133625633D01*
X148933720Y-133639744D01*
X148898250Y-133646800D01*
X148789750Y-133646800D01*
X148754280Y-133639744D01*
X148683338Y-133625633D01*
X148583098Y-133584113D01*
X148492886Y-133523834D01*
X148492883Y-133523832D01*
X148416168Y-133447117D01*
X148415893Y-133446706D01*
X148355887Y-133356902D01*
X148314367Y-133256662D01*
X148293200Y-133150249D01*
X148293200Y-133041751D01*
X148314367Y-132935338D01*
X148355887Y-132835098D01*
X148416166Y-132744886D01*
X148416168Y-132744883D01*
X148492883Y-132668168D01*
X148493294Y-132667893D01*
X148583098Y-132607887D01*
X148683338Y-132566367D01*
X148754280Y-132552256D01*
X148789750Y-132545200D01*
X148898250Y-132545200D01*
X148933720Y-132552256D01*
X148933720Y-132552256D01*
G37*
G36*
X143250169Y-131515895D02*
X143405005Y-131580031D01*
X143544354Y-131673140D01*
X143662860Y-131791646D01*
X143755969Y-131930995D01*
X143820105Y-132085831D01*
X143852800Y-132250203D01*
X143852800Y-132417797D01*
X143820105Y-132582169D01*
X143755969Y-132737005D01*
X143662860Y-132876354D01*
X143544354Y-132994860D01*
X143405005Y-133087969D01*
X143250169Y-133152105D01*
X143085797Y-133184800D01*
X142918203Y-133184800D01*
X142753831Y-133152105D01*
X142598995Y-133087969D01*
X142459646Y-132994860D01*
X142341140Y-132876354D01*
X142248031Y-132737005D01*
X142183895Y-132582169D01*
X142151200Y-132417797D01*
X142151200Y-132250203D01*
X142183895Y-132085831D01*
X142248031Y-131930995D01*
X142341140Y-131791646D01*
X142459646Y-131673140D01*
X142598995Y-131580031D01*
X142753831Y-131515895D01*
X142918203Y-131483200D01*
X143085797Y-131483200D01*
X143250169Y-131515895D01*
X143250169Y-131515895D01*
G37*
G36*
X139694169Y-131515895D02*
X139849005Y-131580031D01*
X139988354Y-131673140D01*
X140106860Y-131791646D01*
X140199969Y-131930995D01*
X140264105Y-132085831D01*
X140296800Y-132250203D01*
X140296800Y-132417797D01*
X140264105Y-132582169D01*
X140199969Y-132737005D01*
X140106860Y-132876354D01*
X139988354Y-132994860D01*
X139849005Y-133087969D01*
X139694169Y-133152105D01*
X139529797Y-133184800D01*
X139362203Y-133184800D01*
X139197831Y-133152105D01*
X139042995Y-133087969D01*
X138903646Y-132994860D01*
X138785140Y-132876354D01*
X138692031Y-132737005D01*
X138627895Y-132582169D01*
X138595200Y-132417797D01*
X138595200Y-132250203D01*
X138627895Y-132085831D01*
X138692031Y-131930995D01*
X138785140Y-131791646D01*
X138903646Y-131673140D01*
X139042995Y-131580031D01*
X139197831Y-131515895D01*
X139362203Y-131483200D01*
X139529797Y-131483200D01*
X139694169Y-131515895D01*
X139694169Y-131515895D01*
G37*
G36*
X149044800Y-126570200D02*
X149047202Y-126594586D01*
X149054315Y-126618035D01*
X149065866Y-126639646D01*
X149081412Y-126658588D01*
X149100354Y-126674134D01*
X149121965Y-126685685D01*
X149145414Y-126692798D01*
X149169800Y-126695200D01*
X150044800Y-126695200D01*
X150044800Y-127996800D01*
X149169800Y-127996800D01*
X149145414Y-127999202D01*
X149121965Y-128006315D01*
X149100354Y-128017866D01*
X149081412Y-128033412D01*
X149065866Y-128052354D01*
X149054315Y-128073965D01*
X149047202Y-128097414D01*
X149044800Y-128121800D01*
X149044800Y-130646800D01*
X146743200Y-130646800D01*
X146743200Y-128121800D01*
X146740798Y-128097414D01*
X146733685Y-128073965D01*
X146722134Y-128052354D01*
X146706588Y-128033412D01*
X146687646Y-128017866D01*
X146666035Y-128006315D01*
X146642586Y-127999202D01*
X146618200Y-127996800D01*
X145743200Y-127996800D01*
X145743200Y-126695200D01*
X146618200Y-126695200D01*
X146642586Y-126692798D01*
X146666035Y-126685685D01*
X146687646Y-126674134D01*
X146706588Y-126658588D01*
X146722134Y-126639646D01*
X146733685Y-126618035D01*
X146740798Y-126594586D01*
X146743200Y-126570200D01*
X146743200Y-124045200D01*
X149044800Y-124045200D01*
X149044800Y-126570200D01*
X149044800Y-126570200D01*
G37*
G36*
X133493792Y-128097414D02*
X133698219Y-128138077D01*
X133915476Y-128228068D01*
X133915477Y-128228069D01*
X134111006Y-128358717D01*
X134277283Y-128524994D01*
X134277285Y-128524997D01*
X134407932Y-128720524D01*
X134497923Y-128937781D01*
X134543800Y-129168421D01*
X134543800Y-129403579D01*
X134497923Y-129634219D01*
X134407932Y-129851476D01*
X134407931Y-129851477D01*
X134277283Y-130047006D01*
X134111006Y-130213283D01*
X134111003Y-130213285D01*
X133915476Y-130343932D01*
X133698219Y-130433923D01*
X133525239Y-130468331D01*
X133467580Y-130479800D01*
X133232420Y-130479800D01*
X133174761Y-130468331D01*
X133001781Y-130433923D01*
X132784524Y-130343932D01*
X132588997Y-130213285D01*
X132588994Y-130213283D01*
X132422717Y-130047006D01*
X132292069Y-129851477D01*
X132292068Y-129851476D01*
X132202077Y-129634219D01*
X132156200Y-129403579D01*
X132156200Y-129168421D01*
X132202077Y-128937781D01*
X132292068Y-128720524D01*
X132422715Y-128524997D01*
X132422717Y-128524994D01*
X132588994Y-128358717D01*
X132784523Y-128228069D01*
X132784524Y-128228068D01*
X133001781Y-128138077D01*
X133206208Y-128097414D01*
X133232420Y-128092200D01*
X133467580Y-128092200D01*
X133493792Y-128097414D01*
X133493792Y-128097414D01*
G37*
G36*
X130445792Y-128097414D02*
X130650219Y-128138077D01*
X130867476Y-128228068D01*
X130867477Y-128228069D01*
X131063006Y-128358717D01*
X131229283Y-128524994D01*
X131229285Y-128524997D01*
X131359932Y-128720524D01*
X131449923Y-128937781D01*
X131495800Y-129168421D01*
X131495800Y-129403579D01*
X131449923Y-129634219D01*
X131359932Y-129851476D01*
X131359931Y-129851477D01*
X131229283Y-130047006D01*
X131063006Y-130213283D01*
X131063003Y-130213285D01*
X130867476Y-130343932D01*
X130650219Y-130433923D01*
X130477239Y-130468331D01*
X130419580Y-130479800D01*
X130184420Y-130479800D01*
X130126761Y-130468331D01*
X129953781Y-130433923D01*
X129736524Y-130343932D01*
X129540997Y-130213285D01*
X129540994Y-130213283D01*
X129374717Y-130047006D01*
X129244069Y-129851477D01*
X129244068Y-129851476D01*
X129154077Y-129634219D01*
X129108200Y-129403579D01*
X129108200Y-129168421D01*
X129154077Y-128937781D01*
X129244068Y-128720524D01*
X129374715Y-128524997D01*
X129374717Y-128524994D01*
X129540994Y-128358717D01*
X129736523Y-128228069D01*
X129736524Y-128228068D01*
X129953781Y-128138077D01*
X130158208Y-128097414D01*
X130184420Y-128092200D01*
X130419580Y-128092200D01*
X130445792Y-128097414D01*
X130445792Y-128097414D01*
G37*
G36*
X131820169Y-124403895D02*
X131975005Y-124468031D01*
X132114354Y-124561140D01*
X132232860Y-124679646D01*
X132325969Y-124818995D01*
X132390105Y-124973831D01*
X132422800Y-125138203D01*
X132422800Y-125305797D01*
X132390105Y-125470169D01*
X132325969Y-125625005D01*
X132232860Y-125764354D01*
X132114354Y-125882860D01*
X131975005Y-125975969D01*
X131820169Y-126040105D01*
X131655797Y-126072800D01*
X131488203Y-126072800D01*
X131323831Y-126040105D01*
X131168995Y-125975969D01*
X131029646Y-125882860D01*
X130911140Y-125764354D01*
X130818031Y-125625005D01*
X130753895Y-125470169D01*
X130721200Y-125305797D01*
X130721200Y-125138203D01*
X130753895Y-124973831D01*
X130818031Y-124818995D01*
X130911140Y-124679646D01*
X131029646Y-124561140D01*
X131168995Y-124468031D01*
X131323831Y-124403895D01*
X131488203Y-124371200D01*
X131655797Y-124371200D01*
X131820169Y-124403895D01*
X131820169Y-124403895D01*
G37*
G36*
X139612787Y-123875510D02*
X139773160Y-123924160D01*
X139773162Y-123924161D01*
X139920966Y-124003163D01*
X140050517Y-124109483D01*
X140156837Y-124239034D01*
X140227480Y-124371200D01*
X140235840Y-124386840D01*
X140284490Y-124547213D01*
X140300916Y-124714000D01*
X140284490Y-124880787D01*
X140235840Y-125041160D01*
X140235839Y-125041162D01*
X140156837Y-125188966D01*
X140050517Y-125318517D01*
X139920966Y-125424837D01*
X139773162Y-125503839D01*
X139773160Y-125503840D01*
X139612787Y-125552490D01*
X139487794Y-125564800D01*
X139404206Y-125564800D01*
X139279213Y-125552490D01*
X139118840Y-125503840D01*
X139118838Y-125503839D01*
X138971034Y-125424837D01*
X138841483Y-125318517D01*
X138735163Y-125188966D01*
X138656161Y-125041162D01*
X138656160Y-125041160D01*
X138607510Y-124880787D01*
X138591084Y-124714000D01*
X138607510Y-124547213D01*
X138656160Y-124386840D01*
X138664520Y-124371200D01*
X138735163Y-124239034D01*
X138841483Y-124109483D01*
X138971034Y-124003163D01*
X139118838Y-123924161D01*
X139118840Y-123924160D01*
X139279213Y-123875510D01*
X139404206Y-123863200D01*
X139487794Y-123863200D01*
X139612787Y-123875510D01*
X139612787Y-123875510D01*
G37*
G36*
X143168787Y-123875510D02*
X143329160Y-123924160D01*
X143329162Y-123924161D01*
X143476966Y-124003163D01*
X143606517Y-124109483D01*
X143712837Y-124239034D01*
X143783480Y-124371200D01*
X143791840Y-124386840D01*
X143840490Y-124547213D01*
X143856916Y-124714000D01*
X143840490Y-124880787D01*
X143791840Y-125041160D01*
X143791839Y-125041162D01*
X143712837Y-125188966D01*
X143606517Y-125318517D01*
X143476966Y-125424837D01*
X143329162Y-125503839D01*
X143329160Y-125503840D01*
X143168787Y-125552490D01*
X143043794Y-125564800D01*
X142960206Y-125564800D01*
X142835213Y-125552490D01*
X142674840Y-125503840D01*
X142674838Y-125503839D01*
X142527034Y-125424837D01*
X142397483Y-125318517D01*
X142291163Y-125188966D01*
X142212161Y-125041162D01*
X142212160Y-125041160D01*
X142163510Y-124880787D01*
X142147084Y-124714000D01*
X142163510Y-124547213D01*
X142212160Y-124386840D01*
X142220520Y-124371200D01*
X142291163Y-124239034D01*
X142397483Y-124109483D01*
X142527034Y-124003163D01*
X142674838Y-123924161D01*
X142674840Y-123924160D01*
X142835213Y-123875510D01*
X142960206Y-123863200D01*
X143043794Y-123863200D01*
X143168787Y-123875510D01*
X143168787Y-123875510D01*
G37*
G36*
X127900800Y-125360800D02*
X126099200Y-125360800D01*
X126099200Y-123559200D01*
X127900800Y-123559200D01*
X127900800Y-125360800D01*
X127900800Y-125360800D01*
G37*
G36*
X127088362Y-121023545D02*
X127176588Y-121032234D01*
X127282476Y-121064355D01*
X127346390Y-121083743D01*
X127484980Y-121157822D01*
X127502879Y-121167389D01*
X127531688Y-121191032D01*
X127640044Y-121279956D01*
X127723288Y-121381391D01*
X127752611Y-121417121D01*
X127752612Y-121417123D01*
X127836257Y-121573610D01*
X127846802Y-121608373D01*
X127887766Y-121743412D01*
X127905158Y-121920000D01*
X127887766Y-122096588D01*
X127884061Y-122108800D01*
X127836257Y-122266390D01*
X127834051Y-122270517D01*
X127752611Y-122422879D01*
X127723288Y-122458609D01*
X127640044Y-122560044D01*
X127538609Y-122643288D01*
X127502879Y-122672611D01*
X127502877Y-122672612D01*
X127346390Y-122756257D01*
X127289789Y-122773427D01*
X127176588Y-122807766D01*
X127088362Y-122816455D01*
X127044250Y-122820800D01*
X126955750Y-122820800D01*
X126911638Y-122816455D01*
X126823412Y-122807766D01*
X126710211Y-122773427D01*
X126653610Y-122756257D01*
X126497123Y-122672612D01*
X126497121Y-122672611D01*
X126461391Y-122643288D01*
X126359956Y-122560044D01*
X126276712Y-122458609D01*
X126247389Y-122422879D01*
X126165949Y-122270517D01*
X126163743Y-122266390D01*
X126115939Y-122108800D01*
X126112234Y-122096588D01*
X126094842Y-121920000D01*
X126112234Y-121743412D01*
X126153198Y-121608373D01*
X126163743Y-121573610D01*
X126247388Y-121417123D01*
X126247389Y-121417121D01*
X126276712Y-121381391D01*
X126359956Y-121279956D01*
X126468312Y-121191032D01*
X126497121Y-121167389D01*
X126515020Y-121157822D01*
X126653610Y-121083743D01*
X126717524Y-121064355D01*
X126823412Y-121032234D01*
X126911638Y-121023545D01*
X126955750Y-121019200D01*
X127044250Y-121019200D01*
X127088362Y-121023545D01*
X127088362Y-121023545D01*
G37*
G36*
X134786787Y-120827510D02*
X134947160Y-120876160D01*
X134947162Y-120876161D01*
X135094966Y-120955163D01*
X135224517Y-121061483D01*
X135330837Y-121191034D01*
X135409839Y-121338838D01*
X135409840Y-121338840D01*
X135458490Y-121499213D01*
X135474916Y-121666000D01*
X135458490Y-121832787D01*
X135432033Y-121920000D01*
X135409839Y-121993162D01*
X135330837Y-122140966D01*
X135224517Y-122270517D01*
X135094966Y-122376837D01*
X134947162Y-122455839D01*
X134947160Y-122455840D01*
X134786787Y-122504490D01*
X134661794Y-122516800D01*
X134578206Y-122516800D01*
X134453213Y-122504490D01*
X134292840Y-122455840D01*
X134292838Y-122455839D01*
X134145034Y-122376837D01*
X134015483Y-122270517D01*
X133909163Y-122140966D01*
X133830161Y-121993162D01*
X133807967Y-121920000D01*
X133781510Y-121832787D01*
X133765084Y-121666000D01*
X133781510Y-121499213D01*
X133830160Y-121338840D01*
X133830161Y-121338838D01*
X133909163Y-121191034D01*
X134015483Y-121061483D01*
X134145034Y-120955163D01*
X134292838Y-120876161D01*
X134292840Y-120876160D01*
X134453213Y-120827510D01*
X134578206Y-120815200D01*
X134661794Y-120815200D01*
X134786787Y-120827510D01*
X134786787Y-120827510D01*
G37*
G36*
X142406787Y-120827510D02*
X142567160Y-120876160D01*
X142567162Y-120876161D01*
X142714966Y-120955163D01*
X142844517Y-121061483D01*
X142950837Y-121191034D01*
X143029839Y-121338838D01*
X143029840Y-121338840D01*
X143078490Y-121499213D01*
X143094916Y-121666000D01*
X143078490Y-121832787D01*
X143052033Y-121920000D01*
X143029839Y-121993162D01*
X142950837Y-122140966D01*
X142844517Y-122270517D01*
X142714966Y-122376837D01*
X142567162Y-122455839D01*
X142567160Y-122455840D01*
X142406787Y-122504490D01*
X142281794Y-122516800D01*
X142198206Y-122516800D01*
X142073213Y-122504490D01*
X141912840Y-122455840D01*
X141912838Y-122455839D01*
X141765034Y-122376837D01*
X141635483Y-122270517D01*
X141529163Y-122140966D01*
X141450161Y-121993162D01*
X141427967Y-121920000D01*
X141401510Y-121832787D01*
X141385084Y-121666000D01*
X141401510Y-121499213D01*
X141450160Y-121338840D01*
X141450161Y-121338838D01*
X141529163Y-121191034D01*
X141635483Y-121061483D01*
X141765034Y-120955163D01*
X141912838Y-120876161D01*
X141912840Y-120876160D01*
X142073213Y-120827510D01*
X142198206Y-120815200D01*
X142281794Y-120815200D01*
X142406787Y-120827510D01*
X142406787Y-120827510D01*
G37*
G36*
X145819338Y-120243738D02*
X145992373Y-120315412D01*
X146148100Y-120419465D01*
X146280535Y-120551900D01*
X146384588Y-120707627D01*
X146456262Y-120880662D01*
X146492800Y-121064354D01*
X146492800Y-121251646D01*
X146456262Y-121435338D01*
X146384588Y-121608373D01*
X146280535Y-121764100D01*
X146148100Y-121896535D01*
X145992373Y-122000588D01*
X145819338Y-122072262D01*
X145635646Y-122108800D01*
X145448354Y-122108800D01*
X145264662Y-122072262D01*
X145091627Y-122000588D01*
X144935900Y-121896535D01*
X144803465Y-121764100D01*
X144699412Y-121608373D01*
X144627738Y-121435338D01*
X144591200Y-121251646D01*
X144591200Y-121064354D01*
X144627738Y-120880662D01*
X144699412Y-120707627D01*
X144803465Y-120551900D01*
X144935900Y-120419465D01*
X145091627Y-120315412D01*
X145264662Y-120243738D01*
X145448354Y-120207200D01*
X145635646Y-120207200D01*
X145819338Y-120243738D01*
X145819338Y-120243738D01*
G37*
G36*
X149032800Y-122108800D02*
X147131200Y-122108800D01*
X147131200Y-120207200D01*
X149032800Y-120207200D01*
X149032800Y-122108800D01*
X149032800Y-122108800D01*
G37*
G36*
X134786787Y-118287510D02*
X134947160Y-118336160D01*
X134947162Y-118336161D01*
X135094966Y-118415163D01*
X135224517Y-118521483D01*
X135330837Y-118651034D01*
X135409839Y-118798838D01*
X135409840Y-118798840D01*
X135458490Y-118959213D01*
X135474916Y-119126000D01*
X135458490Y-119292787D01*
X135409840Y-119453160D01*
X135409839Y-119453162D01*
X135330837Y-119600966D01*
X135224517Y-119730517D01*
X135094966Y-119836837D01*
X134947162Y-119915839D01*
X134947160Y-119915840D01*
X134786787Y-119964490D01*
X134661794Y-119976800D01*
X134578206Y-119976800D01*
X134453213Y-119964490D01*
X134292840Y-119915840D01*
X134292838Y-119915839D01*
X134145034Y-119836837D01*
X134015483Y-119730517D01*
X133909163Y-119600966D01*
X133830161Y-119453162D01*
X133830160Y-119453160D01*
X133781510Y-119292787D01*
X133765084Y-119126000D01*
X133781510Y-118959213D01*
X133830160Y-118798840D01*
X133830161Y-118798838D01*
X133909163Y-118651034D01*
X134015483Y-118521483D01*
X134145034Y-118415163D01*
X134292838Y-118336161D01*
X134292840Y-118336160D01*
X134453213Y-118287510D01*
X134578206Y-118275200D01*
X134661794Y-118275200D01*
X134786787Y-118287510D01*
X134786787Y-118287510D01*
G37*
G36*
X142406787Y-118287510D02*
X142567160Y-118336160D01*
X142567162Y-118336161D01*
X142714966Y-118415163D01*
X142844517Y-118521483D01*
X142950837Y-118651034D01*
X143029839Y-118798838D01*
X143029840Y-118798840D01*
X143078490Y-118959213D01*
X143094916Y-119126000D01*
X143078490Y-119292787D01*
X143029840Y-119453160D01*
X143029839Y-119453162D01*
X142950837Y-119600966D01*
X142844517Y-119730517D01*
X142714966Y-119836837D01*
X142567162Y-119915839D01*
X142567160Y-119915840D01*
X142406787Y-119964490D01*
X142281794Y-119976800D01*
X142198206Y-119976800D01*
X142073213Y-119964490D01*
X141912840Y-119915840D01*
X141912838Y-119915839D01*
X141765034Y-119836837D01*
X141635483Y-119730517D01*
X141529163Y-119600966D01*
X141450161Y-119453162D01*
X141450160Y-119453160D01*
X141401510Y-119292787D01*
X141385084Y-119126000D01*
X141401510Y-118959213D01*
X141450160Y-118798840D01*
X141450161Y-118798838D01*
X141529163Y-118651034D01*
X141635483Y-118521483D01*
X141765034Y-118415163D01*
X141912838Y-118336161D01*
X141912840Y-118336160D01*
X142073213Y-118287510D01*
X142198206Y-118275200D01*
X142281794Y-118275200D01*
X142406787Y-118287510D01*
X142406787Y-118287510D01*
G37*
G36*
X131738787Y-116763510D02*
X131899160Y-116812160D01*
X131899162Y-116812161D01*
X132046966Y-116891163D01*
X132176517Y-116997483D01*
X132282837Y-117127034D01*
X132361839Y-117274838D01*
X132361840Y-117274840D01*
X132410490Y-117435213D01*
X132426916Y-117602000D01*
X132410490Y-117768787D01*
X132361840Y-117929160D01*
X132361839Y-117929162D01*
X132282837Y-118076966D01*
X132176517Y-118206517D01*
X132046966Y-118312837D01*
X131899162Y-118391839D01*
X131899160Y-118391840D01*
X131738787Y-118440490D01*
X131613794Y-118452800D01*
X131530206Y-118452800D01*
X131405213Y-118440490D01*
X131244840Y-118391840D01*
X131244838Y-118391839D01*
X131097034Y-118312837D01*
X130967483Y-118206517D01*
X130861163Y-118076966D01*
X130782161Y-117929162D01*
X130782160Y-117929160D01*
X130733510Y-117768787D01*
X130717084Y-117602000D01*
X130733510Y-117435213D01*
X130782160Y-117274840D01*
X130782161Y-117274838D01*
X130861163Y-117127034D01*
X130967483Y-116997483D01*
X131097034Y-116891163D01*
X131244838Y-116812161D01*
X131244840Y-116812160D01*
X131405213Y-116763510D01*
X131530206Y-116751200D01*
X131613794Y-116751200D01*
X131738787Y-116763510D01*
X131738787Y-116763510D01*
G37*
G36*
X127088362Y-115943545D02*
X127176588Y-115952234D01*
X127273008Y-115981483D01*
X127346390Y-116003743D01*
X127484980Y-116077822D01*
X127502879Y-116087389D01*
X127531688Y-116111032D01*
X127640044Y-116199956D01*
X127723288Y-116301391D01*
X127752611Y-116337121D01*
X127752612Y-116337123D01*
X127836257Y-116493610D01*
X127836257Y-116493611D01*
X127887766Y-116663412D01*
X127905158Y-116840000D01*
X127887766Y-117016588D01*
X127874304Y-117060966D01*
X127836257Y-117186390D01*
X127834051Y-117190517D01*
X127752611Y-117342879D01*
X127723288Y-117378609D01*
X127640044Y-117480044D01*
X127538609Y-117563288D01*
X127502879Y-117592611D01*
X127502877Y-117592612D01*
X127346390Y-117676257D01*
X127289789Y-117693427D01*
X127176588Y-117727766D01*
X127088362Y-117736455D01*
X127044250Y-117740800D01*
X126955750Y-117740800D01*
X126911638Y-117736455D01*
X126823412Y-117727766D01*
X126710211Y-117693427D01*
X126653610Y-117676257D01*
X126497123Y-117592612D01*
X126497121Y-117592611D01*
X126461391Y-117563288D01*
X126359956Y-117480044D01*
X126276712Y-117378609D01*
X126247389Y-117342879D01*
X126165949Y-117190517D01*
X126163743Y-117186390D01*
X126125696Y-117060966D01*
X126112234Y-117016588D01*
X126094842Y-116840000D01*
X126112234Y-116663412D01*
X126163743Y-116493611D01*
X126163743Y-116493610D01*
X126247388Y-116337123D01*
X126247389Y-116337121D01*
X126276712Y-116301391D01*
X126359956Y-116199956D01*
X126468312Y-116111032D01*
X126497121Y-116087389D01*
X126515020Y-116077822D01*
X126653610Y-116003743D01*
X126726992Y-115981483D01*
X126823412Y-115952234D01*
X126911638Y-115943545D01*
X126955750Y-115939200D01*
X127044250Y-115939200D01*
X127088362Y-115943545D01*
X127088362Y-115943545D01*
G37*
G36*
X149948362Y-115943545D02*
X150036588Y-115952234D01*
X150133008Y-115981483D01*
X150206390Y-116003743D01*
X150344980Y-116077822D01*
X150362879Y-116087389D01*
X150391688Y-116111032D01*
X150500044Y-116199956D01*
X150583288Y-116301391D01*
X150612611Y-116337121D01*
X150612612Y-116337123D01*
X150696257Y-116493610D01*
X150696257Y-116493611D01*
X150747766Y-116663412D01*
X150765158Y-116840000D01*
X150747766Y-117016588D01*
X150734304Y-117060966D01*
X150696257Y-117186390D01*
X150694051Y-117190517D01*
X150612611Y-117342879D01*
X150583288Y-117378609D01*
X150500044Y-117480044D01*
X150398609Y-117563288D01*
X150362879Y-117592611D01*
X150362877Y-117592612D01*
X150206390Y-117676257D01*
X150149789Y-117693427D01*
X150036588Y-117727766D01*
X149948362Y-117736455D01*
X149904250Y-117740800D01*
X149815750Y-117740800D01*
X149771638Y-117736455D01*
X149683412Y-117727766D01*
X149570211Y-117693427D01*
X149513610Y-117676257D01*
X149357123Y-117592612D01*
X149357121Y-117592611D01*
X149321391Y-117563288D01*
X149219956Y-117480044D01*
X149136712Y-117378609D01*
X149107389Y-117342879D01*
X149025949Y-117190517D01*
X149023743Y-117186390D01*
X148985696Y-117060966D01*
X148972234Y-117016588D01*
X148954842Y-116840000D01*
X148972234Y-116663412D01*
X149023743Y-116493611D01*
X149023743Y-116493610D01*
X149107388Y-116337123D01*
X149107389Y-116337121D01*
X149136712Y-116301391D01*
X149219956Y-116199956D01*
X149328312Y-116111032D01*
X149357121Y-116087389D01*
X149375020Y-116077822D01*
X149513610Y-116003743D01*
X149586992Y-115981483D01*
X149683412Y-115952234D01*
X149771638Y-115943545D01*
X149815750Y-115939200D01*
X149904250Y-115939200D01*
X149948362Y-115943545D01*
X149948362Y-115943545D01*
G37*
G36*
X142406787Y-115747510D02*
X142567160Y-115796160D01*
X142567162Y-115796161D01*
X142714966Y-115875163D01*
X142844517Y-115981483D01*
X142950837Y-116111034D01*
X143029839Y-116258838D01*
X143029840Y-116258840D01*
X143078490Y-116419213D01*
X143094916Y-116586000D01*
X143078490Y-116752787D01*
X143036512Y-116891165D01*
X143029839Y-116913162D01*
X142950837Y-117060966D01*
X142844517Y-117190517D01*
X142714966Y-117296837D01*
X142567162Y-117375839D01*
X142567160Y-117375840D01*
X142406787Y-117424490D01*
X142281794Y-117436800D01*
X142198206Y-117436800D01*
X142073213Y-117424490D01*
X141912840Y-117375840D01*
X141912838Y-117375839D01*
X141765034Y-117296837D01*
X141635483Y-117190517D01*
X141529163Y-117060966D01*
X141450161Y-116913162D01*
X141443488Y-116891165D01*
X141401510Y-116752787D01*
X141385084Y-116586000D01*
X141401510Y-116419213D01*
X141450160Y-116258840D01*
X141450161Y-116258838D01*
X141529163Y-116111034D01*
X141635483Y-115981483D01*
X141765034Y-115875163D01*
X141912838Y-115796161D01*
X141912840Y-115796160D01*
X142073213Y-115747510D01*
X142198206Y-115735200D01*
X142281794Y-115735200D01*
X142406787Y-115747510D01*
X142406787Y-115747510D01*
G37*
G36*
X134786787Y-115747510D02*
X134947160Y-115796160D01*
X134947162Y-115796161D01*
X135094966Y-115875163D01*
X135224517Y-115981483D01*
X135330837Y-116111034D01*
X135409839Y-116258838D01*
X135409840Y-116258840D01*
X135458490Y-116419213D01*
X135474916Y-116586000D01*
X135458490Y-116752787D01*
X135416512Y-116891165D01*
X135409839Y-116913162D01*
X135330837Y-117060966D01*
X135224517Y-117190517D01*
X135094966Y-117296837D01*
X134947162Y-117375839D01*
X134947160Y-117375840D01*
X134786787Y-117424490D01*
X134661794Y-117436800D01*
X134578206Y-117436800D01*
X134453213Y-117424490D01*
X134292840Y-117375840D01*
X134292838Y-117375839D01*
X134145034Y-117296837D01*
X134015483Y-117190517D01*
X133909163Y-117060966D01*
X133830161Y-116913162D01*
X133823488Y-116891165D01*
X133781510Y-116752787D01*
X133765084Y-116586000D01*
X133781510Y-116419213D01*
X133830160Y-116258840D01*
X133830161Y-116258838D01*
X133909163Y-116111034D01*
X134015483Y-115981483D01*
X134145034Y-115875163D01*
X134292838Y-115796161D01*
X134292840Y-115796160D01*
X134453213Y-115747510D01*
X134578206Y-115735200D01*
X134661794Y-115735200D01*
X134786787Y-115747510D01*
X134786787Y-115747510D01*
G37*
G36*
X127088362Y-113403545D02*
X127176588Y-113412234D01*
X127273008Y-113441483D01*
X127346390Y-113463743D01*
X127484980Y-113537822D01*
X127502879Y-113547389D01*
X127531688Y-113571032D01*
X127640044Y-113659956D01*
X127723288Y-113761391D01*
X127752611Y-113797121D01*
X127752612Y-113797123D01*
X127836257Y-113953610D01*
X127836257Y-113953611D01*
X127887766Y-114123412D01*
X127905158Y-114300000D01*
X127887766Y-114476588D01*
X127874304Y-114520966D01*
X127836257Y-114646390D01*
X127834051Y-114650517D01*
X127752611Y-114802879D01*
X127723288Y-114838609D01*
X127640044Y-114940044D01*
X127538609Y-115023288D01*
X127502879Y-115052611D01*
X127502877Y-115052612D01*
X127346390Y-115136257D01*
X127289789Y-115153427D01*
X127176588Y-115187766D01*
X127088362Y-115196455D01*
X127044250Y-115200800D01*
X126955750Y-115200800D01*
X126911638Y-115196455D01*
X126823412Y-115187766D01*
X126710211Y-115153427D01*
X126653610Y-115136257D01*
X126497123Y-115052612D01*
X126497121Y-115052611D01*
X126461391Y-115023288D01*
X126359956Y-114940044D01*
X126276712Y-114838609D01*
X126247389Y-114802879D01*
X126165949Y-114650517D01*
X126163743Y-114646390D01*
X126125696Y-114520966D01*
X126112234Y-114476588D01*
X126094842Y-114300000D01*
X126112234Y-114123412D01*
X126163743Y-113953611D01*
X126163743Y-113953610D01*
X126247388Y-113797123D01*
X126247389Y-113797121D01*
X126276712Y-113761391D01*
X126359956Y-113659956D01*
X126468312Y-113571032D01*
X126497121Y-113547389D01*
X126515020Y-113537822D01*
X126653610Y-113463743D01*
X126726992Y-113441483D01*
X126823412Y-113412234D01*
X126911638Y-113403545D01*
X126955750Y-113399200D01*
X127044250Y-113399200D01*
X127088362Y-113403545D01*
X127088362Y-113403545D01*
G37*
G36*
X149948362Y-113403545D02*
X150036588Y-113412234D01*
X150133008Y-113441483D01*
X150206390Y-113463743D01*
X150344980Y-113537822D01*
X150362879Y-113547389D01*
X150391688Y-113571032D01*
X150500044Y-113659956D01*
X150583288Y-113761391D01*
X150612611Y-113797121D01*
X150612612Y-113797123D01*
X150696257Y-113953610D01*
X150696257Y-113953611D01*
X150747766Y-114123412D01*
X150765158Y-114300000D01*
X150747766Y-114476588D01*
X150734304Y-114520966D01*
X150696257Y-114646390D01*
X150694051Y-114650517D01*
X150612611Y-114802879D01*
X150583288Y-114838609D01*
X150500044Y-114940044D01*
X150398609Y-115023288D01*
X150362879Y-115052611D01*
X150362877Y-115052612D01*
X150206390Y-115136257D01*
X150149789Y-115153427D01*
X150036588Y-115187766D01*
X149948362Y-115196455D01*
X149904250Y-115200800D01*
X149815750Y-115200800D01*
X149771638Y-115196455D01*
X149683412Y-115187766D01*
X149570211Y-115153427D01*
X149513610Y-115136257D01*
X149357123Y-115052612D01*
X149357121Y-115052611D01*
X149321391Y-115023288D01*
X149219956Y-114940044D01*
X149136712Y-114838609D01*
X149107389Y-114802879D01*
X149025949Y-114650517D01*
X149023743Y-114646390D01*
X148985696Y-114520966D01*
X148972234Y-114476588D01*
X148954842Y-114300000D01*
X148972234Y-114123412D01*
X149023743Y-113953611D01*
X149023743Y-113953610D01*
X149107388Y-113797123D01*
X149107389Y-113797121D01*
X149136712Y-113761391D01*
X149219956Y-113659956D01*
X149328312Y-113571032D01*
X149357121Y-113547389D01*
X149375020Y-113537822D01*
X149513610Y-113463743D01*
X149586992Y-113441483D01*
X149683412Y-113412234D01*
X149771638Y-113403545D01*
X149815750Y-113399200D01*
X149904250Y-113399200D01*
X149948362Y-113403545D01*
X149948362Y-113403545D01*
G37*
G36*
X134786787Y-113207510D02*
X134947160Y-113256160D01*
X134947162Y-113256161D01*
X135094966Y-113335163D01*
X135224517Y-113441483D01*
X135330837Y-113571034D01*
X135409839Y-113718838D01*
X135409840Y-113718840D01*
X135458490Y-113879213D01*
X135474916Y-114046000D01*
X135458490Y-114212787D01*
X135432033Y-114300000D01*
X135409839Y-114373162D01*
X135330837Y-114520966D01*
X135224517Y-114650517D01*
X135094966Y-114756837D01*
X134947162Y-114835839D01*
X134947160Y-114835840D01*
X134786787Y-114884490D01*
X134661794Y-114896800D01*
X134578206Y-114896800D01*
X134453213Y-114884490D01*
X134292840Y-114835840D01*
X134292838Y-114835839D01*
X134145034Y-114756837D01*
X134015483Y-114650517D01*
X133909163Y-114520966D01*
X133830161Y-114373162D01*
X133807967Y-114300000D01*
X133781510Y-114212787D01*
X133765084Y-114046000D01*
X133781510Y-113879213D01*
X133830160Y-113718840D01*
X133830161Y-113718838D01*
X133909163Y-113571034D01*
X134015483Y-113441483D01*
X134145034Y-113335163D01*
X134292838Y-113256161D01*
X134292840Y-113256160D01*
X134453213Y-113207510D01*
X134578206Y-113195200D01*
X134661794Y-113195200D01*
X134786787Y-113207510D01*
X134786787Y-113207510D01*
G37*
G36*
X142406787Y-113207510D02*
X142567160Y-113256160D01*
X142567162Y-113256161D01*
X142714966Y-113335163D01*
X142844517Y-113441483D01*
X142950837Y-113571034D01*
X143029839Y-113718838D01*
X143029840Y-113718840D01*
X143078490Y-113879213D01*
X143094916Y-114046000D01*
X143078490Y-114212787D01*
X143052033Y-114300000D01*
X143029839Y-114373162D01*
X142950837Y-114520966D01*
X142844517Y-114650517D01*
X142714966Y-114756837D01*
X142567162Y-114835839D01*
X142567160Y-114835840D01*
X142406787Y-114884490D01*
X142281794Y-114896800D01*
X142198206Y-114896800D01*
X142073213Y-114884490D01*
X141912840Y-114835840D01*
X141912838Y-114835839D01*
X141765034Y-114756837D01*
X141635483Y-114650517D01*
X141529163Y-114520966D01*
X141450161Y-114373162D01*
X141427967Y-114300000D01*
X141401510Y-114212787D01*
X141385084Y-114046000D01*
X141401510Y-113879213D01*
X141450160Y-113718840D01*
X141450161Y-113718838D01*
X141529163Y-113571034D01*
X141635483Y-113441483D01*
X141765034Y-113335163D01*
X141912838Y-113256161D01*
X141912840Y-113256160D01*
X142073213Y-113207510D01*
X142198206Y-113195200D01*
X142281794Y-113195200D01*
X142406787Y-113207510D01*
X142406787Y-113207510D01*
G37*
G36*
X131450229Y-112137854D02*
X131580754Y-112163817D01*
X131744689Y-112231721D01*
X131892227Y-112330303D01*
X132017697Y-112455773D01*
X132116279Y-112603311D01*
X132184183Y-112767246D01*
X132218800Y-112941279D01*
X132218800Y-113118721D01*
X132184183Y-113292754D01*
X132116279Y-113456689D01*
X132017697Y-113604227D01*
X131892227Y-113729697D01*
X131744689Y-113828279D01*
X131580754Y-113896183D01*
X131450229Y-113922146D01*
X131406722Y-113930800D01*
X131229278Y-113930800D01*
X131185771Y-113922146D01*
X131055246Y-113896183D01*
X130891311Y-113828279D01*
X130743773Y-113729697D01*
X130618303Y-113604227D01*
X130519721Y-113456689D01*
X130451817Y-113292754D01*
X130417200Y-113118721D01*
X130417200Y-112941279D01*
X130451817Y-112767246D01*
X130519721Y-112603311D01*
X130618303Y-112455773D01*
X130743773Y-112330303D01*
X130891311Y-112231721D01*
X131055246Y-112163817D01*
X131185771Y-112137854D01*
X131229278Y-112129200D01*
X131406722Y-112129200D01*
X131450229Y-112137854D01*
X131450229Y-112137854D01*
G37*
G36*
X127088362Y-110863545D02*
X127176588Y-110872234D01*
X127273008Y-110901483D01*
X127346390Y-110923743D01*
X127484980Y-110997822D01*
X127502879Y-111007389D01*
X127531688Y-111031032D01*
X127640044Y-111119956D01*
X127720213Y-111217644D01*
X127752611Y-111257121D01*
X127752612Y-111257123D01*
X127836257Y-111413610D01*
X127836257Y-111413611D01*
X127887766Y-111583412D01*
X127905158Y-111760000D01*
X127887766Y-111936588D01*
X127866052Y-112008169D01*
X127836257Y-112106390D01*
X127805995Y-112163005D01*
X127752611Y-112262879D01*
X127723288Y-112298609D01*
X127640044Y-112400044D01*
X127538609Y-112483288D01*
X127502879Y-112512611D01*
X127502877Y-112512612D01*
X127346390Y-112596257D01*
X127298448Y-112610800D01*
X127176588Y-112647766D01*
X127088362Y-112656455D01*
X127044250Y-112660800D01*
X126955750Y-112660800D01*
X126911638Y-112656455D01*
X126823412Y-112647766D01*
X126701552Y-112610800D01*
X126653610Y-112596257D01*
X126497123Y-112512612D01*
X126497121Y-112512611D01*
X126461391Y-112483288D01*
X126359956Y-112400044D01*
X126276712Y-112298609D01*
X126247389Y-112262879D01*
X126194005Y-112163005D01*
X126163743Y-112106390D01*
X126133948Y-112008169D01*
X126112234Y-111936588D01*
X126094842Y-111760000D01*
X126112234Y-111583412D01*
X126163743Y-111413611D01*
X126163743Y-111413610D01*
X126247388Y-111257123D01*
X126247389Y-111257121D01*
X126279787Y-111217644D01*
X126359956Y-111119956D01*
X126468312Y-111031032D01*
X126497121Y-111007389D01*
X126515020Y-110997822D01*
X126653610Y-110923743D01*
X126726992Y-110901483D01*
X126823412Y-110872234D01*
X126911638Y-110863545D01*
X126955750Y-110859200D01*
X127044250Y-110859200D01*
X127088362Y-110863545D01*
X127088362Y-110863545D01*
G37*
G36*
X149948362Y-110863545D02*
X150036588Y-110872234D01*
X150133008Y-110901483D01*
X150206390Y-110923743D01*
X150344980Y-110997822D01*
X150362879Y-111007389D01*
X150391688Y-111031032D01*
X150500044Y-111119956D01*
X150580213Y-111217644D01*
X150612611Y-111257121D01*
X150612612Y-111257123D01*
X150696257Y-111413610D01*
X150696257Y-111413611D01*
X150747766Y-111583412D01*
X150765158Y-111760000D01*
X150747766Y-111936588D01*
X150726052Y-112008169D01*
X150696257Y-112106390D01*
X150665995Y-112163005D01*
X150612611Y-112262879D01*
X150583288Y-112298609D01*
X150500044Y-112400044D01*
X150398609Y-112483288D01*
X150362879Y-112512611D01*
X150362877Y-112512612D01*
X150206390Y-112596257D01*
X150158448Y-112610800D01*
X150036588Y-112647766D01*
X149948362Y-112656455D01*
X149904250Y-112660800D01*
X149815750Y-112660800D01*
X149771638Y-112656455D01*
X149683412Y-112647766D01*
X149561552Y-112610800D01*
X149513610Y-112596257D01*
X149357123Y-112512612D01*
X149357121Y-112512611D01*
X149321391Y-112483288D01*
X149219956Y-112400044D01*
X149136712Y-112298609D01*
X149107389Y-112262879D01*
X149054005Y-112163005D01*
X149023743Y-112106390D01*
X148993948Y-112008169D01*
X148972234Y-111936588D01*
X148954842Y-111760000D01*
X148972234Y-111583412D01*
X149023743Y-111413611D01*
X149023743Y-111413610D01*
X149107388Y-111257123D01*
X149107389Y-111257121D01*
X149139787Y-111217644D01*
X149219956Y-111119956D01*
X149328312Y-111031032D01*
X149357121Y-111007389D01*
X149375020Y-110997822D01*
X149513610Y-110923743D01*
X149586992Y-110901483D01*
X149683412Y-110872234D01*
X149771638Y-110863545D01*
X149815750Y-110859200D01*
X149904250Y-110859200D01*
X149948362Y-110863545D01*
X149948362Y-110863545D01*
G37*
G36*
X145536169Y-110941895D02*
X145691005Y-111006031D01*
X145830354Y-111099140D01*
X145948860Y-111217646D01*
X146041969Y-111356995D01*
X146106105Y-111511831D01*
X146138800Y-111676203D01*
X146138800Y-111843797D01*
X146106105Y-112008169D01*
X146041969Y-112163005D01*
X145948860Y-112302354D01*
X145830354Y-112420860D01*
X145691005Y-112513969D01*
X145536169Y-112578105D01*
X145371797Y-112610800D01*
X145204203Y-112610800D01*
X145039831Y-112578105D01*
X144884995Y-112513969D01*
X144745646Y-112420860D01*
X144627140Y-112302354D01*
X144534031Y-112163005D01*
X144469895Y-112008169D01*
X144437200Y-111843797D01*
X144437200Y-111676203D01*
X144469895Y-111511831D01*
X144534031Y-111356995D01*
X144627140Y-111217646D01*
X144745646Y-111099140D01*
X144884995Y-111006031D01*
X145039831Y-110941895D01*
X145204203Y-110909200D01*
X145371797Y-110909200D01*
X145536169Y-110941895D01*
X145536169Y-110941895D01*
G37*
G36*
X142406787Y-110667510D02*
X142567160Y-110716160D01*
X142567162Y-110716161D01*
X142714966Y-110795163D01*
X142844517Y-110901483D01*
X142950837Y-111031034D01*
X143029839Y-111178838D01*
X143029840Y-111178840D01*
X143078490Y-111339213D01*
X143094916Y-111506000D01*
X143078490Y-111672787D01*
X143052033Y-111760000D01*
X143029839Y-111833162D01*
X142950837Y-111980966D01*
X142844517Y-112110517D01*
X142714966Y-112216837D01*
X142567162Y-112295839D01*
X142567160Y-112295840D01*
X142406787Y-112344490D01*
X142281794Y-112356800D01*
X142198206Y-112356800D01*
X142073213Y-112344490D01*
X141912840Y-112295840D01*
X141912838Y-112295839D01*
X141765034Y-112216837D01*
X141635483Y-112110517D01*
X141529163Y-111980966D01*
X141450161Y-111833162D01*
X141427967Y-111760000D01*
X141401510Y-111672787D01*
X141385084Y-111506000D01*
X141401510Y-111339213D01*
X141450160Y-111178840D01*
X141450161Y-111178838D01*
X141529163Y-111031034D01*
X141635483Y-110901483D01*
X141765034Y-110795163D01*
X141912838Y-110716161D01*
X141912840Y-110716160D01*
X142073213Y-110667510D01*
X142198206Y-110655200D01*
X142281794Y-110655200D01*
X142406787Y-110667510D01*
X142406787Y-110667510D01*
G37*
G36*
X134786787Y-110667510D02*
X134947160Y-110716160D01*
X134947162Y-110716161D01*
X135094966Y-110795163D01*
X135224517Y-110901483D01*
X135330837Y-111031034D01*
X135409839Y-111178838D01*
X135409840Y-111178840D01*
X135458490Y-111339213D01*
X135474916Y-111506000D01*
X135458490Y-111672787D01*
X135432033Y-111760000D01*
X135409839Y-111833162D01*
X135330837Y-111980966D01*
X135224517Y-112110517D01*
X135094966Y-112216837D01*
X134947162Y-112295839D01*
X134947160Y-112295840D01*
X134786787Y-112344490D01*
X134661794Y-112356800D01*
X134578206Y-112356800D01*
X134453213Y-112344490D01*
X134292840Y-112295840D01*
X134292838Y-112295839D01*
X134145034Y-112216837D01*
X134015483Y-112110517D01*
X133909163Y-111980966D01*
X133830161Y-111833162D01*
X133807967Y-111760000D01*
X133781510Y-111672787D01*
X133765084Y-111506000D01*
X133781510Y-111339213D01*
X133830160Y-111178840D01*
X133830161Y-111178838D01*
X133909163Y-111031034D01*
X134015483Y-110901483D01*
X134145034Y-110795163D01*
X134292838Y-110716161D01*
X134292840Y-110716160D01*
X134453213Y-110667510D01*
X134578206Y-110655200D01*
X134661794Y-110655200D01*
X134786787Y-110667510D01*
X134786787Y-110667510D01*
G37*
G36*
X131450229Y-109637854D02*
X131580754Y-109663817D01*
X131744689Y-109731721D01*
X131892227Y-109830303D01*
X132017697Y-109955773D01*
X132116279Y-110103311D01*
X132184183Y-110267246D01*
X132218800Y-110441279D01*
X132218800Y-110618721D01*
X132184183Y-110792754D01*
X132116279Y-110956689D01*
X132017697Y-111104227D01*
X131892227Y-111229697D01*
X131744689Y-111328279D01*
X131580754Y-111396183D01*
X131450229Y-111422146D01*
X131406722Y-111430800D01*
X131229278Y-111430800D01*
X131185771Y-111422146D01*
X131055246Y-111396183D01*
X130891311Y-111328279D01*
X130743773Y-111229697D01*
X130618303Y-111104227D01*
X130519721Y-110956689D01*
X130451817Y-110792754D01*
X130417200Y-110618721D01*
X130417200Y-110441279D01*
X130451817Y-110267246D01*
X130519721Y-110103311D01*
X130618303Y-109955773D01*
X130743773Y-109830303D01*
X130891311Y-109731721D01*
X131055246Y-109663817D01*
X131185771Y-109637854D01*
X131229278Y-109629200D01*
X131406722Y-109629200D01*
X131450229Y-109637854D01*
X131450229Y-109637854D01*
G37*
G36*
X127088362Y-108323545D02*
X127176588Y-108332234D01*
X127273008Y-108361483D01*
X127346390Y-108383743D01*
X127482861Y-108456689D01*
X127502879Y-108467389D01*
X127531688Y-108491032D01*
X127640044Y-108579956D01*
X127723288Y-108681391D01*
X127752611Y-108717121D01*
X127752612Y-108717123D01*
X127836257Y-108873610D01*
X127836257Y-108873611D01*
X127887766Y-109043412D01*
X127905158Y-109220000D01*
X127887766Y-109396588D01*
X127874304Y-109440966D01*
X127836257Y-109566390D01*
X127777222Y-109676835D01*
X127752611Y-109722879D01*
X127723288Y-109758609D01*
X127640044Y-109860044D01*
X127538609Y-109943288D01*
X127502879Y-109972611D01*
X127502877Y-109972612D01*
X127346390Y-110056257D01*
X127289789Y-110073427D01*
X127176588Y-110107766D01*
X127088362Y-110116455D01*
X127044250Y-110120800D01*
X126955750Y-110120800D01*
X126911638Y-110116455D01*
X126823412Y-110107766D01*
X126710211Y-110073427D01*
X126653610Y-110056257D01*
X126497123Y-109972612D01*
X126497121Y-109972611D01*
X126461391Y-109943288D01*
X126359956Y-109860044D01*
X126276712Y-109758609D01*
X126247389Y-109722879D01*
X126222778Y-109676835D01*
X126163743Y-109566390D01*
X126125696Y-109440966D01*
X126112234Y-109396588D01*
X126094842Y-109220000D01*
X126112234Y-109043412D01*
X126163743Y-108873611D01*
X126163743Y-108873610D01*
X126247388Y-108717123D01*
X126247389Y-108717121D01*
X126276712Y-108681391D01*
X126359956Y-108579956D01*
X126468312Y-108491032D01*
X126497121Y-108467389D01*
X126517139Y-108456689D01*
X126653610Y-108383743D01*
X126726992Y-108361483D01*
X126823412Y-108332234D01*
X126911638Y-108323545D01*
X126955750Y-108319200D01*
X127044250Y-108319200D01*
X127088362Y-108323545D01*
X127088362Y-108323545D01*
G37*
G36*
X149948362Y-108323545D02*
X150036588Y-108332234D01*
X150133008Y-108361483D01*
X150206390Y-108383743D01*
X150342861Y-108456689D01*
X150362879Y-108467389D01*
X150391688Y-108491032D01*
X150500044Y-108579956D01*
X150583288Y-108681391D01*
X150612611Y-108717121D01*
X150612612Y-108717123D01*
X150696257Y-108873610D01*
X150696257Y-108873611D01*
X150747766Y-109043412D01*
X150765158Y-109220000D01*
X150747766Y-109396588D01*
X150734304Y-109440966D01*
X150696257Y-109566390D01*
X150637222Y-109676835D01*
X150612611Y-109722879D01*
X150583288Y-109758609D01*
X150500044Y-109860044D01*
X150398609Y-109943288D01*
X150362879Y-109972611D01*
X150362877Y-109972612D01*
X150206390Y-110056257D01*
X150149789Y-110073427D01*
X150036588Y-110107766D01*
X149948362Y-110116455D01*
X149904250Y-110120800D01*
X149815750Y-110120800D01*
X149771638Y-110116455D01*
X149683412Y-110107766D01*
X149570211Y-110073427D01*
X149513610Y-110056257D01*
X149357123Y-109972612D01*
X149357121Y-109972611D01*
X149321391Y-109943288D01*
X149219956Y-109860044D01*
X149136712Y-109758609D01*
X149107389Y-109722879D01*
X149082778Y-109676835D01*
X149023743Y-109566390D01*
X148985696Y-109440966D01*
X148972234Y-109396588D01*
X148954842Y-109220000D01*
X148972234Y-109043412D01*
X149023743Y-108873611D01*
X149023743Y-108873610D01*
X149107388Y-108717123D01*
X149107389Y-108717121D01*
X149136712Y-108681391D01*
X149219956Y-108579956D01*
X149328312Y-108491032D01*
X149357121Y-108467389D01*
X149377139Y-108456689D01*
X149513610Y-108383743D01*
X149586992Y-108361483D01*
X149683412Y-108332234D01*
X149771638Y-108323545D01*
X149815750Y-108319200D01*
X149904250Y-108319200D01*
X149948362Y-108323545D01*
X149948362Y-108323545D01*
G37*
G36*
X142406787Y-108127510D02*
X142567160Y-108176160D01*
X142567162Y-108176161D01*
X142714966Y-108255163D01*
X142844517Y-108361483D01*
X142950837Y-108491034D01*
X143011339Y-108604227D01*
X143029840Y-108638840D01*
X143078490Y-108799213D01*
X143094916Y-108966000D01*
X143078490Y-109132787D01*
X143052033Y-109220000D01*
X143029839Y-109293162D01*
X142950837Y-109440966D01*
X142844517Y-109570517D01*
X142714966Y-109676837D01*
X142612282Y-109731722D01*
X142567160Y-109755840D01*
X142406787Y-109804490D01*
X142281794Y-109816800D01*
X142198206Y-109816800D01*
X142073213Y-109804490D01*
X141912840Y-109755840D01*
X141867718Y-109731722D01*
X141765034Y-109676837D01*
X141635483Y-109570517D01*
X141529163Y-109440966D01*
X141450161Y-109293162D01*
X141427967Y-109220000D01*
X141401510Y-109132787D01*
X141385084Y-108966000D01*
X141401510Y-108799213D01*
X141450160Y-108638840D01*
X141468661Y-108604227D01*
X141529163Y-108491034D01*
X141635483Y-108361483D01*
X141765034Y-108255163D01*
X141912838Y-108176161D01*
X141912840Y-108176160D01*
X142073213Y-108127510D01*
X142198206Y-108115200D01*
X142281794Y-108115200D01*
X142406787Y-108127510D01*
X142406787Y-108127510D01*
G37*
G36*
X134786787Y-108127510D02*
X134947160Y-108176160D01*
X134947162Y-108176161D01*
X135094966Y-108255163D01*
X135224517Y-108361483D01*
X135330837Y-108491034D01*
X135391339Y-108604227D01*
X135409840Y-108638840D01*
X135458490Y-108799213D01*
X135474916Y-108966000D01*
X135458490Y-109132787D01*
X135432033Y-109220000D01*
X135409839Y-109293162D01*
X135330837Y-109440966D01*
X135224517Y-109570517D01*
X135094966Y-109676837D01*
X134992282Y-109731722D01*
X134947160Y-109755840D01*
X134786787Y-109804490D01*
X134661794Y-109816800D01*
X134578206Y-109816800D01*
X134453213Y-109804490D01*
X134292840Y-109755840D01*
X134247718Y-109731722D01*
X134145034Y-109676837D01*
X134015483Y-109570517D01*
X133909163Y-109440966D01*
X133830161Y-109293162D01*
X133807967Y-109220000D01*
X133781510Y-109132787D01*
X133765084Y-108966000D01*
X133781510Y-108799213D01*
X133830160Y-108638840D01*
X133848661Y-108604227D01*
X133909163Y-108491034D01*
X134015483Y-108361483D01*
X134145034Y-108255163D01*
X134292838Y-108176161D01*
X134292840Y-108176160D01*
X134453213Y-108127510D01*
X134578206Y-108115200D01*
X134661794Y-108115200D01*
X134786787Y-108127510D01*
X134786787Y-108127510D01*
G37*
G36*
X131445105Y-107136835D02*
X131580754Y-107163817D01*
X131744689Y-107231721D01*
X131892227Y-107330303D01*
X132017697Y-107455773D01*
X132116279Y-107603311D01*
X132184183Y-107767246D01*
X132218800Y-107941279D01*
X132218800Y-108118721D01*
X132184183Y-108292754D01*
X132116279Y-108456689D01*
X132017697Y-108604227D01*
X131892227Y-108729697D01*
X131744689Y-108828279D01*
X131580754Y-108896183D01*
X131450229Y-108922146D01*
X131406722Y-108930800D01*
X131229278Y-108930800D01*
X131185771Y-108922146D01*
X131055246Y-108896183D01*
X130891311Y-108828279D01*
X130743773Y-108729697D01*
X130618303Y-108604227D01*
X130519721Y-108456689D01*
X130451817Y-108292754D01*
X130417200Y-108118721D01*
X130417200Y-107941279D01*
X130451817Y-107767246D01*
X130519721Y-107603311D01*
X130618303Y-107455773D01*
X130743773Y-107330303D01*
X130891311Y-107231721D01*
X131055246Y-107163817D01*
X131190895Y-107136835D01*
X131229278Y-107129200D01*
X131406722Y-107129200D01*
X131445105Y-107136835D01*
X131445105Y-107136835D01*
G37*
G36*
X145536169Y-105941895D02*
X145691005Y-106006031D01*
X145830354Y-106099140D01*
X145948860Y-106217646D01*
X146041969Y-106356995D01*
X146106105Y-106511831D01*
X146138800Y-106676203D01*
X146138800Y-106843797D01*
X146106105Y-107008169D01*
X146041969Y-107163005D01*
X145948860Y-107302354D01*
X145830354Y-107420860D01*
X145691005Y-107513969D01*
X145536169Y-107578105D01*
X145371797Y-107610800D01*
X145204203Y-107610800D01*
X145039831Y-107578105D01*
X144884995Y-107513969D01*
X144745646Y-107420860D01*
X144627140Y-107302354D01*
X144534031Y-107163005D01*
X144469895Y-107008169D01*
X144437200Y-106843797D01*
X144437200Y-106676203D01*
X144469895Y-106511831D01*
X144534031Y-106356995D01*
X144627140Y-106217646D01*
X144745646Y-106099140D01*
X144884995Y-106006031D01*
X145039831Y-105941895D01*
X145204203Y-105909200D01*
X145371797Y-105909200D01*
X145536169Y-105941895D01*
X145536169Y-105941895D01*
G37*
G36*
X149948362Y-105783545D02*
X150036588Y-105792234D01*
X150133008Y-105821483D01*
X150206390Y-105843743D01*
X150328850Y-105909200D01*
X150362879Y-105927389D01*
X150391688Y-105951032D01*
X150500044Y-106039956D01*
X150583288Y-106141391D01*
X150612611Y-106177121D01*
X150612612Y-106177123D01*
X150696257Y-106333610D01*
X150696257Y-106333611D01*
X150747766Y-106503412D01*
X150765158Y-106680000D01*
X150747766Y-106856588D01*
X150734304Y-106900966D01*
X150696257Y-107026390D01*
X150694051Y-107030517D01*
X150612611Y-107182879D01*
X150583288Y-107218609D01*
X150500044Y-107320044D01*
X150398609Y-107403288D01*
X150362879Y-107432611D01*
X150362877Y-107432612D01*
X150206390Y-107516257D01*
X150149789Y-107533427D01*
X150036588Y-107567766D01*
X149948362Y-107576455D01*
X149904250Y-107580800D01*
X149815750Y-107580800D01*
X149771638Y-107576455D01*
X149683412Y-107567766D01*
X149570211Y-107533427D01*
X149513610Y-107516257D01*
X149357123Y-107432612D01*
X149357121Y-107432611D01*
X149321391Y-107403288D01*
X149219956Y-107320044D01*
X149136712Y-107218609D01*
X149107389Y-107182879D01*
X149025949Y-107030517D01*
X149023743Y-107026390D01*
X148985696Y-106900966D01*
X148972234Y-106856588D01*
X148954842Y-106680000D01*
X148972234Y-106503412D01*
X149023743Y-106333611D01*
X149023743Y-106333610D01*
X149107388Y-106177123D01*
X149107389Y-106177121D01*
X149136712Y-106141391D01*
X149219956Y-106039956D01*
X149328312Y-105951032D01*
X149357121Y-105927389D01*
X149391150Y-105909200D01*
X149513610Y-105843743D01*
X149586992Y-105821483D01*
X149683412Y-105792234D01*
X149771638Y-105783545D01*
X149815750Y-105779200D01*
X149904250Y-105779200D01*
X149948362Y-105783545D01*
X149948362Y-105783545D01*
G37*
G36*
X127088362Y-105783545D02*
X127176588Y-105792234D01*
X127273008Y-105821483D01*
X127346390Y-105843743D01*
X127468850Y-105909200D01*
X127502879Y-105927389D01*
X127531688Y-105951032D01*
X127640044Y-106039956D01*
X127723288Y-106141391D01*
X127752611Y-106177121D01*
X127752612Y-106177123D01*
X127836257Y-106333610D01*
X127836257Y-106333611D01*
X127887766Y-106503412D01*
X127905158Y-106680000D01*
X127887766Y-106856588D01*
X127874304Y-106900966D01*
X127836257Y-107026390D01*
X127834051Y-107030517D01*
X127752611Y-107182879D01*
X127723288Y-107218609D01*
X127640044Y-107320044D01*
X127538609Y-107403288D01*
X127502879Y-107432611D01*
X127502877Y-107432612D01*
X127346390Y-107516257D01*
X127289789Y-107533427D01*
X127176588Y-107567766D01*
X127088362Y-107576455D01*
X127044250Y-107580800D01*
X126955750Y-107580800D01*
X126911638Y-107576455D01*
X126823412Y-107567766D01*
X126710211Y-107533427D01*
X126653610Y-107516257D01*
X126497123Y-107432612D01*
X126497121Y-107432611D01*
X126461391Y-107403288D01*
X126359956Y-107320044D01*
X126276712Y-107218609D01*
X126247389Y-107182879D01*
X126165949Y-107030517D01*
X126163743Y-107026390D01*
X126125696Y-106900966D01*
X126112234Y-106856588D01*
X126094842Y-106680000D01*
X126112234Y-106503412D01*
X126163743Y-106333611D01*
X126163743Y-106333610D01*
X126247388Y-106177123D01*
X126247389Y-106177121D01*
X126276712Y-106141391D01*
X126359956Y-106039956D01*
X126468312Y-105951032D01*
X126497121Y-105927389D01*
X126531150Y-105909200D01*
X126653610Y-105843743D01*
X126726992Y-105821483D01*
X126823412Y-105792234D01*
X126911638Y-105783545D01*
X126955750Y-105779200D01*
X127044250Y-105779200D01*
X127088362Y-105783545D01*
X127088362Y-105783545D01*
G37*
G36*
X134786787Y-105587510D02*
X134947160Y-105636160D01*
X134947162Y-105636161D01*
X135094966Y-105715163D01*
X135224517Y-105821483D01*
X135330837Y-105951034D01*
X135409839Y-106098838D01*
X135409840Y-106098840D01*
X135458490Y-106259213D01*
X135474916Y-106426000D01*
X135458490Y-106592787D01*
X135432033Y-106680000D01*
X135409839Y-106753162D01*
X135330837Y-106900966D01*
X135224517Y-107030517D01*
X135094966Y-107136837D01*
X134947162Y-107215839D01*
X134947160Y-107215840D01*
X134786787Y-107264490D01*
X134661794Y-107276800D01*
X134578206Y-107276800D01*
X134453213Y-107264490D01*
X134292840Y-107215840D01*
X134292838Y-107215839D01*
X134145034Y-107136837D01*
X134015483Y-107030517D01*
X133909163Y-106900966D01*
X133830161Y-106753162D01*
X133807967Y-106680000D01*
X133781510Y-106592787D01*
X133765084Y-106426000D01*
X133781510Y-106259213D01*
X133830160Y-106098840D01*
X133830161Y-106098838D01*
X133909163Y-105951034D01*
X134015483Y-105821483D01*
X134145034Y-105715163D01*
X134292838Y-105636161D01*
X134292840Y-105636160D01*
X134453213Y-105587510D01*
X134578206Y-105575200D01*
X134661794Y-105575200D01*
X134786787Y-105587510D01*
X134786787Y-105587510D01*
G37*
G36*
X142406787Y-105587510D02*
X142567160Y-105636160D01*
X142567162Y-105636161D01*
X142714966Y-105715163D01*
X142844517Y-105821483D01*
X142950837Y-105951034D01*
X143029839Y-106098838D01*
X143029840Y-106098840D01*
X143078490Y-106259213D01*
X143094916Y-106426000D01*
X143078490Y-106592787D01*
X143052033Y-106680000D01*
X143029839Y-106753162D01*
X142950837Y-106900966D01*
X142844517Y-107030517D01*
X142714966Y-107136837D01*
X142567162Y-107215839D01*
X142567160Y-107215840D01*
X142406787Y-107264490D01*
X142281794Y-107276800D01*
X142198206Y-107276800D01*
X142073213Y-107264490D01*
X141912840Y-107215840D01*
X141912838Y-107215839D01*
X141765034Y-107136837D01*
X141635483Y-107030517D01*
X141529163Y-106900966D01*
X141450161Y-106753162D01*
X141427967Y-106680000D01*
X141401510Y-106592787D01*
X141385084Y-106426000D01*
X141401510Y-106259213D01*
X141450160Y-106098840D01*
X141450161Y-106098838D01*
X141529163Y-105951034D01*
X141635483Y-105821483D01*
X141765034Y-105715163D01*
X141912838Y-105636161D01*
X141912840Y-105636160D01*
X142073213Y-105587510D01*
X142198206Y-105575200D01*
X142281794Y-105575200D01*
X142406787Y-105587510D01*
X142406787Y-105587510D01*
G37*
G36*
X145536169Y-103575895D02*
X145691005Y-103640031D01*
X145830354Y-103733140D01*
X145948860Y-103851646D01*
X146041969Y-103990995D01*
X146106105Y-104145831D01*
X146138800Y-104310203D01*
X146138800Y-104477797D01*
X146106105Y-104642169D01*
X146041969Y-104797005D01*
X145948860Y-104936354D01*
X145830354Y-105054860D01*
X145691005Y-105147969D01*
X145536169Y-105212105D01*
X145371797Y-105244800D01*
X145204203Y-105244800D01*
X145039831Y-105212105D01*
X144884995Y-105147969D01*
X144745646Y-105054860D01*
X144627140Y-104936354D01*
X144534031Y-104797005D01*
X144469895Y-104642169D01*
X144437200Y-104477797D01*
X144437200Y-104310203D01*
X144469895Y-104145831D01*
X144534031Y-103990995D01*
X144627140Y-103851646D01*
X144745646Y-103733140D01*
X144884995Y-103640031D01*
X145039831Y-103575895D01*
X145204203Y-103543200D01*
X145371797Y-103543200D01*
X145536169Y-103575895D01*
X145536169Y-103575895D01*
G37*
G36*
X127088362Y-103243545D02*
X127176588Y-103252234D01*
X127273008Y-103281483D01*
X127346390Y-103303743D01*
X127484980Y-103377822D01*
X127502879Y-103387389D01*
X127531688Y-103411032D01*
X127640044Y-103499956D01*
X127702364Y-103575895D01*
X127752611Y-103637121D01*
X127752612Y-103637123D01*
X127836257Y-103793610D01*
X127836257Y-103793611D01*
X127887766Y-103963412D01*
X127905158Y-104140000D01*
X127887766Y-104316588D01*
X127874304Y-104360966D01*
X127836257Y-104486390D01*
X127834051Y-104490517D01*
X127752611Y-104642879D01*
X127723288Y-104678609D01*
X127640044Y-104780044D01*
X127538609Y-104863288D01*
X127502879Y-104892611D01*
X127502877Y-104892612D01*
X127346390Y-104976257D01*
X127289789Y-104993427D01*
X127176588Y-105027766D01*
X127088362Y-105036455D01*
X127044250Y-105040800D01*
X126955750Y-105040800D01*
X126911638Y-105036455D01*
X126823412Y-105027766D01*
X126710211Y-104993427D01*
X126653610Y-104976257D01*
X126497123Y-104892612D01*
X126497121Y-104892611D01*
X126461391Y-104863288D01*
X126359956Y-104780044D01*
X126276712Y-104678609D01*
X126247389Y-104642879D01*
X126165949Y-104490517D01*
X126163743Y-104486390D01*
X126125696Y-104360966D01*
X126112234Y-104316588D01*
X126094842Y-104140000D01*
X126112234Y-103963412D01*
X126163743Y-103793611D01*
X126163743Y-103793610D01*
X126247388Y-103637123D01*
X126247389Y-103637121D01*
X126297636Y-103575895D01*
X126359956Y-103499956D01*
X126468312Y-103411032D01*
X126497121Y-103387389D01*
X126515020Y-103377822D01*
X126653610Y-103303743D01*
X126726992Y-103281483D01*
X126823412Y-103252234D01*
X126911638Y-103243545D01*
X126955750Y-103239200D01*
X127044250Y-103239200D01*
X127088362Y-103243545D01*
X127088362Y-103243545D01*
G37*
G36*
X149948362Y-103243545D02*
X150036588Y-103252234D01*
X150133008Y-103281483D01*
X150206390Y-103303743D01*
X150344980Y-103377822D01*
X150362879Y-103387389D01*
X150391688Y-103411032D01*
X150500044Y-103499956D01*
X150562364Y-103575895D01*
X150612611Y-103637121D01*
X150612612Y-103637123D01*
X150696257Y-103793610D01*
X150696257Y-103793611D01*
X150747766Y-103963412D01*
X150765158Y-104140000D01*
X150747766Y-104316588D01*
X150734304Y-104360966D01*
X150696257Y-104486390D01*
X150694051Y-104490517D01*
X150612611Y-104642879D01*
X150583288Y-104678609D01*
X150500044Y-104780044D01*
X150398609Y-104863288D01*
X150362879Y-104892611D01*
X150362877Y-104892612D01*
X150206390Y-104976257D01*
X150149789Y-104993427D01*
X150036588Y-105027766D01*
X149948362Y-105036455D01*
X149904250Y-105040800D01*
X149815750Y-105040800D01*
X149771638Y-105036455D01*
X149683412Y-105027766D01*
X149570211Y-104993427D01*
X149513610Y-104976257D01*
X149357123Y-104892612D01*
X149357121Y-104892611D01*
X149321391Y-104863288D01*
X149219956Y-104780044D01*
X149136712Y-104678609D01*
X149107389Y-104642879D01*
X149025949Y-104490517D01*
X149023743Y-104486390D01*
X148985696Y-104360966D01*
X148972234Y-104316588D01*
X148954842Y-104140000D01*
X148972234Y-103963412D01*
X149023743Y-103793611D01*
X149023743Y-103793610D01*
X149107388Y-103637123D01*
X149107389Y-103637121D01*
X149157636Y-103575895D01*
X149219956Y-103499956D01*
X149328312Y-103411032D01*
X149357121Y-103387389D01*
X149375020Y-103377822D01*
X149513610Y-103303743D01*
X149586992Y-103281483D01*
X149683412Y-103252234D01*
X149771638Y-103243545D01*
X149815750Y-103239200D01*
X149904250Y-103239200D01*
X149948362Y-103243545D01*
X149948362Y-103243545D01*
G37*
G36*
X142406787Y-103047510D02*
X142567160Y-103096160D01*
X142567162Y-103096161D01*
X142714966Y-103175163D01*
X142844517Y-103281483D01*
X142950837Y-103411034D01*
X143021480Y-103543200D01*
X143029840Y-103558840D01*
X143078490Y-103719213D01*
X143094916Y-103886000D01*
X143078490Y-104052787D01*
X143029840Y-104213160D01*
X143029839Y-104213162D01*
X142950837Y-104360966D01*
X142844517Y-104490517D01*
X142714966Y-104596837D01*
X142567162Y-104675839D01*
X142567160Y-104675840D01*
X142406787Y-104724490D01*
X142281794Y-104736800D01*
X142198206Y-104736800D01*
X142073213Y-104724490D01*
X141912840Y-104675840D01*
X141912838Y-104675839D01*
X141765034Y-104596837D01*
X141635483Y-104490517D01*
X141529163Y-104360966D01*
X141450161Y-104213162D01*
X141450160Y-104213160D01*
X141401510Y-104052787D01*
X141385084Y-103886000D01*
X141401510Y-103719213D01*
X141450160Y-103558840D01*
X141458520Y-103543200D01*
X141529163Y-103411034D01*
X141635483Y-103281483D01*
X141765034Y-103175163D01*
X141912838Y-103096161D01*
X141912840Y-103096160D01*
X142073213Y-103047510D01*
X142198206Y-103035200D01*
X142281794Y-103035200D01*
X142406787Y-103047510D01*
X142406787Y-103047510D01*
G37*
G36*
X134786787Y-103047510D02*
X134947160Y-103096160D01*
X134947162Y-103096161D01*
X135094966Y-103175163D01*
X135224517Y-103281483D01*
X135330837Y-103411034D01*
X135401480Y-103543200D01*
X135409840Y-103558840D01*
X135458490Y-103719213D01*
X135474916Y-103886000D01*
X135458490Y-104052787D01*
X135409840Y-104213160D01*
X135409839Y-104213162D01*
X135330837Y-104360966D01*
X135224517Y-104490517D01*
X135094966Y-104596837D01*
X134947162Y-104675839D01*
X134947160Y-104675840D01*
X134786787Y-104724490D01*
X134661794Y-104736800D01*
X134578206Y-104736800D01*
X134453213Y-104724490D01*
X134292840Y-104675840D01*
X134292838Y-104675839D01*
X134145034Y-104596837D01*
X134015483Y-104490517D01*
X133909163Y-104360966D01*
X133830161Y-104213162D01*
X133830160Y-104213160D01*
X133781510Y-104052787D01*
X133765084Y-103886000D01*
X133781510Y-103719213D01*
X133830160Y-103558840D01*
X133838520Y-103543200D01*
X133909163Y-103411034D01*
X134015483Y-103281483D01*
X134145034Y-103175163D01*
X134292838Y-103096161D01*
X134292840Y-103096160D01*
X134453213Y-103047510D01*
X134578206Y-103035200D01*
X134661794Y-103035200D01*
X134786787Y-103047510D01*
X134786787Y-103047510D01*
G37*
G36*
X149948362Y-100703545D02*
X150036588Y-100712234D01*
X150133008Y-100741483D01*
X150206390Y-100763743D01*
X150344980Y-100837822D01*
X150362879Y-100847389D01*
X150391688Y-100871032D01*
X150500044Y-100959956D01*
X150583288Y-101061391D01*
X150612611Y-101097121D01*
X150612612Y-101097123D01*
X150696257Y-101253610D01*
X150696257Y-101253611D01*
X150747766Y-101423412D01*
X150765158Y-101600000D01*
X150747766Y-101776588D01*
X150734304Y-101820966D01*
X150696257Y-101946390D01*
X150694051Y-101950517D01*
X150612611Y-102102879D01*
X150583288Y-102138609D01*
X150500044Y-102240044D01*
X150398609Y-102323288D01*
X150362879Y-102352611D01*
X150362877Y-102352612D01*
X150206390Y-102436257D01*
X150149789Y-102453427D01*
X150036588Y-102487766D01*
X149948362Y-102496455D01*
X149904250Y-102500800D01*
X149815750Y-102500800D01*
X149771638Y-102496455D01*
X149683412Y-102487766D01*
X149570211Y-102453427D01*
X149513610Y-102436257D01*
X149357123Y-102352612D01*
X149357121Y-102352611D01*
X149321391Y-102323288D01*
X149219956Y-102240044D01*
X149136712Y-102138609D01*
X149107389Y-102102879D01*
X149025949Y-101950517D01*
X149023743Y-101946390D01*
X148985696Y-101820966D01*
X148972234Y-101776588D01*
X148954842Y-101600000D01*
X148972234Y-101423412D01*
X149023743Y-101253611D01*
X149023743Y-101253610D01*
X149107388Y-101097123D01*
X149107389Y-101097121D01*
X149136712Y-101061391D01*
X149219956Y-100959956D01*
X149328312Y-100871032D01*
X149357121Y-100847389D01*
X149375020Y-100837822D01*
X149513610Y-100763743D01*
X149586992Y-100741483D01*
X149683412Y-100712234D01*
X149771638Y-100703545D01*
X149815750Y-100699200D01*
X149904250Y-100699200D01*
X149948362Y-100703545D01*
X149948362Y-100703545D01*
G37*
G36*
X127088362Y-100703545D02*
X127176588Y-100712234D01*
X127273008Y-100741483D01*
X127346390Y-100763743D01*
X127484980Y-100837822D01*
X127502879Y-100847389D01*
X127531688Y-100871032D01*
X127640044Y-100959956D01*
X127723288Y-101061391D01*
X127752611Y-101097121D01*
X127752612Y-101097123D01*
X127836257Y-101253610D01*
X127836257Y-101253611D01*
X127887766Y-101423412D01*
X127905158Y-101600000D01*
X127887766Y-101776588D01*
X127874304Y-101820966D01*
X127836257Y-101946390D01*
X127834051Y-101950517D01*
X127752611Y-102102879D01*
X127723288Y-102138609D01*
X127640044Y-102240044D01*
X127538609Y-102323288D01*
X127502879Y-102352611D01*
X127502877Y-102352612D01*
X127346390Y-102436257D01*
X127289789Y-102453427D01*
X127176588Y-102487766D01*
X127088362Y-102496455D01*
X127044250Y-102500800D01*
X126955750Y-102500800D01*
X126911638Y-102496455D01*
X126823412Y-102487766D01*
X126710211Y-102453427D01*
X126653610Y-102436257D01*
X126497123Y-102352612D01*
X126497121Y-102352611D01*
X126461391Y-102323288D01*
X126359956Y-102240044D01*
X126276712Y-102138609D01*
X126247389Y-102102879D01*
X126165949Y-101950517D01*
X126163743Y-101946390D01*
X126125696Y-101820966D01*
X126112234Y-101776588D01*
X126094842Y-101600000D01*
X126112234Y-101423412D01*
X126163743Y-101253611D01*
X126163743Y-101253610D01*
X126247388Y-101097123D01*
X126247389Y-101097121D01*
X126276712Y-101061391D01*
X126359956Y-100959956D01*
X126468312Y-100871032D01*
X126497121Y-100847389D01*
X126515020Y-100837822D01*
X126653610Y-100763743D01*
X126726992Y-100741483D01*
X126823412Y-100712234D01*
X126911638Y-100703545D01*
X126955750Y-100699200D01*
X127044250Y-100699200D01*
X127088362Y-100703545D01*
X127088362Y-100703545D01*
G37*
G36*
X134786787Y-100507510D02*
X134947160Y-100556160D01*
X134947162Y-100556161D01*
X135094966Y-100635163D01*
X135224517Y-100741483D01*
X135330837Y-100871034D01*
X135409839Y-101018838D01*
X135409840Y-101018840D01*
X135458490Y-101179213D01*
X135474916Y-101346000D01*
X135458490Y-101512787D01*
X135432033Y-101600000D01*
X135409839Y-101673162D01*
X135330837Y-101820966D01*
X135224517Y-101950517D01*
X135094966Y-102056837D01*
X134947162Y-102135839D01*
X134947160Y-102135840D01*
X134786787Y-102184490D01*
X134661794Y-102196800D01*
X134578206Y-102196800D01*
X134453213Y-102184490D01*
X134292840Y-102135840D01*
X134292838Y-102135839D01*
X134145034Y-102056837D01*
X134015483Y-101950517D01*
X133909163Y-101820966D01*
X133830161Y-101673162D01*
X133807967Y-101600000D01*
X133781510Y-101512787D01*
X133765084Y-101346000D01*
X133781510Y-101179213D01*
X133830160Y-101018840D01*
X133830161Y-101018838D01*
X133909163Y-100871034D01*
X134015483Y-100741483D01*
X134145034Y-100635163D01*
X134292838Y-100556161D01*
X134292840Y-100556160D01*
X134453213Y-100507510D01*
X134578206Y-100495200D01*
X134661794Y-100495200D01*
X134786787Y-100507510D01*
X134786787Y-100507510D01*
G37*
G36*
X142406787Y-100507510D02*
X142567160Y-100556160D01*
X142567162Y-100556161D01*
X142714966Y-100635163D01*
X142844517Y-100741483D01*
X142950837Y-100871034D01*
X143029839Y-101018838D01*
X143029840Y-101018840D01*
X143078490Y-101179213D01*
X143094916Y-101346000D01*
X143078490Y-101512787D01*
X143052033Y-101600000D01*
X143029839Y-101673162D01*
X142950837Y-101820966D01*
X142844517Y-101950517D01*
X142714966Y-102056837D01*
X142567162Y-102135839D01*
X142567160Y-102135840D01*
X142406787Y-102184490D01*
X142281794Y-102196800D01*
X142198206Y-102196800D01*
X142073213Y-102184490D01*
X141912840Y-102135840D01*
X141912838Y-102135839D01*
X141765034Y-102056837D01*
X141635483Y-101950517D01*
X141529163Y-101820966D01*
X141450161Y-101673162D01*
X141427967Y-101600000D01*
X141401510Y-101512787D01*
X141385084Y-101346000D01*
X141401510Y-101179213D01*
X141450160Y-101018840D01*
X141450161Y-101018838D01*
X141529163Y-100871034D01*
X141635483Y-100741483D01*
X141765034Y-100635163D01*
X141912838Y-100556161D01*
X141912840Y-100556160D01*
X142073213Y-100507510D01*
X142198206Y-100495200D01*
X142281794Y-100495200D01*
X142406787Y-100507510D01*
X142406787Y-100507510D01*
G37*
G36*
X145536169Y-98575895D02*
X145691005Y-98640031D01*
X145830354Y-98733140D01*
X145948860Y-98851646D01*
X146041969Y-98990995D01*
X146106105Y-99145831D01*
X146138800Y-99310203D01*
X146138800Y-99477797D01*
X146106105Y-99642169D01*
X146041969Y-99797005D01*
X145948860Y-99936354D01*
X145830354Y-100054860D01*
X145691005Y-100147969D01*
X145536169Y-100212105D01*
X145371797Y-100244800D01*
X145204203Y-100244800D01*
X145039831Y-100212105D01*
X144884995Y-100147969D01*
X144745646Y-100054860D01*
X144627140Y-99936354D01*
X144534031Y-99797005D01*
X144469895Y-99642169D01*
X144437200Y-99477797D01*
X144437200Y-99310203D01*
X144469895Y-99145831D01*
X144534031Y-98990995D01*
X144627140Y-98851646D01*
X144745646Y-98733140D01*
X144884995Y-98640031D01*
X145039831Y-98575895D01*
X145204203Y-98543200D01*
X145371797Y-98543200D01*
X145536169Y-98575895D01*
X145536169Y-98575895D01*
G37*
G36*
X149948362Y-98163545D02*
X150036588Y-98172234D01*
X150133008Y-98201483D01*
X150206390Y-98223743D01*
X150344980Y-98297822D01*
X150362879Y-98307389D01*
X150391688Y-98331032D01*
X150500044Y-98419956D01*
X150583288Y-98521391D01*
X150612611Y-98557121D01*
X150612612Y-98557123D01*
X150696257Y-98713610D01*
X150696257Y-98713611D01*
X150747766Y-98883412D01*
X150765158Y-99060000D01*
X150747766Y-99236588D01*
X150713427Y-99349789D01*
X150696257Y-99406390D01*
X150637222Y-99516835D01*
X150612611Y-99562879D01*
X150583288Y-99598609D01*
X150500044Y-99700044D01*
X150398609Y-99783288D01*
X150362879Y-99812611D01*
X150362877Y-99812612D01*
X150206390Y-99896257D01*
X150149789Y-99913427D01*
X150036588Y-99947766D01*
X149948362Y-99956455D01*
X149904250Y-99960800D01*
X149815750Y-99960800D01*
X149771638Y-99956455D01*
X149683412Y-99947766D01*
X149570211Y-99913427D01*
X149513610Y-99896257D01*
X149357123Y-99812612D01*
X149357121Y-99812611D01*
X149321391Y-99783288D01*
X149219956Y-99700044D01*
X149136712Y-99598609D01*
X149107389Y-99562879D01*
X149082778Y-99516835D01*
X149023743Y-99406390D01*
X149006573Y-99349789D01*
X148972234Y-99236588D01*
X148954842Y-99060000D01*
X148972234Y-98883412D01*
X149023743Y-98713611D01*
X149023743Y-98713610D01*
X149107388Y-98557123D01*
X149107389Y-98557121D01*
X149136712Y-98521391D01*
X149219956Y-98419956D01*
X149328312Y-98331032D01*
X149357121Y-98307389D01*
X149375020Y-98297822D01*
X149513610Y-98223743D01*
X149586992Y-98201483D01*
X149683412Y-98172234D01*
X149771638Y-98163545D01*
X149815750Y-98159200D01*
X149904250Y-98159200D01*
X149948362Y-98163545D01*
X149948362Y-98163545D01*
G37*
G36*
X127088362Y-98163545D02*
X127176588Y-98172234D01*
X127273008Y-98201483D01*
X127346390Y-98223743D01*
X127484980Y-98297822D01*
X127502879Y-98307389D01*
X127531688Y-98331032D01*
X127640044Y-98419956D01*
X127723288Y-98521391D01*
X127752611Y-98557121D01*
X127752612Y-98557123D01*
X127836257Y-98713610D01*
X127836257Y-98713611D01*
X127887766Y-98883412D01*
X127905158Y-99060000D01*
X127887766Y-99236588D01*
X127853427Y-99349789D01*
X127836257Y-99406390D01*
X127777222Y-99516835D01*
X127752611Y-99562879D01*
X127723288Y-99598609D01*
X127640044Y-99700044D01*
X127538609Y-99783288D01*
X127502879Y-99812611D01*
X127502877Y-99812612D01*
X127346390Y-99896257D01*
X127289789Y-99913427D01*
X127176588Y-99947766D01*
X127088362Y-99956455D01*
X127044250Y-99960800D01*
X126955750Y-99960800D01*
X126911638Y-99956455D01*
X126823412Y-99947766D01*
X126710211Y-99913427D01*
X126653610Y-99896257D01*
X126497123Y-99812612D01*
X126497121Y-99812611D01*
X126461391Y-99783288D01*
X126359956Y-99700044D01*
X126276712Y-99598609D01*
X126247389Y-99562879D01*
X126222778Y-99516835D01*
X126163743Y-99406390D01*
X126146573Y-99349789D01*
X126112234Y-99236588D01*
X126094842Y-99060000D01*
X126112234Y-98883412D01*
X126163743Y-98713611D01*
X126163743Y-98713610D01*
X126247388Y-98557123D01*
X126247389Y-98557121D01*
X126276712Y-98521391D01*
X126359956Y-98419956D01*
X126468312Y-98331032D01*
X126497121Y-98307389D01*
X126515020Y-98297822D01*
X126653610Y-98223743D01*
X126726992Y-98201483D01*
X126823412Y-98172234D01*
X126911638Y-98163545D01*
X126955750Y-98159200D01*
X127044250Y-98159200D01*
X127088362Y-98163545D01*
X127088362Y-98163545D01*
G37*
G36*
X142406787Y-97967510D02*
X142567160Y-98016160D01*
X142567162Y-98016161D01*
X142714966Y-98095163D01*
X142844517Y-98201483D01*
X142950837Y-98331034D01*
X143029839Y-98478838D01*
X143029840Y-98478840D01*
X143078490Y-98639213D01*
X143094916Y-98806000D01*
X143078490Y-98972787D01*
X143052033Y-99060000D01*
X143029839Y-99133162D01*
X142950837Y-99280966D01*
X142844517Y-99410517D01*
X142714966Y-99516837D01*
X142567162Y-99595839D01*
X142567160Y-99595840D01*
X142406787Y-99644490D01*
X142281794Y-99656800D01*
X142198206Y-99656800D01*
X142073213Y-99644490D01*
X141912840Y-99595840D01*
X141912838Y-99595839D01*
X141765034Y-99516837D01*
X141635483Y-99410517D01*
X141529163Y-99280966D01*
X141450161Y-99133162D01*
X141427967Y-99060000D01*
X141401510Y-98972787D01*
X141385084Y-98806000D01*
X141401510Y-98639213D01*
X141450160Y-98478840D01*
X141450161Y-98478838D01*
X141529163Y-98331034D01*
X141635483Y-98201483D01*
X141765034Y-98095163D01*
X141912838Y-98016161D01*
X141912840Y-98016160D01*
X142073213Y-97967510D01*
X142198206Y-97955200D01*
X142281794Y-97955200D01*
X142406787Y-97967510D01*
X142406787Y-97967510D01*
G37*
G36*
X134786787Y-97967510D02*
X134947160Y-98016160D01*
X134947162Y-98016161D01*
X135094966Y-98095163D01*
X135224517Y-98201483D01*
X135330837Y-98331034D01*
X135409839Y-98478838D01*
X135409840Y-98478840D01*
X135458490Y-98639213D01*
X135474916Y-98806000D01*
X135458490Y-98972787D01*
X135432033Y-99060000D01*
X135409839Y-99133162D01*
X135330837Y-99280966D01*
X135224517Y-99410517D01*
X135094966Y-99516837D01*
X134947162Y-99595839D01*
X134947160Y-99595840D01*
X134786787Y-99644490D01*
X134661794Y-99656800D01*
X134578206Y-99656800D01*
X134453213Y-99644490D01*
X134292840Y-99595840D01*
X134292838Y-99595839D01*
X134145034Y-99516837D01*
X134015483Y-99410517D01*
X133909163Y-99280966D01*
X133830161Y-99133162D01*
X133807967Y-99060000D01*
X133781510Y-98972787D01*
X133765084Y-98806000D01*
X133781510Y-98639213D01*
X133830160Y-98478840D01*
X133830161Y-98478838D01*
X133909163Y-98331034D01*
X134015483Y-98201483D01*
X134145034Y-98095163D01*
X134292838Y-98016161D01*
X134292840Y-98016160D01*
X134453213Y-97967510D01*
X134578206Y-97955200D01*
X134661794Y-97955200D01*
X134786787Y-97967510D01*
X134786787Y-97967510D01*
G37*
G36*
X127088362Y-95623545D02*
X127176588Y-95632234D01*
X127273008Y-95661483D01*
X127346390Y-95683743D01*
X127484980Y-95757822D01*
X127502879Y-95767389D01*
X127531688Y-95791032D01*
X127640044Y-95879956D01*
X127723288Y-95981391D01*
X127752611Y-96017121D01*
X127752612Y-96017123D01*
X127836257Y-96173610D01*
X127836257Y-96173611D01*
X127887766Y-96343412D01*
X127905158Y-96520000D01*
X127887766Y-96696588D01*
X127874304Y-96740966D01*
X127836257Y-96866390D01*
X127834051Y-96870517D01*
X127752611Y-97022879D01*
X127723288Y-97058609D01*
X127640044Y-97160044D01*
X127538609Y-97243288D01*
X127502879Y-97272611D01*
X127502877Y-97272612D01*
X127346390Y-97356257D01*
X127289789Y-97373427D01*
X127176588Y-97407766D01*
X127088362Y-97416455D01*
X127044250Y-97420800D01*
X126955750Y-97420800D01*
X126911638Y-97416455D01*
X126823412Y-97407766D01*
X126710211Y-97373427D01*
X126653610Y-97356257D01*
X126497123Y-97272612D01*
X126497121Y-97272611D01*
X126461391Y-97243288D01*
X126359956Y-97160044D01*
X126276712Y-97058609D01*
X126247389Y-97022879D01*
X126165949Y-96870517D01*
X126163743Y-96866390D01*
X126125696Y-96740966D01*
X126112234Y-96696588D01*
X126094842Y-96520000D01*
X126112234Y-96343412D01*
X126163743Y-96173611D01*
X126163743Y-96173610D01*
X126247388Y-96017123D01*
X126247389Y-96017121D01*
X126276712Y-95981391D01*
X126359956Y-95879956D01*
X126468312Y-95791032D01*
X126497121Y-95767389D01*
X126515020Y-95757822D01*
X126653610Y-95683743D01*
X126726992Y-95661483D01*
X126823412Y-95632234D01*
X126911638Y-95623545D01*
X126955750Y-95619200D01*
X127044250Y-95619200D01*
X127088362Y-95623545D01*
X127088362Y-95623545D01*
G37*
G36*
X149948362Y-95623545D02*
X150036588Y-95632234D01*
X150133008Y-95661483D01*
X150206390Y-95683743D01*
X150344980Y-95757822D01*
X150362879Y-95767389D01*
X150391688Y-95791032D01*
X150500044Y-95879956D01*
X150583288Y-95981391D01*
X150612611Y-96017121D01*
X150612612Y-96017123D01*
X150696257Y-96173610D01*
X150696257Y-96173611D01*
X150747766Y-96343412D01*
X150765158Y-96520000D01*
X150747766Y-96696588D01*
X150734304Y-96740966D01*
X150696257Y-96866390D01*
X150694051Y-96870517D01*
X150612611Y-97022879D01*
X150583288Y-97058609D01*
X150500044Y-97160044D01*
X150398609Y-97243288D01*
X150362879Y-97272611D01*
X150362877Y-97272612D01*
X150206390Y-97356257D01*
X150149789Y-97373427D01*
X150036588Y-97407766D01*
X149948362Y-97416455D01*
X149904250Y-97420800D01*
X149815750Y-97420800D01*
X149771638Y-97416455D01*
X149683412Y-97407766D01*
X149570211Y-97373427D01*
X149513610Y-97356257D01*
X149357123Y-97272612D01*
X149357121Y-97272611D01*
X149321391Y-97243288D01*
X149219956Y-97160044D01*
X149136712Y-97058609D01*
X149107389Y-97022879D01*
X149025949Y-96870517D01*
X149023743Y-96866390D01*
X148985696Y-96740966D01*
X148972234Y-96696588D01*
X148954842Y-96520000D01*
X148972234Y-96343412D01*
X149023743Y-96173611D01*
X149023743Y-96173610D01*
X149107388Y-96017123D01*
X149107389Y-96017121D01*
X149136712Y-95981391D01*
X149219956Y-95879956D01*
X149328312Y-95791032D01*
X149357121Y-95767389D01*
X149375020Y-95757822D01*
X149513610Y-95683743D01*
X149586992Y-95661483D01*
X149683412Y-95632234D01*
X149771638Y-95623545D01*
X149815750Y-95619200D01*
X149904250Y-95619200D01*
X149948362Y-95623545D01*
X149948362Y-95623545D01*
G37*
G36*
X134786787Y-95427510D02*
X134947160Y-95476160D01*
X134947162Y-95476161D01*
X135094966Y-95555163D01*
X135224517Y-95661483D01*
X135330837Y-95791034D01*
X135409839Y-95938838D01*
X135409840Y-95938840D01*
X135458490Y-96099213D01*
X135474916Y-96266000D01*
X135458490Y-96432787D01*
X135432033Y-96520000D01*
X135409839Y-96593162D01*
X135330837Y-96740966D01*
X135224517Y-96870517D01*
X135094966Y-96976837D01*
X134947162Y-97055839D01*
X134947160Y-97055840D01*
X134786787Y-97104490D01*
X134661794Y-97116800D01*
X134578206Y-97116800D01*
X134453213Y-97104490D01*
X134292840Y-97055840D01*
X134292838Y-97055839D01*
X134145034Y-96976837D01*
X134015483Y-96870517D01*
X133909163Y-96740966D01*
X133830161Y-96593162D01*
X133807967Y-96520000D01*
X133781510Y-96432787D01*
X133765084Y-96266000D01*
X133781510Y-96099213D01*
X133830160Y-95938840D01*
X133830161Y-95938838D01*
X133909163Y-95791034D01*
X134015483Y-95661483D01*
X134145034Y-95555163D01*
X134292838Y-95476161D01*
X134292840Y-95476160D01*
X134453213Y-95427510D01*
X134578206Y-95415200D01*
X134661794Y-95415200D01*
X134786787Y-95427510D01*
X134786787Y-95427510D01*
G37*
G36*
X142406787Y-95427510D02*
X142567160Y-95476160D01*
X142567162Y-95476161D01*
X142714966Y-95555163D01*
X142844517Y-95661483D01*
X142950837Y-95791034D01*
X143029839Y-95938838D01*
X143029840Y-95938840D01*
X143078490Y-96099213D01*
X143094916Y-96266000D01*
X143078490Y-96432787D01*
X143052033Y-96520000D01*
X143029839Y-96593162D01*
X142950837Y-96740966D01*
X142844517Y-96870517D01*
X142714966Y-96976837D01*
X142567162Y-97055839D01*
X142567160Y-97055840D01*
X142406787Y-97104490D01*
X142281794Y-97116800D01*
X142198206Y-97116800D01*
X142073213Y-97104490D01*
X141912840Y-97055840D01*
X141912838Y-97055839D01*
X141765034Y-96976837D01*
X141635483Y-96870517D01*
X141529163Y-96740966D01*
X141450161Y-96593162D01*
X141427967Y-96520000D01*
X141401510Y-96432787D01*
X141385084Y-96266000D01*
X141401510Y-96099213D01*
X141450160Y-95938840D01*
X141450161Y-95938838D01*
X141529163Y-95791034D01*
X141635483Y-95661483D01*
X141765034Y-95555163D01*
X141912838Y-95476161D01*
X141912840Y-95476160D01*
X142073213Y-95427510D01*
X142198206Y-95415200D01*
X142281794Y-95415200D01*
X142406787Y-95427510D01*
X142406787Y-95427510D01*
G37*
G36*
X149948362Y-93083545D02*
X150036588Y-93092234D01*
X150133008Y-93121483D01*
X150206390Y-93143743D01*
X150344980Y-93217822D01*
X150362879Y-93227389D01*
X150391688Y-93251032D01*
X150500044Y-93339956D01*
X150583288Y-93441391D01*
X150612611Y-93477121D01*
X150612612Y-93477123D01*
X150696257Y-93633610D01*
X150696257Y-93633611D01*
X150747766Y-93803412D01*
X150765158Y-93980000D01*
X150747766Y-94156588D01*
X150734304Y-94200966D01*
X150696257Y-94326390D01*
X150694051Y-94330517D01*
X150612611Y-94482879D01*
X150583288Y-94518609D01*
X150500044Y-94620044D01*
X150398609Y-94703288D01*
X150362879Y-94732611D01*
X150362877Y-94732612D01*
X150206390Y-94816257D01*
X150149789Y-94833427D01*
X150036588Y-94867766D01*
X149948362Y-94876455D01*
X149904250Y-94880800D01*
X149815750Y-94880800D01*
X149771638Y-94876455D01*
X149683412Y-94867766D01*
X149570211Y-94833427D01*
X149513610Y-94816257D01*
X149357123Y-94732612D01*
X149357121Y-94732611D01*
X149321391Y-94703288D01*
X149219956Y-94620044D01*
X149136712Y-94518609D01*
X149107389Y-94482879D01*
X149025949Y-94330517D01*
X149023743Y-94326390D01*
X148985696Y-94200966D01*
X148972234Y-94156588D01*
X148954842Y-93980000D01*
X148972234Y-93803412D01*
X149023743Y-93633611D01*
X149023743Y-93633610D01*
X149107388Y-93477123D01*
X149107389Y-93477121D01*
X149136712Y-93441391D01*
X149219956Y-93339956D01*
X149328312Y-93251032D01*
X149357121Y-93227389D01*
X149375020Y-93217822D01*
X149513610Y-93143743D01*
X149586992Y-93121483D01*
X149683412Y-93092234D01*
X149771638Y-93083545D01*
X149815750Y-93079200D01*
X149904250Y-93079200D01*
X149948362Y-93083545D01*
X149948362Y-93083545D01*
G37*
G36*
X127088362Y-93083545D02*
X127176588Y-93092234D01*
X127273008Y-93121483D01*
X127346390Y-93143743D01*
X127484980Y-93217822D01*
X127502879Y-93227389D01*
X127531688Y-93251032D01*
X127640044Y-93339956D01*
X127723288Y-93441391D01*
X127752611Y-93477121D01*
X127752612Y-93477123D01*
X127836257Y-93633610D01*
X127836257Y-93633611D01*
X127887766Y-93803412D01*
X127905158Y-93980000D01*
X127887766Y-94156588D01*
X127874304Y-94200966D01*
X127836257Y-94326390D01*
X127834051Y-94330517D01*
X127752611Y-94482879D01*
X127723288Y-94518609D01*
X127640044Y-94620044D01*
X127538609Y-94703288D01*
X127502879Y-94732611D01*
X127502877Y-94732612D01*
X127346390Y-94816257D01*
X127289789Y-94833427D01*
X127176588Y-94867766D01*
X127088362Y-94876455D01*
X127044250Y-94880800D01*
X126955750Y-94880800D01*
X126911638Y-94876455D01*
X126823412Y-94867766D01*
X126710211Y-94833427D01*
X126653610Y-94816257D01*
X126497123Y-94732612D01*
X126497121Y-94732611D01*
X126461391Y-94703288D01*
X126359956Y-94620044D01*
X126276712Y-94518609D01*
X126247389Y-94482879D01*
X126165949Y-94330517D01*
X126163743Y-94326390D01*
X126125696Y-94200966D01*
X126112234Y-94156588D01*
X126094842Y-93980000D01*
X126112234Y-93803412D01*
X126163743Y-93633611D01*
X126163743Y-93633610D01*
X126247388Y-93477123D01*
X126247389Y-93477121D01*
X126276712Y-93441391D01*
X126359956Y-93339956D01*
X126468312Y-93251032D01*
X126497121Y-93227389D01*
X126515020Y-93217822D01*
X126653610Y-93143743D01*
X126726992Y-93121483D01*
X126823412Y-93092234D01*
X126911638Y-93083545D01*
X126955750Y-93079200D01*
X127044250Y-93079200D01*
X127088362Y-93083545D01*
X127088362Y-93083545D01*
G37*
G36*
X142406787Y-92887510D02*
X142567160Y-92936160D01*
X142567162Y-92936161D01*
X142714966Y-93015163D01*
X142844517Y-93121483D01*
X142950837Y-93251034D01*
X143029839Y-93398838D01*
X143029840Y-93398840D01*
X143078490Y-93559213D01*
X143094916Y-93726000D01*
X143078490Y-93892787D01*
X143052033Y-93980000D01*
X143029839Y-94053162D01*
X142950837Y-94200966D01*
X142844517Y-94330517D01*
X142714966Y-94436837D01*
X142567162Y-94515839D01*
X142567160Y-94515840D01*
X142406787Y-94564490D01*
X142281794Y-94576800D01*
X142198206Y-94576800D01*
X142073213Y-94564490D01*
X141912840Y-94515840D01*
X141912838Y-94515839D01*
X141765034Y-94436837D01*
X141635483Y-94330517D01*
X141529163Y-94200966D01*
X141450161Y-94053162D01*
X141427967Y-93980000D01*
X141401510Y-93892787D01*
X141385084Y-93726000D01*
X141401510Y-93559213D01*
X141450160Y-93398840D01*
X141450161Y-93398838D01*
X141529163Y-93251034D01*
X141635483Y-93121483D01*
X141765034Y-93015163D01*
X141912838Y-92936161D01*
X141912840Y-92936160D01*
X142073213Y-92887510D01*
X142198206Y-92875200D01*
X142281794Y-92875200D01*
X142406787Y-92887510D01*
X142406787Y-92887510D01*
G37*
G36*
X134786787Y-92887510D02*
X134947160Y-92936160D01*
X134947162Y-92936161D01*
X135094966Y-93015163D01*
X135224517Y-93121483D01*
X135330837Y-93251034D01*
X135409839Y-93398838D01*
X135409840Y-93398840D01*
X135458490Y-93559213D01*
X135474916Y-93726000D01*
X135458490Y-93892787D01*
X135432033Y-93980000D01*
X135409839Y-94053162D01*
X135330837Y-94200966D01*
X135224517Y-94330517D01*
X135094966Y-94436837D01*
X134947162Y-94515839D01*
X134947160Y-94515840D01*
X134786787Y-94564490D01*
X134661794Y-94576800D01*
X134578206Y-94576800D01*
X134453213Y-94564490D01*
X134292840Y-94515840D01*
X134292838Y-94515839D01*
X134145034Y-94436837D01*
X134015483Y-94330517D01*
X133909163Y-94200966D01*
X133830161Y-94053162D01*
X133807967Y-93980000D01*
X133781510Y-93892787D01*
X133765084Y-93726000D01*
X133781510Y-93559213D01*
X133830160Y-93398840D01*
X133830161Y-93398838D01*
X133909163Y-93251034D01*
X134015483Y-93121483D01*
X134145034Y-93015163D01*
X134292838Y-92936161D01*
X134292840Y-92936160D01*
X134453213Y-92887510D01*
X134578206Y-92875200D01*
X134661794Y-92875200D01*
X134786787Y-92887510D01*
X134786787Y-92887510D01*
G37*
G36*
X149948362Y-90543545D02*
X150036588Y-90552234D01*
X150133008Y-90581483D01*
X150206390Y-90603743D01*
X150344980Y-90677822D01*
X150362879Y-90687389D01*
X150391688Y-90711032D01*
X150500044Y-90799956D01*
X150583288Y-90901391D01*
X150612611Y-90937121D01*
X150612612Y-90937123D01*
X150696257Y-91093610D01*
X150696257Y-91093611D01*
X150747766Y-91263412D01*
X150765158Y-91440000D01*
X150747766Y-91616588D01*
X150734304Y-91660966D01*
X150696257Y-91786390D01*
X150694051Y-91790517D01*
X150612611Y-91942879D01*
X150583288Y-91978609D01*
X150500044Y-92080044D01*
X150398609Y-92163288D01*
X150362879Y-92192611D01*
X150362877Y-92192612D01*
X150206390Y-92276257D01*
X150149789Y-92293427D01*
X150036588Y-92327766D01*
X149948362Y-92336455D01*
X149904250Y-92340800D01*
X149815750Y-92340800D01*
X149771638Y-92336455D01*
X149683412Y-92327766D01*
X149570211Y-92293427D01*
X149513610Y-92276257D01*
X149357123Y-92192612D01*
X149357121Y-92192611D01*
X149321391Y-92163288D01*
X149219956Y-92080044D01*
X149136712Y-91978609D01*
X149107389Y-91942879D01*
X149025949Y-91790517D01*
X149023743Y-91786390D01*
X148985696Y-91660966D01*
X148972234Y-91616588D01*
X148954842Y-91440000D01*
X148972234Y-91263412D01*
X149023743Y-91093611D01*
X149023743Y-91093610D01*
X149107388Y-90937123D01*
X149107389Y-90937121D01*
X149136712Y-90901391D01*
X149219956Y-90799956D01*
X149328312Y-90711032D01*
X149357121Y-90687389D01*
X149375020Y-90677822D01*
X149513610Y-90603743D01*
X149586992Y-90581483D01*
X149683412Y-90552234D01*
X149771638Y-90543545D01*
X149815750Y-90539200D01*
X149904250Y-90539200D01*
X149948362Y-90543545D01*
X149948362Y-90543545D01*
G37*
G36*
X127088362Y-90543545D02*
X127176588Y-90552234D01*
X127273008Y-90581483D01*
X127346390Y-90603743D01*
X127484980Y-90677822D01*
X127502879Y-90687389D01*
X127531688Y-90711032D01*
X127640044Y-90799956D01*
X127723288Y-90901391D01*
X127752611Y-90937121D01*
X127752612Y-90937123D01*
X127836257Y-91093610D01*
X127836257Y-91093611D01*
X127887766Y-91263412D01*
X127905158Y-91440000D01*
X127887766Y-91616588D01*
X127874304Y-91660966D01*
X127836257Y-91786390D01*
X127834051Y-91790517D01*
X127752611Y-91942879D01*
X127723288Y-91978609D01*
X127640044Y-92080044D01*
X127538609Y-92163288D01*
X127502879Y-92192611D01*
X127502877Y-92192612D01*
X127346390Y-92276257D01*
X127289789Y-92293427D01*
X127176588Y-92327766D01*
X127088362Y-92336455D01*
X127044250Y-92340800D01*
X126955750Y-92340800D01*
X126911638Y-92336455D01*
X126823412Y-92327766D01*
X126710211Y-92293427D01*
X126653610Y-92276257D01*
X126497123Y-92192612D01*
X126497121Y-92192611D01*
X126461391Y-92163288D01*
X126359956Y-92080044D01*
X126276712Y-91978609D01*
X126247389Y-91942879D01*
X126165949Y-91790517D01*
X126163743Y-91786390D01*
X126125696Y-91660966D01*
X126112234Y-91616588D01*
X126094842Y-91440000D01*
X126112234Y-91263412D01*
X126163743Y-91093611D01*
X126163743Y-91093610D01*
X126247388Y-90937123D01*
X126247389Y-90937121D01*
X126276712Y-90901391D01*
X126359956Y-90799956D01*
X126468312Y-90711032D01*
X126497121Y-90687389D01*
X126515020Y-90677822D01*
X126653610Y-90603743D01*
X126726992Y-90581483D01*
X126823412Y-90552234D01*
X126911638Y-90543545D01*
X126955750Y-90539200D01*
X127044250Y-90539200D01*
X127088362Y-90543545D01*
X127088362Y-90543545D01*
G37*
G36*
X142406787Y-90347510D02*
X142567160Y-90396160D01*
X142567162Y-90396161D01*
X142714966Y-90475163D01*
X142844517Y-90581483D01*
X142950837Y-90711034D01*
X143029839Y-90858838D01*
X143029840Y-90858840D01*
X143078490Y-91019213D01*
X143094916Y-91186000D01*
X143078490Y-91352787D01*
X143052033Y-91440000D01*
X143029839Y-91513162D01*
X142950837Y-91660966D01*
X142844517Y-91790517D01*
X142714966Y-91896837D01*
X142567162Y-91975839D01*
X142567160Y-91975840D01*
X142406787Y-92024490D01*
X142281794Y-92036800D01*
X142198206Y-92036800D01*
X142073213Y-92024490D01*
X141912840Y-91975840D01*
X141912838Y-91975839D01*
X141765034Y-91896837D01*
X141635483Y-91790517D01*
X141529163Y-91660966D01*
X141450161Y-91513162D01*
X141427967Y-91440000D01*
X141401510Y-91352787D01*
X141385084Y-91186000D01*
X141401510Y-91019213D01*
X141450160Y-90858840D01*
X141450161Y-90858838D01*
X141529163Y-90711034D01*
X141635483Y-90581483D01*
X141765034Y-90475163D01*
X141912838Y-90396161D01*
X141912840Y-90396160D01*
X142073213Y-90347510D01*
X142198206Y-90335200D01*
X142281794Y-90335200D01*
X142406787Y-90347510D01*
X142406787Y-90347510D01*
G37*
G36*
X134786787Y-90347510D02*
X134947160Y-90396160D01*
X134947162Y-90396161D01*
X135094966Y-90475163D01*
X135224517Y-90581483D01*
X135330837Y-90711034D01*
X135409839Y-90858838D01*
X135409840Y-90858840D01*
X135458490Y-91019213D01*
X135474916Y-91186000D01*
X135458490Y-91352787D01*
X135432033Y-91440000D01*
X135409839Y-91513162D01*
X135330837Y-91660966D01*
X135224517Y-91790517D01*
X135094966Y-91896837D01*
X134947162Y-91975839D01*
X134947160Y-91975840D01*
X134786787Y-92024490D01*
X134661794Y-92036800D01*
X134578206Y-92036800D01*
X134453213Y-92024490D01*
X134292840Y-91975840D01*
X134292838Y-91975839D01*
X134145034Y-91896837D01*
X134015483Y-91790517D01*
X133909163Y-91660966D01*
X133830161Y-91513162D01*
X133807967Y-91440000D01*
X133781510Y-91352787D01*
X133765084Y-91186000D01*
X133781510Y-91019213D01*
X133830160Y-90858840D01*
X133830161Y-90858838D01*
X133909163Y-90711034D01*
X134015483Y-90581483D01*
X134145034Y-90475163D01*
X134292838Y-90396161D01*
X134292840Y-90396160D01*
X134453213Y-90347510D01*
X134578206Y-90335200D01*
X134661794Y-90335200D01*
X134786787Y-90347510D01*
X134786787Y-90347510D01*
G37*
G36*
X150760800Y-89800800D02*
X148959200Y-89800800D01*
X148959200Y-87999200D01*
X150760800Y-87999200D01*
X150760800Y-89800800D01*
X150760800Y-89800800D01*
G37*
G36*
X127900800Y-89800800D02*
X126099200Y-89800800D01*
X126099200Y-87999200D01*
X127900800Y-87999200D01*
X127900800Y-89800800D01*
X127900800Y-89800800D01*
G37*
G36*
X135470800Y-89496800D02*
X133769200Y-89496800D01*
X133769200Y-87795200D01*
X135470800Y-87795200D01*
X135470800Y-89496800D01*
X135470800Y-89496800D01*
G37*
G36*
X142406787Y-87807510D02*
X142567160Y-87856160D01*
X142567162Y-87856161D01*
X142714966Y-87935163D01*
X142844517Y-88041483D01*
X142950837Y-88171034D01*
X143029839Y-88318838D01*
X143029840Y-88318840D01*
X143078490Y-88479213D01*
X143094916Y-88646000D01*
X143078490Y-88812787D01*
X143029840Y-88973160D01*
X143029839Y-88973162D01*
X142950837Y-89120966D01*
X142844517Y-89250517D01*
X142714966Y-89356837D01*
X142567162Y-89435839D01*
X142567160Y-89435840D01*
X142406787Y-89484490D01*
X142281794Y-89496800D01*
X142198206Y-89496800D01*
X142073213Y-89484490D01*
X141912840Y-89435840D01*
X141912838Y-89435839D01*
X141765034Y-89356837D01*
X141635483Y-89250517D01*
X141529163Y-89120966D01*
X141450161Y-88973162D01*
X141450160Y-88973160D01*
X141401510Y-88812787D01*
X141385084Y-88646000D01*
X141401510Y-88479213D01*
X141450160Y-88318840D01*
X141450161Y-88318838D01*
X141529163Y-88171034D01*
X141635483Y-88041483D01*
X141765034Y-87935163D01*
X141912838Y-87856161D01*
X141912840Y-87856160D01*
X142073213Y-87807510D01*
X142198206Y-87795200D01*
X142281794Y-87795200D01*
X142406787Y-87807510D01*
X142406787Y-87807510D01*
G37*
G36*
X145454787Y-86791510D02*
X145615160Y-86840160D01*
X145615162Y-86840161D01*
X145762966Y-86919163D01*
X145892517Y-87025483D01*
X145998837Y-87155034D01*
X146077839Y-87302838D01*
X146077840Y-87302840D01*
X146126490Y-87463213D01*
X146142916Y-87630000D01*
X146126490Y-87796787D01*
X146084512Y-87935165D01*
X146077839Y-87957162D01*
X145998837Y-88104966D01*
X145892517Y-88234517D01*
X145762966Y-88340837D01*
X145615162Y-88419839D01*
X145615160Y-88419840D01*
X145454787Y-88468490D01*
X145329794Y-88480800D01*
X145246206Y-88480800D01*
X145121213Y-88468490D01*
X144960840Y-88419840D01*
X144960838Y-88419839D01*
X144813034Y-88340837D01*
X144683483Y-88234517D01*
X144577163Y-88104966D01*
X144498161Y-87957162D01*
X144491488Y-87935165D01*
X144449510Y-87796787D01*
X144433084Y-87630000D01*
X144449510Y-87463213D01*
X144498160Y-87302840D01*
X144498161Y-87302838D01*
X144577163Y-87155034D01*
X144683483Y-87025483D01*
X144813034Y-86919163D01*
X144960838Y-86840161D01*
X144960840Y-86840160D01*
X145121213Y-86791510D01*
X145246206Y-86779200D01*
X145329794Y-86779200D01*
X145454787Y-86791510D01*
X145454787Y-86791510D01*
G37*
G36*
X128690787Y-84505510D02*
X128851160Y-84554160D01*
X128851162Y-84554161D01*
X128998966Y-84633163D01*
X129128517Y-84739483D01*
X129234837Y-84869034D01*
X129313839Y-85016838D01*
X129313840Y-85016840D01*
X129362490Y-85177213D01*
X129378916Y-85344000D01*
X129362490Y-85510787D01*
X129313840Y-85671160D01*
X129313839Y-85671162D01*
X129234837Y-85818966D01*
X129128517Y-85948517D01*
X128998966Y-86054837D01*
X128851162Y-86133839D01*
X128851160Y-86133840D01*
X128690787Y-86182490D01*
X128565794Y-86194800D01*
X128482206Y-86194800D01*
X128357213Y-86182490D01*
X128196840Y-86133840D01*
X128196838Y-86133839D01*
X128049034Y-86054837D01*
X127919483Y-85948517D01*
X127813163Y-85818966D01*
X127734161Y-85671162D01*
X127734160Y-85671160D01*
X127685510Y-85510787D01*
X127669084Y-85344000D01*
X127685510Y-85177213D01*
X127734160Y-85016840D01*
X127734161Y-85016838D01*
X127813163Y-84869034D01*
X127919483Y-84739483D01*
X128049034Y-84633163D01*
X128196838Y-84554161D01*
X128196840Y-84554160D01*
X128357213Y-84505510D01*
X128482206Y-84493200D01*
X128565794Y-84493200D01*
X128690787Y-84505510D01*
X128690787Y-84505510D01*
G37*
G36*
X131992787Y-84505510D02*
X132153160Y-84554160D01*
X132153162Y-84554161D01*
X132300966Y-84633163D01*
X132430517Y-84739483D01*
X132536837Y-84869034D01*
X132615839Y-85016838D01*
X132615840Y-85016840D01*
X132664490Y-85177213D01*
X132680916Y-85344000D01*
X132664490Y-85510787D01*
X132615840Y-85671160D01*
X132615839Y-85671162D01*
X132536837Y-85818966D01*
X132430517Y-85948517D01*
X132300966Y-86054837D01*
X132153162Y-86133839D01*
X132153160Y-86133840D01*
X131992787Y-86182490D01*
X131867794Y-86194800D01*
X131784206Y-86194800D01*
X131659213Y-86182490D01*
X131498840Y-86133840D01*
X131498838Y-86133839D01*
X131351034Y-86054837D01*
X131221483Y-85948517D01*
X131115163Y-85818966D01*
X131036161Y-85671162D01*
X131036160Y-85671160D01*
X130987510Y-85510787D01*
X130971084Y-85344000D01*
X130987510Y-85177213D01*
X131036160Y-85016840D01*
X131036161Y-85016838D01*
X131115163Y-84869034D01*
X131221483Y-84739483D01*
X131351034Y-84633163D01*
X131498838Y-84554161D01*
X131498840Y-84554160D01*
X131659213Y-84505510D01*
X131784206Y-84493200D01*
X131867794Y-84493200D01*
X131992787Y-84505510D01*
X131992787Y-84505510D01*
G37*
G36*
X142038507Y-83825582D02*
X142229740Y-83904793D01*
X142367117Y-83996586D01*
X142401849Y-84019793D01*
X142548207Y-84166151D01*
X142548209Y-84166154D01*
X142663207Y-84338260D01*
X142742418Y-84529493D01*
X142782800Y-84732505D01*
X142782800Y-84939495D01*
X142742418Y-85142507D01*
X142663207Y-85333740D01*
X142656351Y-85344000D01*
X142548207Y-85505849D01*
X142401849Y-85652207D01*
X142401846Y-85652209D01*
X142229740Y-85767207D01*
X142038507Y-85846418D01*
X141835495Y-85886800D01*
X141628505Y-85886800D01*
X141425493Y-85846418D01*
X141234260Y-85767207D01*
X141062154Y-85652209D01*
X141062151Y-85652207D01*
X140915793Y-85505849D01*
X140807649Y-85344000D01*
X140800793Y-85333740D01*
X140721582Y-85142507D01*
X140681200Y-84939495D01*
X140681200Y-84732505D01*
X140721582Y-84529493D01*
X140800793Y-84338260D01*
X140915791Y-84166154D01*
X140915793Y-84166151D01*
X141062151Y-84019793D01*
X141096883Y-83996586D01*
X141234260Y-83904793D01*
X141425493Y-83825582D01*
X141628505Y-83785200D01*
X141835495Y-83785200D01*
X142038507Y-83825582D01*
X142038507Y-83825582D01*
G37*
G36*
X135538507Y-83825582D02*
X135729740Y-83904793D01*
X135867117Y-83996586D01*
X135901849Y-84019793D01*
X136048207Y-84166151D01*
X136048209Y-84166154D01*
X136163207Y-84338260D01*
X136242418Y-84529493D01*
X136282800Y-84732505D01*
X136282800Y-84939495D01*
X136242418Y-85142507D01*
X136163207Y-85333740D01*
X136156351Y-85344000D01*
X136048207Y-85505849D01*
X135901849Y-85652207D01*
X135901846Y-85652209D01*
X135729740Y-85767207D01*
X135538507Y-85846418D01*
X135335495Y-85886800D01*
X135128505Y-85886800D01*
X134925493Y-85846418D01*
X134734260Y-85767207D01*
X134562154Y-85652209D01*
X134562151Y-85652207D01*
X134415793Y-85505849D01*
X134307649Y-85344000D01*
X134300793Y-85333740D01*
X134221582Y-85142507D01*
X134181200Y-84939495D01*
X134181200Y-84732505D01*
X134221582Y-84529493D01*
X134300793Y-84338260D01*
X134415791Y-84166154D01*
X134415793Y-84166151D01*
X134562151Y-84019793D01*
X134596883Y-83996586D01*
X134734260Y-83904793D01*
X134925493Y-83825582D01*
X135128505Y-83785200D01*
X135335495Y-83785200D01*
X135538507Y-83825582D01*
X135538507Y-83825582D01*
G37*
G36*
X149948362Y-82923545D02*
X150036588Y-82932234D01*
X150149789Y-82966573D01*
X150206390Y-82983743D01*
X150344980Y-83057822D01*
X150362879Y-83067389D01*
X150398609Y-83096712D01*
X150500044Y-83179956D01*
X150583288Y-83281391D01*
X150612611Y-83317121D01*
X150612612Y-83317123D01*
X150696257Y-83473610D01*
X150696257Y-83473611D01*
X150747766Y-83643412D01*
X150765158Y-83820000D01*
X150747766Y-83996588D01*
X150713427Y-84109789D01*
X150696257Y-84166390D01*
X150622178Y-84304980D01*
X150612611Y-84322879D01*
X150599988Y-84338260D01*
X150500044Y-84460044D01*
X150398609Y-84543288D01*
X150362879Y-84572611D01*
X150362877Y-84572612D01*
X150206390Y-84656257D01*
X150149789Y-84673427D01*
X150036588Y-84707766D01*
X149948362Y-84716455D01*
X149904250Y-84720800D01*
X149815750Y-84720800D01*
X149771638Y-84716455D01*
X149683412Y-84707766D01*
X149570211Y-84673427D01*
X149513610Y-84656257D01*
X149357123Y-84572612D01*
X149357121Y-84572611D01*
X149321391Y-84543288D01*
X149219956Y-84460044D01*
X149120012Y-84338260D01*
X149107389Y-84322879D01*
X149097822Y-84304980D01*
X149023743Y-84166390D01*
X149006573Y-84109789D01*
X148972234Y-83996588D01*
X148954842Y-83820000D01*
X148972234Y-83643412D01*
X149023743Y-83473611D01*
X149023743Y-83473610D01*
X149107388Y-83317123D01*
X149107389Y-83317121D01*
X149136712Y-83281391D01*
X149219956Y-83179956D01*
X149321391Y-83096712D01*
X149357121Y-83067389D01*
X149375020Y-83057822D01*
X149513610Y-82983743D01*
X149570211Y-82966573D01*
X149683412Y-82932234D01*
X149771638Y-82923545D01*
X149815750Y-82919200D01*
X149904250Y-82919200D01*
X149948362Y-82923545D01*
X149948362Y-82923545D01*
G37*
G36*
X149948362Y-80383545D02*
X150036588Y-80392234D01*
X150149789Y-80426573D01*
X150206390Y-80443743D01*
X150344980Y-80517822D01*
X150362879Y-80527389D01*
X150393299Y-80552354D01*
X150500044Y-80639956D01*
X150583288Y-80741391D01*
X150612611Y-80777121D01*
X150612612Y-80777123D01*
X150696257Y-80933610D01*
X150696257Y-80933611D01*
X150747766Y-81103412D01*
X150765158Y-81280000D01*
X150747766Y-81456588D01*
X150713427Y-81569789D01*
X150696257Y-81626390D01*
X150622178Y-81764980D01*
X150612611Y-81782879D01*
X150583288Y-81818609D01*
X150500044Y-81920044D01*
X150398609Y-82003288D01*
X150362879Y-82032611D01*
X150362877Y-82032612D01*
X150206390Y-82116257D01*
X150149789Y-82133427D01*
X150036588Y-82167766D01*
X149948362Y-82176455D01*
X149904250Y-82180800D01*
X149815750Y-82180800D01*
X149771638Y-82176455D01*
X149683412Y-82167766D01*
X149570211Y-82133427D01*
X149513610Y-82116257D01*
X149357123Y-82032612D01*
X149357121Y-82032611D01*
X149321391Y-82003288D01*
X149219956Y-81920044D01*
X149136712Y-81818609D01*
X149107389Y-81782879D01*
X149097822Y-81764980D01*
X149023743Y-81626390D01*
X149006573Y-81569789D01*
X148972234Y-81456588D01*
X148954842Y-81280000D01*
X148972234Y-81103412D01*
X149023743Y-80933611D01*
X149023743Y-80933610D01*
X149107388Y-80777123D01*
X149107389Y-80777121D01*
X149136712Y-80741391D01*
X149219956Y-80639956D01*
X149326701Y-80552354D01*
X149357121Y-80527389D01*
X149375020Y-80517822D01*
X149513610Y-80443743D01*
X149570211Y-80426573D01*
X149683412Y-80392234D01*
X149771638Y-80383545D01*
X149815750Y-80379200D01*
X149904250Y-80379200D01*
X149948362Y-80383545D01*
X149948362Y-80383545D01*
G37*
G36*
X142038507Y-79325582D02*
X142229740Y-79404793D01*
X142361168Y-79492611D01*
X142401849Y-79519793D01*
X142548207Y-79666151D01*
X142548209Y-79666154D01*
X142663207Y-79838260D01*
X142742418Y-80029493D01*
X142782800Y-80232505D01*
X142782800Y-80439495D01*
X142742418Y-80642507D01*
X142663207Y-80833740D01*
X142596475Y-80933611D01*
X142548207Y-81005849D01*
X142401849Y-81152207D01*
X142401846Y-81152209D01*
X142229740Y-81267207D01*
X142038507Y-81346418D01*
X141835495Y-81386800D01*
X141628505Y-81386800D01*
X141425493Y-81346418D01*
X141234260Y-81267207D01*
X141062154Y-81152209D01*
X141062151Y-81152207D01*
X140915793Y-81005849D01*
X140867525Y-80933611D01*
X140800793Y-80833740D01*
X140721582Y-80642507D01*
X140681200Y-80439495D01*
X140681200Y-80232505D01*
X140721582Y-80029493D01*
X140800793Y-79838260D01*
X140915791Y-79666154D01*
X140915793Y-79666151D01*
X141062151Y-79519793D01*
X141102832Y-79492611D01*
X141234260Y-79404793D01*
X141425493Y-79325582D01*
X141628505Y-79285200D01*
X141835495Y-79285200D01*
X142038507Y-79325582D01*
X142038507Y-79325582D01*
G37*
G36*
X135538507Y-79325582D02*
X135729740Y-79404793D01*
X135861168Y-79492611D01*
X135901849Y-79519793D01*
X136048207Y-79666151D01*
X136048209Y-79666154D01*
X136163207Y-79838260D01*
X136242418Y-80029493D01*
X136282800Y-80232505D01*
X136282800Y-80439495D01*
X136242418Y-80642507D01*
X136163207Y-80833740D01*
X136096475Y-80933611D01*
X136048207Y-81005849D01*
X135901849Y-81152207D01*
X135901846Y-81152209D01*
X135729740Y-81267207D01*
X135538507Y-81346418D01*
X135335495Y-81386800D01*
X135128505Y-81386800D01*
X134925493Y-81346418D01*
X134734260Y-81267207D01*
X134562154Y-81152209D01*
X134562151Y-81152207D01*
X134415793Y-81005849D01*
X134367525Y-80933611D01*
X134300793Y-80833740D01*
X134221582Y-80642507D01*
X134181200Y-80439495D01*
X134181200Y-80232505D01*
X134221582Y-80029493D01*
X134300793Y-79838260D01*
X134415791Y-79666154D01*
X134415793Y-79666151D01*
X134562151Y-79519793D01*
X134602832Y-79492611D01*
X134734260Y-79404793D01*
X134925493Y-79325582D01*
X135128505Y-79285200D01*
X135335495Y-79285200D01*
X135538507Y-79325582D01*
X135538507Y-79325582D01*
G37*
G36*
X145536169Y-79191895D02*
X145691005Y-79256031D01*
X145830354Y-79349140D01*
X145948860Y-79467646D01*
X146041969Y-79606995D01*
X146106105Y-79761831D01*
X146138800Y-79926203D01*
X146138800Y-80093797D01*
X146106105Y-80258169D01*
X146041969Y-80413005D01*
X145948860Y-80552354D01*
X145830354Y-80670860D01*
X145691005Y-80763969D01*
X145536169Y-80828105D01*
X145371797Y-80860800D01*
X145204203Y-80860800D01*
X145039831Y-80828105D01*
X144884995Y-80763969D01*
X144745646Y-80670860D01*
X144627140Y-80552354D01*
X144534031Y-80413005D01*
X144469895Y-80258169D01*
X144437200Y-80093797D01*
X144437200Y-79926203D01*
X144469895Y-79761831D01*
X144534031Y-79606995D01*
X144627140Y-79467646D01*
X144745646Y-79349140D01*
X144884995Y-79256031D01*
X145039831Y-79191895D01*
X145204203Y-79159200D01*
X145371797Y-79159200D01*
X145536169Y-79191895D01*
X145536169Y-79191895D01*
G37*
G36*
X149948362Y-77843545D02*
X150036588Y-77852234D01*
X150149789Y-77886573D01*
X150206390Y-77903743D01*
X150275929Y-77940913D01*
X150362879Y-77987389D01*
X150376153Y-77998283D01*
X150500044Y-78099956D01*
X150583288Y-78201391D01*
X150612611Y-78237121D01*
X150612612Y-78237123D01*
X150696257Y-78393610D01*
X150696257Y-78393611D01*
X150747766Y-78563412D01*
X150765158Y-78740000D01*
X150747766Y-78916588D01*
X150713427Y-79029789D01*
X150696257Y-79086390D01*
X150657339Y-79159200D01*
X150612611Y-79242879D01*
X150583288Y-79278609D01*
X150500044Y-79380044D01*
X150398609Y-79463288D01*
X150362879Y-79492611D01*
X150362877Y-79492612D01*
X150206390Y-79576257D01*
X150149789Y-79593427D01*
X150036588Y-79627766D01*
X149948362Y-79636455D01*
X149904250Y-79640800D01*
X149815750Y-79640800D01*
X149771638Y-79636455D01*
X149683412Y-79627766D01*
X149570211Y-79593427D01*
X149513610Y-79576257D01*
X149357123Y-79492612D01*
X149357121Y-79492611D01*
X149321391Y-79463288D01*
X149219956Y-79380044D01*
X149136712Y-79278609D01*
X149107389Y-79242879D01*
X149062661Y-79159200D01*
X149023743Y-79086390D01*
X149006573Y-79029789D01*
X148972234Y-78916588D01*
X148954842Y-78740000D01*
X148972234Y-78563412D01*
X149023743Y-78393611D01*
X149023743Y-78393610D01*
X149107388Y-78237123D01*
X149107389Y-78237121D01*
X149136712Y-78201391D01*
X149219956Y-78099956D01*
X149343847Y-77998283D01*
X149357121Y-77987389D01*
X149444071Y-77940913D01*
X149513610Y-77903743D01*
X149570211Y-77886573D01*
X149683412Y-77852234D01*
X149771638Y-77843545D01*
X149815750Y-77839200D01*
X149904250Y-77839200D01*
X149948362Y-77843545D01*
X149948362Y-77843545D01*
G37*
G36*
X132074169Y-76905895D02*
X132229005Y-76970031D01*
X132368354Y-77063140D01*
X132486860Y-77181646D01*
X132579969Y-77320995D01*
X132644105Y-77475831D01*
X132676800Y-77640203D01*
X132676800Y-77807797D01*
X132644105Y-77972169D01*
X132579969Y-78127005D01*
X132486860Y-78266354D01*
X132368354Y-78384860D01*
X132229005Y-78477969D01*
X132074169Y-78542105D01*
X131909797Y-78574800D01*
X131742203Y-78574800D01*
X131577831Y-78542105D01*
X131422995Y-78477969D01*
X131283646Y-78384860D01*
X131165140Y-78266354D01*
X131072031Y-78127005D01*
X131007895Y-77972169D01*
X130975200Y-77807797D01*
X130975200Y-77640203D01*
X131007895Y-77475831D01*
X131072031Y-77320995D01*
X131165140Y-77181646D01*
X131283646Y-77063140D01*
X131422995Y-76970031D01*
X131577831Y-76905895D01*
X131742203Y-76873200D01*
X131909797Y-76873200D01*
X132074169Y-76905895D01*
X132074169Y-76905895D01*
G37*
G36*
X128772169Y-76905895D02*
X128927005Y-76970031D01*
X129066354Y-77063140D01*
X129184860Y-77181646D01*
X129277969Y-77320995D01*
X129342105Y-77475831D01*
X129374800Y-77640203D01*
X129374800Y-77807797D01*
X129342105Y-77972169D01*
X129277969Y-78127005D01*
X129184860Y-78266354D01*
X129066354Y-78384860D01*
X128927005Y-78477969D01*
X128772169Y-78542105D01*
X128607797Y-78574800D01*
X128440203Y-78574800D01*
X128275831Y-78542105D01*
X128120995Y-78477969D01*
X127981646Y-78384860D01*
X127863140Y-78266354D01*
X127770031Y-78127005D01*
X127705895Y-77972169D01*
X127673200Y-77807797D01*
X127673200Y-77640203D01*
X127705895Y-77475831D01*
X127770031Y-77320995D01*
X127863140Y-77181646D01*
X127981646Y-77063140D01*
X128120995Y-76970031D01*
X128275831Y-76905895D01*
X128440203Y-76873200D01*
X128607797Y-76873200D01*
X128772169Y-76905895D01*
X128772169Y-76905895D01*
G37*
G36*
X144468680Y-75925717D02*
X144594762Y-75963964D01*
X144657804Y-75983087D01*
X144832103Y-76076252D01*
X144984873Y-76201627D01*
X145110248Y-76354398D01*
X145203413Y-76528695D01*
X145222536Y-76591737D01*
X145260783Y-76717819D01*
X145275300Y-76865216D01*
X145275300Y-77058783D01*
X145260783Y-77206180D01*
X145225954Y-77320995D01*
X145203413Y-77395304D01*
X145110248Y-77569603D01*
X144984873Y-77722373D01*
X144832102Y-77847748D01*
X144657805Y-77940913D01*
X144594763Y-77960036D01*
X144468681Y-77998283D01*
X144272000Y-78017654D01*
X144075320Y-77998283D01*
X143949238Y-77960036D01*
X143886196Y-77940913D01*
X143711902Y-77847750D01*
X143711900Y-77847749D01*
X143559127Y-77722373D01*
X143559126Y-77722371D01*
X143559124Y-77722370D01*
X143433752Y-77569602D01*
X143340587Y-77395305D01*
X143318046Y-77320995D01*
X143283217Y-77206181D01*
X143268700Y-77058784D01*
X143268700Y-76865217D01*
X143283217Y-76717820D01*
X143340587Y-76528697D01*
X143340587Y-76528696D01*
X143433752Y-76354397D01*
X143559127Y-76201627D01*
X143711898Y-76076252D01*
X143886195Y-75983087D01*
X143949237Y-75963964D01*
X144075319Y-75925717D01*
X144272000Y-75906346D01*
X144468680Y-75925717D01*
X144468680Y-75925717D01*
G37*
G36*
X141928680Y-75925717D02*
X142054762Y-75963964D01*
X142117804Y-75983087D01*
X142292103Y-76076252D01*
X142444873Y-76201627D01*
X142570248Y-76354398D01*
X142663413Y-76528695D01*
X142682536Y-76591737D01*
X142720783Y-76717819D01*
X142735300Y-76865216D01*
X142735300Y-77058783D01*
X142720783Y-77206180D01*
X142685954Y-77320995D01*
X142663413Y-77395304D01*
X142570248Y-77569603D01*
X142444873Y-77722373D01*
X142292102Y-77847748D01*
X142117805Y-77940913D01*
X142054763Y-77960036D01*
X141928681Y-77998283D01*
X141732000Y-78017654D01*
X141535320Y-77998283D01*
X141409238Y-77960036D01*
X141346196Y-77940913D01*
X141171902Y-77847750D01*
X141171900Y-77847749D01*
X141019127Y-77722373D01*
X141019126Y-77722371D01*
X141019124Y-77722370D01*
X140893752Y-77569602D01*
X140800587Y-77395305D01*
X140778046Y-77320995D01*
X140743217Y-77206181D01*
X140728700Y-77058784D01*
X140728700Y-76865217D01*
X140743217Y-76717820D01*
X140800587Y-76528697D01*
X140800587Y-76528696D01*
X140893752Y-76354397D01*
X141019127Y-76201627D01*
X141171898Y-76076252D01*
X141346195Y-75983087D01*
X141409237Y-75963964D01*
X141535319Y-75925717D01*
X141732000Y-75906346D01*
X141928680Y-75925717D01*
X141928680Y-75925717D01*
G37*
G36*
X140195300Y-78012800D02*
X138188700Y-78012800D01*
X138188700Y-75911200D01*
X140195300Y-75911200D01*
X140195300Y-78012800D01*
X140195300Y-78012800D01*
G37*
G36*
X150760800Y-77100800D02*
X148959200Y-77100800D01*
X148959200Y-75299200D01*
X150760800Y-75299200D01*
X150760800Y-77100800D01*
X150760800Y-77100800D01*
G37*
G36*
X135376169Y-74111895D02*
X135531005Y-74176031D01*
X135670354Y-74269140D01*
X135788860Y-74387646D01*
X135881969Y-74526995D01*
X135946105Y-74681831D01*
X135978800Y-74846203D01*
X135978800Y-75013797D01*
X135946105Y-75178169D01*
X135881969Y-75333005D01*
X135788860Y-75472354D01*
X135670354Y-75590860D01*
X135531005Y-75683969D01*
X135376169Y-75748105D01*
X135211797Y-75780800D01*
X135044203Y-75780800D01*
X134879831Y-75748105D01*
X134724995Y-75683969D01*
X134585646Y-75590860D01*
X134467140Y-75472354D01*
X134374031Y-75333005D01*
X134309895Y-75178169D01*
X134277200Y-75013797D01*
X134277200Y-74846203D01*
X134309895Y-74681831D01*
X134374031Y-74526995D01*
X134467140Y-74387646D01*
X134585646Y-74269140D01*
X134724995Y-74176031D01*
X134879831Y-74111895D01*
X135044203Y-74079200D01*
X135211797Y-74079200D01*
X135376169Y-74111895D01*
X135376169Y-74111895D01*
G37*
G36*
X127674787Y-74091510D02*
X127835160Y-74140160D01*
X127835162Y-74140161D01*
X127982966Y-74219163D01*
X128112517Y-74325483D01*
X128218837Y-74455034D01*
X128297839Y-74602838D01*
X128297840Y-74602840D01*
X128346490Y-74763213D01*
X128362916Y-74930000D01*
X128346490Y-75096787D01*
X128297840Y-75257160D01*
X128297839Y-75257162D01*
X128218837Y-75404966D01*
X128112517Y-75534517D01*
X127982966Y-75640837D01*
X127835162Y-75719839D01*
X127835160Y-75719840D01*
X127674787Y-75768490D01*
X127549794Y-75780800D01*
X127466206Y-75780800D01*
X127341213Y-75768490D01*
X127180840Y-75719840D01*
X127180838Y-75719839D01*
X127033034Y-75640837D01*
X126903483Y-75534517D01*
X126797163Y-75404966D01*
X126718161Y-75257162D01*
X126718160Y-75257160D01*
X126669510Y-75096787D01*
X126653084Y-74930000D01*
X126669510Y-74763213D01*
X126718160Y-74602840D01*
X126718161Y-74602838D01*
X126797163Y-74455034D01*
X126903483Y-74325483D01*
X127033034Y-74219163D01*
X127180838Y-74140161D01*
X127180840Y-74140160D01*
X127341213Y-74091510D01*
X127466206Y-74079200D01*
X127549794Y-74079200D01*
X127674787Y-74091510D01*
X127674787Y-74091510D01*
G37*
G36*
X141928680Y-70591717D02*
X142054762Y-70629964D01*
X142117804Y-70649087D01*
X142292103Y-70742252D01*
X142444873Y-70867627D01*
X142570248Y-71020398D01*
X142663413Y-71194695D01*
X142672604Y-71224995D01*
X142720783Y-71383819D01*
X142735300Y-71531216D01*
X142735300Y-71724783D01*
X142720783Y-71872180D01*
X142682536Y-71998262D01*
X142663413Y-72061304D01*
X142570248Y-72235603D01*
X142444873Y-72388373D01*
X142292102Y-72513748D01*
X142117805Y-72606913D01*
X142054763Y-72626036D01*
X141928681Y-72664283D01*
X141732000Y-72683654D01*
X141535320Y-72664283D01*
X141409238Y-72626036D01*
X141346196Y-72606913D01*
X141171902Y-72513750D01*
X141171900Y-72513749D01*
X141019127Y-72388373D01*
X141019126Y-72388371D01*
X141019124Y-72388370D01*
X140893752Y-72235602D01*
X140800587Y-72061305D01*
X140768389Y-71955162D01*
X140743217Y-71872181D01*
X140728700Y-71724784D01*
X140728700Y-71531217D01*
X140743217Y-71383820D01*
X140800587Y-71194697D01*
X140800587Y-71194696D01*
X140893752Y-71020397D01*
X141019127Y-70867627D01*
X141171898Y-70742252D01*
X141346195Y-70649087D01*
X141409237Y-70629964D01*
X141535319Y-70591717D01*
X141732000Y-70572346D01*
X141928680Y-70591717D01*
X141928680Y-70591717D01*
G37*
G36*
X144468680Y-70591717D02*
X144594762Y-70629964D01*
X144657804Y-70649087D01*
X144832103Y-70742252D01*
X144984873Y-70867627D01*
X145110248Y-71020398D01*
X145203413Y-71194695D01*
X145212604Y-71224995D01*
X145260783Y-71383819D01*
X145275300Y-71531216D01*
X145275300Y-71724783D01*
X145260783Y-71872180D01*
X145222536Y-71998262D01*
X145203413Y-72061304D01*
X145110248Y-72235603D01*
X144984873Y-72388373D01*
X144832102Y-72513748D01*
X144657805Y-72606913D01*
X144594763Y-72626036D01*
X144468681Y-72664283D01*
X144272000Y-72683654D01*
X144075320Y-72664283D01*
X143949238Y-72626036D01*
X143886196Y-72606913D01*
X143711902Y-72513750D01*
X143711900Y-72513749D01*
X143559127Y-72388373D01*
X143559126Y-72388371D01*
X143559124Y-72388370D01*
X143433752Y-72235602D01*
X143340587Y-72061305D01*
X143308389Y-71955162D01*
X143283217Y-71872181D01*
X143268700Y-71724784D01*
X143268700Y-71531217D01*
X143283217Y-71383820D01*
X143340587Y-71194697D01*
X143340587Y-71194696D01*
X143433752Y-71020397D01*
X143559127Y-70867627D01*
X143711898Y-70742252D01*
X143886195Y-70649087D01*
X143949237Y-70629964D01*
X144075319Y-70591717D01*
X144272000Y-70572346D01*
X144468680Y-70591717D01*
X144468680Y-70591717D01*
G37*
G36*
X140195300Y-72678800D02*
X138188700Y-72678800D01*
X138188700Y-70577200D01*
X140195300Y-70577200D01*
X140195300Y-72678800D01*
X140195300Y-72678800D01*
G37*
G36*
X127756169Y-70809895D02*
X127911005Y-70874031D01*
X128050354Y-70967140D01*
X128168860Y-71085646D01*
X128261969Y-71224995D01*
X128326105Y-71379831D01*
X128358800Y-71544203D01*
X128358800Y-71711797D01*
X128326105Y-71876169D01*
X128261969Y-72031005D01*
X128168860Y-72170354D01*
X128050354Y-72288860D01*
X127911005Y-72381969D01*
X127756169Y-72446105D01*
X127591797Y-72478800D01*
X127424203Y-72478800D01*
X127259831Y-72446105D01*
X127104995Y-72381969D01*
X126965646Y-72288860D01*
X126847140Y-72170354D01*
X126754031Y-72031005D01*
X126689895Y-71876169D01*
X126657200Y-71711797D01*
X126657200Y-71544203D01*
X126689895Y-71379831D01*
X126754031Y-71224995D01*
X126847140Y-71085646D01*
X126965646Y-70967140D01*
X127104995Y-70874031D01*
X127259831Y-70809895D01*
X127424203Y-70777200D01*
X127591797Y-70777200D01*
X127756169Y-70809895D01*
X127756169Y-70809895D01*
G37*
G36*
X135294787Y-70789510D02*
X135455160Y-70838160D01*
X135455162Y-70838161D01*
X135602966Y-70917163D01*
X135732517Y-71023483D01*
X135838837Y-71153034D01*
X135917839Y-71300838D01*
X135917840Y-71300840D01*
X135966490Y-71461213D01*
X135982916Y-71628000D01*
X135966490Y-71794787D01*
X135917840Y-71955160D01*
X135917839Y-71955162D01*
X135838837Y-72102966D01*
X135732517Y-72232517D01*
X135602966Y-72338837D01*
X135455162Y-72417839D01*
X135455160Y-72417840D01*
X135294787Y-72466490D01*
X135169794Y-72478800D01*
X135086206Y-72478800D01*
X134961213Y-72466490D01*
X134800840Y-72417840D01*
X134800838Y-72417839D01*
X134653034Y-72338837D01*
X134523483Y-72232517D01*
X134417163Y-72102966D01*
X134338161Y-71955162D01*
X134338160Y-71955160D01*
X134289510Y-71794787D01*
X134273084Y-71628000D01*
X134289510Y-71461213D01*
X134338160Y-71300840D01*
X134338161Y-71300838D01*
X134417163Y-71153034D01*
X134523483Y-71023483D01*
X134653034Y-70917163D01*
X134800838Y-70838161D01*
X134800840Y-70838160D01*
X134961213Y-70789510D01*
X135086206Y-70777200D01*
X135169794Y-70777200D01*
X135294787Y-70789510D01*
X135294787Y-70789510D01*
G37*
G36*
X130086800Y-67856800D02*
X128485200Y-67856800D01*
X128485200Y-66255200D01*
X130086800Y-66255200D01*
X130086800Y-67856800D01*
X130086800Y-67856800D01*
G37*
G36*
X134599585Y-66285974D02*
X134745322Y-66346340D01*
X134876481Y-66433978D01*
X134988022Y-66545519D01*
X135075660Y-66676678D01*
X135136026Y-66822415D01*
X135166800Y-66977127D01*
X135166800Y-67134873D01*
X135136026Y-67289585D01*
X135075660Y-67435322D01*
X134988022Y-67566481D01*
X134876481Y-67678022D01*
X134745322Y-67765660D01*
X134599585Y-67826026D01*
X134444873Y-67856800D01*
X134287127Y-67856800D01*
X134132415Y-67826026D01*
X133986678Y-67765660D01*
X133855519Y-67678022D01*
X133743978Y-67566481D01*
X133656340Y-67435322D01*
X133595974Y-67289585D01*
X133565200Y-67134873D01*
X133565200Y-66977127D01*
X133595974Y-66822415D01*
X133656340Y-66676678D01*
X133743978Y-66545519D01*
X133855519Y-66433978D01*
X133986678Y-66346340D01*
X134132415Y-66285974D01*
X134287127Y-66255200D01*
X134444873Y-66255200D01*
X134599585Y-66285974D01*
X134599585Y-66285974D01*
G37*
G36*
X132059585Y-66285974D02*
X132205322Y-66346340D01*
X132336481Y-66433978D01*
X132448022Y-66545519D01*
X132535660Y-66676678D01*
X132596026Y-66822415D01*
X132626800Y-66977127D01*
X132626800Y-67134873D01*
X132596026Y-67289585D01*
X132535660Y-67435322D01*
X132448022Y-67566481D01*
X132336481Y-67678022D01*
X132205322Y-67765660D01*
X132059585Y-67826026D01*
X131904873Y-67856800D01*
X131747127Y-67856800D01*
X131592415Y-67826026D01*
X131446678Y-67765660D01*
X131315519Y-67678022D01*
X131203978Y-67566481D01*
X131116340Y-67435322D01*
X131055974Y-67289585D01*
X131025200Y-67134873D01*
X131025200Y-66977127D01*
X131055974Y-66822415D01*
X131116340Y-66676678D01*
X131203978Y-66545519D01*
X131315519Y-66433978D01*
X131446678Y-66346340D01*
X131592415Y-66285974D01*
X131747127Y-66255200D01*
X131904873Y-66255200D01*
X132059585Y-66285974D01*
X132059585Y-66285974D01*
G37*
G36*
X144468680Y-65257717D02*
X144594762Y-65295964D01*
X144657804Y-65315087D01*
X144832103Y-65408252D01*
X144984873Y-65533627D01*
X145110248Y-65686398D01*
X145203413Y-65860695D01*
X145222536Y-65923737D01*
X145260783Y-66049819D01*
X145275300Y-66197216D01*
X145275300Y-66390783D01*
X145260783Y-66538180D01*
X145258556Y-66545520D01*
X145203413Y-66727304D01*
X145110248Y-66901603D01*
X144984873Y-67054373D01*
X144832102Y-67179748D01*
X144657805Y-67272913D01*
X144602844Y-67289585D01*
X144468681Y-67330283D01*
X144272000Y-67349654D01*
X144075320Y-67330283D01*
X143941157Y-67289585D01*
X143886196Y-67272913D01*
X143711902Y-67179750D01*
X143711900Y-67179749D01*
X143559127Y-67054373D01*
X143559126Y-67054371D01*
X143559124Y-67054370D01*
X143433752Y-66901602D01*
X143340587Y-66727305D01*
X143321464Y-66664263D01*
X143283217Y-66538181D01*
X143268700Y-66390784D01*
X143268700Y-66197217D01*
X143283217Y-66049820D01*
X143340587Y-65860697D01*
X143340587Y-65860696D01*
X143433752Y-65686397D01*
X143559127Y-65533627D01*
X143711898Y-65408252D01*
X143886195Y-65315087D01*
X143949237Y-65295964D01*
X144075319Y-65257717D01*
X144272000Y-65238346D01*
X144468680Y-65257717D01*
X144468680Y-65257717D01*
G37*
G36*
X141928680Y-65257717D02*
X142054762Y-65295964D01*
X142117804Y-65315087D01*
X142292103Y-65408252D01*
X142444873Y-65533627D01*
X142570248Y-65686398D01*
X142663413Y-65860695D01*
X142682536Y-65923737D01*
X142720783Y-66049819D01*
X142735300Y-66197216D01*
X142735300Y-66390783D01*
X142720783Y-66538180D01*
X142718556Y-66545520D01*
X142663413Y-66727304D01*
X142570248Y-66901603D01*
X142444873Y-67054373D01*
X142292102Y-67179748D01*
X142117805Y-67272913D01*
X142062844Y-67289585D01*
X141928681Y-67330283D01*
X141732000Y-67349654D01*
X141535320Y-67330283D01*
X141401157Y-67289585D01*
X141346196Y-67272913D01*
X141171902Y-67179750D01*
X141171900Y-67179749D01*
X141019127Y-67054373D01*
X141019126Y-67054371D01*
X141019124Y-67054370D01*
X140893752Y-66901602D01*
X140800587Y-66727305D01*
X140781464Y-66664263D01*
X140743217Y-66538181D01*
X140728700Y-66390784D01*
X140728700Y-66197217D01*
X140743217Y-66049820D01*
X140800587Y-65860697D01*
X140800587Y-65860696D01*
X140893752Y-65686397D01*
X141019127Y-65533627D01*
X141171898Y-65408252D01*
X141346195Y-65315087D01*
X141409237Y-65295964D01*
X141535319Y-65257717D01*
X141732000Y-65238346D01*
X141928680Y-65257717D01*
X141928680Y-65257717D01*
G37*
G36*
X140195300Y-67344800D02*
X138188700Y-67344800D01*
X138188700Y-65243200D01*
X140195300Y-65243200D01*
X140195300Y-67344800D01*
X140195300Y-67344800D01*
G37*
G36*
X133055829Y-61604209D02*
X133055832Y-61604210D01*
X133055831Y-61604210D01*
X133174269Y-61653268D01*
X133195914Y-61667731D01*
X133280864Y-61724493D01*
X133371507Y-61815136D01*
X133371509Y-61815139D01*
X133442732Y-61921731D01*
X133463369Y-61971554D01*
X133474715Y-61998945D01*
X133486267Y-62020556D01*
X133501812Y-62039498D01*
X133520754Y-62055043D01*
X133542365Y-62066594D01*
X133565814Y-62073707D01*
X133590201Y-62076109D01*
X133614587Y-62073707D01*
X133638036Y-62066594D01*
X133659647Y-62055042D01*
X133678589Y-62039497D01*
X133694134Y-62020555D01*
X133705685Y-61998944D01*
X133712798Y-61975495D01*
X133715200Y-61951109D01*
X133715200Y-61579200D01*
X135016800Y-61579200D01*
X135016800Y-62880800D01*
X133715200Y-62880800D01*
X133715200Y-62508891D01*
X133712798Y-62484505D01*
X133705685Y-62461056D01*
X133694134Y-62439445D01*
X133678588Y-62420503D01*
X133659646Y-62404957D01*
X133638035Y-62393406D01*
X133614586Y-62386293D01*
X133590200Y-62383891D01*
X133565814Y-62386293D01*
X133542365Y-62393406D01*
X133520754Y-62404957D01*
X133501812Y-62420503D01*
X133486266Y-62439445D01*
X133474715Y-62461055D01*
X133463369Y-62488446D01*
X133442732Y-62538269D01*
X133433068Y-62552732D01*
X133371507Y-62644864D01*
X133280864Y-62735507D01*
X133280861Y-62735509D01*
X133174269Y-62806732D01*
X133082662Y-62844676D01*
X133055829Y-62855791D01*
X132930100Y-62880800D01*
X132801900Y-62880800D01*
X132676171Y-62855791D01*
X132649338Y-62844676D01*
X132557731Y-62806732D01*
X132451139Y-62735509D01*
X132451136Y-62735507D01*
X132360493Y-62644864D01*
X132298932Y-62552732D01*
X132289268Y-62538269D01*
X132240210Y-62419831D01*
X132240209Y-62419829D01*
X132215200Y-62294100D01*
X132215200Y-62165900D01*
X132240209Y-62040171D01*
X132266999Y-61975495D01*
X132289268Y-61921731D01*
X132360491Y-61815139D01*
X132360493Y-61815136D01*
X132451136Y-61724493D01*
X132536086Y-61667731D01*
X132557731Y-61653268D01*
X132676169Y-61604210D01*
X132676168Y-61604210D01*
X132676171Y-61604209D01*
X132801900Y-61579200D01*
X132930100Y-61579200D01*
X133055829Y-61604209D01*
X133055829Y-61604209D01*
G37*
G36*
X127975829Y-61350209D02*
X127975832Y-61350210D01*
X127975831Y-61350210D01*
X128094269Y-61399268D01*
X128094270Y-61399269D01*
X128200864Y-61470493D01*
X128291507Y-61561136D01*
X128291509Y-61561139D01*
X128362732Y-61667731D01*
X128383369Y-61717554D01*
X128394715Y-61744945D01*
X128406267Y-61766556D01*
X128421812Y-61785498D01*
X128440754Y-61801043D01*
X128462365Y-61812594D01*
X128485814Y-61819707D01*
X128510201Y-61822109D01*
X128534587Y-61819707D01*
X128558036Y-61812594D01*
X128579647Y-61801042D01*
X128598589Y-61785497D01*
X128614134Y-61766555D01*
X128625685Y-61744944D01*
X128632798Y-61721495D01*
X128635200Y-61697109D01*
X128635200Y-61325200D01*
X129936800Y-61325200D01*
X129936800Y-62626800D01*
X128635200Y-62626800D01*
X128635200Y-62254891D01*
X128632798Y-62230505D01*
X128625685Y-62207056D01*
X128614134Y-62185445D01*
X128598588Y-62166503D01*
X128579646Y-62150957D01*
X128558035Y-62139406D01*
X128534586Y-62132293D01*
X128510200Y-62129891D01*
X128485814Y-62132293D01*
X128462365Y-62139406D01*
X128440754Y-62150957D01*
X128421812Y-62166503D01*
X128406266Y-62185445D01*
X128394715Y-62207055D01*
X128383369Y-62234446D01*
X128362732Y-62284269D01*
X128362731Y-62284270D01*
X128291507Y-62390864D01*
X128200864Y-62481507D01*
X128200861Y-62481509D01*
X128094269Y-62552732D01*
X128002662Y-62590676D01*
X127975829Y-62601791D01*
X127850100Y-62626800D01*
X127721900Y-62626800D01*
X127596171Y-62601791D01*
X127569338Y-62590676D01*
X127477731Y-62552732D01*
X127371139Y-62481509D01*
X127371136Y-62481507D01*
X127280493Y-62390864D01*
X127209269Y-62284270D01*
X127209268Y-62284269D01*
X127160239Y-62165902D01*
X127160209Y-62165829D01*
X127135200Y-62040100D01*
X127135200Y-61911900D01*
X127160209Y-61786171D01*
X127186999Y-61721495D01*
X127209268Y-61667731D01*
X127280491Y-61561139D01*
X127280493Y-61561136D01*
X127371136Y-61470493D01*
X127477730Y-61399269D01*
X127477731Y-61399268D01*
X127596169Y-61350210D01*
X127596168Y-61350210D01*
X127596171Y-61350209D01*
X127721900Y-61325200D01*
X127850100Y-61325200D01*
X127975829Y-61350209D01*
X127975829Y-61350209D01*
G37*
G36*
X148358800Y-61744800D02*
X144757200Y-61744800D01*
X144757200Y-58143200D01*
X148358800Y-58143200D01*
X148358800Y-61744800D01*
X148358800Y-61744800D01*
G37*
G36*
X142984246Y-55159893D02*
X143141320Y-55207540D01*
X143286078Y-55284915D01*
X143412957Y-55389043D01*
X143517085Y-55515922D01*
X143594460Y-55660680D01*
X143642107Y-55817754D01*
X143658800Y-55987240D01*
X143658800Y-57900760D01*
X143642107Y-58070246D01*
X143594460Y-58227320D01*
X143517085Y-58372078D01*
X143412957Y-58498957D01*
X143286078Y-58603085D01*
X143141320Y-58680460D01*
X142984246Y-58728107D01*
X142814760Y-58744800D01*
X140901240Y-58744800D01*
X140731754Y-58728107D01*
X140574680Y-58680460D01*
X140429922Y-58603085D01*
X140303043Y-58498957D01*
X140198915Y-58372078D01*
X140121540Y-58227320D01*
X140073893Y-58070246D01*
X140057200Y-57900760D01*
X140057200Y-55987240D01*
X140073893Y-55817754D01*
X140121540Y-55660680D01*
X140198915Y-55515922D01*
X140303043Y-55389043D01*
X140429922Y-55284915D01*
X140574680Y-55207540D01*
X140731754Y-55159893D01*
X140901240Y-55143200D01*
X142814760Y-55143200D01*
X142984246Y-55159893D01*
X142984246Y-55159893D01*
G37*
G36*
X132836169Y-56839895D02*
X132991005Y-56904031D01*
X133130354Y-56997140D01*
X133248860Y-57115646D01*
X133341969Y-57254995D01*
X133406105Y-57409831D01*
X133438800Y-57574203D01*
X133438800Y-57741797D01*
X133406105Y-57906169D01*
X133341969Y-58061005D01*
X133248860Y-58200354D01*
X133130354Y-58318860D01*
X132991005Y-58411969D01*
X132836169Y-58476105D01*
X132671797Y-58508800D01*
X132504203Y-58508800D01*
X132339831Y-58476105D01*
X132184995Y-58411969D01*
X132045646Y-58318860D01*
X131927140Y-58200354D01*
X131834031Y-58061005D01*
X131769895Y-57906169D01*
X131737200Y-57741797D01*
X131737200Y-57574203D01*
X131769895Y-57409831D01*
X131834031Y-57254995D01*
X131927140Y-57115646D01*
X132045646Y-56997140D01*
X132184995Y-56904031D01*
X132339831Y-56839895D01*
X132504203Y-56807200D01*
X132671797Y-56807200D01*
X132836169Y-56839895D01*
X132836169Y-56839895D01*
G37*
G36*
X127836169Y-56839895D02*
X127991005Y-56904031D01*
X128130354Y-56997140D01*
X128248860Y-57115646D01*
X128341969Y-57254995D01*
X128406105Y-57409831D01*
X128438800Y-57574203D01*
X128438800Y-57741797D01*
X128406105Y-57906169D01*
X128341969Y-58061005D01*
X128248860Y-58200354D01*
X128130354Y-58318860D01*
X127991005Y-58411969D01*
X127836169Y-58476105D01*
X127671797Y-58508800D01*
X127504203Y-58508800D01*
X127339831Y-58476105D01*
X127184995Y-58411969D01*
X127045646Y-58318860D01*
X126927140Y-58200354D01*
X126834031Y-58061005D01*
X126769895Y-57906169D01*
X126737200Y-57741797D01*
X126737200Y-57574203D01*
X126769895Y-57409831D01*
X126834031Y-57254995D01*
X126927140Y-57115646D01*
X127045646Y-56997140D01*
X127184995Y-56904031D01*
X127339831Y-56839895D01*
X127504203Y-56807200D01*
X127671797Y-56807200D01*
X127836169Y-56839895D01*
X127836169Y-56839895D01*
G37*
G36*
X135405338Y-55981738D02*
X135578373Y-56053412D01*
X135734100Y-56157465D01*
X135866535Y-56289900D01*
X135970588Y-56445627D01*
X136042262Y-56618662D01*
X136078800Y-56802354D01*
X136078800Y-56989646D01*
X136042262Y-57173338D01*
X135970588Y-57346373D01*
X135866535Y-57502100D01*
X135734100Y-57634535D01*
X135578373Y-57738588D01*
X135405338Y-57810262D01*
X135221646Y-57846800D01*
X135034354Y-57846800D01*
X134850662Y-57810262D01*
X134677627Y-57738588D01*
X134521900Y-57634535D01*
X134389465Y-57502100D01*
X134285412Y-57346373D01*
X134213738Y-57173338D01*
X134177200Y-56989646D01*
X134177200Y-56802354D01*
X134213738Y-56618662D01*
X134285412Y-56445627D01*
X134389465Y-56289900D01*
X134521900Y-56157465D01*
X134677627Y-56053412D01*
X134850662Y-55981738D01*
X135034354Y-55945200D01*
X135221646Y-55945200D01*
X135405338Y-55981738D01*
X135405338Y-55981738D01*
G37*
G36*
X138618800Y-57846800D02*
X136717200Y-57846800D01*
X136717200Y-55945200D01*
X138618800Y-55945200D01*
X138618800Y-57846800D01*
X138618800Y-57846800D01*
G37*
G36*
X147784860Y-52407491D02*
X147918484Y-52448025D01*
X148041628Y-52513848D01*
X148149569Y-52602431D01*
X148238152Y-52710372D01*
X148303975Y-52833516D01*
X148344509Y-52967140D01*
X148358800Y-53112240D01*
X148358800Y-54775760D01*
X148344509Y-54920860D01*
X148303975Y-55054484D01*
X148238152Y-55177628D01*
X148149569Y-55285569D01*
X148041628Y-55374152D01*
X147918484Y-55439975D01*
X147784860Y-55480509D01*
X147639760Y-55494800D01*
X145476240Y-55494800D01*
X145331140Y-55480509D01*
X145197516Y-55439975D01*
X145074372Y-55374152D01*
X144966431Y-55285569D01*
X144877848Y-55177628D01*
X144812025Y-55054484D01*
X144771491Y-54920860D01*
X144757200Y-54775760D01*
X144757200Y-53112240D01*
X144771491Y-52967140D01*
X144812025Y-52833516D01*
X144877848Y-52710372D01*
X144966431Y-52602431D01*
X145074372Y-52513848D01*
X145197516Y-52448025D01*
X145331140Y-52407491D01*
X145476240Y-52393200D01*
X147639760Y-52393200D01*
X147784860Y-52407491D01*
X147784860Y-52407491D01*
G37*
G36*
X132836169Y-53537895D02*
X132991005Y-53602031D01*
X133130354Y-53695140D01*
X133248860Y-53813646D01*
X133341969Y-53952995D01*
X133406105Y-54107831D01*
X133438800Y-54272203D01*
X133438800Y-54439797D01*
X133406105Y-54604169D01*
X133341969Y-54759005D01*
X133248860Y-54898354D01*
X133130354Y-55016860D01*
X132991005Y-55109969D01*
X132836169Y-55174105D01*
X132671797Y-55206800D01*
X132504203Y-55206800D01*
X132339831Y-55174105D01*
X132184995Y-55109969D01*
X132045646Y-55016860D01*
X131927140Y-54898354D01*
X131834031Y-54759005D01*
X131769895Y-54604169D01*
X131737200Y-54439797D01*
X131737200Y-54272203D01*
X131769895Y-54107831D01*
X131834031Y-53952995D01*
X131927140Y-53813646D01*
X132045646Y-53695140D01*
X132184995Y-53602031D01*
X132339831Y-53537895D01*
X132504203Y-53505200D01*
X132671797Y-53505200D01*
X132836169Y-53537895D01*
X132836169Y-53537895D01*
G37*
G36*
X127836169Y-53537895D02*
X127991005Y-53602031D01*
X128130354Y-53695140D01*
X128248860Y-53813646D01*
X128341969Y-53952995D01*
X128406105Y-54107831D01*
X128438800Y-54272203D01*
X128438800Y-54439797D01*
X128406105Y-54604169D01*
X128341969Y-54759005D01*
X128248860Y-54898354D01*
X128130354Y-55016860D01*
X127991005Y-55109969D01*
X127836169Y-55174105D01*
X127671797Y-55206800D01*
X127504203Y-55206800D01*
X127339831Y-55174105D01*
X127184995Y-55109969D01*
X127045646Y-55016860D01*
X126927140Y-54898354D01*
X126834031Y-54759005D01*
X126769895Y-54604169D01*
X126737200Y-54439797D01*
X126737200Y-54272203D01*
X126769895Y-54107831D01*
X126834031Y-53952995D01*
X126927140Y-53813646D01*
X127045646Y-53695140D01*
X127184995Y-53602031D01*
X127339831Y-53537895D01*
X127504203Y-53505200D01*
X127671797Y-53505200D01*
X127836169Y-53537895D01*
X127836169Y-53537895D01*
G37*
G36*
X137248362Y-49903545D02*
X137336588Y-49912234D01*
X137449789Y-49946573D01*
X137506390Y-49963743D01*
X137644980Y-50037822D01*
X137662879Y-50047389D01*
X137698609Y-50076712D01*
X137800044Y-50159956D01*
X137883288Y-50261391D01*
X137912611Y-50297121D01*
X137912612Y-50297123D01*
X137996257Y-50453610D01*
X137996257Y-50453611D01*
X138047766Y-50623412D01*
X138065158Y-50800000D01*
X138047766Y-50976588D01*
X138013427Y-51089789D01*
X137996257Y-51146390D01*
X137922178Y-51284980D01*
X137912611Y-51302879D01*
X137883288Y-51338609D01*
X137800044Y-51440044D01*
X137698609Y-51523288D01*
X137662879Y-51552611D01*
X137662877Y-51552612D01*
X137506390Y-51636257D01*
X137449789Y-51653427D01*
X137336588Y-51687766D01*
X137248362Y-51696455D01*
X137204250Y-51700800D01*
X137115750Y-51700800D01*
X137071638Y-51696455D01*
X136983412Y-51687766D01*
X136870211Y-51653427D01*
X136813610Y-51636257D01*
X136657123Y-51552612D01*
X136657121Y-51552611D01*
X136621391Y-51523288D01*
X136519956Y-51440044D01*
X136436712Y-51338609D01*
X136407389Y-51302879D01*
X136397822Y-51284980D01*
X136323743Y-51146390D01*
X136306573Y-51089789D01*
X136272234Y-50976588D01*
X136254842Y-50800000D01*
X136272234Y-50623412D01*
X136323743Y-50453611D01*
X136323743Y-50453610D01*
X136407388Y-50297123D01*
X136407389Y-50297121D01*
X136436712Y-50261391D01*
X136519956Y-50159956D01*
X136621391Y-50076712D01*
X136657121Y-50047389D01*
X136675020Y-50037822D01*
X136813610Y-49963743D01*
X136870211Y-49946573D01*
X136983412Y-49912234D01*
X137071638Y-49903545D01*
X137115750Y-49899200D01*
X137204250Y-49899200D01*
X137248362Y-49903545D01*
X137248362Y-49903545D01*
G37*
G36*
X127088362Y-49903545D02*
X127176588Y-49912234D01*
X127289789Y-49946573D01*
X127346390Y-49963743D01*
X127484980Y-50037822D01*
X127502879Y-50047389D01*
X127538609Y-50076712D01*
X127640044Y-50159956D01*
X127723288Y-50261391D01*
X127752611Y-50297121D01*
X127752612Y-50297123D01*
X127836257Y-50453610D01*
X127836257Y-50453611D01*
X127887766Y-50623412D01*
X127905158Y-50800000D01*
X127887766Y-50976588D01*
X127853427Y-51089789D01*
X127836257Y-51146390D01*
X127762178Y-51284980D01*
X127752611Y-51302879D01*
X127723288Y-51338609D01*
X127640044Y-51440044D01*
X127538609Y-51523288D01*
X127502879Y-51552611D01*
X127502877Y-51552612D01*
X127346390Y-51636257D01*
X127289789Y-51653427D01*
X127176588Y-51687766D01*
X127088362Y-51696455D01*
X127044250Y-51700800D01*
X126955750Y-51700800D01*
X126911638Y-51696455D01*
X126823412Y-51687766D01*
X126710211Y-51653427D01*
X126653610Y-51636257D01*
X126497123Y-51552612D01*
X126497121Y-51552611D01*
X126461391Y-51523288D01*
X126359956Y-51440044D01*
X126276712Y-51338609D01*
X126247389Y-51302879D01*
X126237822Y-51284980D01*
X126163743Y-51146390D01*
X126146573Y-51089789D01*
X126112234Y-50976588D01*
X126094842Y-50800000D01*
X126112234Y-50623412D01*
X126163743Y-50453611D01*
X126163743Y-50453610D01*
X126247388Y-50297123D01*
X126247389Y-50297121D01*
X126276712Y-50261391D01*
X126359956Y-50159956D01*
X126461391Y-50076712D01*
X126497121Y-50047389D01*
X126515020Y-50037822D01*
X126653610Y-49963743D01*
X126710211Y-49946573D01*
X126823412Y-49912234D01*
X126911638Y-49903545D01*
X126955750Y-49899200D01*
X127044250Y-49899200D01*
X127088362Y-49903545D01*
X127088362Y-49903545D01*
G37*
G36*
X129628362Y-49903545D02*
X129716588Y-49912234D01*
X129829789Y-49946573D01*
X129886390Y-49963743D01*
X130024980Y-50037822D01*
X130042879Y-50047389D01*
X130078609Y-50076712D01*
X130180044Y-50159956D01*
X130263288Y-50261391D01*
X130292611Y-50297121D01*
X130292612Y-50297123D01*
X130376257Y-50453610D01*
X130376257Y-50453611D01*
X130427766Y-50623412D01*
X130445158Y-50800000D01*
X130427766Y-50976588D01*
X130393427Y-51089789D01*
X130376257Y-51146390D01*
X130302178Y-51284980D01*
X130292611Y-51302879D01*
X130263288Y-51338609D01*
X130180044Y-51440044D01*
X130078609Y-51523288D01*
X130042879Y-51552611D01*
X130042877Y-51552612D01*
X129886390Y-51636257D01*
X129829789Y-51653427D01*
X129716588Y-51687766D01*
X129628362Y-51696455D01*
X129584250Y-51700800D01*
X129495750Y-51700800D01*
X129451638Y-51696455D01*
X129363412Y-51687766D01*
X129250211Y-51653427D01*
X129193610Y-51636257D01*
X129037123Y-51552612D01*
X129037121Y-51552611D01*
X129001391Y-51523288D01*
X128899956Y-51440044D01*
X128816712Y-51338609D01*
X128787389Y-51302879D01*
X128777822Y-51284980D01*
X128703743Y-51146390D01*
X128686573Y-51089789D01*
X128652234Y-50976588D01*
X128634842Y-50800000D01*
X128652234Y-50623412D01*
X128703743Y-50453611D01*
X128703743Y-50453610D01*
X128787388Y-50297123D01*
X128787389Y-50297121D01*
X128816712Y-50261391D01*
X128899956Y-50159956D01*
X129001391Y-50076712D01*
X129037121Y-50047389D01*
X129055020Y-50037822D01*
X129193610Y-49963743D01*
X129250211Y-49946573D01*
X129363412Y-49912234D01*
X129451638Y-49903545D01*
X129495750Y-49899200D01*
X129584250Y-49899200D01*
X129628362Y-49903545D01*
X129628362Y-49903545D01*
G37*
G36*
X140600800Y-51700800D02*
X138799200Y-51700800D01*
X138799200Y-49899200D01*
X140600800Y-49899200D01*
X140600800Y-51700800D01*
X140600800Y-51700800D01*
G37*
G36*
X134708362Y-49903545D02*
X134796588Y-49912234D01*
X134909789Y-49946573D01*
X134966390Y-49963743D01*
X135104980Y-50037822D01*
X135122879Y-50047389D01*
X135158609Y-50076712D01*
X135260044Y-50159956D01*
X135343288Y-50261391D01*
X135372611Y-50297121D01*
X135372612Y-50297123D01*
X135456257Y-50453610D01*
X135456257Y-50453611D01*
X135507766Y-50623412D01*
X135525158Y-50800000D01*
X135507766Y-50976588D01*
X135473427Y-51089789D01*
X135456257Y-51146390D01*
X135382178Y-51284980D01*
X135372611Y-51302879D01*
X135343288Y-51338609D01*
X135260044Y-51440044D01*
X135158609Y-51523288D01*
X135122879Y-51552611D01*
X135122877Y-51552612D01*
X134966390Y-51636257D01*
X134909789Y-51653427D01*
X134796588Y-51687766D01*
X134708362Y-51696455D01*
X134664250Y-51700800D01*
X134575750Y-51700800D01*
X134531638Y-51696455D01*
X134443412Y-51687766D01*
X134330211Y-51653427D01*
X134273610Y-51636257D01*
X134117123Y-51552612D01*
X134117121Y-51552611D01*
X134081391Y-51523288D01*
X133979956Y-51440044D01*
X133896712Y-51338609D01*
X133867389Y-51302879D01*
X133857822Y-51284980D01*
X133783743Y-51146390D01*
X133766573Y-51089789D01*
X133732234Y-50976588D01*
X133714842Y-50800000D01*
X133732234Y-50623412D01*
X133783743Y-50453611D01*
X133783743Y-50453610D01*
X133867388Y-50297123D01*
X133867389Y-50297121D01*
X133896712Y-50261391D01*
X133979956Y-50159956D01*
X134081391Y-50076712D01*
X134117121Y-50047389D01*
X134135020Y-50037822D01*
X134273610Y-49963743D01*
X134330211Y-49946573D01*
X134443412Y-49912234D01*
X134531638Y-49903545D01*
X134575750Y-49899200D01*
X134664250Y-49899200D01*
X134708362Y-49903545D01*
X134708362Y-49903545D01*
G37*
G36*
X132168362Y-49903545D02*
X132256588Y-49912234D01*
X132369789Y-49946573D01*
X132426390Y-49963743D01*
X132564980Y-50037822D01*
X132582879Y-50047389D01*
X132618609Y-50076712D01*
X132720044Y-50159956D01*
X132803288Y-50261391D01*
X132832611Y-50297121D01*
X132832612Y-50297123D01*
X132916257Y-50453610D01*
X132916257Y-50453611D01*
X132967766Y-50623412D01*
X132985158Y-50800000D01*
X132967766Y-50976588D01*
X132933427Y-51089789D01*
X132916257Y-51146390D01*
X132842178Y-51284980D01*
X132832611Y-51302879D01*
X132803288Y-51338609D01*
X132720044Y-51440044D01*
X132618609Y-51523288D01*
X132582879Y-51552611D01*
X132582877Y-51552612D01*
X132426390Y-51636257D01*
X132369789Y-51653427D01*
X132256588Y-51687766D01*
X132168362Y-51696455D01*
X132124250Y-51700800D01*
X132035750Y-51700800D01*
X131991638Y-51696455D01*
X131903412Y-51687766D01*
X131790211Y-51653427D01*
X131733610Y-51636257D01*
X131577123Y-51552612D01*
X131577121Y-51552611D01*
X131541391Y-51523288D01*
X131439956Y-51440044D01*
X131356712Y-51338609D01*
X131327389Y-51302879D01*
X131317822Y-51284980D01*
X131243743Y-51146390D01*
X131226573Y-51089789D01*
X131192234Y-50976588D01*
X131174842Y-50800000D01*
X131192234Y-50623412D01*
X131243743Y-50453611D01*
X131243743Y-50453610D01*
X131327388Y-50297123D01*
X131327389Y-50297121D01*
X131356712Y-50261391D01*
X131439956Y-50159956D01*
X131541391Y-50076712D01*
X131577121Y-50047389D01*
X131595020Y-50037822D01*
X131733610Y-49963743D01*
X131790211Y-49946573D01*
X131903412Y-49912234D01*
X131991638Y-49903545D01*
X132035750Y-49899200D01*
X132124250Y-49899200D01*
X132168362Y-49903545D01*
X132168362Y-49903545D01*
G37*
M02*
