M48
;DRILL file {KiCad 5.0.2-bee76a0~70~ubuntu16.04.1} date Tue 04 Jun 2019 08:29:56 AM PDT
;FORMAT={-:-/ absolute / inch / decimal}
FMAT,2
INCH,TZ
T1C0.0197
T2C0.0236
T3C0.0315
T4C0.0354
T5C0.0394
T6C0.0400
T7C0.0433
%
G90
G05
T1
X5.7852Y-5.24
X5.86Y-5.24
T2
X5.03Y-2.45
X5.0891Y-2.45
X5.2309Y-2.45
X5.29Y-2.45
T3
X5.72Y-4.2031
X5.72Y-4.4
X5.02Y-2.95
X5.32Y-2.95
X5.7635Y-5.0136
X5.8817Y-5.0136
X5.09Y-2.64
X5.19Y-2.64
X5.29Y-2.64
X5.3Y-3.49
X5.3Y-3.59
X5.3Y-3.69
X5.3Y-3.79
X5.3Y-3.89
X5.3Y-3.99
X5.3Y-4.09
X5.3Y-4.19
X5.3Y-4.29
X5.3Y-4.39
X5.3Y-4.49
X5.3Y-4.59
X5.3Y-4.69
X5.3Y-4.79
X5.6Y-3.49
X5.6Y-3.59
X5.6Y-3.69
X5.6Y-3.79
X5.6Y-3.89
X5.6Y-3.99
X5.6Y-4.09
X5.6Y-4.19
X5.6Y-4.29
X5.6Y-4.39
X5.6Y-4.49
X5.6Y-4.59
X5.6Y-4.69
X5.6Y-4.79
X5.0231Y-2.14
X5.22Y-2.14
X5.72Y-3.9131
X5.72Y-4.11
X5.57Y-5.33
X5.57Y-5.63
X5.67Y-5.33
X5.67Y-5.63
X5.77Y-5.33
X5.77Y-5.63
X5.87Y-5.33
X5.87Y-5.63
X5.49Y-4.91
X5.49Y-5.21
X5.02Y-2.82
X5.32Y-2.82
X5.0231Y-2.27
X5.22Y-2.27
X5.18Y-4.63
X5.18Y-4.93
X5.06Y-3.06
X5.06Y-3.36
X5.63Y-4.91
X5.63Y-5.21
X5.72Y-3.15
X5.72Y-3.45
X5.19Y-3.06
X5.19Y-3.36
T4
X5.32Y-2.24
X5.42Y-2.24
X5.73Y-4.77
X5.83Y-4.77
T5
X5.Y-2.
X5.1Y-2.
X5.2Y-2.
X5.3Y-2.
X5.4Y-2.
X5.5Y-2.
X5.Y-4.8
X5.Y-4.9
X5.9Y-3.5
X5.9Y-3.6
X5.9Y-3.7
X5.9Y-3.8
X5.9Y-3.9
X5.9Y-4.
X5.9Y-4.1
X5.9Y-4.2
X5.9Y-4.3
X5.9Y-4.4
X5.9Y-4.5
X5.9Y-4.6
X5.17Y-4.2531
X5.17Y-4.3516
X5.17Y-4.45
X5.Y-3.5
X5.Y-3.6
X5.Y-3.7
X5.Y-3.8
X5.Y-3.9
X5.Y-4.
X5.Y-4.1
X5.Y-4.2
X5.Y-4.3
X5.Y-4.4
X5.Y-4.5
X5.Y-4.6
X5.9Y-3.
X5.9Y-3.1
X5.9Y-3.2
X5.9Y-3.3
T6
X5.13Y-5.09
X5.13Y-5.61
X5.25Y-5.09
X5.25Y-5.61
T7
X5.48Y-3.03
X5.58Y-3.03
X5.68Y-3.03
X5.3241Y-3.1628
X5.3241Y-3.34
X5.58Y-3.1628
X5.58Y-3.34
X5.48Y-2.82
X5.58Y-2.82
X5.68Y-2.82
X5.48Y-2.61
X5.58Y-2.61
X5.68Y-2.61
T5
X5.585Y-2.2025G85X5.585Y-2.2813
G05
X5.8094Y-2.1238G85X5.7306Y-2.1238
G05
X5.8094Y-2.36G85X5.7306Y-2.36
G05
T0
M30
