G04 #@! TF.GenerationSoftware,KiCad,Pcbnew,5.0.2-bee76a0~70~ubuntu16.04.1*
G04 #@! TF.CreationDate,2019-06-25T12:15:08-07:00*
G04 #@! TF.ProjectId,sunrise-board,73756e72-6973-4652-9d62-6f6172642e6b,v2*
G04 #@! TF.SameCoordinates,Original*
G04 #@! TF.FileFunction,Other,Fab,Top*
%FSLAX46Y46*%
G04 Gerber Fmt 4.6, Leading zero omitted, Abs format (unit mm)*
G04 Created by KiCad (PCBNEW 5.0.2-bee76a0~70~ubuntu16.04.1) date Tue 25 Jun 2019 12:15:08 PM PDT*
%MOMM*%
%LPD*%
G01*
G04 APERTURE LIST*
%ADD10C,0.050800*%
%ADD11C,0.100000*%
%ADD12C,0.150000*%
%ADD13C,0.141000*%
%ADD14C,0.120000*%
G04 APERTURE END LIST*
D10*
G04 #@! TO.C,BT1*
X127000000Y-129159000D02*
X136652000Y-129159000D01*
X136652000Y-129159000D02*
X136652000Y-142621000D01*
X127000000Y-129159000D02*
X127000000Y-142621000D01*
X127000000Y-142621000D02*
X136652000Y-142621000D01*
D11*
G04 #@! TO.C,Y2*
X129818000Y-112030000D02*
X129818000Y-109030000D01*
X132818000Y-112030000D02*
X132818000Y-109030000D01*
X129818000Y-112030000D02*
X129818000Y-109030000D01*
X132818000Y-112030000D02*
X132818000Y-109030000D01*
X132818000Y-112030000D02*
G75*
G02X129818000Y-112030000I-1500000J0D01*
G01*
X132818000Y-109030000D02*
G75*
G03X129818000Y-109030000I-1500000J0D01*
G01*
X132818000Y-112030000D02*
G75*
G02X129818000Y-112030000I-1500000J0D01*
G01*
X132818000Y-109030000D02*
G75*
G03X129818000Y-109030000I-1500000J0D01*
G01*
G04 #@! TO.C,Y1*
X148924000Y-131096000D02*
X148924000Y-124596000D01*
X148924000Y-124596000D02*
X146864000Y-124596000D01*
X146864000Y-124596000D02*
X146864000Y-131096000D01*
X146864000Y-131096000D02*
X148924000Y-131096000D01*
X148244000Y-131096000D02*
X148844000Y-132096000D01*
X148844000Y-132096000D02*
X148844000Y-133096000D01*
X147544000Y-131096000D02*
X146944000Y-132096000D01*
X146944000Y-132096000D02*
X146944000Y-133096000D01*
X149394000Y-127346000D02*
X146394000Y-127346000D01*
G04 #@! TO.C,U3*
X136255000Y-87376000D02*
X141605000Y-87376000D01*
X141605000Y-87376000D02*
X141605000Y-122936000D01*
X141605000Y-122936000D02*
X135255000Y-122936000D01*
X135255000Y-122936000D02*
X135255000Y-88376000D01*
X135255000Y-88376000D02*
X136255000Y-87376000D01*
G04 #@! TO.C,U2*
X150368000Y-137017000D02*
X150368000Y-142367000D01*
X150368000Y-142367000D02*
X140208000Y-142367000D01*
X140208000Y-142367000D02*
X140208000Y-136017000D01*
X140208000Y-136017000D02*
X149368000Y-136017000D01*
X149368000Y-136017000D02*
X150368000Y-137017000D01*
G04 #@! TO.C,U1*
X130086000Y-68806000D02*
X133586000Y-68806000D01*
X133579625Y-68809625D02*
G75*
G03X131826000Y-64576000I-1753625J1753625D01*
G01*
X130072375Y-68809625D02*
G75*
G02X131826000Y-64576000I1753625J1753625D01*
G01*
G04 #@! TO.C,R8*
X146538000Y-80670000D02*
X144038000Y-80670000D01*
X144038000Y-80670000D02*
X144038000Y-86970000D01*
X144038000Y-86970000D02*
X146538000Y-86970000D01*
X146538000Y-86970000D02*
X146538000Y-80670000D01*
X145288000Y-80010000D02*
X145288000Y-80670000D01*
X145288000Y-87630000D02*
X145288000Y-86970000D01*
G04 #@! TO.C,R7*
X143002000Y-124714000D02*
X143002000Y-125374000D01*
X143002000Y-132334000D02*
X143002000Y-131674000D01*
X141752000Y-125374000D02*
X141752000Y-131674000D01*
X144252000Y-125374000D02*
X141752000Y-125374000D01*
X144252000Y-131674000D02*
X144252000Y-125374000D01*
X141752000Y-131674000D02*
X144252000Y-131674000D01*
G04 #@! TO.C,R6*
X130322000Y-124562000D02*
X132822000Y-124562000D01*
X132822000Y-124562000D02*
X132822000Y-118262000D01*
X132822000Y-118262000D02*
X130322000Y-118262000D01*
X130322000Y-118262000D02*
X130322000Y-124562000D01*
X131572000Y-125222000D02*
X131572000Y-124562000D01*
X131572000Y-117602000D02*
X131572000Y-118262000D01*
G04 #@! TO.C,R5*
X139446000Y-124714000D02*
X139446000Y-125374000D01*
X139446000Y-132334000D02*
X139446000Y-131674000D01*
X138196000Y-125374000D02*
X138196000Y-131674000D01*
X140696000Y-125374000D02*
X138196000Y-125374000D01*
X140696000Y-131674000D02*
X140696000Y-125374000D01*
X138196000Y-131674000D02*
X140696000Y-131674000D01*
G04 #@! TO.C,R4*
X135128000Y-71628000D02*
X134468000Y-71628000D01*
X127508000Y-71628000D02*
X128168000Y-71628000D01*
X134468000Y-70378000D02*
X128168000Y-70378000D01*
X134468000Y-72878000D02*
X134468000Y-70378000D01*
X128168000Y-72878000D02*
X134468000Y-72878000D01*
X128168000Y-70378000D02*
X128168000Y-72878000D01*
G04 #@! TO.C,R3*
X131826000Y-85344000D02*
X131826000Y-84684000D01*
X131826000Y-77724000D02*
X131826000Y-78384000D01*
X133076000Y-84684000D02*
X133076000Y-78384000D01*
X130576000Y-84684000D02*
X133076000Y-84684000D01*
X130576000Y-78384000D02*
X130576000Y-84684000D01*
X133076000Y-78384000D02*
X130576000Y-78384000D01*
G04 #@! TO.C,R2*
X128524000Y-85344000D02*
X128524000Y-84684000D01*
X128524000Y-77724000D02*
X128524000Y-78384000D01*
X129774000Y-84684000D02*
X129774000Y-78384000D01*
X127274000Y-84684000D02*
X129774000Y-84684000D01*
X127274000Y-78384000D02*
X127274000Y-84684000D01*
X129774000Y-78384000D02*
X127274000Y-78384000D01*
G04 #@! TO.C,R1*
X134468000Y-76180000D02*
X134468000Y-73680000D01*
X134468000Y-73680000D02*
X128168000Y-73680000D01*
X128168000Y-73680000D02*
X128168000Y-76180000D01*
X128168000Y-76180000D02*
X134468000Y-76180000D01*
X135128000Y-74930000D02*
X134468000Y-74930000D01*
X127508000Y-74930000D02*
X128168000Y-74930000D01*
G04 #@! TO.C,Q3*
X136732000Y-73812000D02*
X136732000Y-78212000D01*
X136732000Y-78212000D02*
X146732000Y-78212000D01*
X146732000Y-78212000D02*
X146732000Y-73812000D01*
X146732000Y-73812000D02*
X136732000Y-73812000D01*
X136732000Y-75082000D02*
X146732000Y-75082000D01*
X139882000Y-73812000D02*
X139882000Y-75082000D01*
X143582000Y-73812000D02*
X143582000Y-75082000D01*
G04 #@! TO.C,Q2*
X143582000Y-68478000D02*
X143582000Y-69748000D01*
X139882000Y-68478000D02*
X139882000Y-69748000D01*
X136732000Y-69748000D02*
X146732000Y-69748000D01*
X146732000Y-68478000D02*
X136732000Y-68478000D01*
X146732000Y-72878000D02*
X146732000Y-68478000D01*
X136732000Y-72878000D02*
X146732000Y-72878000D01*
X136732000Y-68478000D02*
X136732000Y-72878000D01*
G04 #@! TO.C,Q1*
X136732000Y-63144000D02*
X136732000Y-67544000D01*
X136732000Y-67544000D02*
X146732000Y-67544000D01*
X146732000Y-67544000D02*
X146732000Y-63144000D01*
X146732000Y-63144000D02*
X136732000Y-63144000D01*
X136732000Y-64414000D02*
X146732000Y-64414000D01*
X139882000Y-63144000D02*
X139882000Y-64414000D01*
X143582000Y-63144000D02*
X143582000Y-64414000D01*
G04 #@! TO.C,J6*
X127635000Y-125730000D02*
X125730000Y-125730000D01*
X125730000Y-125730000D02*
X125730000Y-120650000D01*
X125730000Y-120650000D02*
X128270000Y-120650000D01*
X128270000Y-120650000D02*
X128270000Y-125095000D01*
X128270000Y-125095000D02*
X127635000Y-125730000D01*
G04 #@! TO.C,J5*
X149225000Y-74930000D02*
X151130000Y-74930000D01*
X151130000Y-74930000D02*
X151130000Y-85090000D01*
X151130000Y-85090000D02*
X148590000Y-85090000D01*
X148590000Y-85090000D02*
X148590000Y-75565000D01*
X148590000Y-75565000D02*
X149225000Y-74930000D01*
G04 #@! TO.C,J4*
X148590000Y-88265000D02*
X149225000Y-87630000D01*
X148590000Y-118110000D02*
X148590000Y-88265000D01*
X151130000Y-118110000D02*
X148590000Y-118110000D01*
X151130000Y-87630000D02*
X151130000Y-118110000D01*
X149225000Y-87630000D02*
X151130000Y-87630000D01*
G04 #@! TO.C,J3*
X140970000Y-50165000D02*
X140970000Y-52070000D01*
X140970000Y-52070000D02*
X125730000Y-52070000D01*
X125730000Y-52070000D02*
X125730000Y-49530000D01*
X125730000Y-49530000D02*
X140335000Y-49530000D01*
X140335000Y-49530000D02*
X140970000Y-50165000D01*
G04 #@! TO.C,J2*
X126365000Y-87630000D02*
X128270000Y-87630000D01*
X128270000Y-87630000D02*
X128270000Y-118110000D01*
X128270000Y-118110000D02*
X125730000Y-118110000D01*
X125730000Y-118110000D02*
X125730000Y-88265000D01*
X125730000Y-88265000D02*
X126365000Y-87630000D01*
G04 #@! TO.C,J1*
X151063425Y-59940787D02*
X150308000Y-60744000D01*
X151058000Y-49744000D02*
X142058000Y-49744000D01*
X151058000Y-46244000D02*
X142058000Y-46244000D01*
X142058000Y-46244000D02*
X142058000Y-60744000D01*
X142058000Y-60744000D02*
X150308000Y-60744000D01*
X151058000Y-59944000D02*
X151058000Y-46244000D01*
G04 #@! TO.C,D2*
X148312555Y-119992524D02*
G75*
G03X148312000Y-122324190I-1500555J-1165476D01*
G01*
X148312000Y-121158000D02*
G75*
G03X148312000Y-121158000I-1500000J0D01*
G01*
X148312000Y-122324190D02*
X148312000Y-119991810D01*
G04 #@! TO.C,D1*
X137898000Y-58062190D02*
X137898000Y-55729810D01*
X137898000Y-56896000D02*
G75*
G03X137898000Y-56896000I-1500000J0D01*
G01*
X137898555Y-55730524D02*
G75*
G03X137898000Y-58062190I-1500555J-1165476D01*
G01*
G04 #@! TO.C,C6*
X127738000Y-55606000D02*
X132438000Y-55606000D01*
X127738000Y-53106000D02*
X127738000Y-55606000D01*
X132438000Y-53106000D02*
X127738000Y-53106000D01*
X132438000Y-55606000D02*
X132438000Y-53106000D01*
G04 #@! TO.C,C5*
X144038000Y-104244000D02*
X146538000Y-104244000D01*
X146538000Y-104244000D02*
X146538000Y-99544000D01*
X146538000Y-99544000D02*
X144038000Y-99544000D01*
X144038000Y-99544000D02*
X144038000Y-104244000D01*
G04 #@! TO.C,C4*
X144038000Y-111610000D02*
X146538000Y-111610000D01*
X146538000Y-111610000D02*
X146538000Y-106910000D01*
X146538000Y-106910000D02*
X144038000Y-106910000D01*
X144038000Y-106910000D02*
X144038000Y-111610000D01*
G04 #@! TO.C,C3*
X127738000Y-58908000D02*
X132438000Y-58908000D01*
X127738000Y-56408000D02*
X127738000Y-58908000D01*
X132438000Y-56408000D02*
X127738000Y-56408000D01*
X132438000Y-58908000D02*
X132438000Y-56408000D01*
G04 #@! TO.C,C2*
X130038554Y-63043500D02*
X130038554Y-62643500D01*
X130238554Y-62843500D02*
X129838554Y-62843500D01*
X130536000Y-61976000D02*
G75*
G03X130536000Y-61976000I-2000000J0D01*
G01*
G04 #@! TO.C,C1*
X135616000Y-62230000D02*
G75*
G03X135616000Y-62230000I-2000000J0D01*
G01*
X135318554Y-63097500D02*
X134918554Y-63097500D01*
X135118554Y-63297500D02*
X135118554Y-62897500D01*
G04 #@! TO.C,SW1*
X138482000Y-79586000D02*
X141482000Y-79586000D01*
X141482000Y-79586000D02*
X141482000Y-85586000D01*
X141482000Y-85586000D02*
X135482000Y-85586000D01*
X135482000Y-85586000D02*
X135482000Y-79586000D01*
X135482000Y-79586000D02*
X138482000Y-79586000D01*
X140497564Y-82586000D02*
G75*
G03X140497564Y-82586000I-2015564J0D01*
G01*
G04 #@! TD*
G04 #@! TO.C,BT1*
D12*
X131929142Y-139985238D02*
X131976761Y-140032857D01*
X132024380Y-140175714D01*
X132024380Y-140270952D01*
X131976761Y-140413809D01*
X131881523Y-140509047D01*
X131786285Y-140556666D01*
X131595809Y-140604285D01*
X131452952Y-140604285D01*
X131262476Y-140556666D01*
X131167238Y-140509047D01*
X131072000Y-140413809D01*
X131024380Y-140270952D01*
X131024380Y-140175714D01*
X131072000Y-140032857D01*
X131119619Y-139985238D01*
X132024380Y-138985238D02*
X131548190Y-139318571D01*
X132024380Y-139556666D02*
X131024380Y-139556666D01*
X131024380Y-139175714D01*
X131072000Y-139080476D01*
X131119619Y-139032857D01*
X131214857Y-138985238D01*
X131357714Y-138985238D01*
X131452952Y-139032857D01*
X131500571Y-139080476D01*
X131548190Y-139175714D01*
X131548190Y-139556666D01*
X132024380Y-138032857D02*
X132024380Y-138604285D01*
X132024380Y-138318571D02*
X131024380Y-138318571D01*
X131167238Y-138413809D01*
X131262476Y-138509047D01*
X131310095Y-138604285D01*
X131119619Y-137651904D02*
X131072000Y-137604285D01*
X131024380Y-137509047D01*
X131024380Y-137270952D01*
X131072000Y-137175714D01*
X131119619Y-137128095D01*
X131214857Y-137080476D01*
X131310095Y-137080476D01*
X131452952Y-137128095D01*
X132024380Y-137699523D01*
X132024380Y-137080476D01*
X131119619Y-136699523D02*
X131072000Y-136651904D01*
X131024380Y-136556666D01*
X131024380Y-136318571D01*
X131072000Y-136223333D01*
X131119619Y-136175714D01*
X131214857Y-136128095D01*
X131310095Y-136128095D01*
X131452952Y-136175714D01*
X132024380Y-136747142D01*
X132024380Y-136128095D01*
X131024380Y-135509047D02*
X131024380Y-135413809D01*
X131072000Y-135318571D01*
X131119619Y-135270952D01*
X131214857Y-135223333D01*
X131405333Y-135175714D01*
X131643428Y-135175714D01*
X131833904Y-135223333D01*
X131929142Y-135270952D01*
X131976761Y-135318571D01*
X132024380Y-135413809D01*
X132024380Y-135509047D01*
X131976761Y-135604285D01*
X131929142Y-135651904D01*
X131833904Y-135699523D01*
X131643428Y-135747142D01*
X131405333Y-135747142D01*
X131214857Y-135699523D01*
X131119619Y-135651904D01*
X131072000Y-135604285D01*
X131024380Y-135509047D01*
X131024380Y-134080476D02*
X131024380Y-133461428D01*
X131405333Y-133794761D01*
X131405333Y-133651904D01*
X131452952Y-133556666D01*
X131500571Y-133509047D01*
X131595809Y-133461428D01*
X131833904Y-133461428D01*
X131929142Y-133509047D01*
X131976761Y-133556666D01*
X132024380Y-133651904D01*
X132024380Y-133937619D01*
X131976761Y-134032857D01*
X131929142Y-134080476D01*
X131929142Y-133032857D02*
X131976761Y-132985238D01*
X132024380Y-133032857D01*
X131976761Y-133080476D01*
X131929142Y-133032857D01*
X132024380Y-133032857D01*
X131024380Y-132651904D02*
X131024380Y-132032857D01*
X131405333Y-132366190D01*
X131405333Y-132223333D01*
X131452952Y-132128095D01*
X131500571Y-132080476D01*
X131595809Y-132032857D01*
X131833904Y-132032857D01*
X131929142Y-132080476D01*
X131976761Y-132128095D01*
X132024380Y-132223333D01*
X132024380Y-132509047D01*
X131976761Y-132604285D01*
X131929142Y-132651904D01*
X131024380Y-131747142D02*
X132024380Y-131413809D01*
X131024380Y-131080476D01*
G04 #@! TO.C,Y2*
X134470380Y-112220476D02*
X134470380Y-112791904D01*
X134470380Y-112506190D02*
X133470380Y-112506190D01*
X133613238Y-112601428D01*
X133708476Y-112696666D01*
X133756095Y-112791904D01*
X133470380Y-111363333D02*
X133470380Y-111553809D01*
X133518000Y-111649047D01*
X133565619Y-111696666D01*
X133708476Y-111791904D01*
X133898952Y-111839523D01*
X134279904Y-111839523D01*
X134375142Y-111791904D01*
X134422761Y-111744285D01*
X134470380Y-111649047D01*
X134470380Y-111458571D01*
X134422761Y-111363333D01*
X134375142Y-111315714D01*
X134279904Y-111268095D01*
X134041809Y-111268095D01*
X133946571Y-111315714D01*
X133898952Y-111363333D01*
X133851333Y-111458571D01*
X133851333Y-111649047D01*
X133898952Y-111744285D01*
X133946571Y-111791904D01*
X134041809Y-111839523D01*
X134470380Y-110839523D02*
X133470380Y-110839523D01*
X134184666Y-110506190D01*
X133470380Y-110172857D01*
X134470380Y-110172857D01*
X134470380Y-109696666D02*
X133470380Y-109696666D01*
X133946571Y-109696666D02*
X133946571Y-109125238D01*
X134470380Y-109125238D02*
X133470380Y-109125238D01*
X133803714Y-108744285D02*
X133803714Y-108220476D01*
X134470380Y-108744285D01*
X134470380Y-108220476D01*
X131294190Y-111006190D02*
X131770380Y-111006190D01*
X130770380Y-111339523D02*
X131294190Y-111006190D01*
X130770380Y-110672857D01*
X130865619Y-110387142D02*
X130818000Y-110339523D01*
X130770380Y-110244285D01*
X130770380Y-110006190D01*
X130818000Y-109910952D01*
X130865619Y-109863333D01*
X130960857Y-109815714D01*
X131056095Y-109815714D01*
X131198952Y-109863333D01*
X131770380Y-110434761D01*
X131770380Y-109815714D01*
G04 #@! TO.C,Y1*
X149820380Y-130912761D02*
X149820380Y-130293714D01*
X150201333Y-130627047D01*
X150201333Y-130484190D01*
X150248952Y-130388952D01*
X150296571Y-130341333D01*
X150391809Y-130293714D01*
X150629904Y-130293714D01*
X150725142Y-130341333D01*
X150772761Y-130388952D01*
X150820380Y-130484190D01*
X150820380Y-130769904D01*
X150772761Y-130865142D01*
X150725142Y-130912761D01*
X149915619Y-129912761D02*
X149868000Y-129865142D01*
X149820380Y-129769904D01*
X149820380Y-129531809D01*
X149868000Y-129436571D01*
X149915619Y-129388952D01*
X150010857Y-129341333D01*
X150106095Y-129341333D01*
X150248952Y-129388952D01*
X150820380Y-129960380D01*
X150820380Y-129341333D01*
X150725142Y-128912761D02*
X150772761Y-128865142D01*
X150820380Y-128912761D01*
X150772761Y-128960380D01*
X150725142Y-128912761D01*
X150820380Y-128912761D01*
X149820380Y-128531809D02*
X149820380Y-127865142D01*
X150820380Y-128293714D01*
X149820380Y-127055619D02*
X149820380Y-127246095D01*
X149868000Y-127341333D01*
X149915619Y-127388952D01*
X150058476Y-127484190D01*
X150248952Y-127531809D01*
X150629904Y-127531809D01*
X150725142Y-127484190D01*
X150772761Y-127436571D01*
X150820380Y-127341333D01*
X150820380Y-127150857D01*
X150772761Y-127055619D01*
X150725142Y-127008000D01*
X150629904Y-126960380D01*
X150391809Y-126960380D01*
X150296571Y-127008000D01*
X150248952Y-127055619D01*
X150201333Y-127150857D01*
X150201333Y-127341333D01*
X150248952Y-127436571D01*
X150296571Y-127484190D01*
X150391809Y-127531809D01*
X150248952Y-126388952D02*
X150201333Y-126484190D01*
X150153714Y-126531809D01*
X150058476Y-126579428D01*
X150010857Y-126579428D01*
X149915619Y-126531809D01*
X149868000Y-126484190D01*
X149820380Y-126388952D01*
X149820380Y-126198476D01*
X149868000Y-126103238D01*
X149915619Y-126055619D01*
X150010857Y-126008000D01*
X150058476Y-126008000D01*
X150153714Y-126055619D01*
X150201333Y-126103238D01*
X150248952Y-126198476D01*
X150248952Y-126388952D01*
X150296571Y-126484190D01*
X150344190Y-126531809D01*
X150439428Y-126579428D01*
X150629904Y-126579428D01*
X150725142Y-126531809D01*
X150772761Y-126484190D01*
X150820380Y-126388952D01*
X150820380Y-126198476D01*
X150772761Y-126103238D01*
X150725142Y-126055619D01*
X150629904Y-126008000D01*
X150439428Y-126008000D01*
X150344190Y-126055619D01*
X150296571Y-126103238D01*
X150248952Y-126198476D01*
X150820380Y-125579428D02*
X149820380Y-125579428D01*
X150296571Y-125579428D02*
X150296571Y-125008000D01*
X150820380Y-125008000D02*
X149820380Y-125008000D01*
X150153714Y-124627047D02*
X150153714Y-124103238D01*
X150820380Y-124627047D01*
X150820380Y-124103238D01*
X147351809Y-125452190D02*
X147351809Y-125928380D01*
X147018476Y-124928380D02*
X147351809Y-125452190D01*
X147685142Y-124928380D01*
X148542285Y-125928380D02*
X147970857Y-125928380D01*
X148256571Y-125928380D02*
X148256571Y-124928380D01*
X148161333Y-125071238D01*
X148066095Y-125166476D01*
X147970857Y-125214095D01*
G04 #@! TO.C,U3*
X138596666Y-105250476D02*
X138596666Y-104774285D01*
X138882380Y-105345714D02*
X137882380Y-105012380D01*
X138882380Y-104679047D01*
X137882380Y-104488571D02*
X137882380Y-103917142D01*
X138882380Y-104202857D02*
X137882380Y-104202857D01*
X138882380Y-103583809D02*
X138215714Y-103583809D01*
X138310952Y-103583809D02*
X138263333Y-103536190D01*
X138215714Y-103440952D01*
X138215714Y-103298095D01*
X138263333Y-103202857D01*
X138358571Y-103155238D01*
X138882380Y-103155238D01*
X138358571Y-103155238D02*
X138263333Y-103107619D01*
X138215714Y-103012380D01*
X138215714Y-102869523D01*
X138263333Y-102774285D01*
X138358571Y-102726666D01*
X138882380Y-102726666D01*
X138834761Y-101869523D02*
X138882380Y-101964761D01*
X138882380Y-102155238D01*
X138834761Y-102250476D01*
X138739523Y-102298095D01*
X138358571Y-102298095D01*
X138263333Y-102250476D01*
X138215714Y-102155238D01*
X138215714Y-101964761D01*
X138263333Y-101869523D01*
X138358571Y-101821904D01*
X138453809Y-101821904D01*
X138549047Y-102298095D01*
X138215714Y-100964761D02*
X139025238Y-100964761D01*
X139120476Y-101012380D01*
X139168095Y-101060000D01*
X139215714Y-101155238D01*
X139215714Y-101298095D01*
X139168095Y-101393333D01*
X138834761Y-100964761D02*
X138882380Y-101060000D01*
X138882380Y-101250476D01*
X138834761Y-101345714D01*
X138787142Y-101393333D01*
X138691904Y-101440952D01*
X138406190Y-101440952D01*
X138310952Y-101393333D01*
X138263333Y-101345714D01*
X138215714Y-101250476D01*
X138215714Y-101060000D01*
X138263333Y-100964761D01*
X138882380Y-100060000D02*
X138358571Y-100060000D01*
X138263333Y-100107619D01*
X138215714Y-100202857D01*
X138215714Y-100393333D01*
X138263333Y-100488571D01*
X138834761Y-100060000D02*
X138882380Y-100155238D01*
X138882380Y-100393333D01*
X138834761Y-100488571D01*
X138739523Y-100536190D01*
X138644285Y-100536190D01*
X138549047Y-100488571D01*
X138501428Y-100393333D01*
X138501428Y-100155238D01*
X138453809Y-100060000D01*
X137882380Y-99679047D02*
X137882380Y-99060000D01*
X138263333Y-99393333D01*
X138263333Y-99250476D01*
X138310952Y-99155238D01*
X138358571Y-99107619D01*
X138453809Y-99060000D01*
X138691904Y-99060000D01*
X138787142Y-99107619D01*
X138834761Y-99155238D01*
X138882380Y-99250476D01*
X138882380Y-99536190D01*
X138834761Y-99631428D01*
X138787142Y-99679047D01*
X137977619Y-98679047D02*
X137930000Y-98631428D01*
X137882380Y-98536190D01*
X137882380Y-98298095D01*
X137930000Y-98202857D01*
X137977619Y-98155238D01*
X138072857Y-98107619D01*
X138168095Y-98107619D01*
X138310952Y-98155238D01*
X138882380Y-98726666D01*
X138882380Y-98107619D01*
X138310952Y-97536190D02*
X138263333Y-97631428D01*
X138215714Y-97679047D01*
X138120476Y-97726666D01*
X138072857Y-97726666D01*
X137977619Y-97679047D01*
X137930000Y-97631428D01*
X137882380Y-97536190D01*
X137882380Y-97345714D01*
X137930000Y-97250476D01*
X137977619Y-97202857D01*
X138072857Y-97155238D01*
X138120476Y-97155238D01*
X138215714Y-97202857D01*
X138263333Y-97250476D01*
X138310952Y-97345714D01*
X138310952Y-97536190D01*
X138358571Y-97631428D01*
X138406190Y-97679047D01*
X138501428Y-97726666D01*
X138691904Y-97726666D01*
X138787142Y-97679047D01*
X138834761Y-97631428D01*
X138882380Y-97536190D01*
X138882380Y-97345714D01*
X138834761Y-97250476D01*
X138787142Y-97202857D01*
X138691904Y-97155238D01*
X138501428Y-97155238D01*
X138406190Y-97202857D01*
X138358571Y-97250476D01*
X138310952Y-97345714D01*
X138882380Y-96726666D02*
X137882380Y-96726666D01*
X137882380Y-96345714D01*
X137930000Y-96250476D01*
X137977619Y-96202857D01*
X138072857Y-96155238D01*
X138215714Y-96155238D01*
X138310952Y-96202857D01*
X138358571Y-96250476D01*
X138406190Y-96345714D01*
X138406190Y-96726666D01*
X138501428Y-95726666D02*
X138501428Y-94964761D01*
X138882380Y-94488571D02*
X137882380Y-94488571D01*
X137882380Y-94107619D01*
X137930000Y-94012380D01*
X137977619Y-93964761D01*
X138072857Y-93917142D01*
X138215714Y-93917142D01*
X138310952Y-93964761D01*
X138358571Y-94012380D01*
X138406190Y-94107619D01*
X138406190Y-94488571D01*
X137882380Y-93488571D02*
X138691904Y-93488571D01*
X138787142Y-93440952D01*
X138834761Y-93393333D01*
X138882380Y-93298095D01*
X138882380Y-93107619D01*
X138834761Y-93012380D01*
X138787142Y-92964761D01*
X138691904Y-92917142D01*
X137882380Y-92917142D01*
X137668095Y-89368380D02*
X137668095Y-90177904D01*
X137715714Y-90273142D01*
X137763333Y-90320761D01*
X137858571Y-90368380D01*
X138049047Y-90368380D01*
X138144285Y-90320761D01*
X138191904Y-90273142D01*
X138239523Y-90177904D01*
X138239523Y-89368380D01*
X138620476Y-89368380D02*
X139239523Y-89368380D01*
X138906190Y-89749333D01*
X139049047Y-89749333D01*
X139144285Y-89796952D01*
X139191904Y-89844571D01*
X139239523Y-89939809D01*
X139239523Y-90177904D01*
X139191904Y-90273142D01*
X139144285Y-90320761D01*
X139049047Y-90368380D01*
X138763333Y-90368380D01*
X138668095Y-90320761D01*
X138620476Y-90273142D01*
G04 #@! TO.C,U2*
X142280095Y-141422380D02*
X142280095Y-140422380D01*
X142518190Y-140422380D01*
X142661047Y-140470000D01*
X142756285Y-140565238D01*
X142803904Y-140660476D01*
X142851523Y-140850952D01*
X142851523Y-140993809D01*
X142803904Y-141184285D01*
X142756285Y-141279523D01*
X142661047Y-141374761D01*
X142518190Y-141422380D01*
X142280095Y-141422380D01*
X143232476Y-141374761D02*
X143375333Y-141422380D01*
X143613428Y-141422380D01*
X143708666Y-141374761D01*
X143756285Y-141327142D01*
X143803904Y-141231904D01*
X143803904Y-141136666D01*
X143756285Y-141041428D01*
X143708666Y-140993809D01*
X143613428Y-140946190D01*
X143422952Y-140898571D01*
X143327714Y-140850952D01*
X143280095Y-140803333D01*
X143232476Y-140708095D01*
X143232476Y-140612857D01*
X143280095Y-140517619D01*
X143327714Y-140470000D01*
X143422952Y-140422380D01*
X143661047Y-140422380D01*
X143803904Y-140470000D01*
X144756285Y-141422380D02*
X144184857Y-141422380D01*
X144470571Y-141422380D02*
X144470571Y-140422380D01*
X144375333Y-140565238D01*
X144280095Y-140660476D01*
X144184857Y-140708095D01*
X145089619Y-140422380D02*
X145708666Y-140422380D01*
X145375333Y-140803333D01*
X145518190Y-140803333D01*
X145613428Y-140850952D01*
X145661047Y-140898571D01*
X145708666Y-140993809D01*
X145708666Y-141231904D01*
X145661047Y-141327142D01*
X145613428Y-141374761D01*
X145518190Y-141422380D01*
X145232476Y-141422380D01*
X145137238Y-141374761D01*
X145089619Y-141327142D01*
X146327714Y-140422380D02*
X146422952Y-140422380D01*
X146518190Y-140470000D01*
X146565809Y-140517619D01*
X146613428Y-140612857D01*
X146661047Y-140803333D01*
X146661047Y-141041428D01*
X146613428Y-141231904D01*
X146565809Y-141327142D01*
X146518190Y-141374761D01*
X146422952Y-141422380D01*
X146327714Y-141422380D01*
X146232476Y-141374761D01*
X146184857Y-141327142D01*
X146137238Y-141231904D01*
X146089619Y-141041428D01*
X146089619Y-140803333D01*
X146137238Y-140612857D01*
X146184857Y-140517619D01*
X146232476Y-140470000D01*
X146327714Y-140422380D01*
X146994380Y-140422380D02*
X147661047Y-140422380D01*
X147232476Y-141422380D01*
X148042000Y-141041428D02*
X148803904Y-141041428D01*
X148422952Y-141422380D02*
X148422952Y-140660476D01*
X144526095Y-138644380D02*
X144526095Y-139453904D01*
X144573714Y-139549142D01*
X144621333Y-139596761D01*
X144716571Y-139644380D01*
X144907047Y-139644380D01*
X145002285Y-139596761D01*
X145049904Y-139549142D01*
X145097523Y-139453904D01*
X145097523Y-138644380D01*
X145526095Y-138739619D02*
X145573714Y-138692000D01*
X145668952Y-138644380D01*
X145907047Y-138644380D01*
X146002285Y-138692000D01*
X146049904Y-138739619D01*
X146097523Y-138834857D01*
X146097523Y-138930095D01*
X146049904Y-139072952D01*
X145478476Y-139644380D01*
X146097523Y-139644380D01*
G04 #@! TO.C,U1*
X125150761Y-67508380D02*
X124674571Y-67508380D01*
X124674571Y-66508380D01*
X125912666Y-66841714D02*
X125912666Y-67508380D01*
X125674571Y-66460761D02*
X125436476Y-67175047D01*
X126055523Y-67175047D01*
X126484095Y-67508380D02*
X126674571Y-67508380D01*
X126769809Y-67460761D01*
X126817428Y-67413142D01*
X126912666Y-67270285D01*
X126960285Y-67079809D01*
X126960285Y-66698857D01*
X126912666Y-66603619D01*
X126865047Y-66556000D01*
X126769809Y-66508380D01*
X126579333Y-66508380D01*
X126484095Y-66556000D01*
X126436476Y-66603619D01*
X126388857Y-66698857D01*
X126388857Y-66936952D01*
X126436476Y-67032190D01*
X126484095Y-67079809D01*
X126579333Y-67127428D01*
X126769809Y-67127428D01*
X126865047Y-67079809D01*
X126912666Y-67032190D01*
X126960285Y-66936952D01*
X127293619Y-66508380D02*
X127912666Y-66508380D01*
X127579333Y-66889333D01*
X127722190Y-66889333D01*
X127817428Y-66936952D01*
X127865047Y-66984571D01*
X127912666Y-67079809D01*
X127912666Y-67317904D01*
X127865047Y-67413142D01*
X127817428Y-67460761D01*
X127722190Y-67508380D01*
X127436476Y-67508380D01*
X127341238Y-67460761D01*
X127293619Y-67413142D01*
X128865047Y-67508380D02*
X128293619Y-67508380D01*
X128579333Y-67508380D02*
X128579333Y-66508380D01*
X128484095Y-66651238D01*
X128388857Y-66746476D01*
X128293619Y-66794095D01*
X131064095Y-66254380D02*
X131064095Y-67063904D01*
X131111714Y-67159142D01*
X131159333Y-67206761D01*
X131254571Y-67254380D01*
X131445047Y-67254380D01*
X131540285Y-67206761D01*
X131587904Y-67159142D01*
X131635523Y-67063904D01*
X131635523Y-66254380D01*
X132635523Y-67254380D02*
X132064095Y-67254380D01*
X132349809Y-67254380D02*
X132349809Y-66254380D01*
X132254571Y-66397238D01*
X132159333Y-66492476D01*
X132064095Y-66540095D01*
G04 #@! TO.C,R8*
X145740380Y-85685238D02*
X145740380Y-86256666D01*
X145740380Y-85970952D02*
X144740380Y-85970952D01*
X144883238Y-86066190D01*
X144978476Y-86161428D01*
X145026095Y-86256666D01*
X144740380Y-85066190D02*
X144740380Y-84970952D01*
X144788000Y-84875714D01*
X144835619Y-84828095D01*
X144930857Y-84780476D01*
X145121333Y-84732857D01*
X145359428Y-84732857D01*
X145549904Y-84780476D01*
X145645142Y-84828095D01*
X145692761Y-84875714D01*
X145740380Y-84970952D01*
X145740380Y-85066190D01*
X145692761Y-85161428D01*
X145645142Y-85209047D01*
X145549904Y-85256666D01*
X145359428Y-85304285D01*
X145121333Y-85304285D01*
X144930857Y-85256666D01*
X144835619Y-85209047D01*
X144788000Y-85161428D01*
X144740380Y-85066190D01*
X145740380Y-84304285D02*
X144740380Y-84304285D01*
X145359428Y-84209047D02*
X145740380Y-83923333D01*
X145073714Y-83923333D02*
X145454666Y-84304285D01*
X145121333Y-82240380D02*
X144788000Y-81764190D01*
X144549904Y-82240380D02*
X144549904Y-81240380D01*
X144930857Y-81240380D01*
X145026095Y-81288000D01*
X145073714Y-81335619D01*
X145121333Y-81430857D01*
X145121333Y-81573714D01*
X145073714Y-81668952D01*
X145026095Y-81716571D01*
X144930857Y-81764190D01*
X144549904Y-81764190D01*
X145692761Y-81668952D02*
X145597523Y-81621333D01*
X145549904Y-81573714D01*
X145502285Y-81478476D01*
X145502285Y-81430857D01*
X145549904Y-81335619D01*
X145597523Y-81288000D01*
X145692761Y-81240380D01*
X145883238Y-81240380D01*
X145978476Y-81288000D01*
X146026095Y-81335619D01*
X146073714Y-81430857D01*
X146073714Y-81478476D01*
X146026095Y-81573714D01*
X145978476Y-81621333D01*
X145883238Y-81668952D01*
X145692761Y-81668952D01*
X145597523Y-81716571D01*
X145549904Y-81764190D01*
X145502285Y-81859428D01*
X145502285Y-82049904D01*
X145549904Y-82145142D01*
X145597523Y-82192761D01*
X145692761Y-82240380D01*
X145883238Y-82240380D01*
X145978476Y-82192761D01*
X146026095Y-82145142D01*
X146073714Y-82049904D01*
X146073714Y-81859428D01*
X146026095Y-81764190D01*
X145978476Y-81716571D01*
X145883238Y-81668952D01*
G04 #@! TO.C,R7*
X142454380Y-130825714D02*
X142454380Y-130206666D01*
X142835333Y-130540000D01*
X142835333Y-130397142D01*
X142882952Y-130301904D01*
X142930571Y-130254285D01*
X143025809Y-130206666D01*
X143263904Y-130206666D01*
X143359142Y-130254285D01*
X143406761Y-130301904D01*
X143454380Y-130397142D01*
X143454380Y-130682857D01*
X143406761Y-130778095D01*
X143359142Y-130825714D01*
X142454380Y-129873333D02*
X142454380Y-129254285D01*
X142835333Y-129587619D01*
X142835333Y-129444761D01*
X142882952Y-129349523D01*
X142930571Y-129301904D01*
X143025809Y-129254285D01*
X143263904Y-129254285D01*
X143359142Y-129301904D01*
X143406761Y-129349523D01*
X143454380Y-129444761D01*
X143454380Y-129730476D01*
X143406761Y-129825714D01*
X143359142Y-129873333D01*
X142454380Y-128635238D02*
X142454380Y-128540000D01*
X142502000Y-128444761D01*
X142549619Y-128397142D01*
X142644857Y-128349523D01*
X142835333Y-128301904D01*
X143073428Y-128301904D01*
X143263904Y-128349523D01*
X143359142Y-128397142D01*
X143406761Y-128444761D01*
X143454380Y-128540000D01*
X143454380Y-128635238D01*
X143406761Y-128730476D01*
X143359142Y-128778095D01*
X143263904Y-128825714D01*
X143073428Y-128873333D01*
X142835333Y-128873333D01*
X142644857Y-128825714D01*
X142549619Y-128778095D01*
X142502000Y-128730476D01*
X142454380Y-128635238D01*
X142835333Y-126944380D02*
X142502000Y-126468190D01*
X142263904Y-126944380D02*
X142263904Y-125944380D01*
X142644857Y-125944380D01*
X142740095Y-125992000D01*
X142787714Y-126039619D01*
X142835333Y-126134857D01*
X142835333Y-126277714D01*
X142787714Y-126372952D01*
X142740095Y-126420571D01*
X142644857Y-126468190D01*
X142263904Y-126468190D01*
X143168666Y-125944380D02*
X143835333Y-125944380D01*
X143406761Y-126944380D01*
G04 #@! TO.C,R6*
X132024380Y-123023238D02*
X132024380Y-123594666D01*
X132024380Y-123308952D02*
X131024380Y-123308952D01*
X131167238Y-123404190D01*
X131262476Y-123499428D01*
X131310095Y-123594666D01*
X131024380Y-122404190D02*
X131024380Y-122308952D01*
X131072000Y-122213714D01*
X131119619Y-122166095D01*
X131214857Y-122118476D01*
X131405333Y-122070857D01*
X131643428Y-122070857D01*
X131833904Y-122118476D01*
X131929142Y-122166095D01*
X131976761Y-122213714D01*
X132024380Y-122308952D01*
X132024380Y-122404190D01*
X131976761Y-122499428D01*
X131929142Y-122547047D01*
X131833904Y-122594666D01*
X131643428Y-122642285D01*
X131405333Y-122642285D01*
X131214857Y-122594666D01*
X131119619Y-122547047D01*
X131072000Y-122499428D01*
X131024380Y-122404190D01*
X132024380Y-121642285D02*
X131024380Y-121642285D01*
X131643428Y-121547047D02*
X132024380Y-121261333D01*
X131357714Y-121261333D02*
X131738666Y-121642285D01*
X131405333Y-119832380D02*
X131072000Y-119356190D01*
X130833904Y-119832380D02*
X130833904Y-118832380D01*
X131214857Y-118832380D01*
X131310095Y-118880000D01*
X131357714Y-118927619D01*
X131405333Y-119022857D01*
X131405333Y-119165714D01*
X131357714Y-119260952D01*
X131310095Y-119308571D01*
X131214857Y-119356190D01*
X130833904Y-119356190D01*
X132262476Y-118832380D02*
X132072000Y-118832380D01*
X131976761Y-118880000D01*
X131929142Y-118927619D01*
X131833904Y-119070476D01*
X131786285Y-119260952D01*
X131786285Y-119641904D01*
X131833904Y-119737142D01*
X131881523Y-119784761D01*
X131976761Y-119832380D01*
X132167238Y-119832380D01*
X132262476Y-119784761D01*
X132310095Y-119737142D01*
X132357714Y-119641904D01*
X132357714Y-119403809D01*
X132310095Y-119308571D01*
X132262476Y-119260952D01*
X132167238Y-119213333D01*
X131976761Y-119213333D01*
X131881523Y-119260952D01*
X131833904Y-119308571D01*
X131786285Y-119403809D01*
G04 #@! TO.C,R5*
X139898380Y-130135238D02*
X139898380Y-130706666D01*
X139898380Y-130420952D02*
X138898380Y-130420952D01*
X139041238Y-130516190D01*
X139136476Y-130611428D01*
X139184095Y-130706666D01*
X138898380Y-129516190D02*
X138898380Y-129420952D01*
X138946000Y-129325714D01*
X138993619Y-129278095D01*
X139088857Y-129230476D01*
X139279333Y-129182857D01*
X139517428Y-129182857D01*
X139707904Y-129230476D01*
X139803142Y-129278095D01*
X139850761Y-129325714D01*
X139898380Y-129420952D01*
X139898380Y-129516190D01*
X139850761Y-129611428D01*
X139803142Y-129659047D01*
X139707904Y-129706666D01*
X139517428Y-129754285D01*
X139279333Y-129754285D01*
X139088857Y-129706666D01*
X138993619Y-129659047D01*
X138946000Y-129611428D01*
X138898380Y-129516190D01*
X139898380Y-128754285D02*
X138898380Y-128754285D01*
X139517428Y-128659047D02*
X139898380Y-128373333D01*
X139231714Y-128373333D02*
X139612666Y-128754285D01*
X139279333Y-126944380D02*
X138946000Y-126468190D01*
X138707904Y-126944380D02*
X138707904Y-125944380D01*
X139088857Y-125944380D01*
X139184095Y-125992000D01*
X139231714Y-126039619D01*
X139279333Y-126134857D01*
X139279333Y-126277714D01*
X139231714Y-126372952D01*
X139184095Y-126420571D01*
X139088857Y-126468190D01*
X138707904Y-126468190D01*
X140184095Y-125944380D02*
X139707904Y-125944380D01*
X139660285Y-126420571D01*
X139707904Y-126372952D01*
X139803142Y-126325333D01*
X140041238Y-126325333D01*
X140136476Y-126372952D01*
X140184095Y-126420571D01*
X140231714Y-126515809D01*
X140231714Y-126753904D01*
X140184095Y-126849142D01*
X140136476Y-126896761D01*
X140041238Y-126944380D01*
X139803142Y-126944380D01*
X139707904Y-126896761D01*
X139660285Y-126849142D01*
G04 #@! TO.C,R4*
X132246761Y-75382380D02*
X131675333Y-75382380D01*
X131961047Y-75382380D02*
X131961047Y-74382380D01*
X131865809Y-74525238D01*
X131770571Y-74620476D01*
X131675333Y-74668095D01*
X132865809Y-74382380D02*
X132961047Y-74382380D01*
X133056285Y-74430000D01*
X133103904Y-74477619D01*
X133151523Y-74572857D01*
X133199142Y-74763333D01*
X133199142Y-75001428D01*
X133151523Y-75191904D01*
X133103904Y-75287142D01*
X133056285Y-75334761D01*
X132961047Y-75382380D01*
X132865809Y-75382380D01*
X132770571Y-75334761D01*
X132722952Y-75287142D01*
X132675333Y-75191904D01*
X132627714Y-75001428D01*
X132627714Y-74763333D01*
X132675333Y-74572857D01*
X132722952Y-74477619D01*
X132770571Y-74430000D01*
X132865809Y-74382380D01*
X133627714Y-75382380D02*
X133627714Y-74382380D01*
X133722952Y-75001428D02*
X134008666Y-75382380D01*
X134008666Y-74715714D02*
X133627714Y-75096666D01*
X129373333Y-72080380D02*
X129040000Y-71604190D01*
X128801904Y-72080380D02*
X128801904Y-71080380D01*
X129182857Y-71080380D01*
X129278095Y-71128000D01*
X129325714Y-71175619D01*
X129373333Y-71270857D01*
X129373333Y-71413714D01*
X129325714Y-71508952D01*
X129278095Y-71556571D01*
X129182857Y-71604190D01*
X128801904Y-71604190D01*
X130230476Y-71413714D02*
X130230476Y-72080380D01*
X129992380Y-71032761D02*
X129754285Y-71747047D01*
X130373333Y-71747047D01*
G04 #@! TO.C,R3*
X132278380Y-83145238D02*
X132278380Y-83716666D01*
X132278380Y-83430952D02*
X131278380Y-83430952D01*
X131421238Y-83526190D01*
X131516476Y-83621428D01*
X131564095Y-83716666D01*
X131278380Y-82526190D02*
X131278380Y-82430952D01*
X131326000Y-82335714D01*
X131373619Y-82288095D01*
X131468857Y-82240476D01*
X131659333Y-82192857D01*
X131897428Y-82192857D01*
X132087904Y-82240476D01*
X132183142Y-82288095D01*
X132230761Y-82335714D01*
X132278380Y-82430952D01*
X132278380Y-82526190D01*
X132230761Y-82621428D01*
X132183142Y-82669047D01*
X132087904Y-82716666D01*
X131897428Y-82764285D01*
X131659333Y-82764285D01*
X131468857Y-82716666D01*
X131373619Y-82669047D01*
X131326000Y-82621428D01*
X131278380Y-82526190D01*
X132278380Y-81764285D02*
X131278380Y-81764285D01*
X131897428Y-81669047D02*
X132278380Y-81383333D01*
X131611714Y-81383333D02*
X131992666Y-81764285D01*
X131659333Y-79954380D02*
X131326000Y-79478190D01*
X131087904Y-79954380D02*
X131087904Y-78954380D01*
X131468857Y-78954380D01*
X131564095Y-79002000D01*
X131611714Y-79049619D01*
X131659333Y-79144857D01*
X131659333Y-79287714D01*
X131611714Y-79382952D01*
X131564095Y-79430571D01*
X131468857Y-79478190D01*
X131087904Y-79478190D01*
X131992666Y-78954380D02*
X132611714Y-78954380D01*
X132278380Y-79335333D01*
X132421238Y-79335333D01*
X132516476Y-79382952D01*
X132564095Y-79430571D01*
X132611714Y-79525809D01*
X132611714Y-79763904D01*
X132564095Y-79859142D01*
X132516476Y-79906761D01*
X132421238Y-79954380D01*
X132135523Y-79954380D01*
X132040285Y-79906761D01*
X131992666Y-79859142D01*
G04 #@! TO.C,R2*
X128976380Y-83399238D02*
X128976380Y-83970666D01*
X128976380Y-83684952D02*
X127976380Y-83684952D01*
X128119238Y-83780190D01*
X128214476Y-83875428D01*
X128262095Y-83970666D01*
X127976380Y-82780190D02*
X127976380Y-82684952D01*
X128024000Y-82589714D01*
X128071619Y-82542095D01*
X128166857Y-82494476D01*
X128357333Y-82446857D01*
X128595428Y-82446857D01*
X128785904Y-82494476D01*
X128881142Y-82542095D01*
X128928761Y-82589714D01*
X128976380Y-82684952D01*
X128976380Y-82780190D01*
X128928761Y-82875428D01*
X128881142Y-82923047D01*
X128785904Y-82970666D01*
X128595428Y-83018285D01*
X128357333Y-83018285D01*
X128166857Y-82970666D01*
X128071619Y-82923047D01*
X128024000Y-82875428D01*
X127976380Y-82780190D01*
X128976380Y-82018285D02*
X127976380Y-82018285D01*
X128595428Y-81923047D02*
X128976380Y-81637333D01*
X128309714Y-81637333D02*
X128690666Y-82018285D01*
X128357333Y-79954380D02*
X128024000Y-79478190D01*
X127785904Y-79954380D02*
X127785904Y-78954380D01*
X128166857Y-78954380D01*
X128262095Y-79002000D01*
X128309714Y-79049619D01*
X128357333Y-79144857D01*
X128357333Y-79287714D01*
X128309714Y-79382952D01*
X128262095Y-79430571D01*
X128166857Y-79478190D01*
X127785904Y-79478190D01*
X128738285Y-79049619D02*
X128785904Y-79002000D01*
X128881142Y-78954380D01*
X129119238Y-78954380D01*
X129214476Y-79002000D01*
X129262095Y-79049619D01*
X129309714Y-79144857D01*
X129309714Y-79240095D01*
X129262095Y-79382952D01*
X128690666Y-79954380D01*
X129309714Y-79954380D01*
G04 #@! TO.C,R1*
X132246761Y-72080380D02*
X131675333Y-72080380D01*
X131961047Y-72080380D02*
X131961047Y-71080380D01*
X131865809Y-71223238D01*
X131770571Y-71318476D01*
X131675333Y-71366095D01*
X132865809Y-71080380D02*
X132961047Y-71080380D01*
X133056285Y-71128000D01*
X133103904Y-71175619D01*
X133151523Y-71270857D01*
X133199142Y-71461333D01*
X133199142Y-71699428D01*
X133151523Y-71889904D01*
X133103904Y-71985142D01*
X133056285Y-72032761D01*
X132961047Y-72080380D01*
X132865809Y-72080380D01*
X132770571Y-72032761D01*
X132722952Y-71985142D01*
X132675333Y-71889904D01*
X132627714Y-71699428D01*
X132627714Y-71461333D01*
X132675333Y-71270857D01*
X132722952Y-71175619D01*
X132770571Y-71128000D01*
X132865809Y-71080380D01*
X133627714Y-72080380D02*
X133627714Y-71080380D01*
X133722952Y-71699428D02*
X134008666Y-72080380D01*
X134008666Y-71413714D02*
X133627714Y-71794666D01*
X129373333Y-75382380D02*
X129040000Y-74906190D01*
X128801904Y-75382380D02*
X128801904Y-74382380D01*
X129182857Y-74382380D01*
X129278095Y-74430000D01*
X129325714Y-74477619D01*
X129373333Y-74572857D01*
X129373333Y-74715714D01*
X129325714Y-74810952D01*
X129278095Y-74858571D01*
X129182857Y-74906190D01*
X128801904Y-74906190D01*
X130325714Y-75382380D02*
X129754285Y-75382380D01*
X130040000Y-75382380D02*
X130040000Y-74382380D01*
X129944761Y-74525238D01*
X129849523Y-74620476D01*
X129754285Y-74668095D01*
G04 #@! TO.C,Q3*
X147106190Y-74318761D02*
X147249047Y-74366380D01*
X147487142Y-74366380D01*
X147582380Y-74318761D01*
X147630000Y-74271142D01*
X147677619Y-74175904D01*
X147677619Y-74080666D01*
X147630000Y-73985428D01*
X147582380Y-73937809D01*
X147487142Y-73890190D01*
X147296666Y-73842571D01*
X147201428Y-73794952D01*
X147153809Y-73747333D01*
X147106190Y-73652095D01*
X147106190Y-73556857D01*
X147153809Y-73461619D01*
X147201428Y-73414000D01*
X147296666Y-73366380D01*
X147534761Y-73366380D01*
X147677619Y-73414000D01*
X147963333Y-73366380D02*
X148534761Y-73366380D01*
X148249047Y-74366380D02*
X148249047Y-73366380D01*
X148868095Y-74366380D02*
X148868095Y-73366380D01*
X149249047Y-73366380D01*
X149344285Y-73414000D01*
X149391904Y-73461619D01*
X149439523Y-73556857D01*
X149439523Y-73699714D01*
X149391904Y-73794952D01*
X149344285Y-73842571D01*
X149249047Y-73890190D01*
X148868095Y-73890190D01*
X150391904Y-74366380D02*
X149820476Y-74366380D01*
X150106190Y-74366380D02*
X150106190Y-73366380D01*
X150010952Y-73509238D01*
X149915714Y-73604476D01*
X149820476Y-73652095D01*
X151249047Y-73366380D02*
X151058571Y-73366380D01*
X150963333Y-73414000D01*
X150915714Y-73461619D01*
X150820476Y-73604476D01*
X150772857Y-73794952D01*
X150772857Y-74175904D01*
X150820476Y-74271142D01*
X150868095Y-74318761D01*
X150963333Y-74366380D01*
X151153809Y-74366380D01*
X151249047Y-74318761D01*
X151296666Y-74271142D01*
X151344285Y-74175904D01*
X151344285Y-73937809D01*
X151296666Y-73842571D01*
X151249047Y-73794952D01*
X151153809Y-73747333D01*
X150963333Y-73747333D01*
X150868095Y-73794952D01*
X150820476Y-73842571D01*
X150772857Y-73937809D01*
X151772857Y-74366380D02*
X151772857Y-73366380D01*
X152344285Y-74366380D01*
X152344285Y-73366380D01*
X153153809Y-73842571D02*
X152820476Y-73842571D01*
X152820476Y-74366380D02*
X152820476Y-73366380D01*
X153296666Y-73366380D01*
X153868095Y-73366380D02*
X153963333Y-73366380D01*
X154058571Y-73414000D01*
X154106190Y-73461619D01*
X154153809Y-73556857D01*
X154201428Y-73747333D01*
X154201428Y-73985428D01*
X154153809Y-74175904D01*
X154106190Y-74271142D01*
X154058571Y-74318761D01*
X153963333Y-74366380D01*
X153868095Y-74366380D01*
X153772857Y-74318761D01*
X153725238Y-74271142D01*
X153677619Y-74175904D01*
X153630000Y-73985428D01*
X153630000Y-73747333D01*
X153677619Y-73556857D01*
X153725238Y-73461619D01*
X153772857Y-73414000D01*
X153868095Y-73366380D01*
X155058571Y-73366380D02*
X154868095Y-73366380D01*
X154772857Y-73414000D01*
X154725238Y-73461619D01*
X154630000Y-73604476D01*
X154582380Y-73794952D01*
X154582380Y-74175904D01*
X154630000Y-74271142D01*
X154677619Y-74318761D01*
X154772857Y-74366380D01*
X154963333Y-74366380D01*
X155058571Y-74318761D01*
X155106190Y-74271142D01*
X155153809Y-74175904D01*
X155153809Y-73937809D01*
X155106190Y-73842571D01*
X155058571Y-73794952D01*
X154963333Y-73747333D01*
X154772857Y-73747333D01*
X154677619Y-73794952D01*
X154630000Y-73842571D01*
X154582380Y-73937809D01*
X141636761Y-77255619D02*
X141541523Y-77208000D01*
X141446285Y-77112761D01*
X141303428Y-76969904D01*
X141208190Y-76922285D01*
X141112952Y-76922285D01*
X141160571Y-77160380D02*
X141065333Y-77112761D01*
X140970095Y-77017523D01*
X140922476Y-76827047D01*
X140922476Y-76493714D01*
X140970095Y-76303238D01*
X141065333Y-76208000D01*
X141160571Y-76160380D01*
X141351047Y-76160380D01*
X141446285Y-76208000D01*
X141541523Y-76303238D01*
X141589142Y-76493714D01*
X141589142Y-76827047D01*
X141541523Y-77017523D01*
X141446285Y-77112761D01*
X141351047Y-77160380D01*
X141160571Y-77160380D01*
X141922476Y-76160380D02*
X142541523Y-76160380D01*
X142208190Y-76541333D01*
X142351047Y-76541333D01*
X142446285Y-76588952D01*
X142493904Y-76636571D01*
X142541523Y-76731809D01*
X142541523Y-76969904D01*
X142493904Y-77065142D01*
X142446285Y-77112761D01*
X142351047Y-77160380D01*
X142065333Y-77160380D01*
X141970095Y-77112761D01*
X141922476Y-77065142D01*
G04 #@! TO.C,Q2*
X147106190Y-71016761D02*
X147249047Y-71064380D01*
X147487142Y-71064380D01*
X147582380Y-71016761D01*
X147630000Y-70969142D01*
X147677619Y-70873904D01*
X147677619Y-70778666D01*
X147630000Y-70683428D01*
X147582380Y-70635809D01*
X147487142Y-70588190D01*
X147296666Y-70540571D01*
X147201428Y-70492952D01*
X147153809Y-70445333D01*
X147106190Y-70350095D01*
X147106190Y-70254857D01*
X147153809Y-70159619D01*
X147201428Y-70112000D01*
X147296666Y-70064380D01*
X147534761Y-70064380D01*
X147677619Y-70112000D01*
X147963333Y-70064380D02*
X148534761Y-70064380D01*
X148249047Y-71064380D02*
X148249047Y-70064380D01*
X148868095Y-71064380D02*
X148868095Y-70064380D01*
X149249047Y-70064380D01*
X149344285Y-70112000D01*
X149391904Y-70159619D01*
X149439523Y-70254857D01*
X149439523Y-70397714D01*
X149391904Y-70492952D01*
X149344285Y-70540571D01*
X149249047Y-70588190D01*
X148868095Y-70588190D01*
X150391904Y-71064380D02*
X149820476Y-71064380D01*
X150106190Y-71064380D02*
X150106190Y-70064380D01*
X150010952Y-70207238D01*
X149915714Y-70302476D01*
X149820476Y-70350095D01*
X151249047Y-70064380D02*
X151058571Y-70064380D01*
X150963333Y-70112000D01*
X150915714Y-70159619D01*
X150820476Y-70302476D01*
X150772857Y-70492952D01*
X150772857Y-70873904D01*
X150820476Y-70969142D01*
X150868095Y-71016761D01*
X150963333Y-71064380D01*
X151153809Y-71064380D01*
X151249047Y-71016761D01*
X151296666Y-70969142D01*
X151344285Y-70873904D01*
X151344285Y-70635809D01*
X151296666Y-70540571D01*
X151249047Y-70492952D01*
X151153809Y-70445333D01*
X150963333Y-70445333D01*
X150868095Y-70492952D01*
X150820476Y-70540571D01*
X150772857Y-70635809D01*
X151772857Y-71064380D02*
X151772857Y-70064380D01*
X152344285Y-71064380D01*
X152344285Y-70064380D01*
X153153809Y-70540571D02*
X152820476Y-70540571D01*
X152820476Y-71064380D02*
X152820476Y-70064380D01*
X153296666Y-70064380D01*
X153868095Y-70064380D02*
X153963333Y-70064380D01*
X154058571Y-70112000D01*
X154106190Y-70159619D01*
X154153809Y-70254857D01*
X154201428Y-70445333D01*
X154201428Y-70683428D01*
X154153809Y-70873904D01*
X154106190Y-70969142D01*
X154058571Y-71016761D01*
X153963333Y-71064380D01*
X153868095Y-71064380D01*
X153772857Y-71016761D01*
X153725238Y-70969142D01*
X153677619Y-70873904D01*
X153630000Y-70683428D01*
X153630000Y-70445333D01*
X153677619Y-70254857D01*
X153725238Y-70159619D01*
X153772857Y-70112000D01*
X153868095Y-70064380D01*
X155058571Y-70064380D02*
X154868095Y-70064380D01*
X154772857Y-70112000D01*
X154725238Y-70159619D01*
X154630000Y-70302476D01*
X154582380Y-70492952D01*
X154582380Y-70873904D01*
X154630000Y-70969142D01*
X154677619Y-71016761D01*
X154772857Y-71064380D01*
X154963333Y-71064380D01*
X155058571Y-71016761D01*
X155106190Y-70969142D01*
X155153809Y-70873904D01*
X155153809Y-70635809D01*
X155106190Y-70540571D01*
X155058571Y-70492952D01*
X154963333Y-70445333D01*
X154772857Y-70445333D01*
X154677619Y-70492952D01*
X154630000Y-70540571D01*
X154582380Y-70635809D01*
X141636761Y-71921619D02*
X141541523Y-71874000D01*
X141446285Y-71778761D01*
X141303428Y-71635904D01*
X141208190Y-71588285D01*
X141112952Y-71588285D01*
X141160571Y-71826380D02*
X141065333Y-71778761D01*
X140970095Y-71683523D01*
X140922476Y-71493047D01*
X140922476Y-71159714D01*
X140970095Y-70969238D01*
X141065333Y-70874000D01*
X141160571Y-70826380D01*
X141351047Y-70826380D01*
X141446285Y-70874000D01*
X141541523Y-70969238D01*
X141589142Y-71159714D01*
X141589142Y-71493047D01*
X141541523Y-71683523D01*
X141446285Y-71778761D01*
X141351047Y-71826380D01*
X141160571Y-71826380D01*
X141970095Y-70921619D02*
X142017714Y-70874000D01*
X142112952Y-70826380D01*
X142351047Y-70826380D01*
X142446285Y-70874000D01*
X142493904Y-70921619D01*
X142541523Y-71016857D01*
X142541523Y-71112095D01*
X142493904Y-71254952D01*
X141922476Y-71826380D01*
X142541523Y-71826380D01*
G04 #@! TO.C,Q1*
X147106190Y-65682761D02*
X147249047Y-65730380D01*
X147487142Y-65730380D01*
X147582380Y-65682761D01*
X147630000Y-65635142D01*
X147677619Y-65539904D01*
X147677619Y-65444666D01*
X147630000Y-65349428D01*
X147582380Y-65301809D01*
X147487142Y-65254190D01*
X147296666Y-65206571D01*
X147201428Y-65158952D01*
X147153809Y-65111333D01*
X147106190Y-65016095D01*
X147106190Y-64920857D01*
X147153809Y-64825619D01*
X147201428Y-64778000D01*
X147296666Y-64730380D01*
X147534761Y-64730380D01*
X147677619Y-64778000D01*
X147963333Y-64730380D02*
X148534761Y-64730380D01*
X148249047Y-65730380D02*
X148249047Y-64730380D01*
X148868095Y-65730380D02*
X148868095Y-64730380D01*
X149249047Y-64730380D01*
X149344285Y-64778000D01*
X149391904Y-64825619D01*
X149439523Y-64920857D01*
X149439523Y-65063714D01*
X149391904Y-65158952D01*
X149344285Y-65206571D01*
X149249047Y-65254190D01*
X148868095Y-65254190D01*
X150391904Y-65730380D02*
X149820476Y-65730380D01*
X150106190Y-65730380D02*
X150106190Y-64730380D01*
X150010952Y-64873238D01*
X149915714Y-64968476D01*
X149820476Y-65016095D01*
X151249047Y-64730380D02*
X151058571Y-64730380D01*
X150963333Y-64778000D01*
X150915714Y-64825619D01*
X150820476Y-64968476D01*
X150772857Y-65158952D01*
X150772857Y-65539904D01*
X150820476Y-65635142D01*
X150868095Y-65682761D01*
X150963333Y-65730380D01*
X151153809Y-65730380D01*
X151249047Y-65682761D01*
X151296666Y-65635142D01*
X151344285Y-65539904D01*
X151344285Y-65301809D01*
X151296666Y-65206571D01*
X151249047Y-65158952D01*
X151153809Y-65111333D01*
X150963333Y-65111333D01*
X150868095Y-65158952D01*
X150820476Y-65206571D01*
X150772857Y-65301809D01*
X151772857Y-65730380D02*
X151772857Y-64730380D01*
X152344285Y-65730380D01*
X152344285Y-64730380D01*
X153153809Y-65206571D02*
X152820476Y-65206571D01*
X152820476Y-65730380D02*
X152820476Y-64730380D01*
X153296666Y-64730380D01*
X153868095Y-64730380D02*
X153963333Y-64730380D01*
X154058571Y-64778000D01*
X154106190Y-64825619D01*
X154153809Y-64920857D01*
X154201428Y-65111333D01*
X154201428Y-65349428D01*
X154153809Y-65539904D01*
X154106190Y-65635142D01*
X154058571Y-65682761D01*
X153963333Y-65730380D01*
X153868095Y-65730380D01*
X153772857Y-65682761D01*
X153725238Y-65635142D01*
X153677619Y-65539904D01*
X153630000Y-65349428D01*
X153630000Y-65111333D01*
X153677619Y-64920857D01*
X153725238Y-64825619D01*
X153772857Y-64778000D01*
X153868095Y-64730380D01*
X155058571Y-64730380D02*
X154868095Y-64730380D01*
X154772857Y-64778000D01*
X154725238Y-64825619D01*
X154630000Y-64968476D01*
X154582380Y-65158952D01*
X154582380Y-65539904D01*
X154630000Y-65635142D01*
X154677619Y-65682761D01*
X154772857Y-65730380D01*
X154963333Y-65730380D01*
X155058571Y-65682761D01*
X155106190Y-65635142D01*
X155153809Y-65539904D01*
X155153809Y-65301809D01*
X155106190Y-65206571D01*
X155058571Y-65158952D01*
X154963333Y-65111333D01*
X154772857Y-65111333D01*
X154677619Y-65158952D01*
X154630000Y-65206571D01*
X154582380Y-65301809D01*
X141636761Y-66587619D02*
X141541523Y-66540000D01*
X141446285Y-66444761D01*
X141303428Y-66301904D01*
X141208190Y-66254285D01*
X141112952Y-66254285D01*
X141160571Y-66492380D02*
X141065333Y-66444761D01*
X140970095Y-66349523D01*
X140922476Y-66159047D01*
X140922476Y-65825714D01*
X140970095Y-65635238D01*
X141065333Y-65540000D01*
X141160571Y-65492380D01*
X141351047Y-65492380D01*
X141446285Y-65540000D01*
X141541523Y-65635238D01*
X141589142Y-65825714D01*
X141589142Y-66159047D01*
X141541523Y-66349523D01*
X141446285Y-66444761D01*
X141351047Y-66492380D01*
X141160571Y-66492380D01*
X142541523Y-66492380D02*
X141970095Y-66492380D01*
X142255809Y-66492380D02*
X142255809Y-65492380D01*
X142160571Y-65635238D01*
X142065333Y-65730476D01*
X141970095Y-65778095D01*
G04 #@! TO.C,J6*
X124912380Y-125547142D02*
X123912380Y-125547142D01*
X124388571Y-125547142D02*
X124388571Y-124975714D01*
X124912380Y-124975714D02*
X123912380Y-124975714D01*
X124864761Y-124118571D02*
X124912380Y-124213809D01*
X124912380Y-124404285D01*
X124864761Y-124499523D01*
X124769523Y-124547142D01*
X124388571Y-124547142D01*
X124293333Y-124499523D01*
X124245714Y-124404285D01*
X124245714Y-124213809D01*
X124293333Y-124118571D01*
X124388571Y-124070952D01*
X124483809Y-124070952D01*
X124579047Y-124547142D01*
X124912380Y-123213809D02*
X124388571Y-123213809D01*
X124293333Y-123261428D01*
X124245714Y-123356666D01*
X124245714Y-123547142D01*
X124293333Y-123642380D01*
X124864761Y-123213809D02*
X124912380Y-123309047D01*
X124912380Y-123547142D01*
X124864761Y-123642380D01*
X124769523Y-123690000D01*
X124674285Y-123690000D01*
X124579047Y-123642380D01*
X124531428Y-123547142D01*
X124531428Y-123309047D01*
X124483809Y-123213809D01*
X124912380Y-122309047D02*
X123912380Y-122309047D01*
X124864761Y-122309047D02*
X124912380Y-122404285D01*
X124912380Y-122594761D01*
X124864761Y-122690000D01*
X124817142Y-122737619D01*
X124721904Y-122785238D01*
X124436190Y-122785238D01*
X124340952Y-122737619D01*
X124293333Y-122690000D01*
X124245714Y-122594761D01*
X124245714Y-122404285D01*
X124293333Y-122309047D01*
X124864761Y-121451904D02*
X124912380Y-121547142D01*
X124912380Y-121737619D01*
X124864761Y-121832857D01*
X124769523Y-121880476D01*
X124388571Y-121880476D01*
X124293333Y-121832857D01*
X124245714Y-121737619D01*
X124245714Y-121547142D01*
X124293333Y-121451904D01*
X124388571Y-121404285D01*
X124483809Y-121404285D01*
X124579047Y-121880476D01*
X124912380Y-120975714D02*
X124245714Y-120975714D01*
X124436190Y-120975714D02*
X124340952Y-120928095D01*
X124293333Y-120880476D01*
X124245714Y-120785238D01*
X124245714Y-120690000D01*
X126452380Y-123523333D02*
X127166666Y-123523333D01*
X127309523Y-123570952D01*
X127404761Y-123666190D01*
X127452380Y-123809047D01*
X127452380Y-123904285D01*
X126452380Y-122618571D02*
X126452380Y-122809047D01*
X126500000Y-122904285D01*
X126547619Y-122951904D01*
X126690476Y-123047142D01*
X126880952Y-123094761D01*
X127261904Y-123094761D01*
X127357142Y-123047142D01*
X127404761Y-122999523D01*
X127452380Y-122904285D01*
X127452380Y-122713809D01*
X127404761Y-122618571D01*
X127357142Y-122570952D01*
X127261904Y-122523333D01*
X127023809Y-122523333D01*
X126928571Y-122570952D01*
X126880952Y-122618571D01*
X126833333Y-122713809D01*
X126833333Y-122904285D01*
X126880952Y-122999523D01*
X126928571Y-123047142D01*
X127023809Y-123094761D01*
G04 #@! TO.C,J5*
X152852380Y-82367142D02*
X151852380Y-82367142D01*
X152328571Y-82367142D02*
X152328571Y-81795714D01*
X152852380Y-81795714D02*
X151852380Y-81795714D01*
X152804761Y-80938571D02*
X152852380Y-81033809D01*
X152852380Y-81224285D01*
X152804761Y-81319523D01*
X152709523Y-81367142D01*
X152328571Y-81367142D01*
X152233333Y-81319523D01*
X152185714Y-81224285D01*
X152185714Y-81033809D01*
X152233333Y-80938571D01*
X152328571Y-80890952D01*
X152423809Y-80890952D01*
X152519047Y-81367142D01*
X152852380Y-80033809D02*
X152328571Y-80033809D01*
X152233333Y-80081428D01*
X152185714Y-80176666D01*
X152185714Y-80367142D01*
X152233333Y-80462380D01*
X152804761Y-80033809D02*
X152852380Y-80129047D01*
X152852380Y-80367142D01*
X152804761Y-80462380D01*
X152709523Y-80510000D01*
X152614285Y-80510000D01*
X152519047Y-80462380D01*
X152471428Y-80367142D01*
X152471428Y-80129047D01*
X152423809Y-80033809D01*
X152852380Y-79129047D02*
X151852380Y-79129047D01*
X152804761Y-79129047D02*
X152852380Y-79224285D01*
X152852380Y-79414761D01*
X152804761Y-79510000D01*
X152757142Y-79557619D01*
X152661904Y-79605238D01*
X152376190Y-79605238D01*
X152280952Y-79557619D01*
X152233333Y-79510000D01*
X152185714Y-79414761D01*
X152185714Y-79224285D01*
X152233333Y-79129047D01*
X152804761Y-78271904D02*
X152852380Y-78367142D01*
X152852380Y-78557619D01*
X152804761Y-78652857D01*
X152709523Y-78700476D01*
X152328571Y-78700476D01*
X152233333Y-78652857D01*
X152185714Y-78557619D01*
X152185714Y-78367142D01*
X152233333Y-78271904D01*
X152328571Y-78224285D01*
X152423809Y-78224285D01*
X152519047Y-78700476D01*
X152852380Y-77795714D02*
X152185714Y-77795714D01*
X152376190Y-77795714D02*
X152280952Y-77748095D01*
X152233333Y-77700476D01*
X152185714Y-77605238D01*
X152185714Y-77510000D01*
X149312380Y-80343333D02*
X150026666Y-80343333D01*
X150169523Y-80390952D01*
X150264761Y-80486190D01*
X150312380Y-80629047D01*
X150312380Y-80724285D01*
X149312380Y-79390952D02*
X149312380Y-79867142D01*
X149788571Y-79914761D01*
X149740952Y-79867142D01*
X149693333Y-79771904D01*
X149693333Y-79533809D01*
X149740952Y-79438571D01*
X149788571Y-79390952D01*
X149883809Y-79343333D01*
X150121904Y-79343333D01*
X150217142Y-79390952D01*
X150264761Y-79438571D01*
X150312380Y-79533809D01*
X150312380Y-79771904D01*
X150264761Y-79867142D01*
X150217142Y-79914761D01*
G04 #@! TO.C,J4*
X152852380Y-105227142D02*
X151852380Y-105227142D01*
X152328571Y-105227142D02*
X152328571Y-104655714D01*
X152852380Y-104655714D02*
X151852380Y-104655714D01*
X152804761Y-103798571D02*
X152852380Y-103893809D01*
X152852380Y-104084285D01*
X152804761Y-104179523D01*
X152709523Y-104227142D01*
X152328571Y-104227142D01*
X152233333Y-104179523D01*
X152185714Y-104084285D01*
X152185714Y-103893809D01*
X152233333Y-103798571D01*
X152328571Y-103750952D01*
X152423809Y-103750952D01*
X152519047Y-104227142D01*
X152852380Y-102893809D02*
X152328571Y-102893809D01*
X152233333Y-102941428D01*
X152185714Y-103036666D01*
X152185714Y-103227142D01*
X152233333Y-103322380D01*
X152804761Y-102893809D02*
X152852380Y-102989047D01*
X152852380Y-103227142D01*
X152804761Y-103322380D01*
X152709523Y-103370000D01*
X152614285Y-103370000D01*
X152519047Y-103322380D01*
X152471428Y-103227142D01*
X152471428Y-102989047D01*
X152423809Y-102893809D01*
X152852380Y-101989047D02*
X151852380Y-101989047D01*
X152804761Y-101989047D02*
X152852380Y-102084285D01*
X152852380Y-102274761D01*
X152804761Y-102370000D01*
X152757142Y-102417619D01*
X152661904Y-102465238D01*
X152376190Y-102465238D01*
X152280952Y-102417619D01*
X152233333Y-102370000D01*
X152185714Y-102274761D01*
X152185714Y-102084285D01*
X152233333Y-101989047D01*
X152804761Y-101131904D02*
X152852380Y-101227142D01*
X152852380Y-101417619D01*
X152804761Y-101512857D01*
X152709523Y-101560476D01*
X152328571Y-101560476D01*
X152233333Y-101512857D01*
X152185714Y-101417619D01*
X152185714Y-101227142D01*
X152233333Y-101131904D01*
X152328571Y-101084285D01*
X152423809Y-101084285D01*
X152519047Y-101560476D01*
X152852380Y-100655714D02*
X152185714Y-100655714D01*
X152376190Y-100655714D02*
X152280952Y-100608095D01*
X152233333Y-100560476D01*
X152185714Y-100465238D01*
X152185714Y-100370000D01*
X149312380Y-103203333D02*
X150026666Y-103203333D01*
X150169523Y-103250952D01*
X150264761Y-103346190D01*
X150312380Y-103489047D01*
X150312380Y-103584285D01*
X149645714Y-102298571D02*
X150312380Y-102298571D01*
X149264761Y-102536666D02*
X149979047Y-102774761D01*
X149979047Y-102155714D01*
G04 #@! TO.C,J3*
X129969047Y-48188571D02*
X129635714Y-48188571D01*
X129635714Y-48712380D02*
X129635714Y-47712380D01*
X130111904Y-47712380D01*
X130350000Y-47712380D02*
X130921428Y-47712380D01*
X130635714Y-48712380D02*
X130635714Y-47712380D01*
X131254761Y-48712380D02*
X131254761Y-47712380D01*
X131492857Y-47712380D01*
X131635714Y-47760000D01*
X131730952Y-47855238D01*
X131778571Y-47950476D01*
X131826190Y-48140952D01*
X131826190Y-48283809D01*
X131778571Y-48474285D01*
X131730952Y-48569523D01*
X131635714Y-48664761D01*
X131492857Y-48712380D01*
X131254761Y-48712380D01*
X132254761Y-48712380D02*
X132254761Y-47712380D01*
X133826190Y-48188571D02*
X133969047Y-48236190D01*
X134016666Y-48283809D01*
X134064285Y-48379047D01*
X134064285Y-48521904D01*
X134016666Y-48617142D01*
X133969047Y-48664761D01*
X133873809Y-48712380D01*
X133492857Y-48712380D01*
X133492857Y-47712380D01*
X133826190Y-47712380D01*
X133921428Y-47760000D01*
X133969047Y-47807619D01*
X134016666Y-47902857D01*
X134016666Y-47998095D01*
X133969047Y-48093333D01*
X133921428Y-48140952D01*
X133826190Y-48188571D01*
X133492857Y-48188571D01*
X134921428Y-48712380D02*
X134921428Y-48188571D01*
X134873809Y-48093333D01*
X134778571Y-48045714D01*
X134588095Y-48045714D01*
X134492857Y-48093333D01*
X134921428Y-48664761D02*
X134826190Y-48712380D01*
X134588095Y-48712380D01*
X134492857Y-48664761D01*
X134445238Y-48569523D01*
X134445238Y-48474285D01*
X134492857Y-48379047D01*
X134588095Y-48331428D01*
X134826190Y-48331428D01*
X134921428Y-48283809D01*
X135350000Y-48664761D02*
X135445238Y-48712380D01*
X135635714Y-48712380D01*
X135730952Y-48664761D01*
X135778571Y-48569523D01*
X135778571Y-48521904D01*
X135730952Y-48426666D01*
X135635714Y-48379047D01*
X135492857Y-48379047D01*
X135397619Y-48331428D01*
X135350000Y-48236190D01*
X135350000Y-48188571D01*
X135397619Y-48093333D01*
X135492857Y-48045714D01*
X135635714Y-48045714D01*
X135730952Y-48093333D01*
X136207142Y-48712380D02*
X136207142Y-48045714D01*
X136207142Y-47712380D02*
X136159523Y-47760000D01*
X136207142Y-47807619D01*
X136254761Y-47760000D01*
X136207142Y-47712380D01*
X136207142Y-47807619D01*
X137111904Y-48664761D02*
X137016666Y-48712380D01*
X136826190Y-48712380D01*
X136730952Y-48664761D01*
X136683333Y-48617142D01*
X136635714Y-48521904D01*
X136635714Y-48236190D01*
X136683333Y-48140952D01*
X136730952Y-48093333D01*
X136826190Y-48045714D01*
X137016666Y-48045714D01*
X137111904Y-48093333D01*
X133016666Y-50252380D02*
X133016666Y-50966666D01*
X132969047Y-51109523D01*
X132873809Y-51204761D01*
X132730952Y-51252380D01*
X132635714Y-51252380D01*
X133397619Y-50252380D02*
X134016666Y-50252380D01*
X133683333Y-50633333D01*
X133826190Y-50633333D01*
X133921428Y-50680952D01*
X133969047Y-50728571D01*
X134016666Y-50823809D01*
X134016666Y-51061904D01*
X133969047Y-51157142D01*
X133921428Y-51204761D01*
X133826190Y-51252380D01*
X133540476Y-51252380D01*
X133445238Y-51204761D01*
X133397619Y-51157142D01*
G04 #@! TO.C,J2*
X124912380Y-105227142D02*
X123912380Y-105227142D01*
X124388571Y-105227142D02*
X124388571Y-104655714D01*
X124912380Y-104655714D02*
X123912380Y-104655714D01*
X124864761Y-103798571D02*
X124912380Y-103893809D01*
X124912380Y-104084285D01*
X124864761Y-104179523D01*
X124769523Y-104227142D01*
X124388571Y-104227142D01*
X124293333Y-104179523D01*
X124245714Y-104084285D01*
X124245714Y-103893809D01*
X124293333Y-103798571D01*
X124388571Y-103750952D01*
X124483809Y-103750952D01*
X124579047Y-104227142D01*
X124912380Y-102893809D02*
X124388571Y-102893809D01*
X124293333Y-102941428D01*
X124245714Y-103036666D01*
X124245714Y-103227142D01*
X124293333Y-103322380D01*
X124864761Y-102893809D02*
X124912380Y-102989047D01*
X124912380Y-103227142D01*
X124864761Y-103322380D01*
X124769523Y-103370000D01*
X124674285Y-103370000D01*
X124579047Y-103322380D01*
X124531428Y-103227142D01*
X124531428Y-102989047D01*
X124483809Y-102893809D01*
X124912380Y-101989047D02*
X123912380Y-101989047D01*
X124864761Y-101989047D02*
X124912380Y-102084285D01*
X124912380Y-102274761D01*
X124864761Y-102370000D01*
X124817142Y-102417619D01*
X124721904Y-102465238D01*
X124436190Y-102465238D01*
X124340952Y-102417619D01*
X124293333Y-102370000D01*
X124245714Y-102274761D01*
X124245714Y-102084285D01*
X124293333Y-101989047D01*
X124864761Y-101131904D02*
X124912380Y-101227142D01*
X124912380Y-101417619D01*
X124864761Y-101512857D01*
X124769523Y-101560476D01*
X124388571Y-101560476D01*
X124293333Y-101512857D01*
X124245714Y-101417619D01*
X124245714Y-101227142D01*
X124293333Y-101131904D01*
X124388571Y-101084285D01*
X124483809Y-101084285D01*
X124579047Y-101560476D01*
X124912380Y-100655714D02*
X124245714Y-100655714D01*
X124436190Y-100655714D02*
X124340952Y-100608095D01*
X124293333Y-100560476D01*
X124245714Y-100465238D01*
X124245714Y-100370000D01*
X126452380Y-103203333D02*
X127166666Y-103203333D01*
X127309523Y-103250952D01*
X127404761Y-103346190D01*
X127452380Y-103489047D01*
X127452380Y-103584285D01*
X126547619Y-102774761D02*
X126500000Y-102727142D01*
X126452380Y-102631904D01*
X126452380Y-102393809D01*
X126500000Y-102298571D01*
X126547619Y-102250952D01*
X126642857Y-102203333D01*
X126738095Y-102203333D01*
X126880952Y-102250952D01*
X127452380Y-102822380D01*
X127452380Y-102203333D01*
G04 #@! TO.C,J1*
X149661619Y-59244952D02*
X149614000Y-59197333D01*
X149566380Y-59102095D01*
X149566380Y-58864000D01*
X149614000Y-58768761D01*
X149661619Y-58721142D01*
X149756857Y-58673523D01*
X149852095Y-58673523D01*
X149994952Y-58721142D01*
X150566380Y-59292571D01*
X150566380Y-58673523D01*
X150471142Y-58244952D02*
X150518761Y-58197333D01*
X150566380Y-58244952D01*
X150518761Y-58292571D01*
X150471142Y-58244952D01*
X150566380Y-58244952D01*
X150566380Y-57244952D02*
X150566380Y-57816380D01*
X150566380Y-57530666D02*
X149566380Y-57530666D01*
X149709238Y-57625904D01*
X149804476Y-57721142D01*
X149852095Y-57816380D01*
X150566380Y-56816380D02*
X149899714Y-56816380D01*
X149994952Y-56816380D02*
X149947333Y-56768761D01*
X149899714Y-56673523D01*
X149899714Y-56530666D01*
X149947333Y-56435428D01*
X150042571Y-56387809D01*
X150566380Y-56387809D01*
X150042571Y-56387809D02*
X149947333Y-56340190D01*
X149899714Y-56244952D01*
X149899714Y-56102095D01*
X149947333Y-56006857D01*
X150042571Y-55959238D01*
X150566380Y-55959238D01*
X150566380Y-55483047D02*
X149899714Y-55483047D01*
X149994952Y-55483047D02*
X149947333Y-55435428D01*
X149899714Y-55340190D01*
X149899714Y-55197333D01*
X149947333Y-55102095D01*
X150042571Y-55054476D01*
X150566380Y-55054476D01*
X150042571Y-55054476D02*
X149947333Y-55006857D01*
X149899714Y-54911619D01*
X149899714Y-54768761D01*
X149947333Y-54673523D01*
X150042571Y-54625904D01*
X150566380Y-54625904D01*
X149566380Y-53102095D02*
X150280666Y-53102095D01*
X150423523Y-53149714D01*
X150518761Y-53244952D01*
X150566380Y-53387809D01*
X150566380Y-53483047D01*
X150566380Y-52197333D02*
X150042571Y-52197333D01*
X149947333Y-52244952D01*
X149899714Y-52340190D01*
X149899714Y-52530666D01*
X149947333Y-52625904D01*
X150518761Y-52197333D02*
X150566380Y-52292571D01*
X150566380Y-52530666D01*
X150518761Y-52625904D01*
X150423523Y-52673523D01*
X150328285Y-52673523D01*
X150233047Y-52625904D01*
X150185428Y-52530666D01*
X150185428Y-52292571D01*
X150137809Y-52197333D01*
X150518761Y-51292571D02*
X150566380Y-51387809D01*
X150566380Y-51578285D01*
X150518761Y-51673523D01*
X150471142Y-51721142D01*
X150375904Y-51768761D01*
X150090190Y-51768761D01*
X149994952Y-51721142D01*
X149947333Y-51673523D01*
X149899714Y-51578285D01*
X149899714Y-51387809D01*
X149947333Y-51292571D01*
X150566380Y-50864000D02*
X149566380Y-50864000D01*
X150185428Y-50768761D02*
X150566380Y-50483047D01*
X149899714Y-50483047D02*
X150280666Y-50864000D01*
X146224666Y-50506380D02*
X146224666Y-51220666D01*
X146177047Y-51363523D01*
X146081809Y-51458761D01*
X145938952Y-51506380D01*
X145843714Y-51506380D01*
X147224666Y-51506380D02*
X146653238Y-51506380D01*
X146938952Y-51506380D02*
X146938952Y-50506380D01*
X146843714Y-50649238D01*
X146748476Y-50744476D01*
X146653238Y-50792095D01*
G04 #@! TO.C,D2*
X146169142Y-121610380D02*
X145692952Y-121610380D01*
X145692952Y-120610380D01*
X146502476Y-121086571D02*
X146835809Y-121086571D01*
X146978666Y-121610380D02*
X146502476Y-121610380D01*
X146502476Y-120610380D01*
X146978666Y-120610380D01*
X147407238Y-121610380D02*
X147407238Y-120610380D01*
X147645333Y-120610380D01*
X147788190Y-120658000D01*
X147883428Y-120753238D01*
X147931047Y-120848476D01*
X147978666Y-121038952D01*
X147978666Y-121181809D01*
X147931047Y-121372285D01*
X147883428Y-121467523D01*
X147788190Y-121562761D01*
X147645333Y-121610380D01*
X147407238Y-121610380D01*
G04 #@! TO.C,D1*
X135755142Y-57348380D02*
X135278952Y-57348380D01*
X135278952Y-56348380D01*
X136088476Y-56824571D02*
X136421809Y-56824571D01*
X136564666Y-57348380D02*
X136088476Y-57348380D01*
X136088476Y-56348380D01*
X136564666Y-56348380D01*
X136993238Y-57348380D02*
X136993238Y-56348380D01*
X137231333Y-56348380D01*
X137374190Y-56396000D01*
X137469428Y-56491238D01*
X137517047Y-56586476D01*
X137564666Y-56776952D01*
X137564666Y-56919809D01*
X137517047Y-57110285D01*
X137469428Y-57205523D01*
X137374190Y-57300761D01*
X137231333Y-57348380D01*
X136993238Y-57348380D01*
G04 #@! TO.C,C6*
X123833142Y-53808380D02*
X123928380Y-53808380D01*
X124023619Y-53856000D01*
X124071238Y-53903619D01*
X124118857Y-53998857D01*
X124166476Y-54189333D01*
X124166476Y-54427428D01*
X124118857Y-54617904D01*
X124071238Y-54713142D01*
X124023619Y-54760761D01*
X123928380Y-54808380D01*
X123833142Y-54808380D01*
X123737904Y-54760761D01*
X123690285Y-54713142D01*
X123642666Y-54617904D01*
X123595047Y-54427428D01*
X123595047Y-54189333D01*
X123642666Y-53998857D01*
X123690285Y-53903619D01*
X123737904Y-53856000D01*
X123833142Y-53808380D01*
X124595047Y-54713142D02*
X124642666Y-54760761D01*
X124595047Y-54808380D01*
X124547428Y-54760761D01*
X124595047Y-54713142D01*
X124595047Y-54808380D01*
X125595047Y-54808380D02*
X125023619Y-54808380D01*
X125309333Y-54808380D02*
X125309333Y-53808380D01*
X125214095Y-53951238D01*
X125118857Y-54046476D01*
X125023619Y-54094095D01*
X126452190Y-54141714D02*
X126452190Y-54808380D01*
X126023619Y-54141714D02*
X126023619Y-54665523D01*
X126071238Y-54760761D01*
X126166476Y-54808380D01*
X126309333Y-54808380D01*
X126404571Y-54760761D01*
X126452190Y-54713142D01*
X127261714Y-54284571D02*
X126928380Y-54284571D01*
X126928380Y-54808380D02*
X126928380Y-53808380D01*
X127404571Y-53808380D01*
D13*
X129931333Y-54691714D02*
X129886571Y-54736476D01*
X129752285Y-54781238D01*
X129662761Y-54781238D01*
X129528476Y-54736476D01*
X129438952Y-54646952D01*
X129394190Y-54557428D01*
X129349428Y-54378380D01*
X129349428Y-54244095D01*
X129394190Y-54065047D01*
X129438952Y-53975523D01*
X129528476Y-53886000D01*
X129662761Y-53841238D01*
X129752285Y-53841238D01*
X129886571Y-53886000D01*
X129931333Y-53930761D01*
X130737047Y-53841238D02*
X130558000Y-53841238D01*
X130468476Y-53886000D01*
X130423714Y-53930761D01*
X130334190Y-54065047D01*
X130289428Y-54244095D01*
X130289428Y-54602190D01*
X130334190Y-54691714D01*
X130378952Y-54736476D01*
X130468476Y-54781238D01*
X130647523Y-54781238D01*
X130737047Y-54736476D01*
X130781809Y-54691714D01*
X130826571Y-54602190D01*
X130826571Y-54378380D01*
X130781809Y-54288857D01*
X130737047Y-54244095D01*
X130647523Y-54199333D01*
X130468476Y-54199333D01*
X130378952Y-54244095D01*
X130334190Y-54288857D01*
X130289428Y-54378380D01*
G04 #@! TO.C,C5*
D12*
X143645142Y-104608380D02*
X143740380Y-104608380D01*
X143835619Y-104656000D01*
X143883238Y-104703619D01*
X143930857Y-104798857D01*
X143978476Y-104989333D01*
X143978476Y-105227428D01*
X143930857Y-105417904D01*
X143883238Y-105513142D01*
X143835619Y-105560761D01*
X143740380Y-105608380D01*
X143645142Y-105608380D01*
X143549904Y-105560761D01*
X143502285Y-105513142D01*
X143454666Y-105417904D01*
X143407047Y-105227428D01*
X143407047Y-104989333D01*
X143454666Y-104798857D01*
X143502285Y-104703619D01*
X143549904Y-104656000D01*
X143645142Y-104608380D01*
X144407047Y-105513142D02*
X144454666Y-105560761D01*
X144407047Y-105608380D01*
X144359428Y-105560761D01*
X144407047Y-105513142D01*
X144407047Y-105608380D01*
X145407047Y-105608380D02*
X144835619Y-105608380D01*
X145121333Y-105608380D02*
X145121333Y-104608380D01*
X145026095Y-104751238D01*
X144930857Y-104846476D01*
X144835619Y-104894095D01*
X146264190Y-104941714D02*
X146264190Y-105608380D01*
X145835619Y-104941714D02*
X145835619Y-105465523D01*
X145883238Y-105560761D01*
X145978476Y-105608380D01*
X146121333Y-105608380D01*
X146216571Y-105560761D01*
X146264190Y-105513142D01*
X147073714Y-105084571D02*
X146740380Y-105084571D01*
X146740380Y-105608380D02*
X146740380Y-104608380D01*
X147216571Y-104608380D01*
D13*
X145131333Y-102443714D02*
X145086571Y-102488476D01*
X144952285Y-102533238D01*
X144862761Y-102533238D01*
X144728476Y-102488476D01*
X144638952Y-102398952D01*
X144594190Y-102309428D01*
X144549428Y-102130380D01*
X144549428Y-101996095D01*
X144594190Y-101817047D01*
X144638952Y-101727523D01*
X144728476Y-101638000D01*
X144862761Y-101593238D01*
X144952285Y-101593238D01*
X145086571Y-101638000D01*
X145131333Y-101682761D01*
X145981809Y-101593238D02*
X145534190Y-101593238D01*
X145489428Y-102040857D01*
X145534190Y-101996095D01*
X145623714Y-101951333D01*
X145847523Y-101951333D01*
X145937047Y-101996095D01*
X145981809Y-102040857D01*
X146026571Y-102130380D01*
X146026571Y-102354190D01*
X145981809Y-102443714D01*
X145937047Y-102488476D01*
X145847523Y-102533238D01*
X145623714Y-102533238D01*
X145534190Y-102488476D01*
X145489428Y-102443714D01*
G04 #@! TO.C,C4*
D12*
X143645142Y-111974380D02*
X143740380Y-111974380D01*
X143835619Y-112022000D01*
X143883238Y-112069619D01*
X143930857Y-112164857D01*
X143978476Y-112355333D01*
X143978476Y-112593428D01*
X143930857Y-112783904D01*
X143883238Y-112879142D01*
X143835619Y-112926761D01*
X143740380Y-112974380D01*
X143645142Y-112974380D01*
X143549904Y-112926761D01*
X143502285Y-112879142D01*
X143454666Y-112783904D01*
X143407047Y-112593428D01*
X143407047Y-112355333D01*
X143454666Y-112164857D01*
X143502285Y-112069619D01*
X143549904Y-112022000D01*
X143645142Y-111974380D01*
X144407047Y-112879142D02*
X144454666Y-112926761D01*
X144407047Y-112974380D01*
X144359428Y-112926761D01*
X144407047Y-112879142D01*
X144407047Y-112974380D01*
X145407047Y-112974380D02*
X144835619Y-112974380D01*
X145121333Y-112974380D02*
X145121333Y-111974380D01*
X145026095Y-112117238D01*
X144930857Y-112212476D01*
X144835619Y-112260095D01*
X146264190Y-112307714D02*
X146264190Y-112974380D01*
X145835619Y-112307714D02*
X145835619Y-112831523D01*
X145883238Y-112926761D01*
X145978476Y-112974380D01*
X146121333Y-112974380D01*
X146216571Y-112926761D01*
X146264190Y-112879142D01*
X147073714Y-112450571D02*
X146740380Y-112450571D01*
X146740380Y-112974380D02*
X146740380Y-111974380D01*
X147216571Y-111974380D01*
D13*
X145131333Y-109595714D02*
X145086571Y-109640476D01*
X144952285Y-109685238D01*
X144862761Y-109685238D01*
X144728476Y-109640476D01*
X144638952Y-109550952D01*
X144594190Y-109461428D01*
X144549428Y-109282380D01*
X144549428Y-109148095D01*
X144594190Y-108969047D01*
X144638952Y-108879523D01*
X144728476Y-108790000D01*
X144862761Y-108745238D01*
X144952285Y-108745238D01*
X145086571Y-108790000D01*
X145131333Y-108834761D01*
X145937047Y-109058571D02*
X145937047Y-109685238D01*
X145713238Y-108700476D02*
X145489428Y-109371904D01*
X146071333Y-109371904D01*
G04 #@! TO.C,C3*
D12*
X123833142Y-57110380D02*
X123928380Y-57110380D01*
X124023619Y-57158000D01*
X124071238Y-57205619D01*
X124118857Y-57300857D01*
X124166476Y-57491333D01*
X124166476Y-57729428D01*
X124118857Y-57919904D01*
X124071238Y-58015142D01*
X124023619Y-58062761D01*
X123928380Y-58110380D01*
X123833142Y-58110380D01*
X123737904Y-58062761D01*
X123690285Y-58015142D01*
X123642666Y-57919904D01*
X123595047Y-57729428D01*
X123595047Y-57491333D01*
X123642666Y-57300857D01*
X123690285Y-57205619D01*
X123737904Y-57158000D01*
X123833142Y-57110380D01*
X124595047Y-58015142D02*
X124642666Y-58062761D01*
X124595047Y-58110380D01*
X124547428Y-58062761D01*
X124595047Y-58015142D01*
X124595047Y-58110380D01*
X125595047Y-58110380D02*
X125023619Y-58110380D01*
X125309333Y-58110380D02*
X125309333Y-57110380D01*
X125214095Y-57253238D01*
X125118857Y-57348476D01*
X125023619Y-57396095D01*
X126452190Y-57443714D02*
X126452190Y-58110380D01*
X126023619Y-57443714D02*
X126023619Y-57967523D01*
X126071238Y-58062761D01*
X126166476Y-58110380D01*
X126309333Y-58110380D01*
X126404571Y-58062761D01*
X126452190Y-58015142D01*
X127261714Y-57586571D02*
X126928380Y-57586571D01*
X126928380Y-58110380D02*
X126928380Y-57110380D01*
X127404571Y-57110380D01*
D13*
X129931333Y-57993714D02*
X129886571Y-58038476D01*
X129752285Y-58083238D01*
X129662761Y-58083238D01*
X129528476Y-58038476D01*
X129438952Y-57948952D01*
X129394190Y-57859428D01*
X129349428Y-57680380D01*
X129349428Y-57546095D01*
X129394190Y-57367047D01*
X129438952Y-57277523D01*
X129528476Y-57188000D01*
X129662761Y-57143238D01*
X129752285Y-57143238D01*
X129886571Y-57188000D01*
X129931333Y-57232761D01*
X130244666Y-57143238D02*
X130826571Y-57143238D01*
X130513238Y-57501333D01*
X130647523Y-57501333D01*
X130737047Y-57546095D01*
X130781809Y-57590857D01*
X130826571Y-57680380D01*
X130826571Y-57904190D01*
X130781809Y-57993714D01*
X130737047Y-58038476D01*
X130647523Y-58083238D01*
X130378952Y-58083238D01*
X130289428Y-58038476D01*
X130244666Y-57993714D01*
G04 #@! TO.C,C2*
D12*
X124150571Y-60650380D02*
X123579142Y-60650380D01*
X123864857Y-60650380D02*
X123864857Y-59650380D01*
X123769619Y-59793238D01*
X123674380Y-59888476D01*
X123579142Y-59936095D01*
X124769619Y-59650380D02*
X124864857Y-59650380D01*
X124960095Y-59698000D01*
X125007714Y-59745619D01*
X125055333Y-59840857D01*
X125102952Y-60031333D01*
X125102952Y-60269428D01*
X125055333Y-60459904D01*
X125007714Y-60555142D01*
X124960095Y-60602761D01*
X124864857Y-60650380D01*
X124769619Y-60650380D01*
X124674380Y-60602761D01*
X124626761Y-60555142D01*
X124579142Y-60459904D01*
X124531523Y-60269428D01*
X124531523Y-60031333D01*
X124579142Y-59840857D01*
X124626761Y-59745619D01*
X124674380Y-59698000D01*
X124769619Y-59650380D01*
X125960095Y-59983714D02*
X125960095Y-60650380D01*
X125531523Y-59983714D02*
X125531523Y-60507523D01*
X125579142Y-60602761D01*
X125674380Y-60650380D01*
X125817238Y-60650380D01*
X125912476Y-60602761D01*
X125960095Y-60555142D01*
X126769619Y-60126571D02*
X126436285Y-60126571D01*
X126436285Y-60650380D02*
X126436285Y-59650380D01*
X126912476Y-59650380D01*
D14*
X128402666Y-62261714D02*
X128364571Y-62299809D01*
X128250285Y-62337904D01*
X128174095Y-62337904D01*
X128059809Y-62299809D01*
X127983619Y-62223619D01*
X127945523Y-62147428D01*
X127907428Y-61995047D01*
X127907428Y-61880761D01*
X127945523Y-61728380D01*
X127983619Y-61652190D01*
X128059809Y-61576000D01*
X128174095Y-61537904D01*
X128250285Y-61537904D01*
X128364571Y-61576000D01*
X128402666Y-61614095D01*
X128707428Y-61614095D02*
X128745523Y-61576000D01*
X128821714Y-61537904D01*
X129012190Y-61537904D01*
X129088380Y-61576000D01*
X129126476Y-61614095D01*
X129164571Y-61690285D01*
X129164571Y-61766476D01*
X129126476Y-61880761D01*
X128669333Y-62337904D01*
X129164571Y-62337904D01*
G04 #@! TO.C,C1*
D12*
X136342571Y-61158380D02*
X135771142Y-61158380D01*
X136056857Y-61158380D02*
X136056857Y-60158380D01*
X135961619Y-60301238D01*
X135866380Y-60396476D01*
X135771142Y-60444095D01*
X136961619Y-60158380D02*
X137056857Y-60158380D01*
X137152095Y-60206000D01*
X137199714Y-60253619D01*
X137247333Y-60348857D01*
X137294952Y-60539333D01*
X137294952Y-60777428D01*
X137247333Y-60967904D01*
X137199714Y-61063142D01*
X137152095Y-61110761D01*
X137056857Y-61158380D01*
X136961619Y-61158380D01*
X136866380Y-61110761D01*
X136818761Y-61063142D01*
X136771142Y-60967904D01*
X136723523Y-60777428D01*
X136723523Y-60539333D01*
X136771142Y-60348857D01*
X136818761Y-60253619D01*
X136866380Y-60206000D01*
X136961619Y-60158380D01*
X138152095Y-60491714D02*
X138152095Y-61158380D01*
X137723523Y-60491714D02*
X137723523Y-61015523D01*
X137771142Y-61110761D01*
X137866380Y-61158380D01*
X138009238Y-61158380D01*
X138104476Y-61110761D01*
X138152095Y-61063142D01*
X138961619Y-60634571D02*
X138628285Y-60634571D01*
X138628285Y-61158380D02*
X138628285Y-60158380D01*
X139104476Y-60158380D01*
D14*
X133482666Y-62515714D02*
X133444571Y-62553809D01*
X133330285Y-62591904D01*
X133254095Y-62591904D01*
X133139809Y-62553809D01*
X133063619Y-62477619D01*
X133025523Y-62401428D01*
X132987428Y-62249047D01*
X132987428Y-62134761D01*
X133025523Y-61982380D01*
X133063619Y-61906190D01*
X133139809Y-61830000D01*
X133254095Y-61791904D01*
X133330285Y-61791904D01*
X133444571Y-61830000D01*
X133482666Y-61868095D01*
X134244571Y-62591904D02*
X133787428Y-62591904D01*
X134016000Y-62591904D02*
X134016000Y-61791904D01*
X133939809Y-61906190D01*
X133863619Y-61982380D01*
X133787428Y-62020476D01*
G04 #@! TO.C,SW1*
D12*
X137191904Y-83764380D02*
X136858571Y-83288190D01*
X136620476Y-83764380D02*
X136620476Y-82764380D01*
X137001428Y-82764380D01*
X137096666Y-82812000D01*
X137144285Y-82859619D01*
X137191904Y-82954857D01*
X137191904Y-83097714D01*
X137144285Y-83192952D01*
X137096666Y-83240571D01*
X137001428Y-83288190D01*
X136620476Y-83288190D01*
X138001428Y-83716761D02*
X137906190Y-83764380D01*
X137715714Y-83764380D01*
X137620476Y-83716761D01*
X137572857Y-83621523D01*
X137572857Y-83240571D01*
X137620476Y-83145333D01*
X137715714Y-83097714D01*
X137906190Y-83097714D01*
X138001428Y-83145333D01*
X138049047Y-83240571D01*
X138049047Y-83335809D01*
X137572857Y-83431047D01*
X138430000Y-83716761D02*
X138525238Y-83764380D01*
X138715714Y-83764380D01*
X138810952Y-83716761D01*
X138858571Y-83621523D01*
X138858571Y-83573904D01*
X138810952Y-83478666D01*
X138715714Y-83431047D01*
X138572857Y-83431047D01*
X138477619Y-83383428D01*
X138430000Y-83288190D01*
X138430000Y-83240571D01*
X138477619Y-83145333D01*
X138572857Y-83097714D01*
X138715714Y-83097714D01*
X138810952Y-83145333D01*
X139668095Y-83716761D02*
X139572857Y-83764380D01*
X139382380Y-83764380D01*
X139287142Y-83716761D01*
X139239523Y-83621523D01*
X139239523Y-83240571D01*
X139287142Y-83145333D01*
X139382380Y-83097714D01*
X139572857Y-83097714D01*
X139668095Y-83145333D01*
X139715714Y-83240571D01*
X139715714Y-83335809D01*
X139239523Y-83431047D01*
X140001428Y-83097714D02*
X140382380Y-83097714D01*
X140144285Y-82764380D02*
X140144285Y-83621523D01*
X140191904Y-83716761D01*
X140287142Y-83764380D01*
X140382380Y-83764380D01*
X137148666Y-82192761D02*
X137291523Y-82240380D01*
X137529619Y-82240380D01*
X137624857Y-82192761D01*
X137672476Y-82145142D01*
X137720095Y-82049904D01*
X137720095Y-81954666D01*
X137672476Y-81859428D01*
X137624857Y-81811809D01*
X137529619Y-81764190D01*
X137339142Y-81716571D01*
X137243904Y-81668952D01*
X137196285Y-81621333D01*
X137148666Y-81526095D01*
X137148666Y-81430857D01*
X137196285Y-81335619D01*
X137243904Y-81288000D01*
X137339142Y-81240380D01*
X137577238Y-81240380D01*
X137720095Y-81288000D01*
X138053428Y-81240380D02*
X138291523Y-82240380D01*
X138482000Y-81526095D01*
X138672476Y-82240380D01*
X138910571Y-81240380D01*
X139815333Y-82240380D02*
X139243904Y-82240380D01*
X139529619Y-82240380D02*
X139529619Y-81240380D01*
X139434380Y-81383238D01*
X139339142Y-81478476D01*
X139243904Y-81526095D01*
G04 #@! TD*
M02*
