G04 #@! TF.GenerationSoftware,KiCad,Pcbnew,5.0.2-bee76a0~70~ubuntu16.04.1*
G04 #@! TF.CreationDate,2019-06-13T12:14:42-07:00*
G04 #@! TF.ProjectId,sunrise-board,73756e72-6973-4652-9d62-6f6172642e6b,v1*
G04 #@! TF.SameCoordinates,Original*
G04 #@! TF.FileFunction,Copper,L2,Bot*
G04 #@! TF.FilePolarity,Positive*
%FSLAX46Y46*%
G04 Gerber Fmt 4.6, Leading zero omitted, Abs format (unit mm)*
G04 Created by KiCad (PCBNEW 5.0.2-bee76a0~70~ubuntu16.04.1) date Thu 13 Jun 2019 12:14:42 PM PDT*
%MOMM*%
%LPD*%
G01*
G04 APERTURE LIST*
G04 #@! TA.AperFunction,NonConductor*
%ADD10C,0.304800*%
G04 #@! TD*
G04 #@! TA.AperFunction,ComponentPad*
%ADD11C,2.286000*%
G04 #@! TD*
G04 #@! TA.AperFunction,ComponentPad*
%ADD12C,1.700000*%
G04 #@! TD*
G04 #@! TA.AperFunction,ComponentPad*
%ADD13C,1.000000*%
G04 #@! TD*
G04 #@! TA.AperFunction,ComponentPad*
%ADD14R,1.200000X1.200000*%
G04 #@! TD*
G04 #@! TA.AperFunction,ComponentPad*
%ADD15R,1.600000X1.600000*%
G04 #@! TD*
G04 #@! TA.AperFunction,ComponentPad*
%ADD16O,1.600000X1.600000*%
G04 #@! TD*
G04 #@! TA.AperFunction,ComponentPad*
%ADD17C,1.500000*%
G04 #@! TD*
G04 #@! TA.AperFunction,ComponentPad*
%ADD18R,1.500000X1.500000*%
G04 #@! TD*
G04 #@! TA.AperFunction,ComponentPad*
%ADD19C,1.600000*%
G04 #@! TD*
G04 #@! TA.AperFunction,ComponentPad*
%ADD20R,1.905000X2.000000*%
G04 #@! TD*
G04 #@! TA.AperFunction,ComponentPad*
%ADD21O,1.905000X2.000000*%
G04 #@! TD*
G04 #@! TA.AperFunction,ComponentPad*
%ADD22R,1.700000X1.700000*%
G04 #@! TD*
G04 #@! TA.AperFunction,ComponentPad*
%ADD23O,1.700000X1.700000*%
G04 #@! TD*
G04 #@! TA.AperFunction,ComponentPad*
%ADD24R,3.500000X3.500000*%
G04 #@! TD*
G04 #@! TA.AperFunction,Conductor*
%ADD25C,0.101600*%
G04 #@! TD*
G04 #@! TA.AperFunction,ComponentPad*
%ADD26C,3.000000*%
G04 #@! TD*
G04 #@! TA.AperFunction,ComponentPad*
%ADD27C,3.500000*%
G04 #@! TD*
G04 #@! TA.AperFunction,ComponentPad*
%ADD28R,1.800000X1.800000*%
G04 #@! TD*
G04 #@! TA.AperFunction,ComponentPad*
%ADD29C,1.800000*%
G04 #@! TD*
G04 #@! TA.AperFunction,ComponentPad*
%ADD30C,1.200000*%
G04 #@! TD*
G04 #@! TA.AperFunction,ComponentPad*
%ADD31C,2.000000*%
G04 #@! TD*
G04 #@! TA.AperFunction,Conductor*
%ADD32C,1.066800*%
G04 #@! TD*
G04 #@! TA.AperFunction,Conductor*
%ADD33C,0.254000*%
G04 #@! TD*
G04 APERTURE END LIST*
D10*
X150440571Y-50727428D02*
X150077714Y-51743428D01*
X149714857Y-50727428D01*
X148336000Y-51743428D02*
X149206857Y-51743428D01*
X148771428Y-51743428D02*
X148771428Y-50219428D01*
X148916571Y-50437142D01*
X149061714Y-50582285D01*
X149206857Y-50654857D01*
D11*
G04 #@! TO.P,BT1,1*
G04 #@! TO.N,Net-(BT1-Pad1)*
X130302000Y-142494000D03*
X133350000Y-142494000D03*
X130302000Y-129286000D03*
X133350000Y-129286000D03*
G04 #@! TD*
D12*
G04 #@! TO.P,Y2,1*
G04 #@! TO.N,Net-(U3-Pad10)*
X131318000Y-113030000D03*
G04 #@! TO.P,Y2,2*
G04 #@! TO.N,GND*
X131318000Y-110530000D03*
G04 #@! TO.P,Y2,3*
G04 #@! TO.N,Net-(U3-Pad9)*
X131318000Y-108030000D03*
G04 #@! TD*
D13*
G04 #@! TO.P,Y1,1*
G04 #@! TO.N,Net-(U2-Pad1)*
X148844000Y-133096000D03*
G04 #@! TO.P,Y1,2*
G04 #@! TO.N,Net-(U2-Pad2)*
X146944000Y-133096000D03*
D14*
G04 #@! TO.P,Y1,3*
G04 #@! TO.N,N/C*
X149394000Y-127346000D03*
X146394000Y-127346000D03*
G04 #@! TD*
D15*
G04 #@! TO.P,U3,1*
G04 #@! TO.N,RESET*
X134620000Y-88646000D03*
D16*
G04 #@! TO.P,U3,15*
G04 #@! TO.N,LED_CTL_B*
X142240000Y-121666000D03*
G04 #@! TO.P,U3,2*
G04 #@! TO.N,RXI*
X134620000Y-91186000D03*
G04 #@! TO.P,U3,16*
G04 #@! TO.N,D10*
X142240000Y-119126000D03*
G04 #@! TO.P,U3,3*
G04 #@! TO.N,TXO*
X134620000Y-93726000D03*
G04 #@! TO.P,U3,17*
G04 #@! TO.N,MOSI*
X142240000Y-116586000D03*
G04 #@! TO.P,U3,4*
G04 #@! TO.N,D2*
X134620000Y-96266000D03*
G04 #@! TO.P,U3,18*
G04 #@! TO.N,MISO*
X142240000Y-114046000D03*
G04 #@! TO.P,U3,5*
G04 #@! TO.N,LED_CTL_R*
X134620000Y-98806000D03*
G04 #@! TO.P,U3,19*
G04 #@! TO.N,SCK*
X142240000Y-111506000D03*
G04 #@! TO.P,U3,6*
G04 #@! TO.N,D4*
X134620000Y-101346000D03*
G04 #@! TO.P,U3,20*
G04 #@! TO.N,VCC*
X142240000Y-108966000D03*
G04 #@! TO.P,U3,7*
X134620000Y-103886000D03*
G04 #@! TO.P,U3,21*
G04 #@! TO.N,Net-(C4-Pad1)*
X142240000Y-106426000D03*
G04 #@! TO.P,U3,8*
G04 #@! TO.N,GND*
X134620000Y-106426000D03*
G04 #@! TO.P,U3,22*
X142240000Y-103886000D03*
G04 #@! TO.P,U3,9*
G04 #@! TO.N,Net-(U3-Pad9)*
X134620000Y-108966000D03*
G04 #@! TO.P,U3,23*
G04 #@! TO.N,A0*
X142240000Y-101346000D03*
G04 #@! TO.P,U3,10*
G04 #@! TO.N,Net-(U3-Pad10)*
X134620000Y-111506000D03*
G04 #@! TO.P,U3,24*
G04 #@! TO.N,A1*
X142240000Y-98806000D03*
G04 #@! TO.P,U3,11*
G04 #@! TO.N,D5*
X134620000Y-114046000D03*
G04 #@! TO.P,U3,25*
G04 #@! TO.N,A2*
X142240000Y-96266000D03*
G04 #@! TO.P,U3,12*
G04 #@! TO.N,LED_CTL_G*
X134620000Y-116586000D03*
G04 #@! TO.P,U3,26*
G04 #@! TO.N,A3*
X142240000Y-93726000D03*
G04 #@! TO.P,U3,13*
G04 #@! TO.N,D7*
X134620000Y-119126000D03*
G04 #@! TO.P,U3,27*
G04 #@! TO.N,SDA*
X142240000Y-91186000D03*
G04 #@! TO.P,U3,14*
G04 #@! TO.N,D8*
X134620000Y-121666000D03*
G04 #@! TO.P,U3,28*
G04 #@! TO.N,SCL*
X142240000Y-88646000D03*
G04 #@! TD*
D15*
G04 #@! TO.P,U2,1*
G04 #@! TO.N,Net-(U2-Pad1)*
X149098000Y-135382000D03*
D16*
G04 #@! TO.P,U2,5*
G04 #@! TO.N,SDA*
X141478000Y-143002000D03*
G04 #@! TO.P,U2,2*
G04 #@! TO.N,Net-(U2-Pad2)*
X146558000Y-135382000D03*
G04 #@! TO.P,U2,6*
G04 #@! TO.N,SCL*
X144018000Y-143002000D03*
G04 #@! TO.P,U2,3*
G04 #@! TO.N,Net-(BT1-Pad1)*
X144018000Y-135382000D03*
G04 #@! TO.P,U2,7*
G04 #@! TO.N,Net-(U2-Pad7)*
X146558000Y-143002000D03*
G04 #@! TO.P,U2,4*
G04 #@! TO.N,GND*
X141478000Y-135382000D03*
G04 #@! TO.P,U2,8*
G04 #@! TO.N,VCC*
X149098000Y-143002000D03*
G04 #@! TD*
D17*
G04 #@! TO.P,U1,2*
G04 #@! TO.N,GND*
X131826000Y-67056000D03*
G04 #@! TO.P,U1,3*
G04 #@! TO.N,VCC*
X129286000Y-67056000D03*
D18*
G04 #@! TO.P,U1,1*
G04 #@! TO.N,RAW*
X134366000Y-67056000D03*
G04 #@! TD*
D19*
G04 #@! TO.P,R8,1*
G04 #@! TO.N,VCC*
X145288000Y-80010000D03*
D16*
G04 #@! TO.P,R8,2*
G04 #@! TO.N,RESET*
X145288000Y-87630000D03*
G04 #@! TD*
G04 #@! TO.P,R7,2*
G04 #@! TO.N,Net-(D2-Pad1)*
X143002000Y-124714000D03*
D19*
G04 #@! TO.P,R7,1*
G04 #@! TO.N,GND*
X143002000Y-132334000D03*
G04 #@! TD*
G04 #@! TO.P,R6,1*
G04 #@! TO.N,VCC*
X131572000Y-125222000D03*
D16*
G04 #@! TO.P,R6,2*
G04 #@! TO.N,SCL*
X131572000Y-117602000D03*
G04 #@! TD*
G04 #@! TO.P,R5,2*
G04 #@! TO.N,SDA*
X139446000Y-124714000D03*
D19*
G04 #@! TO.P,R5,1*
G04 #@! TO.N,VCC*
X139446000Y-132334000D03*
G04 #@! TD*
D16*
G04 #@! TO.P,R4,2*
G04 #@! TO.N,GND*
X135128000Y-71628000D03*
D19*
G04 #@! TO.P,R4,1*
G04 #@! TO.N,Net-(D1-Pad1)*
X127508000Y-71628000D03*
G04 #@! TD*
D16*
G04 #@! TO.P,R3,2*
G04 #@! TO.N,GND*
X131826000Y-85344000D03*
D19*
G04 #@! TO.P,R3,1*
G04 #@! TO.N,LED_CTL_B*
X131826000Y-77724000D03*
G04 #@! TD*
D16*
G04 #@! TO.P,R2,2*
G04 #@! TO.N,GND*
X128524000Y-85344000D03*
D19*
G04 #@! TO.P,R2,1*
G04 #@! TO.N,LED_CTL_G*
X128524000Y-77724000D03*
G04 #@! TD*
G04 #@! TO.P,R1,1*
G04 #@! TO.N,LED_CTL_R*
X135128000Y-74930000D03*
D16*
G04 #@! TO.P,R1,2*
G04 #@! TO.N,GND*
X127508000Y-74930000D03*
G04 #@! TD*
D20*
G04 #@! TO.P,Q3,1*
G04 #@! TO.N,LED_CTL_B*
X139192000Y-76962000D03*
D21*
G04 #@! TO.P,Q3,2*
G04 #@! TO.N,LED_B*
X141732000Y-76962000D03*
G04 #@! TO.P,Q3,3*
G04 #@! TO.N,GND*
X144272000Y-76962000D03*
G04 #@! TD*
G04 #@! TO.P,Q2,3*
G04 #@! TO.N,GND*
X144272000Y-71628000D03*
G04 #@! TO.P,Q2,2*
G04 #@! TO.N,LED_G*
X141732000Y-71628000D03*
D20*
G04 #@! TO.P,Q2,1*
G04 #@! TO.N,LED_CTL_G*
X139192000Y-71628000D03*
G04 #@! TD*
G04 #@! TO.P,Q1,1*
G04 #@! TO.N,LED_CTL_R*
X139192000Y-66294000D03*
D21*
G04 #@! TO.P,Q1,2*
G04 #@! TO.N,LED_R*
X141732000Y-66294000D03*
G04 #@! TO.P,Q1,3*
G04 #@! TO.N,GND*
X144272000Y-66294000D03*
G04 #@! TD*
D22*
G04 #@! TO.P,J6,1*
G04 #@! TO.N,SDA*
X127000000Y-124460000D03*
D23*
G04 #@! TO.P,J6,2*
G04 #@! TO.N,SCL*
X127000000Y-121920000D03*
G04 #@! TD*
D22*
G04 #@! TO.P,J5,1*
G04 #@! TO.N,RAW*
X149860000Y-76200000D03*
D23*
G04 #@! TO.P,J5,2*
G04 #@! TO.N,LED_R*
X149860000Y-78740000D03*
G04 #@! TO.P,J5,3*
G04 #@! TO.N,LED_G*
X149860000Y-81280000D03*
G04 #@! TO.P,J5,4*
G04 #@! TO.N,LED_B*
X149860000Y-83820000D03*
G04 #@! TD*
G04 #@! TO.P,J4,12*
G04 #@! TO.N,D10*
X149860000Y-116840000D03*
G04 #@! TO.P,J4,11*
G04 #@! TO.N,MOSI*
X149860000Y-114300000D03*
G04 #@! TO.P,J4,10*
G04 #@! TO.N,MISO*
X149860000Y-111760000D03*
G04 #@! TO.P,J4,9*
G04 #@! TO.N,SCK*
X149860000Y-109220000D03*
G04 #@! TO.P,J4,8*
G04 #@! TO.N,A0*
X149860000Y-106680000D03*
G04 #@! TO.P,J4,7*
G04 #@! TO.N,A1*
X149860000Y-104140000D03*
G04 #@! TO.P,J4,6*
G04 #@! TO.N,A2*
X149860000Y-101600000D03*
G04 #@! TO.P,J4,5*
G04 #@! TO.N,A3*
X149860000Y-99060000D03*
G04 #@! TO.P,J4,4*
G04 #@! TO.N,VCC*
X149860000Y-96520000D03*
G04 #@! TO.P,J4,3*
G04 #@! TO.N,RESET*
X149860000Y-93980000D03*
G04 #@! TO.P,J4,2*
G04 #@! TO.N,GND*
X149860000Y-91440000D03*
D22*
G04 #@! TO.P,J4,1*
G04 #@! TO.N,RAW*
X149860000Y-88900000D03*
G04 #@! TD*
G04 #@! TO.P,J3,1*
G04 #@! TO.N,GND*
X139700000Y-50800000D03*
D23*
G04 #@! TO.P,J3,2*
X137160000Y-50800000D03*
G04 #@! TO.P,J3,3*
G04 #@! TO.N,VCC*
X134620000Y-50800000D03*
G04 #@! TO.P,J3,4*
G04 #@! TO.N,RXI*
X132080000Y-50800000D03*
G04 #@! TO.P,J3,5*
G04 #@! TO.N,TXO*
X129540000Y-50800000D03*
G04 #@! TO.P,J3,6*
G04 #@! TO.N,DTR*
X127000000Y-50800000D03*
G04 #@! TD*
D22*
G04 #@! TO.P,J2,1*
G04 #@! TO.N,TXO*
X127000000Y-88900000D03*
D23*
G04 #@! TO.P,J2,2*
G04 #@! TO.N,RXI*
X127000000Y-91440000D03*
G04 #@! TO.P,J2,3*
G04 #@! TO.N,RESET*
X127000000Y-93980000D03*
G04 #@! TO.P,J2,4*
G04 #@! TO.N,GND*
X127000000Y-96520000D03*
G04 #@! TO.P,J2,5*
G04 #@! TO.N,D2*
X127000000Y-99060000D03*
G04 #@! TO.P,J2,6*
G04 #@! TO.N,LED_R*
X127000000Y-101600000D03*
G04 #@! TO.P,J2,7*
G04 #@! TO.N,D4*
X127000000Y-104140000D03*
G04 #@! TO.P,J2,8*
G04 #@! TO.N,D5*
X127000000Y-106680000D03*
G04 #@! TO.P,J2,9*
G04 #@! TO.N,LED_G*
X127000000Y-109220000D03*
G04 #@! TO.P,J2,10*
G04 #@! TO.N,D7*
X127000000Y-111760000D03*
G04 #@! TO.P,J2,11*
G04 #@! TO.N,D8*
X127000000Y-114300000D03*
G04 #@! TO.P,J2,12*
G04 #@! TO.N,LED_B*
X127000000Y-116840000D03*
G04 #@! TD*
D24*
G04 #@! TO.P,J1,1*
G04 #@! TO.N,RAW*
X146558000Y-59944000D03*
D25*
G04 #@! TD*
G04 #@! TO.N,GND*
G04 #@! TO.C,J1*
G36*
X147631513Y-52447611D02*
X147704318Y-52458411D01*
X147775714Y-52476295D01*
X147845013Y-52501090D01*
X147911548Y-52532559D01*
X147974678Y-52570398D01*
X148033795Y-52614242D01*
X148088330Y-52663670D01*
X148137758Y-52718205D01*
X148181602Y-52777322D01*
X148219441Y-52840452D01*
X148250910Y-52906987D01*
X148275705Y-52976286D01*
X148293589Y-53047682D01*
X148304389Y-53120487D01*
X148308000Y-53194000D01*
X148308000Y-54694000D01*
X148304389Y-54767513D01*
X148293589Y-54840318D01*
X148275705Y-54911714D01*
X148250910Y-54981013D01*
X148219441Y-55047548D01*
X148181602Y-55110678D01*
X148137758Y-55169795D01*
X148088330Y-55224330D01*
X148033795Y-55273758D01*
X147974678Y-55317602D01*
X147911548Y-55355441D01*
X147845013Y-55386910D01*
X147775714Y-55411705D01*
X147704318Y-55429589D01*
X147631513Y-55440389D01*
X147558000Y-55444000D01*
X145558000Y-55444000D01*
X145484487Y-55440389D01*
X145411682Y-55429589D01*
X145340286Y-55411705D01*
X145270987Y-55386910D01*
X145204452Y-55355441D01*
X145141322Y-55317602D01*
X145082205Y-55273758D01*
X145027670Y-55224330D01*
X144978242Y-55169795D01*
X144934398Y-55110678D01*
X144896559Y-55047548D01*
X144865090Y-54981013D01*
X144840295Y-54911714D01*
X144822411Y-54840318D01*
X144811611Y-54767513D01*
X144808000Y-54694000D01*
X144808000Y-53194000D01*
X144811611Y-53120487D01*
X144822411Y-53047682D01*
X144840295Y-52976286D01*
X144865090Y-52906987D01*
X144896559Y-52840452D01*
X144934398Y-52777322D01*
X144978242Y-52718205D01*
X145027670Y-52663670D01*
X145082205Y-52614242D01*
X145141322Y-52570398D01*
X145204452Y-52532559D01*
X145270987Y-52501090D01*
X145340286Y-52476295D01*
X145411682Y-52458411D01*
X145484487Y-52447611D01*
X145558000Y-52444000D01*
X147558000Y-52444000D01*
X147631513Y-52447611D01*
X147631513Y-52447611D01*
G37*
D26*
G04 #@! TO.P,J1,2*
G04 #@! TO.N,GND*
X146558000Y-53944000D03*
D25*
G04 #@! TD*
G04 #@! TO.N,N/C*
G04 #@! TO.C,J1*
G36*
X142818765Y-55198213D02*
X142903704Y-55210813D01*
X142986999Y-55231677D01*
X143067848Y-55260605D01*
X143145472Y-55297319D01*
X143219124Y-55341464D01*
X143288094Y-55392616D01*
X143351718Y-55450282D01*
X143409384Y-55513906D01*
X143460536Y-55582876D01*
X143504681Y-55656528D01*
X143541395Y-55734152D01*
X143570323Y-55815001D01*
X143591187Y-55898296D01*
X143603787Y-55983235D01*
X143608000Y-56069000D01*
X143608000Y-57819000D01*
X143603787Y-57904765D01*
X143591187Y-57989704D01*
X143570323Y-58072999D01*
X143541395Y-58153848D01*
X143504681Y-58231472D01*
X143460536Y-58305124D01*
X143409384Y-58374094D01*
X143351718Y-58437718D01*
X143288094Y-58495384D01*
X143219124Y-58546536D01*
X143145472Y-58590681D01*
X143067848Y-58627395D01*
X142986999Y-58656323D01*
X142903704Y-58677187D01*
X142818765Y-58689787D01*
X142733000Y-58694000D01*
X140983000Y-58694000D01*
X140897235Y-58689787D01*
X140812296Y-58677187D01*
X140729001Y-58656323D01*
X140648152Y-58627395D01*
X140570528Y-58590681D01*
X140496876Y-58546536D01*
X140427906Y-58495384D01*
X140364282Y-58437718D01*
X140306616Y-58374094D01*
X140255464Y-58305124D01*
X140211319Y-58231472D01*
X140174605Y-58153848D01*
X140145677Y-58072999D01*
X140124813Y-57989704D01*
X140112213Y-57904765D01*
X140108000Y-57819000D01*
X140108000Y-56069000D01*
X140112213Y-55983235D01*
X140124813Y-55898296D01*
X140145677Y-55815001D01*
X140174605Y-55734152D01*
X140211319Y-55656528D01*
X140255464Y-55582876D01*
X140306616Y-55513906D01*
X140364282Y-55450282D01*
X140427906Y-55392616D01*
X140496876Y-55341464D01*
X140570528Y-55297319D01*
X140648152Y-55260605D01*
X140729001Y-55231677D01*
X140812296Y-55210813D01*
X140897235Y-55198213D01*
X140983000Y-55194000D01*
X142733000Y-55194000D01*
X142818765Y-55198213D01*
X142818765Y-55198213D01*
G37*
D27*
G04 #@! TO.P,J1,3*
G04 #@! TO.N,N/C*
X141858000Y-56944000D03*
G04 #@! TD*
D28*
G04 #@! TO.P,D2,1*
G04 #@! TO.N,Net-(D2-Pad1)*
X148082000Y-121158000D03*
D29*
G04 #@! TO.P,D2,2*
G04 #@! TO.N,SCK*
X145542000Y-121158000D03*
G04 #@! TD*
G04 #@! TO.P,D1,2*
G04 #@! TO.N,VCC*
X135128000Y-56896000D03*
D28*
G04 #@! TO.P,D1,1*
G04 #@! TO.N,Net-(D1-Pad1)*
X137668000Y-56896000D03*
G04 #@! TD*
D19*
G04 #@! TO.P,C6,2*
G04 #@! TO.N,DTR*
X127588000Y-54356000D03*
G04 #@! TO.P,C6,1*
G04 #@! TO.N,RESET*
X132588000Y-54356000D03*
G04 #@! TD*
G04 #@! TO.P,C5,1*
G04 #@! TO.N,VCC*
X145288000Y-104394000D03*
G04 #@! TO.P,C5,2*
G04 #@! TO.N,GND*
X145288000Y-99394000D03*
G04 #@! TD*
G04 #@! TO.P,C4,1*
G04 #@! TO.N,Net-(C4-Pad1)*
X145288000Y-111760000D03*
G04 #@! TO.P,C4,2*
G04 #@! TO.N,GND*
X145288000Y-106760000D03*
G04 #@! TD*
G04 #@! TO.P,C3,2*
G04 #@! TO.N,GND*
X127588000Y-57658000D03*
G04 #@! TO.P,C3,1*
G04 #@! TO.N,VCC*
X132588000Y-57658000D03*
G04 #@! TD*
D30*
G04 #@! TO.P,C2,2*
G04 #@! TO.N,GND*
X129262000Y-62230000D03*
D14*
G04 #@! TO.P,C2,1*
G04 #@! TO.N,VCC*
X127762000Y-62230000D03*
G04 #@! TD*
G04 #@! TO.P,C1,1*
G04 #@! TO.N,RAW*
X134366000Y-62230000D03*
D30*
G04 #@! TO.P,C1,2*
G04 #@! TO.N,GND*
X132866000Y-62230000D03*
G04 #@! TD*
D31*
G04 #@! TO.P,SW1,2*
G04 #@! TO.N,RESET*
X135232000Y-84836000D03*
G04 #@! TO.P,SW1,1*
G04 #@! TO.N,GND*
X135232000Y-80336000D03*
G04 #@! TO.P,SW1,2*
G04 #@! TO.N,RESET*
X141732000Y-84836000D03*
G04 #@! TO.P,SW1,1*
G04 #@! TO.N,GND*
X141732000Y-80336000D03*
G04 #@! TD*
D32*
G04 #@! TO.N,RAW*
X134366000Y-62230000D02*
X134366000Y-67056000D01*
X143741200Y-59944000D02*
X146558000Y-59944000D01*
X135636000Y-59944000D02*
X143741200Y-59944000D01*
X134366000Y-61214000D02*
X135636000Y-59944000D01*
X134366000Y-62230000D02*
X134366000Y-61214000D01*
X149860000Y-66062800D02*
X149860000Y-74283200D01*
X149860000Y-74283200D02*
X149860000Y-76200000D01*
X146558000Y-62760800D02*
X149860000Y-66062800D01*
X146558000Y-59944000D02*
X146558000Y-62760800D01*
D33*
G04 #@! TO.N,VCC*
X129286000Y-70835882D02*
X129286000Y-67056000D01*
X133007001Y-74556883D02*
X129286000Y-70835882D01*
X133007001Y-102273001D02*
X133007001Y-74556883D01*
X134620000Y-103886000D02*
X133007001Y-102273001D01*
X140627001Y-110578999D02*
X141440001Y-109765999D01*
X141440001Y-109765999D02*
X142240000Y-108966000D01*
X140627001Y-131152999D02*
X140627001Y-110578999D01*
X139446000Y-132334000D02*
X140627001Y-131152999D01*
X145288000Y-85882118D02*
X147066000Y-87660118D01*
X145288000Y-80010000D02*
X145288000Y-85882118D01*
X147066000Y-93726000D02*
X149860000Y-96520000D01*
X147066000Y-87660118D02*
X147066000Y-93726000D01*
X135128000Y-51308000D02*
X134620000Y-50800000D01*
X135128000Y-56896000D02*
X135128000Y-51308000D01*
X133350000Y-56896000D02*
X132588000Y-57658000D01*
X135128000Y-56896000D02*
X133350000Y-56896000D01*
X127762000Y-61376000D02*
X127762000Y-62230000D01*
X130680001Y-58457999D02*
X127762000Y-61376000D01*
X131788001Y-58457999D02*
X130680001Y-58457999D01*
X132588000Y-57658000D02*
X131788001Y-58457999D01*
X144488001Y-105193999D02*
X145288000Y-104394000D01*
X144106999Y-105575001D02*
X144488001Y-105193999D01*
X144106999Y-107099001D02*
X144106999Y-105575001D01*
X142240000Y-108966000D02*
X144106999Y-107099001D01*
X145288000Y-101092000D02*
X145288000Y-104394000D01*
X149860000Y-96520000D02*
X145288000Y-101092000D01*
G04 #@! TO.N,RESET*
X134620000Y-85448000D02*
X135232000Y-84836000D01*
X134620000Y-88646000D02*
X134620000Y-85448000D01*
G04 #@! TO.N,Net-(D1-Pad1)*
X137668000Y-58050000D02*
X136790000Y-58928000D01*
X137668000Y-56896000D02*
X137668000Y-58050000D01*
X127508000Y-70496630D02*
X127508000Y-71628000D01*
X127508000Y-66136118D02*
X127508000Y-70496630D01*
X134716118Y-58928000D02*
X127508000Y-66136118D01*
X136790000Y-58928000D02*
X134716118Y-58928000D01*
G04 #@! TO.N,RXI*
X127849999Y-90590001D02*
X127000000Y-91440000D01*
X128231001Y-90208999D02*
X127849999Y-90590001D01*
X126326999Y-85841197D02*
X128231001Y-87745199D01*
X126326999Y-61779199D02*
X126326999Y-85841197D01*
X128231001Y-87745199D02*
X128231001Y-90208999D01*
X128769001Y-59337197D02*
X126326999Y-61779199D01*
X128769001Y-54110999D02*
X128769001Y-59337197D01*
X132080000Y-50800000D02*
X128769001Y-54110999D01*
G04 #@! TO.N,LED_R*
X149010001Y-77890001D02*
X149860000Y-78740000D01*
X148628999Y-77508999D02*
X149010001Y-77890001D01*
X148628999Y-73238499D02*
X148628999Y-77508999D01*
X141732000Y-66341500D02*
X148628999Y-73238499D01*
X137350489Y-70723011D02*
X141732000Y-66341500D01*
X137350489Y-102903393D02*
X137350489Y-70723011D01*
X135186881Y-105067001D02*
X137350489Y-102903393D01*
X130467001Y-105067001D02*
X135186881Y-105067001D01*
X141732000Y-66341500D02*
X141732000Y-66294000D01*
X127000000Y-101600000D02*
X130467001Y-105067001D01*
G04 #@! TO.N,LED_G*
X149010001Y-80430001D02*
X149860000Y-81280000D01*
X148034500Y-79454500D02*
X149010001Y-80430001D01*
X148034500Y-77978000D02*
X148034500Y-79454500D01*
X141732000Y-71675500D02*
X148034500Y-77978000D01*
X141732000Y-71675500D02*
X141732000Y-71628000D01*
X137858499Y-104935383D02*
X137858499Y-75549001D01*
X135186881Y-107607001D02*
X137858499Y-104935383D01*
X137858499Y-75549001D02*
X141732000Y-71675500D01*
X134053119Y-107607001D02*
X135186881Y-107607001D01*
X132305237Y-105859119D02*
X134053119Y-107607001D01*
X130360881Y-105859119D02*
X132305237Y-105859119D01*
X127000000Y-109220000D02*
X130360881Y-105859119D01*
G04 #@! TO.N,LED_B*
X148628999Y-82588999D02*
X149010001Y-82970001D01*
X149010001Y-82970001D02*
X149860000Y-83820000D01*
X148628999Y-81603117D02*
X148628999Y-82588999D01*
X145854881Y-78828999D02*
X148628999Y-81603117D01*
X141732000Y-77009500D02*
X143551499Y-78828999D01*
X143551499Y-78828999D02*
X145854881Y-78828999D01*
X141732000Y-76962000D02*
X141732000Y-77009500D01*
X138429980Y-80311520D02*
X141732000Y-77009500D01*
X138429980Y-106903902D02*
X138429980Y-80311520D01*
X135186881Y-110147001D02*
X138429980Y-106903902D01*
X134053119Y-110147001D02*
X135186881Y-110147001D01*
X133167119Y-109261001D02*
X134053119Y-110147001D01*
X130768999Y-109261001D02*
X133167119Y-109261001D01*
X130086999Y-109943001D02*
X130768999Y-109261001D01*
X130086999Y-113753001D02*
X130086999Y-109943001D01*
X127000000Y-116840000D02*
X130086999Y-113753001D01*
G04 #@! TO.N,SDA*
X127000000Y-129655370D02*
X127000000Y-125564000D01*
X140346630Y-143002000D02*
X127000000Y-129655370D01*
X127000000Y-125564000D02*
X127000000Y-124460000D01*
X141478000Y-143002000D02*
X140346630Y-143002000D01*
X139446000Y-93980000D02*
X142240000Y-91186000D01*
X139446000Y-124714000D02*
X139446000Y-93980000D01*
G04 #@! TO.N,SCL*
X143218001Y-142202001D02*
X144018000Y-143002000D01*
X140581477Y-141820999D02*
X142836999Y-141820999D01*
X142836999Y-141820999D02*
X143218001Y-142202001D01*
X128231001Y-129470523D02*
X140581477Y-141820999D01*
X128231001Y-123151001D02*
X128231001Y-129470523D01*
X127000000Y-121920000D02*
X128231001Y-123151001D01*
X141440001Y-89445999D02*
X142240000Y-88646000D01*
X138937990Y-91948010D02*
X141440001Y-89445999D01*
X138937990Y-111475892D02*
X138937990Y-91948010D01*
X135186881Y-115227001D02*
X138937990Y-111475892D01*
X133946999Y-115227001D02*
X135186881Y-115227001D01*
X131572000Y-117602000D02*
X133946999Y-115227001D01*
X131318000Y-117602000D02*
X131572000Y-117602000D01*
X127000000Y-121920000D02*
X131318000Y-117602000D01*
G04 #@! TO.N,LED_CTL_R*
X135128000Y-74930000D02*
X136842479Y-76644479D01*
X136842479Y-96583521D02*
X134620000Y-98806000D01*
X136842479Y-76644479D02*
X136842479Y-96583521D01*
G04 #@! TD*
G04 #@! TO.N,GND*
G36*
X150736301Y-98165015D02*
X150340312Y-97900424D01*
X149981239Y-97829000D01*
X149738761Y-97829000D01*
X149379688Y-97900424D01*
X148972499Y-98172499D01*
X148700424Y-98579688D01*
X148604884Y-99060000D01*
X148700424Y-99540312D01*
X148972499Y-99947501D01*
X149379688Y-100219576D01*
X149738761Y-100291000D01*
X149981239Y-100291000D01*
X150340312Y-100219576D01*
X150736301Y-99954985D01*
X150736301Y-100705015D01*
X150340312Y-100440424D01*
X149981239Y-100369000D01*
X149738761Y-100369000D01*
X149379688Y-100440424D01*
X148972499Y-100712499D01*
X148700424Y-101119688D01*
X148604884Y-101600000D01*
X148700424Y-102080312D01*
X148972499Y-102487501D01*
X149379688Y-102759576D01*
X149738761Y-102831000D01*
X149981239Y-102831000D01*
X150340312Y-102759576D01*
X150736301Y-102494985D01*
X150736301Y-103245015D01*
X150340312Y-102980424D01*
X149981239Y-102909000D01*
X149738761Y-102909000D01*
X149379688Y-102980424D01*
X148972499Y-103252499D01*
X148700424Y-103659688D01*
X148604884Y-104140000D01*
X148700424Y-104620312D01*
X148972499Y-105027501D01*
X149379688Y-105299576D01*
X149738761Y-105371000D01*
X149981239Y-105371000D01*
X150340312Y-105299576D01*
X150736301Y-105034985D01*
X150736301Y-105785015D01*
X150340312Y-105520424D01*
X149981239Y-105449000D01*
X149738761Y-105449000D01*
X149379688Y-105520424D01*
X148972499Y-105792499D01*
X148700424Y-106199688D01*
X148604884Y-106680000D01*
X148700424Y-107160312D01*
X148972499Y-107567501D01*
X149379688Y-107839576D01*
X149738761Y-107911000D01*
X149981239Y-107911000D01*
X150340312Y-107839576D01*
X150736301Y-107574985D01*
X150736301Y-108325015D01*
X150340312Y-108060424D01*
X149981239Y-107989000D01*
X149738761Y-107989000D01*
X149379688Y-108060424D01*
X148972499Y-108332499D01*
X148700424Y-108739688D01*
X148604884Y-109220000D01*
X148700424Y-109700312D01*
X148972499Y-110107501D01*
X149379688Y-110379576D01*
X149738761Y-110451000D01*
X149981239Y-110451000D01*
X150340312Y-110379576D01*
X150736301Y-110114985D01*
X150736301Y-110865015D01*
X150340312Y-110600424D01*
X149981239Y-110529000D01*
X149738761Y-110529000D01*
X149379688Y-110600424D01*
X148972499Y-110872499D01*
X148700424Y-111279688D01*
X148604884Y-111760000D01*
X148700424Y-112240312D01*
X148972499Y-112647501D01*
X149379688Y-112919576D01*
X149738761Y-112991000D01*
X149981239Y-112991000D01*
X150340312Y-112919576D01*
X150736301Y-112654985D01*
X150736301Y-113405015D01*
X150340312Y-113140424D01*
X149981239Y-113069000D01*
X149738761Y-113069000D01*
X149379688Y-113140424D01*
X148972499Y-113412499D01*
X148700424Y-113819688D01*
X148604884Y-114300000D01*
X148700424Y-114780312D01*
X148972499Y-115187501D01*
X149379688Y-115459576D01*
X149738761Y-115531000D01*
X149981239Y-115531000D01*
X150340312Y-115459576D01*
X150736301Y-115194985D01*
X150736301Y-115945015D01*
X150340312Y-115680424D01*
X149981239Y-115609000D01*
X149738761Y-115609000D01*
X149379688Y-115680424D01*
X148972499Y-115952499D01*
X148700424Y-116359688D01*
X148604884Y-116840000D01*
X148700424Y-117320312D01*
X148972499Y-117727501D01*
X149379688Y-117999576D01*
X149738761Y-118071000D01*
X149981239Y-118071000D01*
X150340312Y-117999576D01*
X150736301Y-117734985D01*
X150736301Y-144386300D01*
X126123700Y-144386300D01*
X126123700Y-142190858D01*
X128778000Y-142190858D01*
X128778000Y-142797142D01*
X129010015Y-143357277D01*
X129438723Y-143785985D01*
X129998858Y-144018000D01*
X130605142Y-144018000D01*
X131165277Y-143785985D01*
X131593985Y-143357277D01*
X131826000Y-142797142D01*
X132058015Y-143357277D01*
X132486723Y-143785985D01*
X133046858Y-144018000D01*
X133653142Y-144018000D01*
X134213277Y-143785985D01*
X134641985Y-143357277D01*
X134874000Y-142797142D01*
X134874000Y-142190858D01*
X134641985Y-141630723D01*
X134213277Y-141202015D01*
X133653142Y-140970000D01*
X133046858Y-140970000D01*
X132486723Y-141202015D01*
X132058015Y-141630723D01*
X131826000Y-142190858D01*
X131593985Y-141630723D01*
X131165277Y-141202015D01*
X130605142Y-140970000D01*
X129998858Y-140970000D01*
X129438723Y-141202015D01*
X129010015Y-141630723D01*
X128778000Y-142190858D01*
X126123700Y-142190858D01*
X126123700Y-125693233D01*
X126150000Y-125698464D01*
X126492001Y-125698464D01*
X126492000Y-129605342D01*
X126482049Y-129655370D01*
X126492000Y-129705398D01*
X126492000Y-129705401D01*
X126521475Y-129853581D01*
X126633753Y-130021617D01*
X126676168Y-130049958D01*
X139952044Y-143325835D01*
X139980383Y-143368247D01*
X140022795Y-143396586D01*
X140022797Y-143396588D01*
X140121895Y-143462803D01*
X140148418Y-143480525D01*
X140296598Y-143510000D01*
X140296601Y-143510000D01*
X140346629Y-143519951D01*
X140396657Y-143510000D01*
X140397058Y-143510000D01*
X140626547Y-143853453D01*
X141017197Y-144114478D01*
X141361682Y-144183000D01*
X141594318Y-144183000D01*
X141938803Y-144114478D01*
X142329453Y-143853453D01*
X142590478Y-143462803D01*
X142682137Y-143002000D01*
X142590478Y-142541197D01*
X142448691Y-142328999D01*
X142626579Y-142328999D01*
X142894168Y-142596589D01*
X142894171Y-142596591D01*
X142894448Y-142596868D01*
X142813863Y-143002000D01*
X142905522Y-143462803D01*
X143166547Y-143853453D01*
X143557197Y-144114478D01*
X143901682Y-144183000D01*
X144134318Y-144183000D01*
X144478803Y-144114478D01*
X144869453Y-143853453D01*
X145130478Y-143462803D01*
X145222137Y-143002000D01*
X145353863Y-143002000D01*
X145445522Y-143462803D01*
X145706547Y-143853453D01*
X146097197Y-144114478D01*
X146441682Y-144183000D01*
X146674318Y-144183000D01*
X147018803Y-144114478D01*
X147409453Y-143853453D01*
X147670478Y-143462803D01*
X147762137Y-143002000D01*
X147893863Y-143002000D01*
X147985522Y-143462803D01*
X148246547Y-143853453D01*
X148637197Y-144114478D01*
X148981682Y-144183000D01*
X149214318Y-144183000D01*
X149558803Y-144114478D01*
X149949453Y-143853453D01*
X150210478Y-143462803D01*
X150302137Y-143002000D01*
X150210478Y-142541197D01*
X149949453Y-142150547D01*
X149558803Y-141889522D01*
X149214318Y-141821000D01*
X148981682Y-141821000D01*
X148637197Y-141889522D01*
X148246547Y-142150547D01*
X147985522Y-142541197D01*
X147893863Y-143002000D01*
X147762137Y-143002000D01*
X147670478Y-142541197D01*
X147409453Y-142150547D01*
X147018803Y-141889522D01*
X146674318Y-141821000D01*
X146441682Y-141821000D01*
X146097197Y-141889522D01*
X145706547Y-142150547D01*
X145445522Y-142541197D01*
X145353863Y-143002000D01*
X145222137Y-143002000D01*
X145130478Y-142541197D01*
X144869453Y-142150547D01*
X144478803Y-141889522D01*
X144134318Y-141821000D01*
X143901682Y-141821000D01*
X143612868Y-141878448D01*
X143612591Y-141878171D01*
X143612589Y-141878168D01*
X143231587Y-141497166D01*
X143203246Y-141454752D01*
X143035211Y-141342474D01*
X142887031Y-141312999D01*
X142887027Y-141312999D01*
X142836999Y-141303048D01*
X142786971Y-141312999D01*
X140791898Y-141312999D01*
X135209940Y-135731041D01*
X140086086Y-135731041D01*
X140325611Y-136237134D01*
X140740577Y-136613041D01*
X141128961Y-136773904D01*
X141351000Y-136651915D01*
X141351000Y-135509000D01*
X140207371Y-135509000D01*
X140086086Y-135731041D01*
X135209940Y-135731041D01*
X134511858Y-135032959D01*
X140086086Y-135032959D01*
X140207371Y-135255000D01*
X141351000Y-135255000D01*
X141351000Y-134112085D01*
X141605000Y-134112085D01*
X141605000Y-135255000D01*
X141625000Y-135255000D01*
X141625000Y-135509000D01*
X141605000Y-135509000D01*
X141605000Y-136651915D01*
X141827039Y-136773904D01*
X142215423Y-136613041D01*
X142630389Y-136237134D01*
X142869914Y-135731041D01*
X142748630Y-135509002D01*
X142839125Y-135509002D01*
X142905522Y-135842803D01*
X143166547Y-136233453D01*
X143557197Y-136494478D01*
X143901682Y-136563000D01*
X144134318Y-136563000D01*
X144478803Y-136494478D01*
X144869453Y-136233453D01*
X145130478Y-135842803D01*
X145222137Y-135382000D01*
X145353863Y-135382000D01*
X145445522Y-135842803D01*
X145706547Y-136233453D01*
X146097197Y-136494478D01*
X146441682Y-136563000D01*
X146674318Y-136563000D01*
X147018803Y-136494478D01*
X147409453Y-136233453D01*
X147670478Y-135842803D01*
X147762137Y-135382000D01*
X147670478Y-134921197D01*
X147443833Y-134582000D01*
X147909536Y-134582000D01*
X147909536Y-136182000D01*
X147939106Y-136330659D01*
X148023314Y-136456686D01*
X148149341Y-136540894D01*
X148298000Y-136570464D01*
X149898000Y-136570464D01*
X150046659Y-136540894D01*
X150172686Y-136456686D01*
X150256894Y-136330659D01*
X150286464Y-136182000D01*
X150286464Y-134582000D01*
X150256894Y-134433341D01*
X150172686Y-134307314D01*
X150046659Y-134223106D01*
X149898000Y-134193536D01*
X148298000Y-134193536D01*
X148149341Y-134223106D01*
X148023314Y-134307314D01*
X147939106Y-134433341D01*
X147909536Y-134582000D01*
X147443833Y-134582000D01*
X147409453Y-134530547D01*
X147018803Y-134269522D01*
X146674318Y-134201000D01*
X146441682Y-134201000D01*
X146097197Y-134269522D01*
X145706547Y-134530547D01*
X145445522Y-134921197D01*
X145353863Y-135382000D01*
X145222137Y-135382000D01*
X145130478Y-134921197D01*
X144869453Y-134530547D01*
X144478803Y-134269522D01*
X144134318Y-134201000D01*
X143901682Y-134201000D01*
X143557197Y-134269522D01*
X143166547Y-134530547D01*
X142905522Y-134921197D01*
X142839125Y-135254998D01*
X142748630Y-135254998D01*
X142869914Y-135032959D01*
X142630389Y-134526866D01*
X142215423Y-134150959D01*
X141827039Y-133990096D01*
X141605000Y-134112085D01*
X141351000Y-134112085D01*
X141128961Y-133990096D01*
X140740577Y-134150959D01*
X140325611Y-134526866D01*
X140086086Y-135032959D01*
X134511858Y-135032959D01*
X130288898Y-130810000D01*
X130605142Y-130810000D01*
X131165277Y-130577985D01*
X131593985Y-130149277D01*
X131826000Y-129589142D01*
X132058015Y-130149277D01*
X132486723Y-130577985D01*
X133046858Y-130810000D01*
X133653142Y-130810000D01*
X134213277Y-130577985D01*
X134641985Y-130149277D01*
X134874000Y-129589142D01*
X134874000Y-128982858D01*
X134641985Y-128422723D01*
X134213277Y-127994015D01*
X133653142Y-127762000D01*
X133046858Y-127762000D01*
X132486723Y-127994015D01*
X132058015Y-128422723D01*
X131826000Y-128982858D01*
X131593985Y-128422723D01*
X131165277Y-127994015D01*
X130605142Y-127762000D01*
X129998858Y-127762000D01*
X129438723Y-127994015D01*
X129010015Y-128422723D01*
X128778000Y-128982858D01*
X128778000Y-129299102D01*
X128739001Y-129260103D01*
X128739001Y-124987085D01*
X130391000Y-124987085D01*
X130391000Y-125456915D01*
X130570797Y-125890983D01*
X130903017Y-126223203D01*
X131337085Y-126403000D01*
X131806915Y-126403000D01*
X132240983Y-126223203D01*
X132573203Y-125890983D01*
X132753000Y-125456915D01*
X132753000Y-124987085D01*
X132573203Y-124553017D01*
X132240983Y-124220797D01*
X131806915Y-124041000D01*
X131337085Y-124041000D01*
X130903017Y-124220797D01*
X130570797Y-124553017D01*
X130391000Y-124987085D01*
X128739001Y-124987085D01*
X128739001Y-123201028D01*
X128748952Y-123151000D01*
X128739001Y-123100970D01*
X128739001Y-123100969D01*
X128709526Y-122952789D01*
X128597248Y-122784754D01*
X128554834Y-122756414D01*
X128166072Y-122367652D01*
X128255116Y-121920000D01*
X128204592Y-121666000D01*
X133415863Y-121666000D01*
X133507522Y-122126803D01*
X133768547Y-122517453D01*
X134159197Y-122778478D01*
X134503682Y-122847000D01*
X134736318Y-122847000D01*
X135080803Y-122778478D01*
X135471453Y-122517453D01*
X135732478Y-122126803D01*
X135824137Y-121666000D01*
X135732478Y-121205197D01*
X135471453Y-120814547D01*
X135080803Y-120553522D01*
X134736318Y-120485000D01*
X134503682Y-120485000D01*
X134159197Y-120553522D01*
X133768547Y-120814547D01*
X133507522Y-121205197D01*
X133415863Y-121666000D01*
X128204592Y-121666000D01*
X128166072Y-121472348D01*
X130512420Y-119126000D01*
X133415863Y-119126000D01*
X133507522Y-119586803D01*
X133768547Y-119977453D01*
X134159197Y-120238478D01*
X134503682Y-120307000D01*
X134736318Y-120307000D01*
X135080803Y-120238478D01*
X135471453Y-119977453D01*
X135732478Y-119586803D01*
X135824137Y-119126000D01*
X135732478Y-118665197D01*
X135471453Y-118274547D01*
X135080803Y-118013522D01*
X134736318Y-117945000D01*
X134503682Y-117945000D01*
X134159197Y-118013522D01*
X133768547Y-118274547D01*
X133507522Y-118665197D01*
X133415863Y-119126000D01*
X130512420Y-119126000D01*
X130998947Y-118639474D01*
X131111197Y-118714478D01*
X131455682Y-118783000D01*
X131688318Y-118783000D01*
X132032803Y-118714478D01*
X132423453Y-118453453D01*
X132684478Y-118062803D01*
X132776137Y-117602000D01*
X132695552Y-117196869D01*
X133443038Y-116449383D01*
X133415863Y-116586000D01*
X133507522Y-117046803D01*
X133768547Y-117437453D01*
X134159197Y-117698478D01*
X134503682Y-117767000D01*
X134736318Y-117767000D01*
X135080803Y-117698478D01*
X135471453Y-117437453D01*
X135732478Y-117046803D01*
X135824137Y-116586000D01*
X135732478Y-116125197D01*
X135471453Y-115734547D01*
X135406557Y-115691184D01*
X135553128Y-115593248D01*
X135581469Y-115550833D01*
X138938000Y-112194302D01*
X138938000Y-123633058D01*
X138594547Y-123862547D01*
X138333522Y-124253197D01*
X138241863Y-124714000D01*
X138333522Y-125174803D01*
X138594547Y-125565453D01*
X138985197Y-125826478D01*
X139329682Y-125895000D01*
X139562318Y-125895000D01*
X139906803Y-125826478D01*
X140119001Y-125684691D01*
X140119001Y-130942578D01*
X139841898Y-131219681D01*
X139680915Y-131153000D01*
X139211085Y-131153000D01*
X138777017Y-131332797D01*
X138444797Y-131665017D01*
X138265000Y-132099085D01*
X138265000Y-132568915D01*
X138444797Y-133002983D01*
X138777017Y-133335203D01*
X139211085Y-133515000D01*
X139680915Y-133515000D01*
X140099189Y-133341745D01*
X142173861Y-133341745D01*
X142247995Y-133587864D01*
X142785223Y-133780965D01*
X143355454Y-133753778D01*
X143756005Y-133587864D01*
X143830139Y-133341745D01*
X143002000Y-132513605D01*
X142173861Y-133341745D01*
X140099189Y-133341745D01*
X140114983Y-133335203D01*
X140447203Y-133002983D01*
X140627000Y-132568915D01*
X140627000Y-132117223D01*
X141555035Y-132117223D01*
X141582222Y-132687454D01*
X141748136Y-133088005D01*
X141994255Y-133162139D01*
X142822395Y-132334000D01*
X143181605Y-132334000D01*
X144009745Y-133162139D01*
X144255864Y-133088005D01*
X144315979Y-132920758D01*
X146063000Y-132920758D01*
X146063000Y-133271242D01*
X146197124Y-133595047D01*
X146444953Y-133842876D01*
X146768758Y-133977000D01*
X147119242Y-133977000D01*
X147443047Y-133842876D01*
X147690876Y-133595047D01*
X147825000Y-133271242D01*
X147825000Y-132920758D01*
X147963000Y-132920758D01*
X147963000Y-133271242D01*
X148097124Y-133595047D01*
X148344953Y-133842876D01*
X148668758Y-133977000D01*
X149019242Y-133977000D01*
X149343047Y-133842876D01*
X149590876Y-133595047D01*
X149725000Y-133271242D01*
X149725000Y-132920758D01*
X149590876Y-132596953D01*
X149343047Y-132349124D01*
X149019242Y-132215000D01*
X148668758Y-132215000D01*
X148344953Y-132349124D01*
X148097124Y-132596953D01*
X147963000Y-132920758D01*
X147825000Y-132920758D01*
X147690876Y-132596953D01*
X147443047Y-132349124D01*
X147119242Y-132215000D01*
X146768758Y-132215000D01*
X146444953Y-132349124D01*
X146197124Y-132596953D01*
X146063000Y-132920758D01*
X144315979Y-132920758D01*
X144448965Y-132550777D01*
X144421778Y-131980546D01*
X144255864Y-131579995D01*
X144009745Y-131505861D01*
X143181605Y-132334000D01*
X142822395Y-132334000D01*
X141994255Y-131505861D01*
X141748136Y-131579995D01*
X141555035Y-132117223D01*
X140627000Y-132117223D01*
X140627000Y-132099085D01*
X140560319Y-131938102D01*
X140950837Y-131547584D01*
X140993248Y-131519246D01*
X141021587Y-131476834D01*
X141021589Y-131476832D01*
X141065099Y-131411713D01*
X141105526Y-131351211D01*
X141110490Y-131326255D01*
X142173861Y-131326255D01*
X143002000Y-132154395D01*
X143830139Y-131326255D01*
X143756005Y-131080136D01*
X143218777Y-130887035D01*
X142648546Y-130914222D01*
X142247995Y-131080136D01*
X142173861Y-131326255D01*
X141110490Y-131326255D01*
X141135001Y-131203031D01*
X141135001Y-131203027D01*
X141144952Y-131152999D01*
X141135001Y-131102971D01*
X141135001Y-126746000D01*
X145405536Y-126746000D01*
X145405536Y-127946000D01*
X145435106Y-128094659D01*
X145519314Y-128220686D01*
X145645341Y-128304894D01*
X145794000Y-128334464D01*
X146994000Y-128334464D01*
X147142659Y-128304894D01*
X147268686Y-128220686D01*
X147352894Y-128094659D01*
X147382464Y-127946000D01*
X147382464Y-126746000D01*
X148405536Y-126746000D01*
X148405536Y-127946000D01*
X148435106Y-128094659D01*
X148519314Y-128220686D01*
X148645341Y-128304894D01*
X148794000Y-128334464D01*
X149994000Y-128334464D01*
X150142659Y-128304894D01*
X150268686Y-128220686D01*
X150352894Y-128094659D01*
X150382464Y-127946000D01*
X150382464Y-126746000D01*
X150352894Y-126597341D01*
X150268686Y-126471314D01*
X150142659Y-126387106D01*
X149994000Y-126357536D01*
X148794000Y-126357536D01*
X148645341Y-126387106D01*
X148519314Y-126471314D01*
X148435106Y-126597341D01*
X148405536Y-126746000D01*
X147382464Y-126746000D01*
X147352894Y-126597341D01*
X147268686Y-126471314D01*
X147142659Y-126387106D01*
X146994000Y-126357536D01*
X145794000Y-126357536D01*
X145645341Y-126387106D01*
X145519314Y-126471314D01*
X145435106Y-126597341D01*
X145405536Y-126746000D01*
X141135001Y-126746000D01*
X141135001Y-124714000D01*
X141797863Y-124714000D01*
X141889522Y-125174803D01*
X142150547Y-125565453D01*
X142541197Y-125826478D01*
X142885682Y-125895000D01*
X143118318Y-125895000D01*
X143462803Y-125826478D01*
X143853453Y-125565453D01*
X144114478Y-125174803D01*
X144206137Y-124714000D01*
X144114478Y-124253197D01*
X143853453Y-123862547D01*
X143462803Y-123601522D01*
X143118318Y-123533000D01*
X142885682Y-123533000D01*
X142541197Y-123601522D01*
X142150547Y-123862547D01*
X141889522Y-124253197D01*
X141797863Y-124714000D01*
X141135001Y-124714000D01*
X141135001Y-122137996D01*
X141388547Y-122517453D01*
X141779197Y-122778478D01*
X142123682Y-122847000D01*
X142356318Y-122847000D01*
X142700803Y-122778478D01*
X143091453Y-122517453D01*
X143352478Y-122126803D01*
X143444137Y-121666000D01*
X143352478Y-121205197D01*
X143150685Y-120903193D01*
X144261000Y-120903193D01*
X144261000Y-121412807D01*
X144456021Y-121883628D01*
X144816372Y-122243979D01*
X145287193Y-122439000D01*
X145796807Y-122439000D01*
X146267628Y-122243979D01*
X146627979Y-121883628D01*
X146793536Y-121483939D01*
X146793536Y-122058000D01*
X146823106Y-122206659D01*
X146907314Y-122332686D01*
X147033341Y-122416894D01*
X147182000Y-122446464D01*
X148982000Y-122446464D01*
X149130659Y-122416894D01*
X149256686Y-122332686D01*
X149340894Y-122206659D01*
X149370464Y-122058000D01*
X149370464Y-120258000D01*
X149340894Y-120109341D01*
X149256686Y-119983314D01*
X149130659Y-119899106D01*
X148982000Y-119869536D01*
X147182000Y-119869536D01*
X147033341Y-119899106D01*
X146907314Y-119983314D01*
X146823106Y-120109341D01*
X146793536Y-120258000D01*
X146793536Y-120832061D01*
X146627979Y-120432372D01*
X146267628Y-120072021D01*
X145796807Y-119877000D01*
X145287193Y-119877000D01*
X144816372Y-120072021D01*
X144456021Y-120432372D01*
X144261000Y-120903193D01*
X143150685Y-120903193D01*
X143091453Y-120814547D01*
X142700803Y-120553522D01*
X142356318Y-120485000D01*
X142123682Y-120485000D01*
X141779197Y-120553522D01*
X141388547Y-120814547D01*
X141135001Y-121194004D01*
X141135001Y-119597996D01*
X141388547Y-119977453D01*
X141779197Y-120238478D01*
X142123682Y-120307000D01*
X142356318Y-120307000D01*
X142700803Y-120238478D01*
X143091453Y-119977453D01*
X143352478Y-119586803D01*
X143444137Y-119126000D01*
X143352478Y-118665197D01*
X143091453Y-118274547D01*
X142700803Y-118013522D01*
X142356318Y-117945000D01*
X142123682Y-117945000D01*
X141779197Y-118013522D01*
X141388547Y-118274547D01*
X141135001Y-118654004D01*
X141135001Y-117057996D01*
X141388547Y-117437453D01*
X141779197Y-117698478D01*
X142123682Y-117767000D01*
X142356318Y-117767000D01*
X142700803Y-117698478D01*
X143091453Y-117437453D01*
X143352478Y-117046803D01*
X143444137Y-116586000D01*
X143352478Y-116125197D01*
X143091453Y-115734547D01*
X142700803Y-115473522D01*
X142356318Y-115405000D01*
X142123682Y-115405000D01*
X141779197Y-115473522D01*
X141388547Y-115734547D01*
X141135001Y-116114004D01*
X141135001Y-114517996D01*
X141388547Y-114897453D01*
X141779197Y-115158478D01*
X142123682Y-115227000D01*
X142356318Y-115227000D01*
X142700803Y-115158478D01*
X143091453Y-114897453D01*
X143352478Y-114506803D01*
X143444137Y-114046000D01*
X143352478Y-113585197D01*
X143091453Y-113194547D01*
X142700803Y-112933522D01*
X142356318Y-112865000D01*
X142123682Y-112865000D01*
X141779197Y-112933522D01*
X141388547Y-113194547D01*
X141135001Y-113574004D01*
X141135001Y-111977996D01*
X141388547Y-112357453D01*
X141779197Y-112618478D01*
X142123682Y-112687000D01*
X142356318Y-112687000D01*
X142700803Y-112618478D01*
X143091453Y-112357453D01*
X143352478Y-111966803D01*
X143440340Y-111525085D01*
X144107000Y-111525085D01*
X144107000Y-111994915D01*
X144286797Y-112428983D01*
X144619017Y-112761203D01*
X145053085Y-112941000D01*
X145522915Y-112941000D01*
X145956983Y-112761203D01*
X146289203Y-112428983D01*
X146469000Y-111994915D01*
X146469000Y-111525085D01*
X146289203Y-111091017D01*
X145956983Y-110758797D01*
X145522915Y-110579000D01*
X145053085Y-110579000D01*
X144619017Y-110758797D01*
X144286797Y-111091017D01*
X144107000Y-111525085D01*
X143440340Y-111525085D01*
X143444137Y-111506000D01*
X143352478Y-111045197D01*
X143091453Y-110654547D01*
X142700803Y-110393522D01*
X142356318Y-110325000D01*
X142123682Y-110325000D01*
X141779197Y-110393522D01*
X141388547Y-110654547D01*
X141135001Y-111034004D01*
X141135001Y-110789419D01*
X141834589Y-110089832D01*
X141834591Y-110089829D01*
X141834868Y-110089552D01*
X142123682Y-110147000D01*
X142356318Y-110147000D01*
X142700803Y-110078478D01*
X143091453Y-109817453D01*
X143352478Y-109426803D01*
X143444137Y-108966000D01*
X143363552Y-108560868D01*
X144156675Y-107767745D01*
X144459861Y-107767745D01*
X144533995Y-108013864D01*
X145071223Y-108206965D01*
X145641454Y-108179778D01*
X146042005Y-108013864D01*
X146116139Y-107767745D01*
X145288000Y-106939605D01*
X144459861Y-107767745D01*
X144156675Y-107767745D01*
X144430832Y-107493588D01*
X144473246Y-107465248D01*
X144585524Y-107297213D01*
X144589085Y-107279309D01*
X145108395Y-106760000D01*
X145467605Y-106760000D01*
X146295745Y-107588139D01*
X146541864Y-107514005D01*
X146734965Y-106976777D01*
X146707778Y-106406546D01*
X146541864Y-106005995D01*
X146295745Y-105931861D01*
X145467605Y-106760000D01*
X145108395Y-106760000D01*
X145094252Y-106745858D01*
X145273858Y-106566252D01*
X145288000Y-106580395D01*
X146116139Y-105752255D01*
X146042005Y-105506136D01*
X145853096Y-105438235D01*
X145956983Y-105395203D01*
X146289203Y-105062983D01*
X146469000Y-104628915D01*
X146469000Y-104159085D01*
X146289203Y-103725017D01*
X145956983Y-103392797D01*
X145796000Y-103326116D01*
X145796000Y-101302420D01*
X149412348Y-97686072D01*
X149738761Y-97751000D01*
X149981239Y-97751000D01*
X150340312Y-97679576D01*
X150736301Y-97414985D01*
X150736301Y-98165015D01*
X150736301Y-98165015D01*
G37*
X150736301Y-98165015D02*
X150340312Y-97900424D01*
X149981239Y-97829000D01*
X149738761Y-97829000D01*
X149379688Y-97900424D01*
X148972499Y-98172499D01*
X148700424Y-98579688D01*
X148604884Y-99060000D01*
X148700424Y-99540312D01*
X148972499Y-99947501D01*
X149379688Y-100219576D01*
X149738761Y-100291000D01*
X149981239Y-100291000D01*
X150340312Y-100219576D01*
X150736301Y-99954985D01*
X150736301Y-100705015D01*
X150340312Y-100440424D01*
X149981239Y-100369000D01*
X149738761Y-100369000D01*
X149379688Y-100440424D01*
X148972499Y-100712499D01*
X148700424Y-101119688D01*
X148604884Y-101600000D01*
X148700424Y-102080312D01*
X148972499Y-102487501D01*
X149379688Y-102759576D01*
X149738761Y-102831000D01*
X149981239Y-102831000D01*
X150340312Y-102759576D01*
X150736301Y-102494985D01*
X150736301Y-103245015D01*
X150340312Y-102980424D01*
X149981239Y-102909000D01*
X149738761Y-102909000D01*
X149379688Y-102980424D01*
X148972499Y-103252499D01*
X148700424Y-103659688D01*
X148604884Y-104140000D01*
X148700424Y-104620312D01*
X148972499Y-105027501D01*
X149379688Y-105299576D01*
X149738761Y-105371000D01*
X149981239Y-105371000D01*
X150340312Y-105299576D01*
X150736301Y-105034985D01*
X150736301Y-105785015D01*
X150340312Y-105520424D01*
X149981239Y-105449000D01*
X149738761Y-105449000D01*
X149379688Y-105520424D01*
X148972499Y-105792499D01*
X148700424Y-106199688D01*
X148604884Y-106680000D01*
X148700424Y-107160312D01*
X148972499Y-107567501D01*
X149379688Y-107839576D01*
X149738761Y-107911000D01*
X149981239Y-107911000D01*
X150340312Y-107839576D01*
X150736301Y-107574985D01*
X150736301Y-108325015D01*
X150340312Y-108060424D01*
X149981239Y-107989000D01*
X149738761Y-107989000D01*
X149379688Y-108060424D01*
X148972499Y-108332499D01*
X148700424Y-108739688D01*
X148604884Y-109220000D01*
X148700424Y-109700312D01*
X148972499Y-110107501D01*
X149379688Y-110379576D01*
X149738761Y-110451000D01*
X149981239Y-110451000D01*
X150340312Y-110379576D01*
X150736301Y-110114985D01*
X150736301Y-110865015D01*
X150340312Y-110600424D01*
X149981239Y-110529000D01*
X149738761Y-110529000D01*
X149379688Y-110600424D01*
X148972499Y-110872499D01*
X148700424Y-111279688D01*
X148604884Y-111760000D01*
X148700424Y-112240312D01*
X148972499Y-112647501D01*
X149379688Y-112919576D01*
X149738761Y-112991000D01*
X149981239Y-112991000D01*
X150340312Y-112919576D01*
X150736301Y-112654985D01*
X150736301Y-113405015D01*
X150340312Y-113140424D01*
X149981239Y-113069000D01*
X149738761Y-113069000D01*
X149379688Y-113140424D01*
X148972499Y-113412499D01*
X148700424Y-113819688D01*
X148604884Y-114300000D01*
X148700424Y-114780312D01*
X148972499Y-115187501D01*
X149379688Y-115459576D01*
X149738761Y-115531000D01*
X149981239Y-115531000D01*
X150340312Y-115459576D01*
X150736301Y-115194985D01*
X150736301Y-115945015D01*
X150340312Y-115680424D01*
X149981239Y-115609000D01*
X149738761Y-115609000D01*
X149379688Y-115680424D01*
X148972499Y-115952499D01*
X148700424Y-116359688D01*
X148604884Y-116840000D01*
X148700424Y-117320312D01*
X148972499Y-117727501D01*
X149379688Y-117999576D01*
X149738761Y-118071000D01*
X149981239Y-118071000D01*
X150340312Y-117999576D01*
X150736301Y-117734985D01*
X150736301Y-144386300D01*
X126123700Y-144386300D01*
X126123700Y-142190858D01*
X128778000Y-142190858D01*
X128778000Y-142797142D01*
X129010015Y-143357277D01*
X129438723Y-143785985D01*
X129998858Y-144018000D01*
X130605142Y-144018000D01*
X131165277Y-143785985D01*
X131593985Y-143357277D01*
X131826000Y-142797142D01*
X132058015Y-143357277D01*
X132486723Y-143785985D01*
X133046858Y-144018000D01*
X133653142Y-144018000D01*
X134213277Y-143785985D01*
X134641985Y-143357277D01*
X134874000Y-142797142D01*
X134874000Y-142190858D01*
X134641985Y-141630723D01*
X134213277Y-141202015D01*
X133653142Y-140970000D01*
X133046858Y-140970000D01*
X132486723Y-141202015D01*
X132058015Y-141630723D01*
X131826000Y-142190858D01*
X131593985Y-141630723D01*
X131165277Y-141202015D01*
X130605142Y-140970000D01*
X129998858Y-140970000D01*
X129438723Y-141202015D01*
X129010015Y-141630723D01*
X128778000Y-142190858D01*
X126123700Y-142190858D01*
X126123700Y-125693233D01*
X126150000Y-125698464D01*
X126492001Y-125698464D01*
X126492000Y-129605342D01*
X126482049Y-129655370D01*
X126492000Y-129705398D01*
X126492000Y-129705401D01*
X126521475Y-129853581D01*
X126633753Y-130021617D01*
X126676168Y-130049958D01*
X139952044Y-143325835D01*
X139980383Y-143368247D01*
X140022795Y-143396586D01*
X140022797Y-143396588D01*
X140121895Y-143462803D01*
X140148418Y-143480525D01*
X140296598Y-143510000D01*
X140296601Y-143510000D01*
X140346629Y-143519951D01*
X140396657Y-143510000D01*
X140397058Y-143510000D01*
X140626547Y-143853453D01*
X141017197Y-144114478D01*
X141361682Y-144183000D01*
X141594318Y-144183000D01*
X141938803Y-144114478D01*
X142329453Y-143853453D01*
X142590478Y-143462803D01*
X142682137Y-143002000D01*
X142590478Y-142541197D01*
X142448691Y-142328999D01*
X142626579Y-142328999D01*
X142894168Y-142596589D01*
X142894171Y-142596591D01*
X142894448Y-142596868D01*
X142813863Y-143002000D01*
X142905522Y-143462803D01*
X143166547Y-143853453D01*
X143557197Y-144114478D01*
X143901682Y-144183000D01*
X144134318Y-144183000D01*
X144478803Y-144114478D01*
X144869453Y-143853453D01*
X145130478Y-143462803D01*
X145222137Y-143002000D01*
X145353863Y-143002000D01*
X145445522Y-143462803D01*
X145706547Y-143853453D01*
X146097197Y-144114478D01*
X146441682Y-144183000D01*
X146674318Y-144183000D01*
X147018803Y-144114478D01*
X147409453Y-143853453D01*
X147670478Y-143462803D01*
X147762137Y-143002000D01*
X147893863Y-143002000D01*
X147985522Y-143462803D01*
X148246547Y-143853453D01*
X148637197Y-144114478D01*
X148981682Y-144183000D01*
X149214318Y-144183000D01*
X149558803Y-144114478D01*
X149949453Y-143853453D01*
X150210478Y-143462803D01*
X150302137Y-143002000D01*
X150210478Y-142541197D01*
X149949453Y-142150547D01*
X149558803Y-141889522D01*
X149214318Y-141821000D01*
X148981682Y-141821000D01*
X148637197Y-141889522D01*
X148246547Y-142150547D01*
X147985522Y-142541197D01*
X147893863Y-143002000D01*
X147762137Y-143002000D01*
X147670478Y-142541197D01*
X147409453Y-142150547D01*
X147018803Y-141889522D01*
X146674318Y-141821000D01*
X146441682Y-141821000D01*
X146097197Y-141889522D01*
X145706547Y-142150547D01*
X145445522Y-142541197D01*
X145353863Y-143002000D01*
X145222137Y-143002000D01*
X145130478Y-142541197D01*
X144869453Y-142150547D01*
X144478803Y-141889522D01*
X144134318Y-141821000D01*
X143901682Y-141821000D01*
X143612868Y-141878448D01*
X143612591Y-141878171D01*
X143612589Y-141878168D01*
X143231587Y-141497166D01*
X143203246Y-141454752D01*
X143035211Y-141342474D01*
X142887031Y-141312999D01*
X142887027Y-141312999D01*
X142836999Y-141303048D01*
X142786971Y-141312999D01*
X140791898Y-141312999D01*
X135209940Y-135731041D01*
X140086086Y-135731041D01*
X140325611Y-136237134D01*
X140740577Y-136613041D01*
X141128961Y-136773904D01*
X141351000Y-136651915D01*
X141351000Y-135509000D01*
X140207371Y-135509000D01*
X140086086Y-135731041D01*
X135209940Y-135731041D01*
X134511858Y-135032959D01*
X140086086Y-135032959D01*
X140207371Y-135255000D01*
X141351000Y-135255000D01*
X141351000Y-134112085D01*
X141605000Y-134112085D01*
X141605000Y-135255000D01*
X141625000Y-135255000D01*
X141625000Y-135509000D01*
X141605000Y-135509000D01*
X141605000Y-136651915D01*
X141827039Y-136773904D01*
X142215423Y-136613041D01*
X142630389Y-136237134D01*
X142869914Y-135731041D01*
X142748630Y-135509002D01*
X142839125Y-135509002D01*
X142905522Y-135842803D01*
X143166547Y-136233453D01*
X143557197Y-136494478D01*
X143901682Y-136563000D01*
X144134318Y-136563000D01*
X144478803Y-136494478D01*
X144869453Y-136233453D01*
X145130478Y-135842803D01*
X145222137Y-135382000D01*
X145353863Y-135382000D01*
X145445522Y-135842803D01*
X145706547Y-136233453D01*
X146097197Y-136494478D01*
X146441682Y-136563000D01*
X146674318Y-136563000D01*
X147018803Y-136494478D01*
X147409453Y-136233453D01*
X147670478Y-135842803D01*
X147762137Y-135382000D01*
X147670478Y-134921197D01*
X147443833Y-134582000D01*
X147909536Y-134582000D01*
X147909536Y-136182000D01*
X147939106Y-136330659D01*
X148023314Y-136456686D01*
X148149341Y-136540894D01*
X148298000Y-136570464D01*
X149898000Y-136570464D01*
X150046659Y-136540894D01*
X150172686Y-136456686D01*
X150256894Y-136330659D01*
X150286464Y-136182000D01*
X150286464Y-134582000D01*
X150256894Y-134433341D01*
X150172686Y-134307314D01*
X150046659Y-134223106D01*
X149898000Y-134193536D01*
X148298000Y-134193536D01*
X148149341Y-134223106D01*
X148023314Y-134307314D01*
X147939106Y-134433341D01*
X147909536Y-134582000D01*
X147443833Y-134582000D01*
X147409453Y-134530547D01*
X147018803Y-134269522D01*
X146674318Y-134201000D01*
X146441682Y-134201000D01*
X146097197Y-134269522D01*
X145706547Y-134530547D01*
X145445522Y-134921197D01*
X145353863Y-135382000D01*
X145222137Y-135382000D01*
X145130478Y-134921197D01*
X144869453Y-134530547D01*
X144478803Y-134269522D01*
X144134318Y-134201000D01*
X143901682Y-134201000D01*
X143557197Y-134269522D01*
X143166547Y-134530547D01*
X142905522Y-134921197D01*
X142839125Y-135254998D01*
X142748630Y-135254998D01*
X142869914Y-135032959D01*
X142630389Y-134526866D01*
X142215423Y-134150959D01*
X141827039Y-133990096D01*
X141605000Y-134112085D01*
X141351000Y-134112085D01*
X141128961Y-133990096D01*
X140740577Y-134150959D01*
X140325611Y-134526866D01*
X140086086Y-135032959D01*
X134511858Y-135032959D01*
X130288898Y-130810000D01*
X130605142Y-130810000D01*
X131165277Y-130577985D01*
X131593985Y-130149277D01*
X131826000Y-129589142D01*
X132058015Y-130149277D01*
X132486723Y-130577985D01*
X133046858Y-130810000D01*
X133653142Y-130810000D01*
X134213277Y-130577985D01*
X134641985Y-130149277D01*
X134874000Y-129589142D01*
X134874000Y-128982858D01*
X134641985Y-128422723D01*
X134213277Y-127994015D01*
X133653142Y-127762000D01*
X133046858Y-127762000D01*
X132486723Y-127994015D01*
X132058015Y-128422723D01*
X131826000Y-128982858D01*
X131593985Y-128422723D01*
X131165277Y-127994015D01*
X130605142Y-127762000D01*
X129998858Y-127762000D01*
X129438723Y-127994015D01*
X129010015Y-128422723D01*
X128778000Y-128982858D01*
X128778000Y-129299102D01*
X128739001Y-129260103D01*
X128739001Y-124987085D01*
X130391000Y-124987085D01*
X130391000Y-125456915D01*
X130570797Y-125890983D01*
X130903017Y-126223203D01*
X131337085Y-126403000D01*
X131806915Y-126403000D01*
X132240983Y-126223203D01*
X132573203Y-125890983D01*
X132753000Y-125456915D01*
X132753000Y-124987085D01*
X132573203Y-124553017D01*
X132240983Y-124220797D01*
X131806915Y-124041000D01*
X131337085Y-124041000D01*
X130903017Y-124220797D01*
X130570797Y-124553017D01*
X130391000Y-124987085D01*
X128739001Y-124987085D01*
X128739001Y-123201028D01*
X128748952Y-123151000D01*
X128739001Y-123100970D01*
X128739001Y-123100969D01*
X128709526Y-122952789D01*
X128597248Y-122784754D01*
X128554834Y-122756414D01*
X128166072Y-122367652D01*
X128255116Y-121920000D01*
X128204592Y-121666000D01*
X133415863Y-121666000D01*
X133507522Y-122126803D01*
X133768547Y-122517453D01*
X134159197Y-122778478D01*
X134503682Y-122847000D01*
X134736318Y-122847000D01*
X135080803Y-122778478D01*
X135471453Y-122517453D01*
X135732478Y-122126803D01*
X135824137Y-121666000D01*
X135732478Y-121205197D01*
X135471453Y-120814547D01*
X135080803Y-120553522D01*
X134736318Y-120485000D01*
X134503682Y-120485000D01*
X134159197Y-120553522D01*
X133768547Y-120814547D01*
X133507522Y-121205197D01*
X133415863Y-121666000D01*
X128204592Y-121666000D01*
X128166072Y-121472348D01*
X130512420Y-119126000D01*
X133415863Y-119126000D01*
X133507522Y-119586803D01*
X133768547Y-119977453D01*
X134159197Y-120238478D01*
X134503682Y-120307000D01*
X134736318Y-120307000D01*
X135080803Y-120238478D01*
X135471453Y-119977453D01*
X135732478Y-119586803D01*
X135824137Y-119126000D01*
X135732478Y-118665197D01*
X135471453Y-118274547D01*
X135080803Y-118013522D01*
X134736318Y-117945000D01*
X134503682Y-117945000D01*
X134159197Y-118013522D01*
X133768547Y-118274547D01*
X133507522Y-118665197D01*
X133415863Y-119126000D01*
X130512420Y-119126000D01*
X130998947Y-118639474D01*
X131111197Y-118714478D01*
X131455682Y-118783000D01*
X131688318Y-118783000D01*
X132032803Y-118714478D01*
X132423453Y-118453453D01*
X132684478Y-118062803D01*
X132776137Y-117602000D01*
X132695552Y-117196869D01*
X133443038Y-116449383D01*
X133415863Y-116586000D01*
X133507522Y-117046803D01*
X133768547Y-117437453D01*
X134159197Y-117698478D01*
X134503682Y-117767000D01*
X134736318Y-117767000D01*
X135080803Y-117698478D01*
X135471453Y-117437453D01*
X135732478Y-117046803D01*
X135824137Y-116586000D01*
X135732478Y-116125197D01*
X135471453Y-115734547D01*
X135406557Y-115691184D01*
X135553128Y-115593248D01*
X135581469Y-115550833D01*
X138938000Y-112194302D01*
X138938000Y-123633058D01*
X138594547Y-123862547D01*
X138333522Y-124253197D01*
X138241863Y-124714000D01*
X138333522Y-125174803D01*
X138594547Y-125565453D01*
X138985197Y-125826478D01*
X139329682Y-125895000D01*
X139562318Y-125895000D01*
X139906803Y-125826478D01*
X140119001Y-125684691D01*
X140119001Y-130942578D01*
X139841898Y-131219681D01*
X139680915Y-131153000D01*
X139211085Y-131153000D01*
X138777017Y-131332797D01*
X138444797Y-131665017D01*
X138265000Y-132099085D01*
X138265000Y-132568915D01*
X138444797Y-133002983D01*
X138777017Y-133335203D01*
X139211085Y-133515000D01*
X139680915Y-133515000D01*
X140099189Y-133341745D01*
X142173861Y-133341745D01*
X142247995Y-133587864D01*
X142785223Y-133780965D01*
X143355454Y-133753778D01*
X143756005Y-133587864D01*
X143830139Y-133341745D01*
X143002000Y-132513605D01*
X142173861Y-133341745D01*
X140099189Y-133341745D01*
X140114983Y-133335203D01*
X140447203Y-133002983D01*
X140627000Y-132568915D01*
X140627000Y-132117223D01*
X141555035Y-132117223D01*
X141582222Y-132687454D01*
X141748136Y-133088005D01*
X141994255Y-133162139D01*
X142822395Y-132334000D01*
X143181605Y-132334000D01*
X144009745Y-133162139D01*
X144255864Y-133088005D01*
X144315979Y-132920758D01*
X146063000Y-132920758D01*
X146063000Y-133271242D01*
X146197124Y-133595047D01*
X146444953Y-133842876D01*
X146768758Y-133977000D01*
X147119242Y-133977000D01*
X147443047Y-133842876D01*
X147690876Y-133595047D01*
X147825000Y-133271242D01*
X147825000Y-132920758D01*
X147963000Y-132920758D01*
X147963000Y-133271242D01*
X148097124Y-133595047D01*
X148344953Y-133842876D01*
X148668758Y-133977000D01*
X149019242Y-133977000D01*
X149343047Y-133842876D01*
X149590876Y-133595047D01*
X149725000Y-133271242D01*
X149725000Y-132920758D01*
X149590876Y-132596953D01*
X149343047Y-132349124D01*
X149019242Y-132215000D01*
X148668758Y-132215000D01*
X148344953Y-132349124D01*
X148097124Y-132596953D01*
X147963000Y-132920758D01*
X147825000Y-132920758D01*
X147690876Y-132596953D01*
X147443047Y-132349124D01*
X147119242Y-132215000D01*
X146768758Y-132215000D01*
X146444953Y-132349124D01*
X146197124Y-132596953D01*
X146063000Y-132920758D01*
X144315979Y-132920758D01*
X144448965Y-132550777D01*
X144421778Y-131980546D01*
X144255864Y-131579995D01*
X144009745Y-131505861D01*
X143181605Y-132334000D01*
X142822395Y-132334000D01*
X141994255Y-131505861D01*
X141748136Y-131579995D01*
X141555035Y-132117223D01*
X140627000Y-132117223D01*
X140627000Y-132099085D01*
X140560319Y-131938102D01*
X140950837Y-131547584D01*
X140993248Y-131519246D01*
X141021587Y-131476834D01*
X141021589Y-131476832D01*
X141065099Y-131411713D01*
X141105526Y-131351211D01*
X141110490Y-131326255D01*
X142173861Y-131326255D01*
X143002000Y-132154395D01*
X143830139Y-131326255D01*
X143756005Y-131080136D01*
X143218777Y-130887035D01*
X142648546Y-130914222D01*
X142247995Y-131080136D01*
X142173861Y-131326255D01*
X141110490Y-131326255D01*
X141135001Y-131203031D01*
X141135001Y-131203027D01*
X141144952Y-131152999D01*
X141135001Y-131102971D01*
X141135001Y-126746000D01*
X145405536Y-126746000D01*
X145405536Y-127946000D01*
X145435106Y-128094659D01*
X145519314Y-128220686D01*
X145645341Y-128304894D01*
X145794000Y-128334464D01*
X146994000Y-128334464D01*
X147142659Y-128304894D01*
X147268686Y-128220686D01*
X147352894Y-128094659D01*
X147382464Y-127946000D01*
X147382464Y-126746000D01*
X148405536Y-126746000D01*
X148405536Y-127946000D01*
X148435106Y-128094659D01*
X148519314Y-128220686D01*
X148645341Y-128304894D01*
X148794000Y-128334464D01*
X149994000Y-128334464D01*
X150142659Y-128304894D01*
X150268686Y-128220686D01*
X150352894Y-128094659D01*
X150382464Y-127946000D01*
X150382464Y-126746000D01*
X150352894Y-126597341D01*
X150268686Y-126471314D01*
X150142659Y-126387106D01*
X149994000Y-126357536D01*
X148794000Y-126357536D01*
X148645341Y-126387106D01*
X148519314Y-126471314D01*
X148435106Y-126597341D01*
X148405536Y-126746000D01*
X147382464Y-126746000D01*
X147352894Y-126597341D01*
X147268686Y-126471314D01*
X147142659Y-126387106D01*
X146994000Y-126357536D01*
X145794000Y-126357536D01*
X145645341Y-126387106D01*
X145519314Y-126471314D01*
X145435106Y-126597341D01*
X145405536Y-126746000D01*
X141135001Y-126746000D01*
X141135001Y-124714000D01*
X141797863Y-124714000D01*
X141889522Y-125174803D01*
X142150547Y-125565453D01*
X142541197Y-125826478D01*
X142885682Y-125895000D01*
X143118318Y-125895000D01*
X143462803Y-125826478D01*
X143853453Y-125565453D01*
X144114478Y-125174803D01*
X144206137Y-124714000D01*
X144114478Y-124253197D01*
X143853453Y-123862547D01*
X143462803Y-123601522D01*
X143118318Y-123533000D01*
X142885682Y-123533000D01*
X142541197Y-123601522D01*
X142150547Y-123862547D01*
X141889522Y-124253197D01*
X141797863Y-124714000D01*
X141135001Y-124714000D01*
X141135001Y-122137996D01*
X141388547Y-122517453D01*
X141779197Y-122778478D01*
X142123682Y-122847000D01*
X142356318Y-122847000D01*
X142700803Y-122778478D01*
X143091453Y-122517453D01*
X143352478Y-122126803D01*
X143444137Y-121666000D01*
X143352478Y-121205197D01*
X143150685Y-120903193D01*
X144261000Y-120903193D01*
X144261000Y-121412807D01*
X144456021Y-121883628D01*
X144816372Y-122243979D01*
X145287193Y-122439000D01*
X145796807Y-122439000D01*
X146267628Y-122243979D01*
X146627979Y-121883628D01*
X146793536Y-121483939D01*
X146793536Y-122058000D01*
X146823106Y-122206659D01*
X146907314Y-122332686D01*
X147033341Y-122416894D01*
X147182000Y-122446464D01*
X148982000Y-122446464D01*
X149130659Y-122416894D01*
X149256686Y-122332686D01*
X149340894Y-122206659D01*
X149370464Y-122058000D01*
X149370464Y-120258000D01*
X149340894Y-120109341D01*
X149256686Y-119983314D01*
X149130659Y-119899106D01*
X148982000Y-119869536D01*
X147182000Y-119869536D01*
X147033341Y-119899106D01*
X146907314Y-119983314D01*
X146823106Y-120109341D01*
X146793536Y-120258000D01*
X146793536Y-120832061D01*
X146627979Y-120432372D01*
X146267628Y-120072021D01*
X145796807Y-119877000D01*
X145287193Y-119877000D01*
X144816372Y-120072021D01*
X144456021Y-120432372D01*
X144261000Y-120903193D01*
X143150685Y-120903193D01*
X143091453Y-120814547D01*
X142700803Y-120553522D01*
X142356318Y-120485000D01*
X142123682Y-120485000D01*
X141779197Y-120553522D01*
X141388547Y-120814547D01*
X141135001Y-121194004D01*
X141135001Y-119597996D01*
X141388547Y-119977453D01*
X141779197Y-120238478D01*
X142123682Y-120307000D01*
X142356318Y-120307000D01*
X142700803Y-120238478D01*
X143091453Y-119977453D01*
X143352478Y-119586803D01*
X143444137Y-119126000D01*
X143352478Y-118665197D01*
X143091453Y-118274547D01*
X142700803Y-118013522D01*
X142356318Y-117945000D01*
X142123682Y-117945000D01*
X141779197Y-118013522D01*
X141388547Y-118274547D01*
X141135001Y-118654004D01*
X141135001Y-117057996D01*
X141388547Y-117437453D01*
X141779197Y-117698478D01*
X142123682Y-117767000D01*
X142356318Y-117767000D01*
X142700803Y-117698478D01*
X143091453Y-117437453D01*
X143352478Y-117046803D01*
X143444137Y-116586000D01*
X143352478Y-116125197D01*
X143091453Y-115734547D01*
X142700803Y-115473522D01*
X142356318Y-115405000D01*
X142123682Y-115405000D01*
X141779197Y-115473522D01*
X141388547Y-115734547D01*
X141135001Y-116114004D01*
X141135001Y-114517996D01*
X141388547Y-114897453D01*
X141779197Y-115158478D01*
X142123682Y-115227000D01*
X142356318Y-115227000D01*
X142700803Y-115158478D01*
X143091453Y-114897453D01*
X143352478Y-114506803D01*
X143444137Y-114046000D01*
X143352478Y-113585197D01*
X143091453Y-113194547D01*
X142700803Y-112933522D01*
X142356318Y-112865000D01*
X142123682Y-112865000D01*
X141779197Y-112933522D01*
X141388547Y-113194547D01*
X141135001Y-113574004D01*
X141135001Y-111977996D01*
X141388547Y-112357453D01*
X141779197Y-112618478D01*
X142123682Y-112687000D01*
X142356318Y-112687000D01*
X142700803Y-112618478D01*
X143091453Y-112357453D01*
X143352478Y-111966803D01*
X143440340Y-111525085D01*
X144107000Y-111525085D01*
X144107000Y-111994915D01*
X144286797Y-112428983D01*
X144619017Y-112761203D01*
X145053085Y-112941000D01*
X145522915Y-112941000D01*
X145956983Y-112761203D01*
X146289203Y-112428983D01*
X146469000Y-111994915D01*
X146469000Y-111525085D01*
X146289203Y-111091017D01*
X145956983Y-110758797D01*
X145522915Y-110579000D01*
X145053085Y-110579000D01*
X144619017Y-110758797D01*
X144286797Y-111091017D01*
X144107000Y-111525085D01*
X143440340Y-111525085D01*
X143444137Y-111506000D01*
X143352478Y-111045197D01*
X143091453Y-110654547D01*
X142700803Y-110393522D01*
X142356318Y-110325000D01*
X142123682Y-110325000D01*
X141779197Y-110393522D01*
X141388547Y-110654547D01*
X141135001Y-111034004D01*
X141135001Y-110789419D01*
X141834589Y-110089832D01*
X141834591Y-110089829D01*
X141834868Y-110089552D01*
X142123682Y-110147000D01*
X142356318Y-110147000D01*
X142700803Y-110078478D01*
X143091453Y-109817453D01*
X143352478Y-109426803D01*
X143444137Y-108966000D01*
X143363552Y-108560868D01*
X144156675Y-107767745D01*
X144459861Y-107767745D01*
X144533995Y-108013864D01*
X145071223Y-108206965D01*
X145641454Y-108179778D01*
X146042005Y-108013864D01*
X146116139Y-107767745D01*
X145288000Y-106939605D01*
X144459861Y-107767745D01*
X144156675Y-107767745D01*
X144430832Y-107493588D01*
X144473246Y-107465248D01*
X144585524Y-107297213D01*
X144589085Y-107279309D01*
X145108395Y-106760000D01*
X145467605Y-106760000D01*
X146295745Y-107588139D01*
X146541864Y-107514005D01*
X146734965Y-106976777D01*
X146707778Y-106406546D01*
X146541864Y-106005995D01*
X146295745Y-105931861D01*
X145467605Y-106760000D01*
X145108395Y-106760000D01*
X145094252Y-106745858D01*
X145273858Y-106566252D01*
X145288000Y-106580395D01*
X146116139Y-105752255D01*
X146042005Y-105506136D01*
X145853096Y-105438235D01*
X145956983Y-105395203D01*
X146289203Y-105062983D01*
X146469000Y-104628915D01*
X146469000Y-104159085D01*
X146289203Y-103725017D01*
X145956983Y-103392797D01*
X145796000Y-103326116D01*
X145796000Y-101302420D01*
X149412348Y-97686072D01*
X149738761Y-97751000D01*
X149981239Y-97751000D01*
X150340312Y-97679576D01*
X150736301Y-97414985D01*
X150736301Y-98165015D01*
G36*
X141211695Y-78265629D02*
X141732000Y-78369124D01*
X142252306Y-78265629D01*
X142262738Y-78258659D01*
X143156913Y-79152834D01*
X143185252Y-79195246D01*
X143227664Y-79223585D01*
X143227666Y-79223587D01*
X143279096Y-79257951D01*
X143353287Y-79307524D01*
X143501467Y-79336999D01*
X143501470Y-79336999D01*
X143551498Y-79346950D01*
X143601526Y-79336999D01*
X144290815Y-79336999D01*
X144286797Y-79341017D01*
X144107000Y-79775085D01*
X144107000Y-80244915D01*
X144286797Y-80678983D01*
X144619017Y-81011203D01*
X144780000Y-81077884D01*
X144780001Y-85832085D01*
X144770049Y-85882118D01*
X144809475Y-86080329D01*
X144893412Y-86205950D01*
X144893415Y-86205953D01*
X144921754Y-86248365D01*
X144964166Y-86276704D01*
X145142305Y-86454843D01*
X144827197Y-86517522D01*
X144436547Y-86778547D01*
X144175522Y-87169197D01*
X144083863Y-87630000D01*
X144175522Y-88090803D01*
X144436547Y-88481453D01*
X144827197Y-88742478D01*
X145171682Y-88811000D01*
X145404318Y-88811000D01*
X145748803Y-88742478D01*
X146139453Y-88481453D01*
X146400478Y-88090803D01*
X146463157Y-87775695D01*
X146558000Y-87870539D01*
X146558001Y-93675967D01*
X146548049Y-93726000D01*
X146587475Y-93924211D01*
X146671412Y-94049832D01*
X146671415Y-94049835D01*
X146699754Y-94092247D01*
X146742166Y-94120586D01*
X148693927Y-96072348D01*
X148604884Y-96520000D01*
X148693928Y-96967652D01*
X146682371Y-98979209D01*
X146541864Y-98639995D01*
X146295745Y-98565861D01*
X145467605Y-99394000D01*
X145481748Y-99408142D01*
X145302142Y-99587748D01*
X145288000Y-99573605D01*
X144459861Y-100401745D01*
X144533995Y-100647864D01*
X144888625Y-100775332D01*
X144844771Y-100840965D01*
X144809475Y-100893789D01*
X144780000Y-101041969D01*
X144780000Y-101041972D01*
X144770049Y-101092000D01*
X144780000Y-101142028D01*
X144780001Y-103326115D01*
X144619017Y-103392797D01*
X144286797Y-103725017D01*
X144107000Y-104159085D01*
X144107000Y-104628915D01*
X144173682Y-104789898D01*
X144164171Y-104799409D01*
X144164168Y-104799411D01*
X143783164Y-105180415D01*
X143740753Y-105208754D01*
X143712414Y-105251166D01*
X143712411Y-105251169D01*
X143628474Y-105376790D01*
X143589048Y-105575001D01*
X143599000Y-105625034D01*
X143598999Y-106888581D01*
X142645132Y-107842448D01*
X142356318Y-107785000D01*
X142123682Y-107785000D01*
X141779197Y-107853522D01*
X141388547Y-108114547D01*
X141127522Y-108505197D01*
X141035863Y-108966000D01*
X141116448Y-109371132D01*
X141116171Y-109371409D01*
X141116168Y-109371411D01*
X140303167Y-110184413D01*
X140260755Y-110212752D01*
X140232416Y-110255164D01*
X140232413Y-110255167D01*
X140148476Y-110380788D01*
X140109050Y-110578999D01*
X140119002Y-110629032D01*
X140119001Y-123743309D01*
X139954000Y-123633058D01*
X139954000Y-104235039D01*
X140848096Y-104235039D01*
X141008959Y-104623423D01*
X141384866Y-105038389D01*
X141890959Y-105277914D01*
X142112998Y-105156630D01*
X142112998Y-105247125D01*
X141779197Y-105313522D01*
X141388547Y-105574547D01*
X141127522Y-105965197D01*
X141035863Y-106426000D01*
X141127522Y-106886803D01*
X141388547Y-107277453D01*
X141779197Y-107538478D01*
X142123682Y-107607000D01*
X142356318Y-107607000D01*
X142700803Y-107538478D01*
X143091453Y-107277453D01*
X143352478Y-106886803D01*
X143444137Y-106426000D01*
X143352478Y-105965197D01*
X143091453Y-105574547D01*
X142700803Y-105313522D01*
X142367002Y-105247125D01*
X142367002Y-105156630D01*
X142589041Y-105277914D01*
X143095134Y-105038389D01*
X143471041Y-104623423D01*
X143631904Y-104235039D01*
X143509915Y-104013000D01*
X142367000Y-104013000D01*
X142367000Y-104033000D01*
X142113000Y-104033000D01*
X142113000Y-104013000D01*
X140970085Y-104013000D01*
X140848096Y-104235039D01*
X139954000Y-104235039D01*
X139954000Y-103536961D01*
X140848096Y-103536961D01*
X140970085Y-103759000D01*
X142113000Y-103759000D01*
X142113000Y-103739000D01*
X142367000Y-103739000D01*
X142367000Y-103759000D01*
X143509915Y-103759000D01*
X143631904Y-103536961D01*
X143471041Y-103148577D01*
X143095134Y-102733611D01*
X142589041Y-102494086D01*
X142367002Y-102615370D01*
X142367002Y-102524875D01*
X142700803Y-102458478D01*
X143091453Y-102197453D01*
X143352478Y-101806803D01*
X143444137Y-101346000D01*
X143352478Y-100885197D01*
X143091453Y-100494547D01*
X142700803Y-100233522D01*
X142356318Y-100165000D01*
X142123682Y-100165000D01*
X141779197Y-100233522D01*
X141388547Y-100494547D01*
X141127522Y-100885197D01*
X141035863Y-101346000D01*
X141127522Y-101806803D01*
X141388547Y-102197453D01*
X141779197Y-102458478D01*
X142112998Y-102524875D01*
X142112998Y-102615370D01*
X141890959Y-102494086D01*
X141384866Y-102733611D01*
X141008959Y-103148577D01*
X140848096Y-103536961D01*
X139954000Y-103536961D01*
X139954000Y-98806000D01*
X141035863Y-98806000D01*
X141127522Y-99266803D01*
X141388547Y-99657453D01*
X141779197Y-99918478D01*
X142123682Y-99987000D01*
X142356318Y-99987000D01*
X142700803Y-99918478D01*
X143091453Y-99657453D01*
X143352478Y-99266803D01*
X143370296Y-99177223D01*
X143841035Y-99177223D01*
X143868222Y-99747454D01*
X144034136Y-100148005D01*
X144280255Y-100222139D01*
X145108395Y-99394000D01*
X144280255Y-98565861D01*
X144034136Y-98639995D01*
X143841035Y-99177223D01*
X143370296Y-99177223D01*
X143444137Y-98806000D01*
X143360645Y-98386255D01*
X144459861Y-98386255D01*
X145288000Y-99214395D01*
X146116139Y-98386255D01*
X146042005Y-98140136D01*
X145504777Y-97947035D01*
X144934546Y-97974222D01*
X144533995Y-98140136D01*
X144459861Y-98386255D01*
X143360645Y-98386255D01*
X143352478Y-98345197D01*
X143091453Y-97954547D01*
X142700803Y-97693522D01*
X142356318Y-97625000D01*
X142123682Y-97625000D01*
X141779197Y-97693522D01*
X141388547Y-97954547D01*
X141127522Y-98345197D01*
X141035863Y-98806000D01*
X139954000Y-98806000D01*
X139954000Y-96266000D01*
X141035863Y-96266000D01*
X141127522Y-96726803D01*
X141388547Y-97117453D01*
X141779197Y-97378478D01*
X142123682Y-97447000D01*
X142356318Y-97447000D01*
X142700803Y-97378478D01*
X143091453Y-97117453D01*
X143352478Y-96726803D01*
X143444137Y-96266000D01*
X143352478Y-95805197D01*
X143091453Y-95414547D01*
X142700803Y-95153522D01*
X142356318Y-95085000D01*
X142123682Y-95085000D01*
X141779197Y-95153522D01*
X141388547Y-95414547D01*
X141127522Y-95805197D01*
X141035863Y-96266000D01*
X139954000Y-96266000D01*
X139954000Y-94190420D01*
X140418420Y-93726000D01*
X141035863Y-93726000D01*
X141127522Y-94186803D01*
X141388547Y-94577453D01*
X141779197Y-94838478D01*
X142123682Y-94907000D01*
X142356318Y-94907000D01*
X142700803Y-94838478D01*
X143091453Y-94577453D01*
X143352478Y-94186803D01*
X143444137Y-93726000D01*
X143352478Y-93265197D01*
X143091453Y-92874547D01*
X142700803Y-92613522D01*
X142356318Y-92545000D01*
X142123682Y-92545000D01*
X141779197Y-92613522D01*
X141388547Y-92874547D01*
X141127522Y-93265197D01*
X141035863Y-93726000D01*
X140418420Y-93726000D01*
X141834869Y-92309552D01*
X142123682Y-92367000D01*
X142356318Y-92367000D01*
X142700803Y-92298478D01*
X143091453Y-92037453D01*
X143352478Y-91646803D01*
X143444137Y-91186000D01*
X143352478Y-90725197D01*
X143091453Y-90334547D01*
X142700803Y-90073522D01*
X142356318Y-90005000D01*
X142123682Y-90005000D01*
X141779197Y-90073522D01*
X141388547Y-90334547D01*
X141127522Y-90725197D01*
X141035863Y-91186000D01*
X141116448Y-91591131D01*
X139445990Y-93261590D01*
X139445990Y-92158430D01*
X141834589Y-89769832D01*
X141834591Y-89769829D01*
X141834868Y-89769552D01*
X142123682Y-89827000D01*
X142356318Y-89827000D01*
X142700803Y-89758478D01*
X143091453Y-89497453D01*
X143352478Y-89106803D01*
X143444137Y-88646000D01*
X143352478Y-88185197D01*
X143091453Y-87794547D01*
X142700803Y-87533522D01*
X142356318Y-87465000D01*
X142123682Y-87465000D01*
X141779197Y-87533522D01*
X141388547Y-87794547D01*
X141127522Y-88185197D01*
X141035863Y-88646000D01*
X141116448Y-89051132D01*
X141116171Y-89051409D01*
X141116168Y-89051411D01*
X138937980Y-91229600D01*
X138937980Y-84561302D01*
X140351000Y-84561302D01*
X140351000Y-85110698D01*
X140561245Y-85618273D01*
X140949727Y-86006755D01*
X141457302Y-86217000D01*
X142006698Y-86217000D01*
X142514273Y-86006755D01*
X142902755Y-85618273D01*
X143113000Y-85110698D01*
X143113000Y-84561302D01*
X142902755Y-84053727D01*
X142514273Y-83665245D01*
X142006698Y-83455000D01*
X141457302Y-83455000D01*
X140949727Y-83665245D01*
X140561245Y-84053727D01*
X140351000Y-84561302D01*
X138937980Y-84561302D01*
X138937980Y-81488532D01*
X140759073Y-81488532D01*
X140857736Y-81755387D01*
X141467461Y-81981908D01*
X142117460Y-81957856D01*
X142606264Y-81755387D01*
X142704927Y-81488532D01*
X141732000Y-80515605D01*
X140759073Y-81488532D01*
X138937980Y-81488532D01*
X138937980Y-80521940D01*
X139388459Y-80071461D01*
X140086092Y-80071461D01*
X140110144Y-80721460D01*
X140312613Y-81210264D01*
X140579468Y-81308927D01*
X141552395Y-80336000D01*
X141911605Y-80336000D01*
X142884532Y-81308927D01*
X143151387Y-81210264D01*
X143377908Y-80600539D01*
X143353856Y-79950540D01*
X143151387Y-79461736D01*
X142884532Y-79363073D01*
X141911605Y-80336000D01*
X141552395Y-80336000D01*
X140579468Y-79363073D01*
X140312613Y-79461736D01*
X140086092Y-80071461D01*
X139388459Y-80071461D01*
X140276452Y-79183468D01*
X140759073Y-79183468D01*
X141732000Y-80156395D01*
X142704927Y-79183468D01*
X142606264Y-78916613D01*
X141996539Y-78690092D01*
X141346540Y-78714144D01*
X140857736Y-78916613D01*
X140759073Y-79183468D01*
X140276452Y-79183468D01*
X141201262Y-78258658D01*
X141211695Y-78265629D01*
X141211695Y-78265629D01*
G37*
X141211695Y-78265629D02*
X141732000Y-78369124D01*
X142252306Y-78265629D01*
X142262738Y-78258659D01*
X143156913Y-79152834D01*
X143185252Y-79195246D01*
X143227664Y-79223585D01*
X143227666Y-79223587D01*
X143279096Y-79257951D01*
X143353287Y-79307524D01*
X143501467Y-79336999D01*
X143501470Y-79336999D01*
X143551498Y-79346950D01*
X143601526Y-79336999D01*
X144290815Y-79336999D01*
X144286797Y-79341017D01*
X144107000Y-79775085D01*
X144107000Y-80244915D01*
X144286797Y-80678983D01*
X144619017Y-81011203D01*
X144780000Y-81077884D01*
X144780001Y-85832085D01*
X144770049Y-85882118D01*
X144809475Y-86080329D01*
X144893412Y-86205950D01*
X144893415Y-86205953D01*
X144921754Y-86248365D01*
X144964166Y-86276704D01*
X145142305Y-86454843D01*
X144827197Y-86517522D01*
X144436547Y-86778547D01*
X144175522Y-87169197D01*
X144083863Y-87630000D01*
X144175522Y-88090803D01*
X144436547Y-88481453D01*
X144827197Y-88742478D01*
X145171682Y-88811000D01*
X145404318Y-88811000D01*
X145748803Y-88742478D01*
X146139453Y-88481453D01*
X146400478Y-88090803D01*
X146463157Y-87775695D01*
X146558000Y-87870539D01*
X146558001Y-93675967D01*
X146548049Y-93726000D01*
X146587475Y-93924211D01*
X146671412Y-94049832D01*
X146671415Y-94049835D01*
X146699754Y-94092247D01*
X146742166Y-94120586D01*
X148693927Y-96072348D01*
X148604884Y-96520000D01*
X148693928Y-96967652D01*
X146682371Y-98979209D01*
X146541864Y-98639995D01*
X146295745Y-98565861D01*
X145467605Y-99394000D01*
X145481748Y-99408142D01*
X145302142Y-99587748D01*
X145288000Y-99573605D01*
X144459861Y-100401745D01*
X144533995Y-100647864D01*
X144888625Y-100775332D01*
X144844771Y-100840965D01*
X144809475Y-100893789D01*
X144780000Y-101041969D01*
X144780000Y-101041972D01*
X144770049Y-101092000D01*
X144780000Y-101142028D01*
X144780001Y-103326115D01*
X144619017Y-103392797D01*
X144286797Y-103725017D01*
X144107000Y-104159085D01*
X144107000Y-104628915D01*
X144173682Y-104789898D01*
X144164171Y-104799409D01*
X144164168Y-104799411D01*
X143783164Y-105180415D01*
X143740753Y-105208754D01*
X143712414Y-105251166D01*
X143712411Y-105251169D01*
X143628474Y-105376790D01*
X143589048Y-105575001D01*
X143599000Y-105625034D01*
X143598999Y-106888581D01*
X142645132Y-107842448D01*
X142356318Y-107785000D01*
X142123682Y-107785000D01*
X141779197Y-107853522D01*
X141388547Y-108114547D01*
X141127522Y-108505197D01*
X141035863Y-108966000D01*
X141116448Y-109371132D01*
X141116171Y-109371409D01*
X141116168Y-109371411D01*
X140303167Y-110184413D01*
X140260755Y-110212752D01*
X140232416Y-110255164D01*
X140232413Y-110255167D01*
X140148476Y-110380788D01*
X140109050Y-110578999D01*
X140119002Y-110629032D01*
X140119001Y-123743309D01*
X139954000Y-123633058D01*
X139954000Y-104235039D01*
X140848096Y-104235039D01*
X141008959Y-104623423D01*
X141384866Y-105038389D01*
X141890959Y-105277914D01*
X142112998Y-105156630D01*
X142112998Y-105247125D01*
X141779197Y-105313522D01*
X141388547Y-105574547D01*
X141127522Y-105965197D01*
X141035863Y-106426000D01*
X141127522Y-106886803D01*
X141388547Y-107277453D01*
X141779197Y-107538478D01*
X142123682Y-107607000D01*
X142356318Y-107607000D01*
X142700803Y-107538478D01*
X143091453Y-107277453D01*
X143352478Y-106886803D01*
X143444137Y-106426000D01*
X143352478Y-105965197D01*
X143091453Y-105574547D01*
X142700803Y-105313522D01*
X142367002Y-105247125D01*
X142367002Y-105156630D01*
X142589041Y-105277914D01*
X143095134Y-105038389D01*
X143471041Y-104623423D01*
X143631904Y-104235039D01*
X143509915Y-104013000D01*
X142367000Y-104013000D01*
X142367000Y-104033000D01*
X142113000Y-104033000D01*
X142113000Y-104013000D01*
X140970085Y-104013000D01*
X140848096Y-104235039D01*
X139954000Y-104235039D01*
X139954000Y-103536961D01*
X140848096Y-103536961D01*
X140970085Y-103759000D01*
X142113000Y-103759000D01*
X142113000Y-103739000D01*
X142367000Y-103739000D01*
X142367000Y-103759000D01*
X143509915Y-103759000D01*
X143631904Y-103536961D01*
X143471041Y-103148577D01*
X143095134Y-102733611D01*
X142589041Y-102494086D01*
X142367002Y-102615370D01*
X142367002Y-102524875D01*
X142700803Y-102458478D01*
X143091453Y-102197453D01*
X143352478Y-101806803D01*
X143444137Y-101346000D01*
X143352478Y-100885197D01*
X143091453Y-100494547D01*
X142700803Y-100233522D01*
X142356318Y-100165000D01*
X142123682Y-100165000D01*
X141779197Y-100233522D01*
X141388547Y-100494547D01*
X141127522Y-100885197D01*
X141035863Y-101346000D01*
X141127522Y-101806803D01*
X141388547Y-102197453D01*
X141779197Y-102458478D01*
X142112998Y-102524875D01*
X142112998Y-102615370D01*
X141890959Y-102494086D01*
X141384866Y-102733611D01*
X141008959Y-103148577D01*
X140848096Y-103536961D01*
X139954000Y-103536961D01*
X139954000Y-98806000D01*
X141035863Y-98806000D01*
X141127522Y-99266803D01*
X141388547Y-99657453D01*
X141779197Y-99918478D01*
X142123682Y-99987000D01*
X142356318Y-99987000D01*
X142700803Y-99918478D01*
X143091453Y-99657453D01*
X143352478Y-99266803D01*
X143370296Y-99177223D01*
X143841035Y-99177223D01*
X143868222Y-99747454D01*
X144034136Y-100148005D01*
X144280255Y-100222139D01*
X145108395Y-99394000D01*
X144280255Y-98565861D01*
X144034136Y-98639995D01*
X143841035Y-99177223D01*
X143370296Y-99177223D01*
X143444137Y-98806000D01*
X143360645Y-98386255D01*
X144459861Y-98386255D01*
X145288000Y-99214395D01*
X146116139Y-98386255D01*
X146042005Y-98140136D01*
X145504777Y-97947035D01*
X144934546Y-97974222D01*
X144533995Y-98140136D01*
X144459861Y-98386255D01*
X143360645Y-98386255D01*
X143352478Y-98345197D01*
X143091453Y-97954547D01*
X142700803Y-97693522D01*
X142356318Y-97625000D01*
X142123682Y-97625000D01*
X141779197Y-97693522D01*
X141388547Y-97954547D01*
X141127522Y-98345197D01*
X141035863Y-98806000D01*
X139954000Y-98806000D01*
X139954000Y-96266000D01*
X141035863Y-96266000D01*
X141127522Y-96726803D01*
X141388547Y-97117453D01*
X141779197Y-97378478D01*
X142123682Y-97447000D01*
X142356318Y-97447000D01*
X142700803Y-97378478D01*
X143091453Y-97117453D01*
X143352478Y-96726803D01*
X143444137Y-96266000D01*
X143352478Y-95805197D01*
X143091453Y-95414547D01*
X142700803Y-95153522D01*
X142356318Y-95085000D01*
X142123682Y-95085000D01*
X141779197Y-95153522D01*
X141388547Y-95414547D01*
X141127522Y-95805197D01*
X141035863Y-96266000D01*
X139954000Y-96266000D01*
X139954000Y-94190420D01*
X140418420Y-93726000D01*
X141035863Y-93726000D01*
X141127522Y-94186803D01*
X141388547Y-94577453D01*
X141779197Y-94838478D01*
X142123682Y-94907000D01*
X142356318Y-94907000D01*
X142700803Y-94838478D01*
X143091453Y-94577453D01*
X143352478Y-94186803D01*
X143444137Y-93726000D01*
X143352478Y-93265197D01*
X143091453Y-92874547D01*
X142700803Y-92613522D01*
X142356318Y-92545000D01*
X142123682Y-92545000D01*
X141779197Y-92613522D01*
X141388547Y-92874547D01*
X141127522Y-93265197D01*
X141035863Y-93726000D01*
X140418420Y-93726000D01*
X141834869Y-92309552D01*
X142123682Y-92367000D01*
X142356318Y-92367000D01*
X142700803Y-92298478D01*
X143091453Y-92037453D01*
X143352478Y-91646803D01*
X143444137Y-91186000D01*
X143352478Y-90725197D01*
X143091453Y-90334547D01*
X142700803Y-90073522D01*
X142356318Y-90005000D01*
X142123682Y-90005000D01*
X141779197Y-90073522D01*
X141388547Y-90334547D01*
X141127522Y-90725197D01*
X141035863Y-91186000D01*
X141116448Y-91591131D01*
X139445990Y-93261590D01*
X139445990Y-92158430D01*
X141834589Y-89769832D01*
X141834591Y-89769829D01*
X141834868Y-89769552D01*
X142123682Y-89827000D01*
X142356318Y-89827000D01*
X142700803Y-89758478D01*
X143091453Y-89497453D01*
X143352478Y-89106803D01*
X143444137Y-88646000D01*
X143352478Y-88185197D01*
X143091453Y-87794547D01*
X142700803Y-87533522D01*
X142356318Y-87465000D01*
X142123682Y-87465000D01*
X141779197Y-87533522D01*
X141388547Y-87794547D01*
X141127522Y-88185197D01*
X141035863Y-88646000D01*
X141116448Y-89051132D01*
X141116171Y-89051409D01*
X141116168Y-89051411D01*
X138937980Y-91229600D01*
X138937980Y-84561302D01*
X140351000Y-84561302D01*
X140351000Y-85110698D01*
X140561245Y-85618273D01*
X140949727Y-86006755D01*
X141457302Y-86217000D01*
X142006698Y-86217000D01*
X142514273Y-86006755D01*
X142902755Y-85618273D01*
X143113000Y-85110698D01*
X143113000Y-84561302D01*
X142902755Y-84053727D01*
X142514273Y-83665245D01*
X142006698Y-83455000D01*
X141457302Y-83455000D01*
X140949727Y-83665245D01*
X140561245Y-84053727D01*
X140351000Y-84561302D01*
X138937980Y-84561302D01*
X138937980Y-81488532D01*
X140759073Y-81488532D01*
X140857736Y-81755387D01*
X141467461Y-81981908D01*
X142117460Y-81957856D01*
X142606264Y-81755387D01*
X142704927Y-81488532D01*
X141732000Y-80515605D01*
X140759073Y-81488532D01*
X138937980Y-81488532D01*
X138937980Y-80521940D01*
X139388459Y-80071461D01*
X140086092Y-80071461D01*
X140110144Y-80721460D01*
X140312613Y-81210264D01*
X140579468Y-81308927D01*
X141552395Y-80336000D01*
X141911605Y-80336000D01*
X142884532Y-81308927D01*
X143151387Y-81210264D01*
X143377908Y-80600539D01*
X143353856Y-79950540D01*
X143151387Y-79461736D01*
X142884532Y-79363073D01*
X141911605Y-80336000D01*
X141552395Y-80336000D01*
X140579468Y-79363073D01*
X140312613Y-79461736D01*
X140086092Y-80071461D01*
X139388459Y-80071461D01*
X140276452Y-79183468D01*
X140759073Y-79183468D01*
X141732000Y-80156395D01*
X142704927Y-79183468D01*
X142606264Y-78916613D01*
X141996539Y-78690092D01*
X141346540Y-78714144D01*
X140857736Y-78916613D01*
X140759073Y-79183468D01*
X140276452Y-79183468D01*
X141201262Y-78258658D01*
X141211695Y-78265629D01*
G36*
X138429990Y-111265471D02*
X135795157Y-113900305D01*
X135732478Y-113585197D01*
X135471453Y-113194547D01*
X135080803Y-112933522D01*
X134736318Y-112865000D01*
X134503682Y-112865000D01*
X134159197Y-112933522D01*
X133768547Y-113194547D01*
X133507522Y-113585197D01*
X133415863Y-114046000D01*
X133507522Y-114506803D01*
X133693629Y-114785331D01*
X133623166Y-114832413D01*
X133623164Y-114832415D01*
X133580752Y-114860754D01*
X133552413Y-114903166D01*
X131977131Y-116478448D01*
X131688318Y-116421000D01*
X131455682Y-116421000D01*
X131111197Y-116489522D01*
X130720547Y-116750547D01*
X130459522Y-117141197D01*
X130367863Y-117602000D01*
X130406307Y-117795272D01*
X127447652Y-120753928D01*
X127121239Y-120689000D01*
X126878761Y-120689000D01*
X126519688Y-120760424D01*
X126123700Y-121025015D01*
X126123700Y-117734985D01*
X126519688Y-117999576D01*
X126878761Y-118071000D01*
X127121239Y-118071000D01*
X127480312Y-117999576D01*
X127887501Y-117727501D01*
X128159576Y-117320312D01*
X128255116Y-116840000D01*
X128166072Y-116392348D01*
X130410835Y-114147586D01*
X130453246Y-114119248D01*
X130481585Y-114076836D01*
X130481587Y-114076834D01*
X130538604Y-113991502D01*
X130620694Y-114073592D01*
X131073139Y-114261000D01*
X131562861Y-114261000D01*
X132015306Y-114073592D01*
X132361592Y-113727306D01*
X132549000Y-113274861D01*
X132549000Y-112785139D01*
X132361592Y-112332694D01*
X132015306Y-111986408D01*
X131864169Y-111923805D01*
X132102080Y-111825259D01*
X132182353Y-111573958D01*
X131318000Y-110709605D01*
X131303858Y-110723748D01*
X131124253Y-110544143D01*
X131138395Y-110530000D01*
X131124253Y-110515858D01*
X131303858Y-110336253D01*
X131318000Y-110350395D01*
X131332143Y-110336253D01*
X131511748Y-110515858D01*
X131497605Y-110530000D01*
X132361958Y-111394353D01*
X132613259Y-111314080D01*
X132814718Y-110758721D01*
X132788315Y-110168542D01*
X132622819Y-109769001D01*
X132956699Y-109769001D01*
X133658533Y-110470836D01*
X133686872Y-110513248D01*
X133729284Y-110541587D01*
X133729286Y-110541589D01*
X133785276Y-110579000D01*
X133833443Y-110611184D01*
X133768547Y-110654547D01*
X133507522Y-111045197D01*
X133415863Y-111506000D01*
X133507522Y-111966803D01*
X133768547Y-112357453D01*
X134159197Y-112618478D01*
X134503682Y-112687000D01*
X134736318Y-112687000D01*
X135080803Y-112618478D01*
X135471453Y-112357453D01*
X135732478Y-111966803D01*
X135824137Y-111506000D01*
X135732478Y-111045197D01*
X135471453Y-110654547D01*
X135406557Y-110611184D01*
X135553128Y-110513248D01*
X135581469Y-110470833D01*
X138429990Y-107622312D01*
X138429990Y-111265471D01*
X138429990Y-111265471D01*
G37*
X138429990Y-111265471D02*
X135795157Y-113900305D01*
X135732478Y-113585197D01*
X135471453Y-113194547D01*
X135080803Y-112933522D01*
X134736318Y-112865000D01*
X134503682Y-112865000D01*
X134159197Y-112933522D01*
X133768547Y-113194547D01*
X133507522Y-113585197D01*
X133415863Y-114046000D01*
X133507522Y-114506803D01*
X133693629Y-114785331D01*
X133623166Y-114832413D01*
X133623164Y-114832415D01*
X133580752Y-114860754D01*
X133552413Y-114903166D01*
X131977131Y-116478448D01*
X131688318Y-116421000D01*
X131455682Y-116421000D01*
X131111197Y-116489522D01*
X130720547Y-116750547D01*
X130459522Y-117141197D01*
X130367863Y-117602000D01*
X130406307Y-117795272D01*
X127447652Y-120753928D01*
X127121239Y-120689000D01*
X126878761Y-120689000D01*
X126519688Y-120760424D01*
X126123700Y-121025015D01*
X126123700Y-117734985D01*
X126519688Y-117999576D01*
X126878761Y-118071000D01*
X127121239Y-118071000D01*
X127480312Y-117999576D01*
X127887501Y-117727501D01*
X128159576Y-117320312D01*
X128255116Y-116840000D01*
X128166072Y-116392348D01*
X130410835Y-114147586D01*
X130453246Y-114119248D01*
X130481585Y-114076836D01*
X130481587Y-114076834D01*
X130538604Y-113991502D01*
X130620694Y-114073592D01*
X131073139Y-114261000D01*
X131562861Y-114261000D01*
X132015306Y-114073592D01*
X132361592Y-113727306D01*
X132549000Y-113274861D01*
X132549000Y-112785139D01*
X132361592Y-112332694D01*
X132015306Y-111986408D01*
X131864169Y-111923805D01*
X132102080Y-111825259D01*
X132182353Y-111573958D01*
X131318000Y-110709605D01*
X131303858Y-110723748D01*
X131124253Y-110544143D01*
X131138395Y-110530000D01*
X131124253Y-110515858D01*
X131303858Y-110336253D01*
X131318000Y-110350395D01*
X131332143Y-110336253D01*
X131511748Y-110515858D01*
X131497605Y-110530000D01*
X132361958Y-111394353D01*
X132613259Y-111314080D01*
X132814718Y-110758721D01*
X132788315Y-110168542D01*
X132622819Y-109769001D01*
X132956699Y-109769001D01*
X133658533Y-110470836D01*
X133686872Y-110513248D01*
X133729284Y-110541587D01*
X133729286Y-110541589D01*
X133785276Y-110579000D01*
X133833443Y-110611184D01*
X133768547Y-110654547D01*
X133507522Y-111045197D01*
X133415863Y-111506000D01*
X133507522Y-111966803D01*
X133768547Y-112357453D01*
X134159197Y-112618478D01*
X134503682Y-112687000D01*
X134736318Y-112687000D01*
X135080803Y-112618478D01*
X135471453Y-112357453D01*
X135732478Y-111966803D01*
X135824137Y-111506000D01*
X135732478Y-111045197D01*
X135471453Y-110654547D01*
X135406557Y-110611184D01*
X135553128Y-110513248D01*
X135581469Y-110470833D01*
X138429990Y-107622312D01*
X138429990Y-111265471D01*
G36*
X134747000Y-106299000D02*
X134767000Y-106299000D01*
X134767000Y-106553000D01*
X134747000Y-106553000D01*
X134747000Y-106573000D01*
X134493000Y-106573000D01*
X134493000Y-106553000D01*
X134473000Y-106553000D01*
X134473000Y-106299000D01*
X134493000Y-106299000D01*
X134493000Y-106279000D01*
X134747000Y-106279000D01*
X134747000Y-106299000D01*
X134747000Y-106299000D01*
G37*
X134747000Y-106299000D02*
X134767000Y-106299000D01*
X134767000Y-106553000D01*
X134747000Y-106553000D01*
X134747000Y-106573000D01*
X134493000Y-106573000D01*
X134493000Y-106553000D01*
X134473000Y-106553000D01*
X134473000Y-106299000D01*
X134493000Y-106299000D01*
X134493000Y-106279000D01*
X134747000Y-106279000D01*
X134747000Y-106299000D01*
G36*
X144419536Y-61694000D02*
X144449106Y-61842659D01*
X144533314Y-61968686D01*
X144659341Y-62052894D01*
X144808000Y-62082464D01*
X145643601Y-62082464D01*
X145643601Y-62670737D01*
X145625686Y-62760800D01*
X145691713Y-63092735D01*
X145696655Y-63117581D01*
X145898755Y-63420046D01*
X145975106Y-63471062D01*
X148945600Y-66441557D01*
X148945601Y-72836681D01*
X143962515Y-67853595D01*
X144145000Y-67764594D01*
X144145000Y-66421000D01*
X144399000Y-66421000D01*
X144399000Y-67764594D01*
X144644980Y-67884563D01*
X145138924Y-67669973D01*
X145581318Y-67237091D01*
X145824380Y-66667864D01*
X145697572Y-66421000D01*
X144399000Y-66421000D01*
X144145000Y-66421000D01*
X144125000Y-66421000D01*
X144125000Y-66167000D01*
X144145000Y-66167000D01*
X144145000Y-64823406D01*
X144399000Y-64823406D01*
X144399000Y-66167000D01*
X145697572Y-66167000D01*
X145824380Y-65920136D01*
X145581318Y-65350909D01*
X145138924Y-64918027D01*
X144644980Y-64703437D01*
X144399000Y-64823406D01*
X144145000Y-64823406D01*
X143899020Y-64703437D01*
X143405076Y-64918027D01*
X142962682Y-65350909D01*
X142874835Y-65556638D01*
X142693398Y-65285101D01*
X142252305Y-64990371D01*
X141732000Y-64886876D01*
X141211694Y-64990371D01*
X140770601Y-65285102D01*
X140532964Y-65640750D01*
X140532964Y-65294000D01*
X140503394Y-65145341D01*
X140419186Y-65019314D01*
X140293159Y-64935106D01*
X140144500Y-64905536D01*
X138239500Y-64905536D01*
X138090841Y-64935106D01*
X137964814Y-65019314D01*
X137880606Y-65145341D01*
X137851036Y-65294000D01*
X137851036Y-67294000D01*
X137880606Y-67442659D01*
X137964814Y-67568686D01*
X138090841Y-67652894D01*
X138239500Y-67682464D01*
X139672615Y-67682464D01*
X137026655Y-70328425D01*
X136984243Y-70356764D01*
X136955904Y-70399176D01*
X136955901Y-70399179D01*
X136871964Y-70524800D01*
X136832538Y-70723011D01*
X136842490Y-70773044D01*
X136842490Y-75926070D01*
X136242318Y-75325898D01*
X136309000Y-75164915D01*
X136309000Y-74695085D01*
X136129203Y-74261017D01*
X135796983Y-73928797D01*
X135362915Y-73749000D01*
X134893085Y-73749000D01*
X134459017Y-73928797D01*
X134126797Y-74261017D01*
X133947000Y-74695085D01*
X133947000Y-75164915D01*
X134126797Y-75598983D01*
X134459017Y-75931203D01*
X134893085Y-76111000D01*
X135362915Y-76111000D01*
X135523898Y-76044318D01*
X136334479Y-76854899D01*
X136334479Y-79084459D01*
X136319206Y-79069186D01*
X136204926Y-79183466D01*
X136106264Y-78916613D01*
X135496539Y-78690092D01*
X134846540Y-78714144D01*
X134357736Y-78916613D01*
X134259073Y-79183468D01*
X135232000Y-80156395D01*
X135246143Y-80142253D01*
X135425748Y-80321858D01*
X135411605Y-80336000D01*
X135425748Y-80350143D01*
X135246143Y-80529748D01*
X135232000Y-80515605D01*
X134259073Y-81488532D01*
X134357736Y-81755387D01*
X134967461Y-81981908D01*
X135617460Y-81957856D01*
X136106264Y-81755387D01*
X136204926Y-81488534D01*
X136319206Y-81602814D01*
X136334479Y-81587541D01*
X136334479Y-83985451D01*
X136014273Y-83665245D01*
X135506698Y-83455000D01*
X134957302Y-83455000D01*
X134449727Y-83665245D01*
X134061245Y-84053727D01*
X133851000Y-84561302D01*
X133851000Y-85110698D01*
X134061245Y-85618273D01*
X134112001Y-85669029D01*
X134112000Y-87457536D01*
X133820000Y-87457536D01*
X133671341Y-87487106D01*
X133545314Y-87571314D01*
X133515001Y-87616681D01*
X133515001Y-80071461D01*
X133586092Y-80071461D01*
X133610144Y-80721460D01*
X133812613Y-81210264D01*
X134079468Y-81308927D01*
X135052395Y-80336000D01*
X134079468Y-79363073D01*
X133812613Y-79461736D01*
X133586092Y-80071461D01*
X133515001Y-80071461D01*
X133515001Y-74606910D01*
X133524952Y-74556882D01*
X133515001Y-74506854D01*
X133515001Y-74506851D01*
X133485526Y-74358671D01*
X133401589Y-74233050D01*
X133401587Y-74233048D01*
X133373248Y-74190636D01*
X133330836Y-74162297D01*
X131145578Y-71977039D01*
X133736096Y-71977039D01*
X133896959Y-72365423D01*
X134272866Y-72780389D01*
X134778959Y-73019914D01*
X135001000Y-72898629D01*
X135001000Y-71755000D01*
X135255000Y-71755000D01*
X135255000Y-72898629D01*
X135477041Y-73019914D01*
X135983134Y-72780389D01*
X136359041Y-72365423D01*
X136519904Y-71977039D01*
X136397915Y-71755000D01*
X135255000Y-71755000D01*
X135001000Y-71755000D01*
X133858085Y-71755000D01*
X133736096Y-71977039D01*
X131145578Y-71977039D01*
X130447500Y-71278961D01*
X133736096Y-71278961D01*
X133858085Y-71501000D01*
X135001000Y-71501000D01*
X135001000Y-70357371D01*
X135255000Y-70357371D01*
X135255000Y-71501000D01*
X136397915Y-71501000D01*
X136519904Y-71278961D01*
X136359041Y-70890577D01*
X135983134Y-70475611D01*
X135477041Y-70236086D01*
X135255000Y-70357371D01*
X135001000Y-70357371D01*
X134778959Y-70236086D01*
X134272866Y-70475611D01*
X133896959Y-70890577D01*
X133736096Y-71278961D01*
X130447500Y-71278961D01*
X129794000Y-70625462D01*
X129794000Y-68069765D01*
X129895996Y-68027517D01*
X131034088Y-68027517D01*
X131102077Y-68268460D01*
X131621171Y-68453201D01*
X132171448Y-68425230D01*
X132549923Y-68268460D01*
X132617912Y-68027517D01*
X131826000Y-67235605D01*
X131034088Y-68027517D01*
X129895996Y-68027517D01*
X129926660Y-68014816D01*
X130244816Y-67696660D01*
X130417000Y-67280970D01*
X130417000Y-66851171D01*
X130428799Y-66851171D01*
X130456770Y-67401448D01*
X130613540Y-67779923D01*
X130854483Y-67847912D01*
X131646395Y-67056000D01*
X132005605Y-67056000D01*
X132797517Y-67847912D01*
X133038460Y-67779923D01*
X133223201Y-67260829D01*
X133195230Y-66710552D01*
X133038460Y-66332077D01*
X132797517Y-66264088D01*
X132005605Y-67056000D01*
X131646395Y-67056000D01*
X130854483Y-66264088D01*
X130613540Y-66332077D01*
X130428799Y-66851171D01*
X130417000Y-66851171D01*
X130417000Y-66831030D01*
X130244816Y-66415340D01*
X129926660Y-66097184D01*
X129895997Y-66084483D01*
X131034088Y-66084483D01*
X131826000Y-66876395D01*
X132617912Y-66084483D01*
X132549923Y-65843540D01*
X132030829Y-65658799D01*
X131480552Y-65686770D01*
X131102077Y-65843540D01*
X131034088Y-66084483D01*
X129895997Y-66084483D01*
X129510970Y-65925000D01*
X129061030Y-65925000D01*
X128645340Y-66097184D01*
X128327184Y-66415340D01*
X128155000Y-66831030D01*
X128155000Y-67280970D01*
X128327184Y-67696660D01*
X128645340Y-68014816D01*
X128778001Y-68069766D01*
X128778000Y-70785854D01*
X128768049Y-70835882D01*
X128778000Y-70885910D01*
X128778000Y-70885913D01*
X128803594Y-71014582D01*
X128807475Y-71034093D01*
X128889966Y-71157549D01*
X128919753Y-71202129D01*
X128962168Y-71230470D01*
X132499002Y-74767305D01*
X132499002Y-76726816D01*
X132494983Y-76722797D01*
X132060915Y-76543000D01*
X131591085Y-76543000D01*
X131157017Y-76722797D01*
X130824797Y-77055017D01*
X130645000Y-77489085D01*
X130645000Y-77958915D01*
X130824797Y-78392983D01*
X131157017Y-78725203D01*
X131591085Y-78905000D01*
X132060915Y-78905000D01*
X132494983Y-78725203D01*
X132499002Y-78721184D01*
X132499002Y-84086277D01*
X132175039Y-83952096D01*
X131953000Y-84074085D01*
X131953000Y-85217000D01*
X131973000Y-85217000D01*
X131973000Y-85471000D01*
X131953000Y-85471000D01*
X131953000Y-86613915D01*
X132175039Y-86735904D01*
X132499002Y-86601723D01*
X132499001Y-102222973D01*
X132489050Y-102273001D01*
X132499001Y-102323029D01*
X132499001Y-102323032D01*
X132528476Y-102471212D01*
X132640754Y-102639248D01*
X132683169Y-102667589D01*
X133496448Y-103480869D01*
X133415863Y-103886000D01*
X133507522Y-104346803D01*
X133649309Y-104559001D01*
X130677422Y-104559001D01*
X128166072Y-102047652D01*
X128255116Y-101600000D01*
X128159576Y-101119688D01*
X127887501Y-100712499D01*
X127480312Y-100440424D01*
X127121239Y-100369000D01*
X126878761Y-100369000D01*
X126519688Y-100440424D01*
X126123700Y-100705015D01*
X126123700Y-99954985D01*
X126519688Y-100219576D01*
X126878761Y-100291000D01*
X127121239Y-100291000D01*
X127480312Y-100219576D01*
X127887501Y-99947501D01*
X128159576Y-99540312D01*
X128255116Y-99060000D01*
X128159576Y-98579688D01*
X127887501Y-98172499D01*
X127483037Y-97902245D01*
X127881358Y-97715183D01*
X128271645Y-97286924D01*
X128441476Y-96876890D01*
X128320155Y-96647000D01*
X127127000Y-96647000D01*
X127127000Y-96667000D01*
X126873000Y-96667000D01*
X126873000Y-96647000D01*
X126853000Y-96647000D01*
X126853000Y-96393000D01*
X126873000Y-96393000D01*
X126873000Y-96373000D01*
X127127000Y-96373000D01*
X127127000Y-96393000D01*
X128320155Y-96393000D01*
X128441476Y-96163110D01*
X128271645Y-95753076D01*
X127881358Y-95324817D01*
X127483037Y-95137755D01*
X127887501Y-94867501D01*
X128159576Y-94460312D01*
X128255116Y-93980000D01*
X128159576Y-93499688D01*
X127887501Y-93092499D01*
X127480312Y-92820424D01*
X127121239Y-92749000D01*
X126878761Y-92749000D01*
X126519688Y-92820424D01*
X126123700Y-93085015D01*
X126123700Y-92334985D01*
X126519688Y-92599576D01*
X126878761Y-92671000D01*
X127121239Y-92671000D01*
X127480312Y-92599576D01*
X127887501Y-92327501D01*
X128159576Y-91920312D01*
X128255116Y-91440000D01*
X128166073Y-90992348D01*
X128244587Y-90913834D01*
X128244589Y-90913831D01*
X128554836Y-90603585D01*
X128597248Y-90575246D01*
X128625587Y-90532834D01*
X128625589Y-90532832D01*
X128709526Y-90407211D01*
X128723980Y-90334547D01*
X128739001Y-90259031D01*
X128739001Y-90259028D01*
X128748952Y-90209000D01*
X128739001Y-90158972D01*
X128739001Y-87795226D01*
X128748952Y-87745198D01*
X128739001Y-87695168D01*
X128739001Y-87695167D01*
X128709526Y-87546987D01*
X128597248Y-87378952D01*
X128554834Y-87350612D01*
X127708872Y-86504650D01*
X127786577Y-86575041D01*
X128174961Y-86735904D01*
X128397000Y-86613915D01*
X128397000Y-85471000D01*
X128651000Y-85471000D01*
X128651000Y-86613915D01*
X128873039Y-86735904D01*
X129261423Y-86575041D01*
X129676389Y-86199134D01*
X129915914Y-85693041D01*
X130434086Y-85693041D01*
X130673611Y-86199134D01*
X131088577Y-86575041D01*
X131476961Y-86735904D01*
X131699000Y-86613915D01*
X131699000Y-85471000D01*
X130555371Y-85471000D01*
X130434086Y-85693041D01*
X129915914Y-85693041D01*
X129794629Y-85471000D01*
X128651000Y-85471000D01*
X128397000Y-85471000D01*
X127253371Y-85471000D01*
X127132086Y-85693041D01*
X127343086Y-86138864D01*
X126834999Y-85630777D01*
X126834999Y-84994959D01*
X127132086Y-84994959D01*
X127253371Y-85217000D01*
X128397000Y-85217000D01*
X128397000Y-84074085D01*
X128651000Y-84074085D01*
X128651000Y-85217000D01*
X129794629Y-85217000D01*
X129915914Y-84994959D01*
X130434086Y-84994959D01*
X130555371Y-85217000D01*
X131699000Y-85217000D01*
X131699000Y-84074085D01*
X131476961Y-83952096D01*
X131088577Y-84112959D01*
X130673611Y-84488866D01*
X130434086Y-84994959D01*
X129915914Y-84994959D01*
X129676389Y-84488866D01*
X129261423Y-84112959D01*
X128873039Y-83952096D01*
X128651000Y-84074085D01*
X128397000Y-84074085D01*
X128174961Y-83952096D01*
X127786577Y-84112959D01*
X127371611Y-84488866D01*
X127132086Y-84994959D01*
X126834999Y-84994959D01*
X126834999Y-77489085D01*
X127343000Y-77489085D01*
X127343000Y-77958915D01*
X127522797Y-78392983D01*
X127855017Y-78725203D01*
X128289085Y-78905000D01*
X128758915Y-78905000D01*
X129192983Y-78725203D01*
X129525203Y-78392983D01*
X129705000Y-77958915D01*
X129705000Y-77489085D01*
X129525203Y-77055017D01*
X129192983Y-76722797D01*
X128758915Y-76543000D01*
X128289085Y-76543000D01*
X127855017Y-76722797D01*
X127522797Y-77055017D01*
X127343000Y-77489085D01*
X126834999Y-77489085D01*
X126834999Y-76168589D01*
X127158959Y-76321914D01*
X127381000Y-76200629D01*
X127381000Y-75057000D01*
X127635000Y-75057000D01*
X127635000Y-76200629D01*
X127857041Y-76321914D01*
X128363134Y-76082389D01*
X128739041Y-75667423D01*
X128899904Y-75279039D01*
X128777915Y-75057000D01*
X127635000Y-75057000D01*
X127381000Y-75057000D01*
X127361000Y-75057000D01*
X127361000Y-74803000D01*
X127381000Y-74803000D01*
X127381000Y-73659371D01*
X127635000Y-73659371D01*
X127635000Y-74803000D01*
X128777915Y-74803000D01*
X128899904Y-74580961D01*
X128739041Y-74192577D01*
X128363134Y-73777611D01*
X127857041Y-73538086D01*
X127635000Y-73659371D01*
X127381000Y-73659371D01*
X127158959Y-73538086D01*
X126834999Y-73691411D01*
X126834999Y-72625185D01*
X126839017Y-72629203D01*
X127273085Y-72809000D01*
X127742915Y-72809000D01*
X128176983Y-72629203D01*
X128509203Y-72296983D01*
X128689000Y-71862915D01*
X128689000Y-71393085D01*
X128509203Y-70959017D01*
X128176983Y-70626797D01*
X128016000Y-70560116D01*
X128016000Y-66346538D01*
X131696144Y-62666394D01*
X131777836Y-62863617D01*
X132003265Y-62913130D01*
X132686395Y-62230000D01*
X132672253Y-62215858D01*
X132851858Y-62036253D01*
X132866000Y-62050395D01*
X132880143Y-62036253D01*
X133059748Y-62215858D01*
X133045605Y-62230000D01*
X133059748Y-62244143D01*
X132880143Y-62423748D01*
X132866000Y-62409605D01*
X132182870Y-63092735D01*
X132232383Y-63318164D01*
X132697036Y-63477807D01*
X133187413Y-63447482D01*
X133451600Y-63338053D01*
X133451601Y-65957623D01*
X133341314Y-66031314D01*
X133257106Y-66157341D01*
X133227536Y-66306000D01*
X133227536Y-67806000D01*
X133257106Y-67954659D01*
X133341314Y-68080686D01*
X133467341Y-68164894D01*
X133616000Y-68194464D01*
X135116000Y-68194464D01*
X135264659Y-68164894D01*
X135390686Y-68080686D01*
X135474894Y-67954659D01*
X135504464Y-67806000D01*
X135504464Y-66306000D01*
X135474894Y-66157341D01*
X135390686Y-66031314D01*
X135280400Y-65957624D01*
X135280400Y-63045249D01*
X135324894Y-62978659D01*
X135354464Y-62830000D01*
X135354464Y-61630000D01*
X135335997Y-61537159D01*
X136014757Y-60858400D01*
X144419536Y-60858400D01*
X144419536Y-61694000D01*
X144419536Y-61694000D01*
G37*
X144419536Y-61694000D02*
X144449106Y-61842659D01*
X144533314Y-61968686D01*
X144659341Y-62052894D01*
X144808000Y-62082464D01*
X145643601Y-62082464D01*
X145643601Y-62670737D01*
X145625686Y-62760800D01*
X145691713Y-63092735D01*
X145696655Y-63117581D01*
X145898755Y-63420046D01*
X145975106Y-63471062D01*
X148945600Y-66441557D01*
X148945601Y-72836681D01*
X143962515Y-67853595D01*
X144145000Y-67764594D01*
X144145000Y-66421000D01*
X144399000Y-66421000D01*
X144399000Y-67764594D01*
X144644980Y-67884563D01*
X145138924Y-67669973D01*
X145581318Y-67237091D01*
X145824380Y-66667864D01*
X145697572Y-66421000D01*
X144399000Y-66421000D01*
X144145000Y-66421000D01*
X144125000Y-66421000D01*
X144125000Y-66167000D01*
X144145000Y-66167000D01*
X144145000Y-64823406D01*
X144399000Y-64823406D01*
X144399000Y-66167000D01*
X145697572Y-66167000D01*
X145824380Y-65920136D01*
X145581318Y-65350909D01*
X145138924Y-64918027D01*
X144644980Y-64703437D01*
X144399000Y-64823406D01*
X144145000Y-64823406D01*
X143899020Y-64703437D01*
X143405076Y-64918027D01*
X142962682Y-65350909D01*
X142874835Y-65556638D01*
X142693398Y-65285101D01*
X142252305Y-64990371D01*
X141732000Y-64886876D01*
X141211694Y-64990371D01*
X140770601Y-65285102D01*
X140532964Y-65640750D01*
X140532964Y-65294000D01*
X140503394Y-65145341D01*
X140419186Y-65019314D01*
X140293159Y-64935106D01*
X140144500Y-64905536D01*
X138239500Y-64905536D01*
X138090841Y-64935106D01*
X137964814Y-65019314D01*
X137880606Y-65145341D01*
X137851036Y-65294000D01*
X137851036Y-67294000D01*
X137880606Y-67442659D01*
X137964814Y-67568686D01*
X138090841Y-67652894D01*
X138239500Y-67682464D01*
X139672615Y-67682464D01*
X137026655Y-70328425D01*
X136984243Y-70356764D01*
X136955904Y-70399176D01*
X136955901Y-70399179D01*
X136871964Y-70524800D01*
X136832538Y-70723011D01*
X136842490Y-70773044D01*
X136842490Y-75926070D01*
X136242318Y-75325898D01*
X136309000Y-75164915D01*
X136309000Y-74695085D01*
X136129203Y-74261017D01*
X135796983Y-73928797D01*
X135362915Y-73749000D01*
X134893085Y-73749000D01*
X134459017Y-73928797D01*
X134126797Y-74261017D01*
X133947000Y-74695085D01*
X133947000Y-75164915D01*
X134126797Y-75598983D01*
X134459017Y-75931203D01*
X134893085Y-76111000D01*
X135362915Y-76111000D01*
X135523898Y-76044318D01*
X136334479Y-76854899D01*
X136334479Y-79084459D01*
X136319206Y-79069186D01*
X136204926Y-79183466D01*
X136106264Y-78916613D01*
X135496539Y-78690092D01*
X134846540Y-78714144D01*
X134357736Y-78916613D01*
X134259073Y-79183468D01*
X135232000Y-80156395D01*
X135246143Y-80142253D01*
X135425748Y-80321858D01*
X135411605Y-80336000D01*
X135425748Y-80350143D01*
X135246143Y-80529748D01*
X135232000Y-80515605D01*
X134259073Y-81488532D01*
X134357736Y-81755387D01*
X134967461Y-81981908D01*
X135617460Y-81957856D01*
X136106264Y-81755387D01*
X136204926Y-81488534D01*
X136319206Y-81602814D01*
X136334479Y-81587541D01*
X136334479Y-83985451D01*
X136014273Y-83665245D01*
X135506698Y-83455000D01*
X134957302Y-83455000D01*
X134449727Y-83665245D01*
X134061245Y-84053727D01*
X133851000Y-84561302D01*
X133851000Y-85110698D01*
X134061245Y-85618273D01*
X134112001Y-85669029D01*
X134112000Y-87457536D01*
X133820000Y-87457536D01*
X133671341Y-87487106D01*
X133545314Y-87571314D01*
X133515001Y-87616681D01*
X133515001Y-80071461D01*
X133586092Y-80071461D01*
X133610144Y-80721460D01*
X133812613Y-81210264D01*
X134079468Y-81308927D01*
X135052395Y-80336000D01*
X134079468Y-79363073D01*
X133812613Y-79461736D01*
X133586092Y-80071461D01*
X133515001Y-80071461D01*
X133515001Y-74606910D01*
X133524952Y-74556882D01*
X133515001Y-74506854D01*
X133515001Y-74506851D01*
X133485526Y-74358671D01*
X133401589Y-74233050D01*
X133401587Y-74233048D01*
X133373248Y-74190636D01*
X133330836Y-74162297D01*
X131145578Y-71977039D01*
X133736096Y-71977039D01*
X133896959Y-72365423D01*
X134272866Y-72780389D01*
X134778959Y-73019914D01*
X135001000Y-72898629D01*
X135001000Y-71755000D01*
X135255000Y-71755000D01*
X135255000Y-72898629D01*
X135477041Y-73019914D01*
X135983134Y-72780389D01*
X136359041Y-72365423D01*
X136519904Y-71977039D01*
X136397915Y-71755000D01*
X135255000Y-71755000D01*
X135001000Y-71755000D01*
X133858085Y-71755000D01*
X133736096Y-71977039D01*
X131145578Y-71977039D01*
X130447500Y-71278961D01*
X133736096Y-71278961D01*
X133858085Y-71501000D01*
X135001000Y-71501000D01*
X135001000Y-70357371D01*
X135255000Y-70357371D01*
X135255000Y-71501000D01*
X136397915Y-71501000D01*
X136519904Y-71278961D01*
X136359041Y-70890577D01*
X135983134Y-70475611D01*
X135477041Y-70236086D01*
X135255000Y-70357371D01*
X135001000Y-70357371D01*
X134778959Y-70236086D01*
X134272866Y-70475611D01*
X133896959Y-70890577D01*
X133736096Y-71278961D01*
X130447500Y-71278961D01*
X129794000Y-70625462D01*
X129794000Y-68069765D01*
X129895996Y-68027517D01*
X131034088Y-68027517D01*
X131102077Y-68268460D01*
X131621171Y-68453201D01*
X132171448Y-68425230D01*
X132549923Y-68268460D01*
X132617912Y-68027517D01*
X131826000Y-67235605D01*
X131034088Y-68027517D01*
X129895996Y-68027517D01*
X129926660Y-68014816D01*
X130244816Y-67696660D01*
X130417000Y-67280970D01*
X130417000Y-66851171D01*
X130428799Y-66851171D01*
X130456770Y-67401448D01*
X130613540Y-67779923D01*
X130854483Y-67847912D01*
X131646395Y-67056000D01*
X132005605Y-67056000D01*
X132797517Y-67847912D01*
X133038460Y-67779923D01*
X133223201Y-67260829D01*
X133195230Y-66710552D01*
X133038460Y-66332077D01*
X132797517Y-66264088D01*
X132005605Y-67056000D01*
X131646395Y-67056000D01*
X130854483Y-66264088D01*
X130613540Y-66332077D01*
X130428799Y-66851171D01*
X130417000Y-66851171D01*
X130417000Y-66831030D01*
X130244816Y-66415340D01*
X129926660Y-66097184D01*
X129895997Y-66084483D01*
X131034088Y-66084483D01*
X131826000Y-66876395D01*
X132617912Y-66084483D01*
X132549923Y-65843540D01*
X132030829Y-65658799D01*
X131480552Y-65686770D01*
X131102077Y-65843540D01*
X131034088Y-66084483D01*
X129895997Y-66084483D01*
X129510970Y-65925000D01*
X129061030Y-65925000D01*
X128645340Y-66097184D01*
X128327184Y-66415340D01*
X128155000Y-66831030D01*
X128155000Y-67280970D01*
X128327184Y-67696660D01*
X128645340Y-68014816D01*
X128778001Y-68069766D01*
X128778000Y-70785854D01*
X128768049Y-70835882D01*
X128778000Y-70885910D01*
X128778000Y-70885913D01*
X128803594Y-71014582D01*
X128807475Y-71034093D01*
X128889966Y-71157549D01*
X128919753Y-71202129D01*
X128962168Y-71230470D01*
X132499002Y-74767305D01*
X132499002Y-76726816D01*
X132494983Y-76722797D01*
X132060915Y-76543000D01*
X131591085Y-76543000D01*
X131157017Y-76722797D01*
X130824797Y-77055017D01*
X130645000Y-77489085D01*
X130645000Y-77958915D01*
X130824797Y-78392983D01*
X131157017Y-78725203D01*
X131591085Y-78905000D01*
X132060915Y-78905000D01*
X132494983Y-78725203D01*
X132499002Y-78721184D01*
X132499002Y-84086277D01*
X132175039Y-83952096D01*
X131953000Y-84074085D01*
X131953000Y-85217000D01*
X131973000Y-85217000D01*
X131973000Y-85471000D01*
X131953000Y-85471000D01*
X131953000Y-86613915D01*
X132175039Y-86735904D01*
X132499002Y-86601723D01*
X132499001Y-102222973D01*
X132489050Y-102273001D01*
X132499001Y-102323029D01*
X132499001Y-102323032D01*
X132528476Y-102471212D01*
X132640754Y-102639248D01*
X132683169Y-102667589D01*
X133496448Y-103480869D01*
X133415863Y-103886000D01*
X133507522Y-104346803D01*
X133649309Y-104559001D01*
X130677422Y-104559001D01*
X128166072Y-102047652D01*
X128255116Y-101600000D01*
X128159576Y-101119688D01*
X127887501Y-100712499D01*
X127480312Y-100440424D01*
X127121239Y-100369000D01*
X126878761Y-100369000D01*
X126519688Y-100440424D01*
X126123700Y-100705015D01*
X126123700Y-99954985D01*
X126519688Y-100219576D01*
X126878761Y-100291000D01*
X127121239Y-100291000D01*
X127480312Y-100219576D01*
X127887501Y-99947501D01*
X128159576Y-99540312D01*
X128255116Y-99060000D01*
X128159576Y-98579688D01*
X127887501Y-98172499D01*
X127483037Y-97902245D01*
X127881358Y-97715183D01*
X128271645Y-97286924D01*
X128441476Y-96876890D01*
X128320155Y-96647000D01*
X127127000Y-96647000D01*
X127127000Y-96667000D01*
X126873000Y-96667000D01*
X126873000Y-96647000D01*
X126853000Y-96647000D01*
X126853000Y-96393000D01*
X126873000Y-96393000D01*
X126873000Y-96373000D01*
X127127000Y-96373000D01*
X127127000Y-96393000D01*
X128320155Y-96393000D01*
X128441476Y-96163110D01*
X128271645Y-95753076D01*
X127881358Y-95324817D01*
X127483037Y-95137755D01*
X127887501Y-94867501D01*
X128159576Y-94460312D01*
X128255116Y-93980000D01*
X128159576Y-93499688D01*
X127887501Y-93092499D01*
X127480312Y-92820424D01*
X127121239Y-92749000D01*
X126878761Y-92749000D01*
X126519688Y-92820424D01*
X126123700Y-93085015D01*
X126123700Y-92334985D01*
X126519688Y-92599576D01*
X126878761Y-92671000D01*
X127121239Y-92671000D01*
X127480312Y-92599576D01*
X127887501Y-92327501D01*
X128159576Y-91920312D01*
X128255116Y-91440000D01*
X128166073Y-90992348D01*
X128244587Y-90913834D01*
X128244589Y-90913831D01*
X128554836Y-90603585D01*
X128597248Y-90575246D01*
X128625587Y-90532834D01*
X128625589Y-90532832D01*
X128709526Y-90407211D01*
X128723980Y-90334547D01*
X128739001Y-90259031D01*
X128739001Y-90259028D01*
X128748952Y-90209000D01*
X128739001Y-90158972D01*
X128739001Y-87795226D01*
X128748952Y-87745198D01*
X128739001Y-87695168D01*
X128739001Y-87695167D01*
X128709526Y-87546987D01*
X128597248Y-87378952D01*
X128554834Y-87350612D01*
X127708872Y-86504650D01*
X127786577Y-86575041D01*
X128174961Y-86735904D01*
X128397000Y-86613915D01*
X128397000Y-85471000D01*
X128651000Y-85471000D01*
X128651000Y-86613915D01*
X128873039Y-86735904D01*
X129261423Y-86575041D01*
X129676389Y-86199134D01*
X129915914Y-85693041D01*
X130434086Y-85693041D01*
X130673611Y-86199134D01*
X131088577Y-86575041D01*
X131476961Y-86735904D01*
X131699000Y-86613915D01*
X131699000Y-85471000D01*
X130555371Y-85471000D01*
X130434086Y-85693041D01*
X129915914Y-85693041D01*
X129794629Y-85471000D01*
X128651000Y-85471000D01*
X128397000Y-85471000D01*
X127253371Y-85471000D01*
X127132086Y-85693041D01*
X127343086Y-86138864D01*
X126834999Y-85630777D01*
X126834999Y-84994959D01*
X127132086Y-84994959D01*
X127253371Y-85217000D01*
X128397000Y-85217000D01*
X128397000Y-84074085D01*
X128651000Y-84074085D01*
X128651000Y-85217000D01*
X129794629Y-85217000D01*
X129915914Y-84994959D01*
X130434086Y-84994959D01*
X130555371Y-85217000D01*
X131699000Y-85217000D01*
X131699000Y-84074085D01*
X131476961Y-83952096D01*
X131088577Y-84112959D01*
X130673611Y-84488866D01*
X130434086Y-84994959D01*
X129915914Y-84994959D01*
X129676389Y-84488866D01*
X129261423Y-84112959D01*
X128873039Y-83952096D01*
X128651000Y-84074085D01*
X128397000Y-84074085D01*
X128174961Y-83952096D01*
X127786577Y-84112959D01*
X127371611Y-84488866D01*
X127132086Y-84994959D01*
X126834999Y-84994959D01*
X126834999Y-77489085D01*
X127343000Y-77489085D01*
X127343000Y-77958915D01*
X127522797Y-78392983D01*
X127855017Y-78725203D01*
X128289085Y-78905000D01*
X128758915Y-78905000D01*
X129192983Y-78725203D01*
X129525203Y-78392983D01*
X129705000Y-77958915D01*
X129705000Y-77489085D01*
X129525203Y-77055017D01*
X129192983Y-76722797D01*
X128758915Y-76543000D01*
X128289085Y-76543000D01*
X127855017Y-76722797D01*
X127522797Y-77055017D01*
X127343000Y-77489085D01*
X126834999Y-77489085D01*
X126834999Y-76168589D01*
X127158959Y-76321914D01*
X127381000Y-76200629D01*
X127381000Y-75057000D01*
X127635000Y-75057000D01*
X127635000Y-76200629D01*
X127857041Y-76321914D01*
X128363134Y-76082389D01*
X128739041Y-75667423D01*
X128899904Y-75279039D01*
X128777915Y-75057000D01*
X127635000Y-75057000D01*
X127381000Y-75057000D01*
X127361000Y-75057000D01*
X127361000Y-74803000D01*
X127381000Y-74803000D01*
X127381000Y-73659371D01*
X127635000Y-73659371D01*
X127635000Y-74803000D01*
X128777915Y-74803000D01*
X128899904Y-74580961D01*
X128739041Y-74192577D01*
X128363134Y-73777611D01*
X127857041Y-73538086D01*
X127635000Y-73659371D01*
X127381000Y-73659371D01*
X127158959Y-73538086D01*
X126834999Y-73691411D01*
X126834999Y-72625185D01*
X126839017Y-72629203D01*
X127273085Y-72809000D01*
X127742915Y-72809000D01*
X128176983Y-72629203D01*
X128509203Y-72296983D01*
X128689000Y-71862915D01*
X128689000Y-71393085D01*
X128509203Y-70959017D01*
X128176983Y-70626797D01*
X128016000Y-70560116D01*
X128016000Y-66346538D01*
X131696144Y-62666394D01*
X131777836Y-62863617D01*
X132003265Y-62913130D01*
X132686395Y-62230000D01*
X132672253Y-62215858D01*
X132851858Y-62036253D01*
X132866000Y-62050395D01*
X132880143Y-62036253D01*
X133059748Y-62215858D01*
X133045605Y-62230000D01*
X133059748Y-62244143D01*
X132880143Y-62423748D01*
X132866000Y-62409605D01*
X132182870Y-63092735D01*
X132232383Y-63318164D01*
X132697036Y-63477807D01*
X133187413Y-63447482D01*
X133451600Y-63338053D01*
X133451601Y-65957623D01*
X133341314Y-66031314D01*
X133257106Y-66157341D01*
X133227536Y-66306000D01*
X133227536Y-67806000D01*
X133257106Y-67954659D01*
X133341314Y-68080686D01*
X133467341Y-68164894D01*
X133616000Y-68194464D01*
X135116000Y-68194464D01*
X135264659Y-68164894D01*
X135390686Y-68080686D01*
X135474894Y-67954659D01*
X135504464Y-67806000D01*
X135504464Y-66306000D01*
X135474894Y-66157341D01*
X135390686Y-66031314D01*
X135280400Y-65957624D01*
X135280400Y-63045249D01*
X135324894Y-62978659D01*
X135354464Y-62830000D01*
X135354464Y-61630000D01*
X135335997Y-61537159D01*
X136014757Y-60858400D01*
X144419536Y-60858400D01*
X144419536Y-61694000D01*
G36*
X148120999Y-81813537D02*
X148121000Y-82538967D01*
X148111048Y-82588999D01*
X148150474Y-82787210D01*
X148234411Y-82912831D01*
X148234414Y-82912834D01*
X148262753Y-82955246D01*
X148305164Y-82983585D01*
X148686168Y-83364589D01*
X148686171Y-83364591D01*
X148693928Y-83372348D01*
X148604884Y-83820000D01*
X148700424Y-84300312D01*
X148972499Y-84707501D01*
X149379688Y-84979576D01*
X149738761Y-85051000D01*
X149981239Y-85051000D01*
X150340312Y-84979576D01*
X150736300Y-84714985D01*
X150736300Y-87666767D01*
X150710000Y-87661536D01*
X149010000Y-87661536D01*
X148861341Y-87691106D01*
X148735314Y-87775314D01*
X148651106Y-87901341D01*
X148621536Y-88050000D01*
X148621536Y-89750000D01*
X148651106Y-89898659D01*
X148735314Y-90024686D01*
X148861341Y-90108894D01*
X149010000Y-90138464D01*
X149205105Y-90138464D01*
X148978642Y-90244817D01*
X148588355Y-90673076D01*
X148418524Y-91083110D01*
X148539845Y-91313000D01*
X149733000Y-91313000D01*
X149733000Y-91293000D01*
X149987000Y-91293000D01*
X149987000Y-91313000D01*
X150007000Y-91313000D01*
X150007000Y-91567000D01*
X149987000Y-91567000D01*
X149987000Y-91587000D01*
X149733000Y-91587000D01*
X149733000Y-91567000D01*
X148539845Y-91567000D01*
X148418524Y-91796890D01*
X148588355Y-92206924D01*
X148978642Y-92635183D01*
X149376963Y-92822245D01*
X148972499Y-93092499D01*
X148700424Y-93499688D01*
X148604884Y-93980000D01*
X148700424Y-94460312D01*
X148972499Y-94867501D01*
X149379688Y-95139576D01*
X149738761Y-95211000D01*
X149981239Y-95211000D01*
X150340312Y-95139576D01*
X150736300Y-94874985D01*
X150736300Y-95625015D01*
X150340312Y-95360424D01*
X149981239Y-95289000D01*
X149738761Y-95289000D01*
X149412348Y-95353927D01*
X147574000Y-93515580D01*
X147574000Y-87710146D01*
X147583951Y-87660118D01*
X147574000Y-87610090D01*
X147574000Y-87610086D01*
X147544525Y-87461906D01*
X147489097Y-87378952D01*
X147460588Y-87336285D01*
X147460586Y-87336283D01*
X147432247Y-87293871D01*
X147389836Y-87265533D01*
X145796000Y-85671698D01*
X145796000Y-81077884D01*
X145956983Y-81011203D01*
X146289203Y-80678983D01*
X146469000Y-80244915D01*
X146469000Y-80161538D01*
X148120999Y-81813537D01*
X148120999Y-81813537D01*
G37*
X148120999Y-81813537D02*
X148121000Y-82538967D01*
X148111048Y-82588999D01*
X148150474Y-82787210D01*
X148234411Y-82912831D01*
X148234414Y-82912834D01*
X148262753Y-82955246D01*
X148305164Y-82983585D01*
X148686168Y-83364589D01*
X148686171Y-83364591D01*
X148693928Y-83372348D01*
X148604884Y-83820000D01*
X148700424Y-84300312D01*
X148972499Y-84707501D01*
X149379688Y-84979576D01*
X149738761Y-85051000D01*
X149981239Y-85051000D01*
X150340312Y-84979576D01*
X150736300Y-84714985D01*
X150736300Y-87666767D01*
X150710000Y-87661536D01*
X149010000Y-87661536D01*
X148861341Y-87691106D01*
X148735314Y-87775314D01*
X148651106Y-87901341D01*
X148621536Y-88050000D01*
X148621536Y-89750000D01*
X148651106Y-89898659D01*
X148735314Y-90024686D01*
X148861341Y-90108894D01*
X149010000Y-90138464D01*
X149205105Y-90138464D01*
X148978642Y-90244817D01*
X148588355Y-90673076D01*
X148418524Y-91083110D01*
X148539845Y-91313000D01*
X149733000Y-91313000D01*
X149733000Y-91293000D01*
X149987000Y-91293000D01*
X149987000Y-91313000D01*
X150007000Y-91313000D01*
X150007000Y-91567000D01*
X149987000Y-91567000D01*
X149987000Y-91587000D01*
X149733000Y-91587000D01*
X149733000Y-91567000D01*
X148539845Y-91567000D01*
X148418524Y-91796890D01*
X148588355Y-92206924D01*
X148978642Y-92635183D01*
X149376963Y-92822245D01*
X148972499Y-93092499D01*
X148700424Y-93499688D01*
X148604884Y-93980000D01*
X148700424Y-94460312D01*
X148972499Y-94867501D01*
X149379688Y-95139576D01*
X149738761Y-95211000D01*
X149981239Y-95211000D01*
X150340312Y-95139576D01*
X150736300Y-94874985D01*
X150736300Y-95625015D01*
X150340312Y-95360424D01*
X149981239Y-95289000D01*
X149738761Y-95289000D01*
X149412348Y-95353927D01*
X147574000Y-93515580D01*
X147574000Y-87710146D01*
X147583951Y-87660118D01*
X147574000Y-87610090D01*
X147574000Y-87610086D01*
X147544525Y-87461906D01*
X147489097Y-87378952D01*
X147460588Y-87336285D01*
X147460586Y-87336283D01*
X147432247Y-87293871D01*
X147389836Y-87265533D01*
X145796000Y-85671698D01*
X145796000Y-81077884D01*
X145956983Y-81011203D01*
X146289203Y-80678983D01*
X146469000Y-80244915D01*
X146469000Y-80161538D01*
X148120999Y-81813537D01*
G36*
X144759091Y-75421012D02*
X144644980Y-75371437D01*
X144399000Y-75491406D01*
X144399000Y-76835000D01*
X145697572Y-76835000D01*
X145824380Y-76588136D01*
X145748491Y-76410412D01*
X147526500Y-78188421D01*
X147526501Y-79404467D01*
X147516549Y-79454500D01*
X147555975Y-79652711D01*
X147639912Y-79778332D01*
X147639915Y-79778335D01*
X147668254Y-79820747D01*
X147710666Y-79849086D01*
X148686168Y-80824589D01*
X148686171Y-80824591D01*
X148693928Y-80832348D01*
X148674470Y-80930168D01*
X146249468Y-78505166D01*
X146221128Y-78462752D01*
X146053093Y-78350474D01*
X145904913Y-78320999D01*
X145904909Y-78320999D01*
X145854881Y-78311048D01*
X145804853Y-78320999D01*
X145156271Y-78320999D01*
X145581318Y-77905091D01*
X145824380Y-77335864D01*
X145697572Y-77089000D01*
X144399000Y-77089000D01*
X144399000Y-77109000D01*
X144145000Y-77109000D01*
X144145000Y-77089000D01*
X144125000Y-77089000D01*
X144125000Y-76835000D01*
X144145000Y-76835000D01*
X144145000Y-75491406D01*
X143899020Y-75371437D01*
X143405076Y-75586027D01*
X142962682Y-76018909D01*
X142874835Y-76224638D01*
X142693398Y-75953101D01*
X142252305Y-75658371D01*
X141732000Y-75554876D01*
X141211694Y-75658371D01*
X140770601Y-75953102D01*
X140532964Y-76308750D01*
X140532964Y-75962000D01*
X140503394Y-75813341D01*
X140419186Y-75687314D01*
X140293159Y-75603106D01*
X140144500Y-75573536D01*
X138552384Y-75573536D01*
X141201263Y-72924658D01*
X141211695Y-72931629D01*
X141732000Y-73035124D01*
X142252306Y-72931629D01*
X142262738Y-72924658D01*
X144759091Y-75421012D01*
X144759091Y-75421012D01*
G37*
X144759091Y-75421012D02*
X144644980Y-75371437D01*
X144399000Y-75491406D01*
X144399000Y-76835000D01*
X145697572Y-76835000D01*
X145824380Y-76588136D01*
X145748491Y-76410412D01*
X147526500Y-78188421D01*
X147526501Y-79404467D01*
X147516549Y-79454500D01*
X147555975Y-79652711D01*
X147639912Y-79778332D01*
X147639915Y-79778335D01*
X147668254Y-79820747D01*
X147710666Y-79849086D01*
X148686168Y-80824589D01*
X148686171Y-80824591D01*
X148693928Y-80832348D01*
X148674470Y-80930168D01*
X146249468Y-78505166D01*
X146221128Y-78462752D01*
X146053093Y-78350474D01*
X145904913Y-78320999D01*
X145904909Y-78320999D01*
X145854881Y-78311048D01*
X145804853Y-78320999D01*
X145156271Y-78320999D01*
X145581318Y-77905091D01*
X145824380Y-77335864D01*
X145697572Y-77089000D01*
X144399000Y-77089000D01*
X144399000Y-77109000D01*
X144145000Y-77109000D01*
X144145000Y-77089000D01*
X144125000Y-77089000D01*
X144125000Y-76835000D01*
X144145000Y-76835000D01*
X144145000Y-75491406D01*
X143899020Y-75371437D01*
X143405076Y-75586027D01*
X142962682Y-76018909D01*
X142874835Y-76224638D01*
X142693398Y-75953101D01*
X142252305Y-75658371D01*
X141732000Y-75554876D01*
X141211694Y-75658371D01*
X140770601Y-75953102D01*
X140532964Y-76308750D01*
X140532964Y-75962000D01*
X140503394Y-75813341D01*
X140419186Y-75687314D01*
X140293159Y-75603106D01*
X140144500Y-75573536D01*
X138552384Y-75573536D01*
X141201263Y-72924658D01*
X141211695Y-72931629D01*
X141732000Y-73035124D01*
X142252306Y-72931629D01*
X142262738Y-72924658D01*
X144759091Y-75421012D01*
G36*
X144759092Y-70087012D02*
X144644980Y-70037437D01*
X144399000Y-70157406D01*
X144399000Y-71501000D01*
X145697572Y-71501000D01*
X145824380Y-71254136D01*
X145748491Y-71076411D01*
X148120999Y-73448919D01*
X148121000Y-77346079D01*
X143962515Y-73187595D01*
X144145000Y-73098594D01*
X144145000Y-71755000D01*
X144399000Y-71755000D01*
X144399000Y-73098594D01*
X144644980Y-73218563D01*
X145138924Y-73003973D01*
X145581318Y-72571091D01*
X145824380Y-72001864D01*
X145697572Y-71755000D01*
X144399000Y-71755000D01*
X144145000Y-71755000D01*
X144125000Y-71755000D01*
X144125000Y-71501000D01*
X144145000Y-71501000D01*
X144145000Y-70157406D01*
X143899020Y-70037437D01*
X143405076Y-70252027D01*
X142962682Y-70684909D01*
X142874835Y-70890638D01*
X142693398Y-70619101D01*
X142252305Y-70324371D01*
X141732000Y-70220876D01*
X141211694Y-70324371D01*
X140770601Y-70619102D01*
X140532964Y-70974750D01*
X140532964Y-70628000D01*
X140503394Y-70479341D01*
X140419186Y-70353314D01*
X140293159Y-70269106D01*
X140144500Y-70239536D01*
X138552384Y-70239536D01*
X141201263Y-67590658D01*
X141211695Y-67597629D01*
X141732000Y-67701124D01*
X142252306Y-67597629D01*
X142262738Y-67590658D01*
X144759092Y-70087012D01*
X144759092Y-70087012D01*
G37*
X144759092Y-70087012D02*
X144644980Y-70037437D01*
X144399000Y-70157406D01*
X144399000Y-71501000D01*
X145697572Y-71501000D01*
X145824380Y-71254136D01*
X145748491Y-71076411D01*
X148120999Y-73448919D01*
X148121000Y-77346079D01*
X143962515Y-73187595D01*
X144145000Y-73098594D01*
X144145000Y-71755000D01*
X144399000Y-71755000D01*
X144399000Y-73098594D01*
X144644980Y-73218563D01*
X145138924Y-73003973D01*
X145581318Y-72571091D01*
X145824380Y-72001864D01*
X145697572Y-71755000D01*
X144399000Y-71755000D01*
X144145000Y-71755000D01*
X144125000Y-71755000D01*
X144125000Y-71501000D01*
X144145000Y-71501000D01*
X144145000Y-70157406D01*
X143899020Y-70037437D01*
X143405076Y-70252027D01*
X142962682Y-70684909D01*
X142874835Y-70890638D01*
X142693398Y-70619101D01*
X142252305Y-70324371D01*
X141732000Y-70220876D01*
X141211694Y-70324371D01*
X140770601Y-70619102D01*
X140532964Y-70974750D01*
X140532964Y-70628000D01*
X140503394Y-70479341D01*
X140419186Y-70353314D01*
X140293159Y-70269106D01*
X140144500Y-70239536D01*
X138552384Y-70239536D01*
X141201263Y-67590658D01*
X141211695Y-67597629D01*
X141732000Y-67701124D01*
X142252306Y-67597629D01*
X142262738Y-67590658D01*
X144759092Y-70087012D01*
G36*
X147512315Y-51809000D02*
X146843750Y-51809000D01*
X146685000Y-51967750D01*
X146685000Y-53817000D01*
X148784250Y-53817000D01*
X148943000Y-53658250D01*
X148943000Y-52852320D01*
X150736300Y-52852320D01*
X150736300Y-65781199D01*
X150721346Y-65706019D01*
X150519246Y-65403554D01*
X150442896Y-65352539D01*
X147472400Y-62382044D01*
X147472400Y-62082464D01*
X148308000Y-62082464D01*
X148456659Y-62052894D01*
X148582686Y-61968686D01*
X148666894Y-61842659D01*
X148696464Y-61694000D01*
X148696464Y-58194000D01*
X148666894Y-58045341D01*
X148582686Y-57919314D01*
X148456659Y-57835106D01*
X148308000Y-57805536D01*
X144808000Y-57805536D01*
X144659341Y-57835106D01*
X144533314Y-57919314D01*
X144449106Y-58045341D01*
X144419536Y-58194000D01*
X144419536Y-59029600D01*
X142998767Y-59029600D01*
X143216507Y-58986289D01*
X143626404Y-58712404D01*
X143900289Y-58302507D01*
X143996464Y-57819000D01*
X143996464Y-56069000D01*
X143900289Y-55585493D01*
X143626404Y-55175596D01*
X143216507Y-54901711D01*
X142733000Y-54805536D01*
X140983000Y-54805536D01*
X140499493Y-54901711D01*
X140089596Y-55175596D01*
X139815711Y-55585493D01*
X139719536Y-56069000D01*
X139719536Y-57819000D01*
X139815711Y-58302507D01*
X140089596Y-58712404D01*
X140499493Y-58986289D01*
X140717233Y-59029600D01*
X137406820Y-59029600D01*
X137991832Y-58444588D01*
X138034247Y-58416247D01*
X138146525Y-58248212D01*
X138159205Y-58184464D01*
X138568000Y-58184464D01*
X138716659Y-58154894D01*
X138842686Y-58070686D01*
X138926894Y-57944659D01*
X138956464Y-57796000D01*
X138956464Y-55996000D01*
X138926894Y-55847341D01*
X138842686Y-55721314D01*
X138716659Y-55637106D01*
X138568000Y-55607536D01*
X136768000Y-55607536D01*
X136619341Y-55637106D01*
X136493314Y-55721314D01*
X136409106Y-55847341D01*
X136379536Y-55996000D01*
X136379536Y-56570061D01*
X136213979Y-56170372D01*
X135853628Y-55810021D01*
X135636000Y-55719876D01*
X135636000Y-54229750D01*
X144173000Y-54229750D01*
X144173000Y-55570309D01*
X144269673Y-55803698D01*
X144448301Y-55982327D01*
X144681690Y-56079000D01*
X146272250Y-56079000D01*
X146431000Y-55920250D01*
X146431000Y-54071000D01*
X146685000Y-54071000D01*
X146685000Y-55920250D01*
X146843750Y-56079000D01*
X148434310Y-56079000D01*
X148667699Y-55982327D01*
X148846327Y-55803698D01*
X148943000Y-55570309D01*
X148943000Y-54229750D01*
X148784250Y-54071000D01*
X146685000Y-54071000D01*
X146431000Y-54071000D01*
X144331750Y-54071000D01*
X144173000Y-54229750D01*
X135636000Y-54229750D01*
X135636000Y-52317691D01*
X144173000Y-52317691D01*
X144173000Y-53658250D01*
X144331750Y-53817000D01*
X146431000Y-53817000D01*
X146431000Y-51967750D01*
X146272250Y-51809000D01*
X144681690Y-51809000D01*
X144448301Y-51905673D01*
X144269673Y-52084302D01*
X144173000Y-52317691D01*
X135636000Y-52317691D01*
X135636000Y-51495189D01*
X135777755Y-51283037D01*
X135964817Y-51681358D01*
X136393076Y-52071645D01*
X136803110Y-52241476D01*
X137033000Y-52120155D01*
X137033000Y-50927000D01*
X137287000Y-50927000D01*
X137287000Y-52120155D01*
X137516890Y-52241476D01*
X137926924Y-52071645D01*
X138224864Y-51800122D01*
X138311673Y-52009698D01*
X138490301Y-52188327D01*
X138723690Y-52285000D01*
X139414250Y-52285000D01*
X139573000Y-52126250D01*
X139573000Y-50927000D01*
X139827000Y-50927000D01*
X139827000Y-52126250D01*
X139985750Y-52285000D01*
X140676310Y-52285000D01*
X140909699Y-52188327D01*
X141088327Y-52009698D01*
X141185000Y-51776309D01*
X141185000Y-51085750D01*
X141026250Y-50927000D01*
X139827000Y-50927000D01*
X139573000Y-50927000D01*
X137287000Y-50927000D01*
X137033000Y-50927000D01*
X137013000Y-50927000D01*
X137013000Y-50673000D01*
X137033000Y-50673000D01*
X137033000Y-50653000D01*
X137287000Y-50653000D01*
X137287000Y-50673000D01*
X139573000Y-50673000D01*
X139573000Y-50653000D01*
X139827000Y-50653000D01*
X139827000Y-50673000D01*
X141026250Y-50673000D01*
X141185000Y-50514250D01*
X141185000Y-49923700D01*
X147512315Y-49923700D01*
X147512315Y-51809000D01*
X147512315Y-51809000D01*
G37*
X147512315Y-51809000D02*
X146843750Y-51809000D01*
X146685000Y-51967750D01*
X146685000Y-53817000D01*
X148784250Y-53817000D01*
X148943000Y-53658250D01*
X148943000Y-52852320D01*
X150736300Y-52852320D01*
X150736300Y-65781199D01*
X150721346Y-65706019D01*
X150519246Y-65403554D01*
X150442896Y-65352539D01*
X147472400Y-62382044D01*
X147472400Y-62082464D01*
X148308000Y-62082464D01*
X148456659Y-62052894D01*
X148582686Y-61968686D01*
X148666894Y-61842659D01*
X148696464Y-61694000D01*
X148696464Y-58194000D01*
X148666894Y-58045341D01*
X148582686Y-57919314D01*
X148456659Y-57835106D01*
X148308000Y-57805536D01*
X144808000Y-57805536D01*
X144659341Y-57835106D01*
X144533314Y-57919314D01*
X144449106Y-58045341D01*
X144419536Y-58194000D01*
X144419536Y-59029600D01*
X142998767Y-59029600D01*
X143216507Y-58986289D01*
X143626404Y-58712404D01*
X143900289Y-58302507D01*
X143996464Y-57819000D01*
X143996464Y-56069000D01*
X143900289Y-55585493D01*
X143626404Y-55175596D01*
X143216507Y-54901711D01*
X142733000Y-54805536D01*
X140983000Y-54805536D01*
X140499493Y-54901711D01*
X140089596Y-55175596D01*
X139815711Y-55585493D01*
X139719536Y-56069000D01*
X139719536Y-57819000D01*
X139815711Y-58302507D01*
X140089596Y-58712404D01*
X140499493Y-58986289D01*
X140717233Y-59029600D01*
X137406820Y-59029600D01*
X137991832Y-58444588D01*
X138034247Y-58416247D01*
X138146525Y-58248212D01*
X138159205Y-58184464D01*
X138568000Y-58184464D01*
X138716659Y-58154894D01*
X138842686Y-58070686D01*
X138926894Y-57944659D01*
X138956464Y-57796000D01*
X138956464Y-55996000D01*
X138926894Y-55847341D01*
X138842686Y-55721314D01*
X138716659Y-55637106D01*
X138568000Y-55607536D01*
X136768000Y-55607536D01*
X136619341Y-55637106D01*
X136493314Y-55721314D01*
X136409106Y-55847341D01*
X136379536Y-55996000D01*
X136379536Y-56570061D01*
X136213979Y-56170372D01*
X135853628Y-55810021D01*
X135636000Y-55719876D01*
X135636000Y-54229750D01*
X144173000Y-54229750D01*
X144173000Y-55570309D01*
X144269673Y-55803698D01*
X144448301Y-55982327D01*
X144681690Y-56079000D01*
X146272250Y-56079000D01*
X146431000Y-55920250D01*
X146431000Y-54071000D01*
X146685000Y-54071000D01*
X146685000Y-55920250D01*
X146843750Y-56079000D01*
X148434310Y-56079000D01*
X148667699Y-55982327D01*
X148846327Y-55803698D01*
X148943000Y-55570309D01*
X148943000Y-54229750D01*
X148784250Y-54071000D01*
X146685000Y-54071000D01*
X146431000Y-54071000D01*
X144331750Y-54071000D01*
X144173000Y-54229750D01*
X135636000Y-54229750D01*
X135636000Y-52317691D01*
X144173000Y-52317691D01*
X144173000Y-53658250D01*
X144331750Y-53817000D01*
X146431000Y-53817000D01*
X146431000Y-51967750D01*
X146272250Y-51809000D01*
X144681690Y-51809000D01*
X144448301Y-51905673D01*
X144269673Y-52084302D01*
X144173000Y-52317691D01*
X135636000Y-52317691D01*
X135636000Y-51495189D01*
X135777755Y-51283037D01*
X135964817Y-51681358D01*
X136393076Y-52071645D01*
X136803110Y-52241476D01*
X137033000Y-52120155D01*
X137033000Y-50927000D01*
X137287000Y-50927000D01*
X137287000Y-52120155D01*
X137516890Y-52241476D01*
X137926924Y-52071645D01*
X138224864Y-51800122D01*
X138311673Y-52009698D01*
X138490301Y-52188327D01*
X138723690Y-52285000D01*
X139414250Y-52285000D01*
X139573000Y-52126250D01*
X139573000Y-50927000D01*
X139827000Y-50927000D01*
X139827000Y-52126250D01*
X139985750Y-52285000D01*
X140676310Y-52285000D01*
X140909699Y-52188327D01*
X141088327Y-52009698D01*
X141185000Y-51776309D01*
X141185000Y-51085750D01*
X141026250Y-50927000D01*
X139827000Y-50927000D01*
X139573000Y-50927000D01*
X137287000Y-50927000D01*
X137033000Y-50927000D01*
X137013000Y-50927000D01*
X137013000Y-50673000D01*
X137033000Y-50673000D01*
X137033000Y-50653000D01*
X137287000Y-50653000D01*
X137287000Y-50673000D01*
X139573000Y-50673000D01*
X139573000Y-50653000D01*
X139827000Y-50653000D01*
X139827000Y-50673000D01*
X141026250Y-50673000D01*
X141185000Y-50514250D01*
X141185000Y-49923700D01*
X147512315Y-49923700D01*
X147512315Y-51809000D01*
G36*
X136379536Y-57796000D02*
X136409106Y-57944659D01*
X136493314Y-58070686D01*
X136619341Y-58154894D01*
X136768000Y-58184464D01*
X136815116Y-58184464D01*
X136579580Y-58420000D01*
X134766145Y-58420000D01*
X134716117Y-58410049D01*
X134666089Y-58420000D01*
X134666086Y-58420000D01*
X134517906Y-58449475D01*
X134392285Y-58533412D01*
X134392283Y-58533414D01*
X134349871Y-58561753D01*
X134321532Y-58604165D01*
X130500948Y-62424750D01*
X130509807Y-62398964D01*
X130479482Y-61908587D01*
X130350164Y-61596383D01*
X130124735Y-61546870D01*
X129441605Y-62230000D01*
X129455748Y-62244143D01*
X129276143Y-62423748D01*
X129262000Y-62409605D01*
X129247858Y-62423748D01*
X129068253Y-62244143D01*
X129082395Y-62230000D01*
X129068253Y-62215858D01*
X129247858Y-62036253D01*
X129262000Y-62050395D01*
X129945130Y-61367265D01*
X129895617Y-61141836D01*
X129430964Y-60982193D01*
X128940587Y-61012518D01*
X128775536Y-61080884D01*
X130890421Y-58965999D01*
X131737973Y-58965999D01*
X131788001Y-58975950D01*
X131838029Y-58965999D01*
X131838033Y-58965999D01*
X131986213Y-58936524D01*
X132154248Y-58824246D01*
X132182589Y-58781831D01*
X132192102Y-58772318D01*
X132353085Y-58839000D01*
X132822915Y-58839000D01*
X133256983Y-58659203D01*
X133589203Y-58326983D01*
X133769000Y-57892915D01*
X133769000Y-57423085D01*
X133761095Y-57404000D01*
X133951876Y-57404000D01*
X134042021Y-57621628D01*
X134402372Y-57981979D01*
X134873193Y-58177000D01*
X135382807Y-58177000D01*
X135853628Y-57981979D01*
X136213979Y-57621628D01*
X136379536Y-57221939D01*
X136379536Y-57796000D01*
X136379536Y-57796000D01*
G37*
X136379536Y-57796000D02*
X136409106Y-57944659D01*
X136493314Y-58070686D01*
X136619341Y-58154894D01*
X136768000Y-58184464D01*
X136815116Y-58184464D01*
X136579580Y-58420000D01*
X134766145Y-58420000D01*
X134716117Y-58410049D01*
X134666089Y-58420000D01*
X134666086Y-58420000D01*
X134517906Y-58449475D01*
X134392285Y-58533412D01*
X134392283Y-58533414D01*
X134349871Y-58561753D01*
X134321532Y-58604165D01*
X130500948Y-62424750D01*
X130509807Y-62398964D01*
X130479482Y-61908587D01*
X130350164Y-61596383D01*
X130124735Y-61546870D01*
X129441605Y-62230000D01*
X129455748Y-62244143D01*
X129276143Y-62423748D01*
X129262000Y-62409605D01*
X129247858Y-62423748D01*
X129068253Y-62244143D01*
X129082395Y-62230000D01*
X129068253Y-62215858D01*
X129247858Y-62036253D01*
X129262000Y-62050395D01*
X129945130Y-61367265D01*
X129895617Y-61141836D01*
X129430964Y-60982193D01*
X128940587Y-61012518D01*
X128775536Y-61080884D01*
X130890421Y-58965999D01*
X131737973Y-58965999D01*
X131788001Y-58975950D01*
X131838029Y-58965999D01*
X131838033Y-58965999D01*
X131986213Y-58936524D01*
X132154248Y-58824246D01*
X132182589Y-58781831D01*
X132192102Y-58772318D01*
X132353085Y-58839000D01*
X132822915Y-58839000D01*
X133256983Y-58659203D01*
X133589203Y-58326983D01*
X133769000Y-57892915D01*
X133769000Y-57423085D01*
X133761095Y-57404000D01*
X133951876Y-57404000D01*
X134042021Y-57621628D01*
X134402372Y-57981979D01*
X134873193Y-58177000D01*
X135382807Y-58177000D01*
X135853628Y-57981979D01*
X136213979Y-57621628D01*
X136379536Y-57221939D01*
X136379536Y-57796000D01*
G36*
X128380424Y-50319688D02*
X128284884Y-50800000D01*
X128380424Y-51280312D01*
X128652499Y-51687501D01*
X129059688Y-51959576D01*
X129418761Y-52031000D01*
X129661239Y-52031000D01*
X130020312Y-51959576D01*
X130427501Y-51687501D01*
X130699576Y-51280312D01*
X130795116Y-50800000D01*
X130699576Y-50319688D01*
X130434985Y-49923700D01*
X131185015Y-49923700D01*
X130920424Y-50319688D01*
X130824884Y-50800000D01*
X130913927Y-51247652D01*
X128531883Y-53629697D01*
X128256983Y-53354797D01*
X127822915Y-53175000D01*
X127353085Y-53175000D01*
X126919017Y-53354797D01*
X126586797Y-53687017D01*
X126407000Y-54121085D01*
X126407000Y-54590915D01*
X126586797Y-55024983D01*
X126919017Y-55357203D01*
X127353085Y-55537000D01*
X127822915Y-55537000D01*
X128256983Y-55357203D01*
X128261001Y-55353185D01*
X128261001Y-56375020D01*
X127804777Y-56211035D01*
X127234546Y-56238222D01*
X126833995Y-56404136D01*
X126759861Y-56650255D01*
X127588000Y-57478395D01*
X127602143Y-57464253D01*
X127781748Y-57643858D01*
X127767605Y-57658000D01*
X127781748Y-57672142D01*
X127602142Y-57851748D01*
X127588000Y-57837605D01*
X126759861Y-58665745D01*
X126833995Y-58911864D01*
X127371223Y-59104965D01*
X127941454Y-59077778D01*
X128261002Y-58945417D01*
X128261002Y-59126776D01*
X126123700Y-61264078D01*
X126123700Y-57441223D01*
X126141035Y-57441223D01*
X126168222Y-58011454D01*
X126334136Y-58412005D01*
X126580255Y-58486139D01*
X127408395Y-57658000D01*
X126580255Y-56829861D01*
X126334136Y-56903995D01*
X126141035Y-57441223D01*
X126123700Y-57441223D01*
X126123700Y-51694985D01*
X126519688Y-51959576D01*
X126878761Y-52031000D01*
X127121239Y-52031000D01*
X127480312Y-51959576D01*
X127887501Y-51687501D01*
X128159576Y-51280312D01*
X128255116Y-50800000D01*
X128159576Y-50319688D01*
X127894985Y-49923700D01*
X128645015Y-49923700D01*
X128380424Y-50319688D01*
X128380424Y-50319688D01*
G37*
X128380424Y-50319688D02*
X128284884Y-50800000D01*
X128380424Y-51280312D01*
X128652499Y-51687501D01*
X129059688Y-51959576D01*
X129418761Y-52031000D01*
X129661239Y-52031000D01*
X130020312Y-51959576D01*
X130427501Y-51687501D01*
X130699576Y-51280312D01*
X130795116Y-50800000D01*
X130699576Y-50319688D01*
X130434985Y-49923700D01*
X131185015Y-49923700D01*
X130920424Y-50319688D01*
X130824884Y-50800000D01*
X130913927Y-51247652D01*
X128531883Y-53629697D01*
X128256983Y-53354797D01*
X127822915Y-53175000D01*
X127353085Y-53175000D01*
X126919017Y-53354797D01*
X126586797Y-53687017D01*
X126407000Y-54121085D01*
X126407000Y-54590915D01*
X126586797Y-55024983D01*
X126919017Y-55357203D01*
X127353085Y-55537000D01*
X127822915Y-55537000D01*
X128256983Y-55357203D01*
X128261001Y-55353185D01*
X128261001Y-56375020D01*
X127804777Y-56211035D01*
X127234546Y-56238222D01*
X126833995Y-56404136D01*
X126759861Y-56650255D01*
X127588000Y-57478395D01*
X127602143Y-57464253D01*
X127781748Y-57643858D01*
X127767605Y-57658000D01*
X127781748Y-57672142D01*
X127602142Y-57851748D01*
X127588000Y-57837605D01*
X126759861Y-58665745D01*
X126833995Y-58911864D01*
X127371223Y-59104965D01*
X127941454Y-59077778D01*
X128261002Y-58945417D01*
X128261002Y-59126776D01*
X126123700Y-61264078D01*
X126123700Y-57441223D01*
X126141035Y-57441223D01*
X126168222Y-58011454D01*
X126334136Y-58412005D01*
X126580255Y-58486139D01*
X127408395Y-57658000D01*
X126580255Y-56829861D01*
X126334136Y-56903995D01*
X126141035Y-57441223D01*
X126123700Y-57441223D01*
X126123700Y-51694985D01*
X126519688Y-51959576D01*
X126878761Y-52031000D01*
X127121239Y-52031000D01*
X127480312Y-51959576D01*
X127887501Y-51687501D01*
X128159576Y-51280312D01*
X128255116Y-50800000D01*
X128159576Y-50319688D01*
X127894985Y-49923700D01*
X128645015Y-49923700D01*
X128380424Y-50319688D01*
G04 #@! TD*
M02*
